<svg width="820" height="820" fill="none" xmlns="http://www.w3.org/2000/svg"><path d="M410 819c225.884 0 409-183.116 409-409S635.884 1 410 1 1 184.116 1 410s183.116 409 409 409z" stroke="#D6D6D6" stroke-miterlimit="10"/><path d="M410 441.461c17.375 0 31.461-14.085 31.461-31.461 0-17.376-14.086-31.462-31.461-31.462-17.376 0-31.462 14.086-31.462 31.462 0 17.376 14.086 31.461 31.462 31.461z" stroke="#D6D6D6" stroke-miterlimit="10"/><path d="M410 472.923c34.751 0 62.923-28.172 62.923-62.923 0-34.752-28.172-62.923-62.923-62.923-34.752 0-62.923 28.171-62.923 62.923 0 34.751 28.171 62.923 62.923 62.923z" stroke="#D6D6D6" stroke-miterlimit="10"/><path d="M503.884 410c0 51.851-42.034 93.885-93.885 93.885-51.851 0-93.884-42.034-93.884-93.885 0-51.851 42.033-93.885 93.884-93.885s93.885 42.034 93.885 93.885z" fill="url(#paint0_linear)" stroke="#D6D6D6"/><path d="M409.999 535.846c69.503 0 125.847-56.343 125.847-125.846s-56.344-125.846-125.847-125.846c-69.502 0-125.846 56.343-125.846 125.846s56.344 125.846 125.846 125.846z" stroke="#D6D6D6" stroke-miterlimit="10"/><path d="M410 567.308c86.878 0 157.307-70.429 157.307-157.308 0-86.879-70.429-157.308-157.307-157.308-86.879 0-157.308 70.429-157.308 157.308 0 86.879 70.429 157.308 157.308 157.308z" stroke="#D6D6D6" stroke-miterlimit="10"/><path d="M410.001 598.769c104.255 0 188.769-84.515 188.769-188.769s-84.514-188.769-188.769-188.769c-104.254 0-188.769 84.515-188.769 188.769s84.515 188.769 188.769 188.769z" stroke="#D6D6D6" stroke-miterlimit="10"/><path d="M409.999 630.231c121.63 0 220.231-98.601 220.231-220.231s-98.601-220.231-220.231-220.231S189.768 288.37 189.768 410s98.601 220.231 220.231 220.231z" stroke="#D6D6D6" stroke-miterlimit="10"/><path d="M410 661.692c139.006 0 251.693-112.686 251.693-251.692S549.006 158.308 410 158.308c-139.005 0-251.692 112.686-251.692 251.692S270.995 661.692 410 661.692z" stroke="#D6D6D6" stroke-miterlimit="10"/><path d="M410.001 693.154c156.381 0 283.153-126.772 283.153-283.154S566.382 126.846 410.001 126.846c-156.382 0-283.154 126.772-283.154 283.154s126.772 283.154 283.154 283.154z" stroke="#D6D6D6" stroke-miterlimit="10"/><path d="M410 724.615c173.757 0 314.616-140.858 314.616-314.615S583.757 95.385 410 95.385C236.243 95.385 95.385 236.243 95.385 410S236.243 724.615 410 724.615z" stroke="#D6D6D6" stroke-miterlimit="10"/><path d="M410 756.077c191.133 0 346.077-154.944 346.077-346.077S601.133 63.923 410 63.923 63.923 218.867 63.923 410 218.867 756.077 410 756.077z" stroke="#D6D6D6" stroke-miterlimit="10"/><path d="M410 787.538c208.509 0 377.539-169.029 377.539-377.538 0-208.509-169.03-377.539-377.539-377.539-208.508 0-377.538 169.03-377.538 377.539S201.492 787.538 410 787.538z" stroke="#D6D6D6" stroke-miterlimit="10"/><defs><linearGradient id="paint0_linear" x1="504.384" y1="315.615" x2="315.615" y2="315.615" gradientUnits="userSpaceOnUse"><stop stop-color="#C63527"/><stop offset=".499" stop-color="#FF5E00"/><stop offset="1" stop-color="#FF8200"/></linearGradient></defs></svg>