<svg width="505" height="492" fill="none" xmlns="http://www.w3.org/2000/svg"><path d="M246 264.846c10.408 0 18.846-8.438 18.846-18.846 0-10.409-8.438-18.846-18.846-18.846-10.409 0-18.846 8.437-18.846 18.846 0 10.408 8.437 18.846 18.846 18.846z" stroke="#DDD" stroke-miterlimit="10"/><path d="M246 283.692c20.817 0 37.692-16.875 37.692-37.692S266.817 208.308 246 208.308 208.307 225.183 208.307 246s16.876 37.692 37.693 37.692z" stroke="#DDD" stroke-miterlimit="10"/><path d="M246 302.538c31.225 0 56.538-25.313 56.538-56.538 0-31.225-25.313-56.539-56.538-56.539-31.226 0-56.539 25.314-56.539 56.539s25.313 56.538 56.539 56.538z" stroke="#DDD" stroke-miterlimit="10"/><path d="M246 321.385c41.634 0 75.384-33.751 75.384-75.385 0-41.634-33.75-75.385-75.384-75.385S170.615 204.366 170.615 246c0 41.634 33.751 75.385 75.385 75.385z" stroke="#DDD" stroke-miterlimit="10"/><path d="M246 340.231c52.042 0 94.23-42.189 94.23-94.231 0-52.042-42.188-94.231-94.23-94.231-52.043 0-94.231 42.189-94.231 94.231 0 52.042 42.188 94.231 94.231 94.231z" stroke="#DDD" stroke-miterlimit="10"/><path d="M246.001 359.077c62.45 0 113.076-50.626 113.076-113.077s-50.626-113.077-113.076-113.077c-62.451 0-113.077 50.626-113.077 113.077s50.626 113.077 113.077 113.077z" stroke="#DDD" stroke-miterlimit="10"/><path d="M245.999 377.923c72.86 0 131.924-59.064 131.924-131.923 0-72.859-59.064-131.923-131.924-131.923-72.859 0-131.923 59.064-131.923 131.923 0 72.859 59.064 131.923 131.923 131.923z" stroke="#DDD" stroke-miterlimit="10"/><path d="M246 396.769c83.268 0 150.77-67.501 150.77-150.769S329.268 95.23 246 95.23c-83.267 0-150.769 67.502-150.769 150.77 0 83.268 67.502 150.769 150.769 150.769z" stroke="#DDD" stroke-miterlimit="10"/><path d="M246 415.615c93.676 0 169.616-75.939 169.616-169.615 0-93.676-75.94-169.615-169.616-169.615-93.676 0-169.615 75.939-169.615 169.615 0 93.676 75.939 169.615 169.615 169.615z" stroke="#DDD" stroke-miterlimit="10"/><path d="M246 453.308c114.493 0 207.308-92.815 207.308-207.308S360.493 38.692 246 38.692 38.692 131.507 38.692 246 131.507 453.308 246 453.308z" stroke="#DDD" stroke-miterlimit="10"/><path d="M246 472.154c124.901 0 226.154-101.253 226.154-226.154S370.901 19.846 246 19.846 19.846 121.1 19.846 246 121.1 472.154 246 472.154z" stroke="#DDD" stroke-miterlimit="10"/><path d="M246 491c135.31 0 245-109.69 245-245S381.31 1 246 1 1 110.69 1 246s109.69 245 245 245z" stroke="#DDD" stroke-miterlimit="10"/><g filter="url(#filter0_d)"><circle cx="444" cy="367" r="21" fill="url(#paint0_linear)"/></g><defs><linearGradient id="paint0_linear" x1="423" y1="388" x2="465" y2="388" gradientUnits="userSpaceOnUse"><stop stop-color="#7EDDD3"/><stop offset=".499" stop-color="#2AD2C9"/><stop offset="1" stop-color="#009CA6"/></linearGradient><filter id="filter0_d" x="383" y="310" width="122" height="122" filterUnits="userSpaceOnUse" color-interpolation-filters="sRGB"><feFlood flood-opacity="0" result="BackgroundImageFix"/><feColorMatrix in="SourceAlpha" values="0 0 0 0 0 0 0 0 0 0 0 0 0 0 0 0 0 0 127 0"/><feOffset dy="4"/><feGaussianBlur stdDeviation="20"/><feColorMatrix values="0 0 0 0 0 0 0 0 0 0 0 0 0 0 0 0 0 0 0.2 0"/><feBlend in2="BackgroundImageFix" result="effect1_dropShadow"/><feBlend in="SourceGraphic" in2="effect1_dropShadow" result="shape"/></filter></defs></svg>