<svg width="130" height="130" viewBox="0 0 130 130" fill="none" xmlns="http://www.w3.org/2000/svg">
<rect x="21.0156" y="43.0156" width="33.9688" height="24.9688" rx="2.98438" stroke="#333333" stroke-width="2.03125"/>
<path d="M30.0156 68.0156H37.9844V87C37.9844 87.5437 37.5437 87.9844 37 87.9844H31C30.4563 87.9844 30.0156 87.5437 30.0156 87V68.0156Z" stroke="#333333" stroke-width="2.03125"/>
<path d="M38.0156 95C38.0156 94.4563 38.4563 94.0156 39 94.0156L53 94.0156C53.5437 94.0156 53.9844 94.4563 53.9844 95L53.9844 105C53.9844 105.544 53.5437 105.984 53 105.984L39 105.984C38.4563 105.984 38.0156 105.544 38.0156 105L38.0156 95Z" stroke="#333333" stroke-width="2.03125"/>
<path d="M20.9844 49.0156L20.9844 60.9844L16 60.9844C15.4563 60.9844 15.0156 60.5437 15.0156 60L15.0156 50C15.0156 49.4563 15.4563 49.0156 16 49.0156L20.9844 49.0156Z" stroke="#333333" stroke-width="2.03125"/>
<path d="M38.0156 68.0156H45.9817C45.8771 71.8821 42.7099 74.9844 38.8182 74.9844C38.3749 74.9844 38.0156 74.6251 38.0156 74.1818V68.0156Z" stroke="#333333" stroke-width="2.03125"/>
<path d="M80.5985 74.8149L55.0156 63.3868L55.0156 45.6132L80.5985 34.1851C81.2496 33.8942 81.9844 34.3707 81.9844 35.0839L81.9844 73.9161C81.9844 74.6293 81.2496 75.1057 80.5985 74.8149Z" stroke="#333333" stroke-width="2.03125"/>
<line x1="74.9844" y1="72" x2="74.9844" y2="37" stroke="#333333" stroke-width="2.03125"/>
<line x1="39" y1="82.0156" x2="31" y2="82.0156" stroke="#333333" stroke-width="2.03125"/>
<circle cx="29.5" cy="50.5" r="2.48438" stroke="#333333" stroke-width="2.03125"/>
<path d="M86.0156 90C86.0156 87.2472 88.2472 85.0156 91 85.0156C93.7528 85.0156 95.9844 87.2472 95.9844 90V93.9844H86.0156V90Z" stroke="#333333" stroke-width="2.03125"/>
<circle cx="91" cy="79" r="2.98438" stroke="#333333" stroke-width="2.03125"/>
<path d="M96.0156 87C96.0156 82.0381 100.038 78.0156 105 78.0156C109.962 78.0156 113.984 82.0381 113.984 87V93.9844H96.0156V87Z" stroke="#333333" stroke-width="2.03125"/>
<circle cx="104.5" cy="69.5" r="5.48438" stroke="#333333" stroke-width="2.03125"/>
<path d="M38 94L44.683 99.8476C45.437 100.507 46.563 100.507 47.317 99.8476L54 94" stroke="#333333" stroke-width="2.03125"/>
<line x1="68.4462" y1="83.2035" x2="64.2035" y2="87.4461" stroke="#333333" stroke-width="2.03125"/>
<line x1="71.2743" y1="86.0319" x2="67.0317" y2="90.2745" stroke="#333333" stroke-width="2.03125"/>
<path d="M66.1815 77.2045C66.468 77.1825 66.7498 77.2867 66.953 77.4899L68.4239 78.9608L75.495 86.0319C75.8794 86.4163 75.8794 87.0396 75.495 87.424L68.4239 94.495C68.0395 94.8795 67.4162 94.8795 67.0318 94.495L57.1323 84.5956C56.7479 84.2111 56.7479 83.5879 57.1323 83.2034L60.6678 79.6679L62.6195 77.7162C62.7857 77.55 63.0058 77.4488 63.2401 77.4308L66.1815 77.2045Z" stroke="#333333" stroke-width="2.03125"/>
<path d="M89.1137 41.5805C89.0207 41.2397 89.1175 40.8752 89.3673 40.6254L99.8603 30.1324C100.245 29.748 100.868 29.748 101.252 30.1324L108.323 37.2035C108.708 37.5879 108.708 38.2112 108.323 38.5956L97.8305 49.0886C97.5807 49.3384 97.2162 49.4352 96.8754 49.3422L91.3196 47.827C90.9833 47.7353 90.7206 47.4726 90.6289 47.1363L89.1137 41.5805Z" stroke="#333333" stroke-width="2.03125"/>
<circle cx="94.8997" cy="43.5564" r="2" transform="rotate(-45 94.8997 43.5564)" fill="#333333"/>
<circle cx="55.8994" cy="29.8995" r="5.98438" transform="rotate(45 55.8994 29.8995)" stroke="#333333" stroke-width="2.03125"/>
<line x1="60.1421" y1="25.6347" x2="65.0697" y2="20.7071" stroke="#333333" stroke-width="2.03125" stroke-linecap="round"/>
</svg>
