<svg width="130" height="130" viewBox="0 0 130 130" fill="none" xmlns="http://www.w3.org/2000/svg">
<path d="M50.9806 82.9844L35.5254 46.0156H98.1799C102.876 46.0156 106.234 50.5573 104.857 55.0472L96.2926 82.9844H50.9806Z" stroke="#333333" stroke-width="2.03125" stroke-linecap="round"/>
<path d="M46 71L31 35H19" stroke="#333333" stroke-width="2.03125" stroke-linecap="round"/>
<path d="M51.25 83L47.1247 89.2437C44.9284 92.5678 47.3122 97 51.2964 97H96" stroke="#333333" stroke-width="2.03125" stroke-linecap="round"/>
<circle cx="73" cy="50" r="13.9844" fill="white" stroke="#333333" stroke-width="2.03125" stroke-linecap="round"/>
<line x1="73.0156" y1="44.0156" x2="73.0156" y2="55.9844" stroke="#333333" stroke-width="2.03125" stroke-linecap="round"/>
<line x1="78.9844" y1="50.0156" x2="67.0156" y2="50.0156" stroke="#333333" stroke-width="2.03125" stroke-linecap="round"/>
<circle cx="56.5" cy="100.5" r="8.48438" fill="white" stroke="#333333" stroke-width="2.03125" stroke-linecap="round"/>
<circle cx="56.5" cy="100.5" r="2.48438" fill="white" stroke="#333333" stroke-width="2.03125" stroke-linecap="round"/>
<circle cx="90.5" cy="100.5" r="8.48438" fill="white" stroke="#333333" stroke-width="2.03125" stroke-linecap="round"/>
<line x1="49.0156" y1="75.9844" x2="97.9844" y2="75.9844" stroke="#333333" stroke-width="2.03125" stroke-linecap="round"/>
<line x1="32.0156" y1="80.9844" x2="41.9844" y2="80.9844" stroke="#333333" stroke-width="2.03125" stroke-linecap="round"/>
<line x1="17.0156" y1="75.9844" x2="38.9844" y2="75.9844" stroke="#333333" stroke-width="2.03125" stroke-linecap="round"/>
<line x1="24.0156" y1="85.9844" x2="36.9844" y2="85.9844" stroke="#333333" stroke-width="2.03125" stroke-linecap="round"/>
<circle cx="90.5" cy="100.5" r="2.48438" fill="white" stroke="#333333" stroke-width="2.03125" stroke-linecap="round"/>
</svg>
