<svg width="130" height="130" viewBox="0 0 130 130" fill="none" xmlns="http://www.w3.org/2000/svg">
<rect x="19.2439" y="51.4589" width="81.9688" height="50.9688" rx="2.98438" transform="rotate(-15 19.2439 51.4589)" stroke="#333333" stroke-width="2.03125"/>
<line x1="22.2724" y1="58.8974" x2="79.2318" y2="43.6351" stroke="#333333" stroke-width="2.03125" stroke-linecap="round"/>
<line x1="36.2807" y1="84.1316" x2="57.5008" y2="78.4457" stroke="#333333" stroke-width="2.03125" stroke-linecap="round"/>
<line x1="37.5746" y1="88.9612" x2="46.2377" y2="86.6399" stroke="#333333" stroke-width="2.03125" stroke-linecap="round"/>
<line x1="50.1317" y1="85.5965" x2="53.9652" y2="84.5693" stroke="#333333" stroke-width="2.03125" stroke-linecap="round"/>
<line x1="86.0233" y1="41.8152" x2="90.8228" y2="40.5292" stroke="#333333" stroke-width="2.03125" stroke-linecap="round"/>
<line x1="102.561" y1="45.6987" x2="35.942" y2="63.5491" stroke="#333333" stroke-width="2.03125" stroke-linecap="round"/>
<line x1="29.1505" y1="65.3689" x2="24.3511" y2="66.6549" stroke="#333333" stroke-width="2.03125" stroke-linecap="round"/>
<mask id="path-9-inside-1" fill="white">
<rect x="85.4624" y="66.8284" width="14" height="10" rx="2" transform="rotate(-15 85.4624 66.8284)"/>
</mask>
<rect x="85.4624" y="66.8284" width="14" height="10" rx="2" transform="rotate(-15 85.4624 66.8284)" stroke="#333333" stroke-width="4.0625" mask="url(#path-9-inside-1)"/>
<path d="M25.4277 99.9674H63.9277" stroke="#333333" stroke-width="2" stroke-linecap="round"/>
<path d="M68.4277 99.9674H75.4277" stroke="#333333" stroke-width="2" stroke-linecap="round"/>
</svg>
