<svg width="130" height="130" viewBox="0 0 130 130" fill="none" xmlns="http://www.w3.org/2000/svg">
<path d="M23.0156 63C23.0156 61.3518 24.3518 60.0156 26 60.0156H105.984V95C105.984 96.6482 104.648 97.9844 103 97.9844H26C24.3518 97.9844 23.0156 96.6482 23.0156 95V63Z" stroke="#333333" stroke-width="2.03125"/>
<line x1="11.0156" y1="105.984" x2="88.9844" y2="105.984" stroke="#333333" stroke-width="2.03125" stroke-linecap="round"/>
<line x1="39.0156" y1="74.9844" x2="47.9844" y2="74.9844" stroke="#333333" stroke-width="2.03125" stroke-linecap="round"/>
<line x1="21.0156" y1="111.984" x2="38.9844" y2="111.984" stroke="#333333" stroke-width="2.03125" stroke-linecap="round"/>
<line x1="30.0156" y1="32.9844" x2="38.9844" y2="32.9844" stroke="#333333" stroke-width="2.03125" stroke-linecap="round"/>
<line x1="30.0156" y1="37.9844" x2="38.9844" y2="37.9844" stroke="#333333" stroke-width="2.03125" stroke-linecap="round"/>
<rect x="92.0156" y="76.0156" width="7.96875" height="4.96875" stroke="#333333" stroke-width="2.03125"/>
<rect x="84.0156" y="76.0156" width="7.96875" height="4.96875" stroke="#333333" stroke-width="2.03125"/>
<rect x="76.0156" y="76.0156" width="7.96875" height="4.96875" stroke="#333333" stroke-width="2.03125"/>
<rect x="68.0156" y="76.0156" width="7.96875" height="4.96875" stroke="#333333" stroke-width="2.03125"/>
<rect x="60.0156" y="76.0156" width="7.96875" height="4.96875" stroke="#333333" stroke-width="2.03125"/>
<rect x="92.0156" y="71.0156" width="7.96875" height="4.96875" stroke="#333333" stroke-width="2.03125"/>
<rect x="84.0156" y="71.0156" width="7.96875" height="4.96875" stroke="#333333" stroke-width="2.03125"/>
<rect x="76.0156" y="71.0156" width="7.96875" height="4.96875" stroke="#333333" stroke-width="2.03125"/>
<rect x="68.0156" y="71.0156" width="7.96875" height="4.96875" stroke="#333333" stroke-width="2.03125"/>
<rect x="60.0156" y="71.0156" width="7.96875" height="4.96875" stroke="#333333" stroke-width="2.03125"/>
<rect x="92.0156" y="66.0156" width="7.96875" height="4.96875" stroke="#333333" stroke-width="2.03125"/>
<rect x="84.0156" y="66.0156" width="7.96875" height="4.96875" stroke="#333333" stroke-width="2.03125"/>
<rect x="76.0156" y="66.0156" width="7.96875" height="4.96875" stroke="#333333" stroke-width="2.03125"/>
<rect x="68.0156" y="66.0156" width="7.96875" height="4.96875" stroke="#333333" stroke-width="2.03125"/>
<rect x="60.0156" y="66.0156" width="7.96875" height="4.96875" stroke="#333333" stroke-width="2.03125"/>
<path d="M35.0156 81C35.0156 80.4563 35.4563 80.0156 36 80.0156H42.9844V97.9844H36C35.4563 97.9844 35.0156 97.5437 35.0156 97V81Z" stroke="#333333" stroke-width="2.03125"/>
<path d="M43.0156 80.0156H50C50.5437 80.0156 50.9844 80.4563 50.9844 81V97.9844H43.0156V80.0156Z" stroke="#333333" stroke-width="2.03125"/>
<path d="M51 91H89.5" stroke="#333333" stroke-width="2" stroke-linecap="round"/>
<path d="M23 91H35" stroke="#333333" stroke-width="2" stroke-linecap="round"/>
<path d="M94 91H101" stroke="#333333" stroke-width="2" stroke-linecap="round"/>
<path d="M76.2886 42.3039C76.9022 41.6625 77.9844 42.0968 77.9844 42.9843V59C77.9844 59.5437 77.5437 59.9844 77 59.9844H59.3769L76.2886 42.3039Z" fill="white" stroke="#333333" stroke-width="2.03125"/>
<path d="M90.2886 42.3039C90.9022 41.6625 91.9844 42.0968 91.9844 42.9843V59C91.9844 59.5437 91.5437 59.9844 91 59.9844H73.3769L90.2886 42.3039Z" fill="white" stroke="#333333" stroke-width="2.03125"/>
<path d="M104.289 42.3039C104.902 41.6625 105.984 42.0968 105.984 42.9843V59C105.984 59.5437 105.544 59.9844 105 59.9844H87.3769L104.289 42.3039Z" fill="white" stroke="#333333" stroke-width="2.03125"/>
<path d="M29.8478 29.8835C29.9095 28.8346 30.778 28.0156 31.8287 28.0156H37.1713C38.222 28.0156 39.0905 28.8346 39.1522 29.8835L40.9229 59.9844H28.0771L29.8478 29.8835Z" stroke="#333333" stroke-width="2.03125"/>
<line x1="46.0156" y1="32.9844" x2="54.9844" y2="32.9844" stroke="#333333" stroke-width="2.03125" stroke-linecap="round"/>
<line x1="46.0156" y1="37.9844" x2="54.9844" y2="37.9844" stroke="#333333" stroke-width="2.03125" stroke-linecap="round"/>
<path d="M45.8478 29.8835C45.9095 28.8346 46.778 28.0156 47.8287 28.0156H53.1713C54.222 28.0156 55.0905 28.8346 55.1522 29.8835L56.9229 59.9844H44.0771L45.8478 29.8835Z" stroke="#333333" stroke-width="2.03125"/>
<path d="M61.0374 25.3527L61.0683 25.3685C62.2824 25.9895 63.7358 25.9136 64.8781 25.1696L65.4358 24.8063L65.9915 25.1727C66.1342 25.2668 66.2825 25.3532 66.4356 25.4319L66.4378 25.433C67.3401 25.899 68.3641 26.0768 69.3708 25.9423L70.0317 25.854L70.3755 26.4253C71.6264 28.5038 73.981 29.6539 76.3894 29.3625L77.043 29.2834L77.382 29.8477C78.0809 31.011 79.0928 31.954 80.3019 32.5685L80.3071 32.5711C83.3162 34.1222 86.9941 33.4279 89.2313 30.8873C91.4684 28.3462 91.6911 24.6094 89.7722 21.8205L61.0374 25.3527ZM61.0374 25.3527C59.3521 24.4657 58.587 22.4608 59.2579 20.6739C59.9331 18.8756 61.8481 17.8682 63.7124 18.3308L64.3575 18.4908L64.7624 17.9638C65.6189 16.8489 66.9062 16.1475 68.3075 16.0325L68.3078 16.0325C69.7085 15.917 71.0932 16.3989 72.1198 17.3594L72.6076 17.8158L73.22 17.5485C74.9147 16.8088 76.8531 16.8742 78.4942 17.7267L78.4942 17.7267L78.4997 17.7295C79.0678 18.0202 79.5862 18.3988 80.0359 18.8514L80.4974 19.3159L81.111 19.0872C84.2828 17.9051 87.8526 19.0316 89.7721 21.8204L61.0374 25.3527Z" fill="white" stroke="#333333" stroke-width="2.03125"/>
</svg>
