<svg width="130" height="130" viewBox="0 0 130 130" fill="none" xmlns="http://www.w3.org/2000/svg">
<line x1="11.0156" y1="100.984" x2="112.984" y2="100.984" stroke="#333333" stroke-width="2.03125" stroke-linecap="round"/>
<line x1="74.0156" y1="106.984" x2="97.9844" y2="106.984" stroke="#333333" stroke-width="2.03125" stroke-linecap="round"/>
<path d="M34 61V101H95V61" stroke="#333333" stroke-width="2.03125" stroke-linecap="round"/>
<path d="M88 51L88 39L83 39L83 47.1765" stroke="#333333" stroke-width="2.03125" stroke-linecap="round"/>
<path d="M27 66L64.5 39L102 66" stroke="#333333" stroke-width="2.03125" stroke-linecap="round"/>
<path d="M27 61L64.5 34L102 61" stroke="#333333" stroke-width="2.03125" stroke-linecap="round"/>
<path d="M95.0156 100.984V91.2016L98.5 87.485L101.984 91.2016V100.984H95.0156Z" stroke="#333333" stroke-width="2.03125"/>
<path d="M27.0156 100.984V91.2016L30.5 87.485L33.9844 91.2016V100.984H27.0156Z" stroke="#333333" stroke-width="2.03125"/>
<path d="M20.0156 100.984V91.2016L23.5 87.485L26.9844 91.2016V100.984H20.0156Z" stroke="#333333" stroke-width="2.03125"/>
<path d="M60.155 66C57.0807 67.7287 55 71.0514 55 74.8667C55 80.4632 59.4772 85 65 85C70.5228 85 75 80.4632 75 74.8667C75 71.0514 72.9193 67.7287 69.845 66" stroke="#333333" stroke-width="2.03125" stroke-linecap="round"/>
<line x1="65.0156" y1="62.0156" x2="65.0156" y2="72.9844" stroke="#333333" stroke-width="2.03125" stroke-linecap="round"/>
<path d="M83 16C77.8531 12.8637 71.4156 11 64.4309 11C57.5085 11 51.1238 12.8305 46 15.9162" stroke="#333333" stroke-width="2.03125" stroke-linecap="round"/>
<path d="M51 21.9233C54.9443 19.4296 59.5372 18 64.4397 18C69.3922 18 74.0288 19.4589 78 22" stroke="#333333" stroke-width="2.03125" stroke-linecap="round"/>
<path d="M73 27C70.39 25.7125 67.517 25 64.5 25C61.483 25 58.61 25.7125 56 27" stroke="#333333" stroke-width="2.03125" stroke-linecap="round"/>
</svg>
