<svg width="906" height="906" viewBox="0 0 906 906" fill="none" xmlns="http://www.w3.org/2000/svg">
<path d="M453 487.769C472.202 487.769 487.769 472.202 487.769 453C487.769 433.797 472.202 418.23 453 418.23C433.797 418.23 418.23 433.797 418.23 453C418.23 472.202 433.797 487.769 453 487.769Z" stroke="#CCCCCC" stroke-miterlimit="10"/>
<path d="M452.999 522.538C491.404 522.538 522.538 491.405 522.538 453C522.538 414.595 491.404 383.461 452.999 383.461C414.594 383.461 383.461 414.595 383.461 453C383.461 491.405 414.594 522.538 452.999 522.538Z" stroke="#CCCCCC" stroke-miterlimit="10"/>
<path d="M452.999 557.308C510.607 557.308 557.307 510.608 557.307 453C557.307 395.393 510.607 348.692 452.999 348.692C395.392 348.692 348.691 395.393 348.691 453C348.691 510.608 395.392 557.308 452.999 557.308Z" fill="url(#paint0_linear)"/>
<path d="M453 592.077C529.81 592.077 592.077 529.81 592.077 453C592.077 376.19 529.81 313.923 453 313.923C376.19 313.923 313.923 376.19 313.923 453C313.923 529.81 376.19 592.077 453 592.077Z" stroke="#CCCCCC" stroke-miterlimit="10"/>
<path d="M452.999 626.846C549.012 626.846 626.846 549.013 626.846 453C626.846 356.987 549.012 279.154 452.999 279.154C356.987 279.154 279.153 356.987 279.153 453C279.153 549.013 356.987 626.846 452.999 626.846Z" stroke="#CCCCCC" stroke-miterlimit="10"/>
<path d="M453.001 661.616C568.216 661.616 661.617 568.215 661.617 453C661.617 337.785 568.216 244.385 453.001 244.385C337.786 244.385 244.386 337.785 244.386 453C244.386 568.215 337.786 661.616 453.001 661.616Z" stroke="#CCCCCC" stroke-miterlimit="10"/>
<path d="M452.999 696.384C587.416 696.384 696.383 587.417 696.383 453C696.383 318.582 587.416 209.615 452.999 209.615C318.581 209.615 209.614 318.582 209.614 453C209.614 587.417 318.581 696.384 452.999 696.384Z" stroke="#CCCCCC" stroke-miterlimit="10"/>
<path d="M453.001 731.154C606.621 731.154 731.154 606.62 731.154 453C731.154 299.38 606.621 174.846 453.001 174.846C299.38 174.846 174.847 299.38 174.847 453C174.847 606.62 299.38 731.154 453.001 731.154Z" stroke="#CCCCCC" stroke-miterlimit="10"/>
<path d="M453 765.923C625.823 765.923 765.923 625.823 765.923 453C765.923 280.178 625.823 140.077 453 140.077C280.178 140.077 140.077 280.178 140.077 453C140.077 625.823 280.178 765.923 453 765.923Z" stroke="#CCCCCC" stroke-miterlimit="10"/>
<path d="M453 800.692C645.026 800.692 800.693 645.025 800.693 453C800.693 260.975 645.026 105.308 453 105.308C260.975 105.308 105.308 260.975 105.308 453C105.308 645.025 260.975 800.692 453 800.692Z" stroke="#CCCCCC" stroke-miterlimit="10"/>
<path d="M453.001 835.462C664.228 835.462 835.462 664.228 835.462 453C835.462 241.772 664.228 70.5386 453.001 70.5386C241.773 70.5386 70.5391 241.772 70.5391 453C70.5391 664.228 241.773 835.462 453.001 835.462Z" stroke="#CCCCCC" stroke-miterlimit="10"/>
<path d="M453 870.231C683.431 870.231 870.231 683.43 870.231 453C870.231 222.57 683.431 35.769 453 35.769C222.57 35.769 35.7695 222.57 35.7695 453C35.7695 683.43 222.57 870.231 453 870.231Z" stroke="#CCCCCC" stroke-miterlimit="10"/>
<path d="M453 905C702.633 905 905 702.633 905 453C905 203.367 702.633 1 453 1C203.367 1 1 203.367 1 453C1 702.633 203.367 905 453 905Z" stroke="#CCCCCC" stroke-miterlimit="10"/>
<circle cx="121" cy="144" r="25" fill="url(#paint1_linear)"/>
<defs>
<linearGradient id="paint0_linear" x1="348.691" y1="557.308" x2="557.307" y2="557.308" gradientUnits="userSpaceOnUse">
<stop stop-color="#7EDDD3"/>
<stop offset="0.499276" stop-color="#2AD2C9"/>
<stop offset="1" stop-color="#009CA6"/>
</linearGradient>
<linearGradient id="paint1_linear" x1="146" y1="119" x2="96" y2="119" gradientUnits="userSpaceOnUse">
<stop stop-color="#C63527"/>
<stop offset="0.499276" stop-color="#FF5E00"/>
<stop offset="1" stop-color="#FF8200"/>
</linearGradient>
</defs>
</svg>
