<svg width="505" height="492" viewBox="0 0 505 492" fill="none" xmlns="http://www.w3.org/2000/svg">
<path d="M246 264.846C256.408 264.846 264.846 256.408 264.846 246C264.846 235.591 256.408 227.154 246 227.154C235.591 227.154 227.154 235.591 227.154 246C227.154 256.408 235.591 264.846 246 264.846Z" stroke="#DDDDDD" stroke-miterlimit="10"/>
<path d="M246 283.692C266.817 283.692 283.692 266.817 283.692 246C283.692 225.183 266.817 208.308 246 208.308C225.183 208.308 208.307 225.183 208.307 246C208.307 266.817 225.183 283.692 246 283.692Z" stroke="#DDDDDD" stroke-miterlimit="10"/>
<path d="M246 302.538C277.225 302.538 302.538 277.225 302.538 246C302.538 214.775 277.225 189.461 246 189.461C214.774 189.461 189.461 214.775 189.461 246C189.461 277.225 214.774 302.538 246 302.538Z" stroke="#DDDDDD" stroke-miterlimit="10"/>
<path d="M246 321.385C287.634 321.385 321.384 287.634 321.384 246C321.384 204.366 287.634 170.615 246 170.615C204.366 170.615 170.615 204.366 170.615 246C170.615 287.634 204.366 321.385 246 321.385Z" stroke="#DDDDDD" stroke-miterlimit="10"/>
<path d="M246 340.231C298.042 340.231 340.23 298.042 340.23 246C340.23 193.958 298.042 151.769 246 151.769C193.957 151.769 151.769 193.958 151.769 246C151.769 298.042 193.957 340.231 246 340.231Z" stroke="#DDDDDD" stroke-miterlimit="10"/>
<path d="M246.001 359.077C308.451 359.077 359.077 308.451 359.077 246C359.077 183.549 308.451 132.923 246.001 132.923C183.55 132.923 132.924 183.549 132.924 246C132.924 308.451 183.55 359.077 246.001 359.077Z" stroke="#DDDDDD" stroke-miterlimit="10"/>
<path d="M245.999 377.923C318.859 377.923 377.923 318.859 377.923 246C377.923 173.141 318.859 114.077 245.999 114.077C173.14 114.077 114.076 173.141 114.076 246C114.076 318.859 173.14 377.923 245.999 377.923Z" stroke="#DDDDDD" stroke-miterlimit="10"/>
<path d="M246 396.769C329.268 396.769 396.77 329.268 396.77 246C396.77 162.732 329.268 95.2307 246 95.2307C162.733 95.2307 95.2312 162.732 95.2312 246C95.2312 329.268 162.733 396.769 246 396.769Z" stroke="#DDDDDD" stroke-miterlimit="10"/>
<path d="M246 415.615C339.676 415.615 415.616 339.676 415.616 246C415.616 152.324 339.676 76.3846 246 76.3846C152.324 76.3846 76.3849 152.324 76.3849 246C76.3849 339.676 152.324 415.615 246 415.615Z" stroke="#DDDDDD" stroke-miterlimit="10"/>
<path d="M246 453.308C360.493 453.308 453.308 360.493 453.308 246C453.308 131.507 360.493 38.6924 246 38.6924C131.507 38.6924 38.6925 131.507 38.6925 246C38.6925 360.493 131.507 453.308 246 453.308Z" stroke="#DDDDDD" stroke-miterlimit="10"/>
<path d="M246 472.154C370.901 472.154 472.154 370.901 472.154 246C472.154 121.099 370.901 19.8461 246 19.8461C121.099 19.8461 19.8462 121.099 19.8462 246C19.8462 370.901 121.099 472.154 246 472.154Z" stroke="#DDDDDD" stroke-miterlimit="10"/>
<path d="M246 491C381.31 491 491 381.31 491 246C491 110.69 381.31 1 246 1C110.69 1 1 110.69 1 246C1 381.31 110.69 491 246 491Z" stroke="#DDDDDD" stroke-miterlimit="10"/>
<g filter="url(#filter0_d)">
<circle cx="444" cy="367" r="21" fill="url(#paint0_linear)"/>
</g>
<defs>
<filter id="filter0_d" x="383" y="310" width="122" height="122" filterUnits="userSpaceOnUse" color-interpolation-filters="sRGB">
<feFlood flood-opacity="0" result="BackgroundImageFix"/>
<feColorMatrix in="SourceAlpha" type="matrix" values="0 0 0 0 0 0 0 0 0 0 0 0 0 0 0 0 0 0 127 0"/>
<feOffset dy="4"/>
<feGaussianBlur stdDeviation="20"/>
<feColorMatrix type="matrix" values="0 0 0 0 0 0 0 0 0 0 0 0 0 0 0 0 0 0 0.2 0"/>
<feBlend mode="normal" in2="BackgroundImageFix" result="effect1_dropShadow"/>
<feBlend mode="normal" in="SourceGraphic" in2="effect1_dropShadow" result="shape"/>
</filter>
<linearGradient id="paint0_linear" x1="423" y1="388" x2="465" y2="388" gradientUnits="userSpaceOnUse">
<stop stop-color="#7EDDD3"/>
<stop offset="0.499276" stop-color="#2AD2C9"/>
<stop offset="1" stop-color="#009CA6"/>
</linearGradient>
</defs>
</svg>
