<svg width="462" height="462" fill="none" xmlns="http://www.w3.org/2000/svg"><path d="M231 248.692c9.771 0 17.692-7.921 17.692-17.692s-7.921-17.692-17.692-17.692-17.692 7.921-17.692 17.692 7.921 17.692 17.692 17.692z" stroke="#DDD" stroke-miterlimit="10"/><path d="M231 266.385c19.542 0 35.384-15.843 35.384-35.385 0-19.542-15.842-35.385-35.384-35.385-19.543 0-35.385 15.843-35.385 35.385 0 19.542 15.842 35.385 35.385 35.385z" stroke="#DDD" stroke-miterlimit="10"/><path d="M231 284.077c29.313 0 53.077-23.763 53.077-53.077 0-29.314-23.764-53.077-53.077-53.077-29.314 0-53.077 23.763-53.077 53.077 0 29.314 23.763 53.077 53.077 53.077z" stroke="#DDD" stroke-miterlimit="10"/><path d="M231 301.769c39.084 0 70.769-31.684 70.769-70.769 0-39.085-31.685-70.769-70.769-70.769-39.085 0-70.77 31.684-70.77 70.769 0 39.085 31.685 70.769 70.77 70.769z" stroke="#DDD" stroke-miterlimit="10"/><path d="M231 319.462c48.856 0 88.461-39.606 88.461-88.462S279.856 142.538 231 142.538 142.538 182.144 142.538 231s39.606 88.462 88.462 88.462z" stroke="#DDD" stroke-miterlimit="10"/><g filter="url(#filter0_d)"><path d="M231.001 337.154c58.627 0 106.153-47.527 106.153-106.154 0-58.627-47.526-106.154-106.153-106.154-58.628 0-106.154 47.527-106.154 106.154 0 58.627 47.526 106.154 106.154 106.154z" fill="url(#paint0_linear)"/></g><path d="M230.999 354.846c68.399 0 123.847-55.448 123.847-123.846s-55.448-123.846-123.847-123.846c-68.398 0-123.846 55.448-123.846 123.846s55.448 123.846 123.846 123.846z" stroke="#DDD" stroke-miterlimit="10"/><path d="M231 372.538c78.17 0 141.539-63.368 141.539-141.538 0-78.17-63.369-141.538-141.539-141.538-78.169 0-141.538 63.368-141.538 141.538 0 78.17 63.369 141.538 141.538 141.538z" stroke="#DDD" stroke-miterlimit="10"/><path d="M231 390.231c87.941 0 159.231-71.29 159.231-159.231 0-87.941-71.29-159.23-159.231-159.23-87.94 0-159.23 71.289-159.23 159.23 0 87.941 71.29 159.231 159.23 159.231z" stroke="#DDD" stroke-miterlimit="10"/><path d="M231 407.923c97.712 0 176.923-79.211 176.923-176.923S328.712 54.077 231 54.077 54.077 133.288 54.077 231 133.288 407.923 231 407.923z" stroke="#DDD" stroke-miterlimit="10"/><path d="M231 425.615c107.483 0 194.616-87.132 194.616-194.615S338.483 36.385 231 36.385C123.517 36.385 36.385 123.517 36.385 231S123.517 425.615 231 425.615z" stroke="#DDD" stroke-miterlimit="10"/><path d="M231 443.308c117.254 0 212.308-95.054 212.308-212.308 0-117.254-95.054-212.308-212.308-212.308-117.254 0-212.308 95.054-212.308 212.308 0 117.254 95.054 212.308 212.308 212.308z" stroke="#DDD" stroke-miterlimit="10"/><path d="M231 461c127.025 0 230-102.975 230-230S358.025 1 231 1 1 103.975 1 231s102.975 230 230 230z" stroke="#DDD" stroke-miterlimit="10"/><path d="M261.333 223.958v-21.396l-16.521-18.145h-40.895a8.666 8.666 0 00-8.667 8.666V270a8.667 8.667 0 008.667 8.667h48.75a8.667 8.667 0 008.666-8.667v-15.979" stroke="#fff" stroke-width="2.031" stroke-linecap="round" stroke-linejoin="bevel"/><path d="M205 263.5l1.354 2.167.22.263a3.783 3.783 0 002.906 1.362v0a3.785 3.785 0 003.513-2.378l.826-2.066a7.063 7.063 0 011.044-1.791l.468-.585a5.234 5.234 0 012.651-1.764l.367-.105a4.35 4.35 0 013.438.453v0a4.347 4.347 0 011.655 1.787l.476.952c.386.771.644 1.598.766 2.451l.358 2.504" stroke="#fff" stroke-width="2.031" stroke-linecap="round"/><path d="M244 185.5v18.417h17.333" stroke="#fff" stroke-width="2.031" stroke-linejoin="round"/><circle cx="231" cy="266.75" r="1.151" fill="#067EB8" stroke="#fff" stroke-width="2.031"/><path d="M204.458 196.333h6.5m4.875 0h18.417m0 6.5h-6.5m-4.875 0h-18.417m0 18.417h6.5m4.875 0h18.417m0 6.5h-6.5m-4.875 0h-18.417m29.792 6.5h-6.5m-4.875 0h-18.417" stroke="#fff" stroke-width="2.031" stroke-linecap="round"/><path d="M267.869 231.366l3.976 3.876-26.152 26.825-6.011 2.189 2.035-6.065 26.152-26.825z" stroke="#fff" stroke-width="2.031" stroke-linecap="round" stroke-linejoin="bevel"/><path d="M271.751 235.339l-3.976-3.876 3.451-3.539a2.775 2.775 0 113.975 3.876l-3.45 3.539z" stroke="#fff" stroke-width="2.031" stroke-linecap="round" stroke-linejoin="bevel"/><path d="M267.115 232.238l-3.103-3.025-6.05 6.205" stroke="#fff" stroke-width="2.031" stroke-linecap="round" stroke-linejoin="round"/><defs><linearGradient id="paint0_linear" x1="337.154" y1="124.846" x2="124.847" y2="124.846" gradientUnits="userSpaceOnUse"><stop stop-color="#3E4BA3"/><stop offset=".496" stop-color="#6941C6"/><stop offset="1" stop-color="#7F4AAE"/></linearGradient><filter id="filter0_d" x="109.847" y="111.846" width="242.308" height="242.308" filterUnits="userSpaceOnUse" color-interpolation-filters="sRGB"><feFlood flood-opacity="0" result="BackgroundImageFix"/><feColorMatrix in="SourceAlpha" values="0 0 0 0 0 0 0 0 0 0 0 0 0 0 0 0 0 0 127 0"/><feOffset dy="2"/><feGaussianBlur stdDeviation="7.5"/><feColorMatrix values="0 0 0 0 0.580664 0 0 0 0 0.188545 0 0 0 0 0.150685 0 0 0 0.25 0"/><feBlend in2="BackgroundImageFix" result="effect1_dropShadow"/><feBlend in="SourceGraphic" in2="effect1_dropShadow" result="shape"/></filter></defs></svg>