<svg width="312" height="75" fill="none" xmlns="http://www.w3.org/2000/svg"><path d="M102.051 21.867c.504-3.478 1.477-6.522 2.92-9.131 1.442-2.643 3.238-4.833 5.385-6.573 2.181-1.772 4.664-3.094 7.449-3.963 2.819-.903 5.839-1.355 9.06-1.355 3.355 0 6.375.485 9.059 1.455 2.718.937 5.034 2.258 6.946 3.964 1.913 1.672 3.372 3.645 4.379 5.92 1.04 2.275 1.56 4.733 1.56 7.375 0 2.308-.268 4.349-.805 6.121-.503 1.74-1.241 3.262-2.215 4.566a13.22 13.22 0 01-3.623 3.311c-1.443.904-3.071 1.656-4.883 2.258 4.363 1.372 7.617 3.462 9.765 6.272 2.147 2.81 3.221 6.338 3.221 10.586 0 3.613-.671 6.807-2.013 9.583-1.342 2.776-3.154 5.118-5.436 7.024-2.282 1.873-4.933 3.295-7.952 4.265-2.987.97-6.158 1.455-9.513 1.455-3.658 0-6.845-.418-9.563-1.254-2.718-.836-5.084-2.074-7.097-3.713-2.013-1.639-3.724-3.646-5.134-6.02-1.409-2.376-2.617-5.118-3.624-8.229l5.487-2.258c1.442-.602 2.785-.752 4.026-.451 1.275.267 2.198.936 2.768 2.007a51.045 51.045 0 001.963 3.462 15.23 15.23 0 002.618 3.06c1.006.87 2.181 1.589 3.523 2.157 1.375.536 3.003.803 4.882.803 2.114 0 3.959-.334 5.536-1.003 1.577-.703 2.886-1.606 3.926-2.71 1.074-1.103 1.862-2.324 2.366-3.662.537-1.372.805-2.743.805-4.114 0-1.74-.184-3.312-.554-4.717-.369-1.438-1.14-2.659-2.315-3.662-1.174-1.004-2.869-1.79-5.083-2.358-2.181-.569-5.117-.853-8.808-.853v-8.83c3.053-.034 5.587-.318 7.6-.854 2.013-.535 3.607-1.27 4.781-2.207 1.208-.97 2.047-2.124 2.517-3.462.47-1.338.704-2.81.704-4.415 0-3.412-.956-6.004-2.868-7.777-1.913-1.773-4.463-2.66-7.651-2.66-1.476 0-2.835.218-4.077.653a11.17 11.17 0 00-3.372 1.756 10.727 10.727 0 00-2.466 2.61 11.424 11.424 0 00-1.51 3.31c-.57 1.54-1.325 2.56-2.265 3.061-.906.502-2.198.619-3.875.351l-6.544-1.154z" fill="#2AD2C9"/><path d="M225.529 37.922c0 5.319-.889 10.202-2.668 14.65-1.778 4.45-4.278 8.28-7.499 11.49-3.221 3.211-7.097 5.703-11.627 7.476-4.529 1.773-9.563 2.66-15.099 2.66h-27.733V1.647h27.733c5.536 0 10.57.903 15.099 2.709 4.53 1.773 8.406 4.265 11.627 7.476 3.221 3.177 5.721 6.99 7.499 11.439 1.779 4.449 2.668 9.332 2.668 14.65zm-13.892 0c0-3.98-.536-7.542-1.61-10.686-1.04-3.178-2.567-5.854-4.58-8.028-1.98-2.208-4.396-3.897-7.248-5.067-2.819-1.171-6.006-1.757-9.563-1.757h-14.143V63.46h14.143c3.557 0 6.744-.585 9.563-1.756 2.852-1.17 5.268-2.843 7.248-5.017 2.013-2.208 3.54-4.883 4.58-8.028 1.074-3.177 1.61-6.756 1.61-10.737zM75.284 46.803L66.425 22.67a52.723 52.723 0 01-1.359-3.813c-.47-1.472-.94-3.06-1.409-4.767a96.196 96.196 0 01-1.359 4.817 61.603 61.603 0 01-1.359 3.863l-8.808 24.033h23.153zM99.19 74.197H88.722c-1.174 0-2.13-.284-2.869-.853a5.668 5.668 0 01-1.66-2.207l-5.436-14.801h-30.15l-5.435 14.8c-.268.77-.788 1.472-1.56 2.108-.772.635-1.728.953-2.87.953H28.174l28.639-72.55h13.79l28.589 72.55zM12.116 61.995L2.91 65.69c-.3.128-.661.252-1.082.372.206.051.404.107.593.167.18.06.347.124.502.192l9.193 3.697v-8.124zm6.618-4.018v1.014c0 .12-.03.218-.09.295a.698.698 0 01-.258.18l-5.292 2.13v8.92l5.292 2.131a.552.552 0 01.245.18.476.476 0 01.103.308v1.001L.515 66.705v-1.296l18.219-7.432zM8.678 47.13c-.738.488-1.257 1.031-1.558 1.63-.3.59-.45 1.267-.45 2.028 0 .753.137 1.412.412 1.977.274.565.665 1.04 1.171 1.425.498.376 1.099.663 1.803.86a8.81 8.81 0 002.305.282c1.905 0 3.308-.347 4.21-1.04.892-.702 1.339-1.711 1.339-3.029 0-.838-.22-1.604-.657-2.297-.438-.693-1.051-1.305-1.841-1.836H8.678zM0 45.911h18.734v.667c0 .223-.112.351-.335.385l-2.021.129a6.806 6.806 0 011.84 1.976c.456.753.683 1.6.683 2.542 0 1.574-.545 2.798-1.635 3.67-1.09.873-2.725 1.31-4.905 1.31a9.13 9.13 0 01-2.614-.36c-.816-.248-1.52-.607-2.112-1.078A5.05 5.05 0 016.22 53.42c-.343-.693-.515-1.488-.515-2.387 0-.864.159-1.613.476-2.246.318-.633.79-1.185 1.417-1.656H0v-1.219zm5.923-14.459l12.81 5.39v1.078l-12.81 5.391v-.962c0-.12.034-.219.103-.296a.438.438 0 01.206-.154l10.107-4.222a9.542 9.542 0 011.12-.308 8.205 8.205 0 01-1.12-.321L6.232 32.812a.552.552 0 01-.22-.167.426.426 0 01-.09-.27v-.923zm0-3.991h12.81v1.22H5.924v-1.22zm-4.417-.526c.155 0 .3.034.438.103a1.191 1.191 0 01.592.603c.06.137.09.282.09.436 0 .154-.03.3-.09.437s-.141.256-.244.36a1.216 1.216 0 01-.348.243 1.08 1.08 0 01-.438.09c-.154 0-.3-.03-.437-.09a1.129 1.129 0 01-.708-1.04c0-.154.03-.3.09-.436a1.129 1.129 0 01.618-.603.969.969 0 01.437-.103zm6-10.849c.12.068.18.166.18.295 0 .094-.05.214-.154.36a4.06 4.06 0 00-.36.59c-.138.24-.258.539-.36.898-.112.36-.168.796-.168 1.31 0 .461.068.885.206 1.27.129.376.304.701.528.975.223.265.485.47.785.616.292.146.6.219.927.219.404 0 .738-.103 1.004-.308.267-.206.494-.471.683-.796a6.11 6.11 0 00.49-1.143c.136-.427.274-.86.411-1.296.137-.445.292-.881.464-1.309.163-.428.369-.804.618-1.13a2.95 2.95 0 01.914-.808c.36-.206.798-.308 1.313-.308a4.07 4.07 0 011.558.295c.48.197.897.488 1.249.873.352.376.63.843.837 1.399.206.556.309 1.194.309 1.912 0 .899-.142 1.673-.425 2.323a6.649 6.649 0 01-1.133 1.746l-.438-.282a.5.5 0 01-.154-.142.461.461 0 01-.052-.23c0-.112.069-.245.206-.399a5.24 5.24 0 00.45-.641 5.88 5.88 0 00.439-.976c.137-.393.206-.877.206-1.45 0-.54-.073-1.014-.22-1.425a3.039 3.039 0 00-.617-1.027 2.492 2.492 0 00-.902-.616 2.87 2.87 0 00-1.107-.218c-.43 0-.785.103-1.069.308a2.644 2.644 0 00-.72.809 5.603 5.603 0 00-.503 1.142c-.137.42-.274.851-.412 1.296-.137.445-.287.882-.45 1.31a4.77 4.77 0 01-.618 1.129c-.25.334-.55.603-.902.809-.36.205-.807.308-1.339.308-.455 0-.892-.099-1.313-.296a3.375 3.375 0 01-1.107-.834A4.211 4.211 0 016 21.31a5.143 5.143 0 01-.283-1.758c0-.779.111-1.467.334-2.066a4.871 4.871 0 011.03-1.656l.425.257zm3.528-12.843c-.686 0-1.3.098-1.84.295a3.841 3.841 0 00-1.391.809c-.378.35-.666.77-.863 1.258a3.989 3.989 0 00-.31 1.591c0 .659.104 1.25.31 1.771.206.522.502.976.888 1.36.387.377.85.681 1.39.912a6.509 6.509 0 001.816.462V3.243zm.786 8.522h.244c.962 0 1.807-.111 2.537-.333.73-.223 1.343-.54 1.841-.95.49-.41.858-.907 1.107-1.49.25-.58.374-1.231.374-1.95 0-.642-.069-1.198-.206-1.668a6.601 6.601 0 00-.477-1.181 7.614 7.614 0 00-.476-.77c-.146-.189-.219-.326-.219-.411 0-.111.043-.197.129-.257l.412-.334c.257.206.498.48.72.822.224.334.417.71.58 1.13a8.4 8.4 0 01.374 1.334c.094.47.141.946.141 1.425 0 .873-.15 1.668-.45 2.387a5.128 5.128 0 01-1.34 1.848c-.583.514-1.296.912-2.137 1.194-.85.274-1.82.41-2.91.41-.918 0-1.764-.128-2.536-.384-.781-.266-1.45-.642-2.009-1.13a5.189 5.189 0 01-1.326-1.81c-.317-.718-.476-1.531-.476-2.438 0-.719.124-1.386.373-2.002a4.494 4.494 0 011.095-1.605c.472-.453 1.055-.808 1.75-1.065.696-.265 1.494-.398 2.395-.398.19 0 .318.026.387.077.068.051.103.137.103.257v9.292zM248.558 7.97c0 1.212-.182 2.302-.545 3.27-.363.968-.875 1.792-1.534 2.472-.66.68-1.453 1.2-2.38 1.563-.919.362-1.935.543-3.047.543h-5.749V.133h5.749c1.112 0 2.128.181 3.047.543a6.63 6.63 0 012.38 1.563c.659.68 1.171 1.504 1.534 2.472s.545 2.054.545 3.259zm-1.179 0c0-1.094-.152-2.07-.456-2.926-.304-.858-.734-1.582-1.29-2.173a5.513 5.513 0 00-2.001-1.352c-.778-.31-1.638-.466-2.58-.466h-4.603v13.845h4.603c.942 0 1.802-.155 2.58-.466a5.513 5.513 0 002.001-1.352c.556-.591.986-1.316 1.29-2.173.304-.857.456-1.836.456-2.937zm11.908 1.22c0-.592-.085-1.12-.255-1.586a3.3 3.3 0 00-.701-1.197 3.007 3.007 0 00-1.09-.743 3.47 3.47 0 00-1.378-.266c-.571 0-1.083.089-1.535.266a3.423 3.423 0 00-1.179.765 3.872 3.872 0 00-.789 1.197c-.2.466-.334.987-.4 1.563h7.327zm-7.383.675v.21c0 .829.096 1.557.289 2.185.193.628.467 1.156.823 1.585a3.42 3.42 0 001.29.953 4.277 4.277 0 001.69.322c.556 0 1.038-.06 1.446-.178a5.785 5.785 0 001.023-.41c.281-.155.504-.292.667-.41.163-.126.281-.189.356-.189.096 0 .17.037.222.111l.289.355a2.969 2.969 0 01-.712.62 5.053 5.053 0 01-.978.5c-.356.133-.741.24-1.157.321a6.297 6.297 0 01-1.234.122c-.756 0-1.445-.13-2.068-.388a4.431 4.431 0 01-1.601-1.153c-.445-.502-.79-1.116-1.034-1.84-.238-.731-.356-1.567-.356-2.505 0-.79.111-1.519.333-2.184.23-.672.556-1.249.979-1.729.43-.488.952-.868 1.568-1.142.622-.273 1.327-.41 2.112-.41a4.6 4.6 0 011.735.322c.534.214.997.528 1.39.942.393.406.701.909.923 1.507.23.599.345 1.286.345 2.062 0 .163-.022.274-.067.333-.044.059-.119.088-.222.088h-8.051zm17.302-3.713a.28.28 0 01-.256.155c-.081 0-.185-.044-.311-.133a3.534 3.534 0 00-.512-.31 3.536 3.536 0 00-.778-.31c-.311-.097-.689-.145-1.134-.145-.401 0-.768.06-1.101.178-.326.11-.608.262-.845.454-.23.192-.408.418-.534.676a1.757 1.757 0 00-.189.798c0 .348.089.636.267.865.178.23.408.425.689.587.289.163.619.303.99.422.371.118.745.236 1.123.354.386.119.764.252 1.134.4.371.14.697.317.979.531.289.215.522.477.7.787.178.31.267.688.267 1.131 0 .48-.085.928-.256 1.341-.17.414-.422.773-.756 1.076a3.56 3.56 0 01-1.212.72c-.482.178-1.034.266-1.657.266-.778 0-1.449-.122-2.012-.366a5.76 5.76 0 01-1.513-.975l.245-.377a.435.435 0 01.122-.133.404.404 0 01.201-.044c.096 0 .211.059.344.177.141.118.326.248.556.388.23.133.512.259.845.377.341.118.76.177 1.257.177.467 0 .878-.063 1.234-.188.356-.133.653-.31.89-.532.237-.222.415-.48.533-.776.127-.303.19-.62.19-.954 0-.369-.089-.676-.267-.92a2.29 2.29 0 00-.701-.62 4.864 4.864 0 00-.99-.433 67.658 67.658 0 00-1.123-.354 18.755 18.755 0 01-1.134-.388 4.138 4.138 0 01-.978-.532 2.597 2.597 0 01-.701-.776c-.178-.31-.267-.695-.267-1.153 0-.392.085-.769.256-1.13.17-.363.411-.68.723-.954a3.657 3.657 0 011.156-.654 4.48 4.48 0 011.524-.244c.674 0 1.271.096 1.79.288a4.226 4.226 0 011.434.887l-.222.366zm4.544-1.363v11.029h-1.057V4.788h1.057zm.455-3.802a.832.832 0 01-.088.376 1.05 1.05 0 01-.523.51.938.938 0 01-.378.078.931.931 0 01-.378-.078 1.047 1.047 0 01-.523-.51.926.926 0 01-.078-.376c0-.133.026-.26.078-.377a.972.972 0 011.802 0 .832.832 0 01.088.377zm6.932 9.953c.474 0 .897-.066 1.267-.199.371-.14.682-.332.934-.576a2.44 2.44 0 00.578-.876c.134-.34.201-.717.201-1.13 0-.415-.071-.791-.212-1.131a2.36 2.36 0 00-.589-.887 2.566 2.566 0 00-.934-.565 3.605 3.605 0 00-1.245-.2c-.467 0-.886.067-1.257.2a2.699 2.699 0 00-.934.565 2.42 2.42 0 00-.578.887c-.134.34-.2.716-.2 1.13 0 .414.066.791.2 1.13.133.34.326.633.578.877.259.244.571.436.934.576.371.133.79.2 1.257.2zm4.136 5.62c0-.347-.093-.624-.278-.83a1.732 1.732 0 00-.723-.5 4.193 4.193 0 00-1.056-.244 15.643 15.643 0 00-1.245-.11l-1.301-.067a10.367 10.367 0 01-1.235-.133c-.281.11-.541.24-.778.388-.237.14-.441.303-.612.488a2.23 2.23 0 00-.4.598 1.767 1.767 0 00-.145.71c0 .325.082.624.245.898.171.28.415.52.734.72.326.207.723.37 1.19.488a6.593 6.593 0 001.612.177c.563 0 1.086-.063 1.568-.188a4.312 4.312 0 001.268-.532 2.64 2.64 0 00.845-.82c.207-.318.311-.666.311-1.043zm1.157-11.284v.366c0 .163-.104.262-.312.3l-1.69.121c.208.281.367.595.478.942.111.348.167.725.167 1.131 0 .532-.096 1.016-.289 1.452a3.134 3.134 0 01-.801 1.109c-.341.303-.756.54-1.245.71a4.788 4.788 0 01-1.601.254 4.929 4.929 0 01-1.724-.288 2.42 2.42 0 00-.745.632c-.178.236-.267.473-.267.71 0 .317.111.56.334.73.229.17.526.296.889.378.371.073.79.121 1.257.144.474.022.956.048 1.445.077.49.022.968.067 1.435.133a4.39 4.39 0 011.256.355c.371.162.668.395.89.698.23.296.345.691.345 1.186 0 .459-.115.898-.345 1.32-.23.42-.563.794-1.001 1.119-.43.325-.952.584-1.568.776-.615.2-1.304.3-2.068.3-.778 0-1.46-.082-2.046-.245-.586-.155-1.079-.37-1.479-.643a2.797 2.797 0 01-.89-.93c-.2-.355-.3-.732-.3-1.131 0-.584.193-1.083.578-1.497.386-.421.912-.75 1.579-.986a2.23 2.23 0 01-.9-.543c-.223-.244-.334-.573-.334-.987 0-.155.03-.318.089-.488.059-.17.148-.336.267-.498.119-.17.263-.33.434-.477.17-.148.363-.28.578-.4a3.333 3.333 0 01-1.234-1.207c-.29-.503-.434-1.09-.434-1.763 0-.532.093-1.012.278-1.44.193-.437.463-.81.812-1.12a3.69 3.69 0 011.245-.72 4.919 4.919 0 011.624-.256c.489 0 .937.06 1.345.177.415.119.786.285 1.112.5h2.836zm3.463 1.441a6.305 6.305 0 011.768-1.53 4.46 4.46 0 012.246-.576c.608 0 1.142.096 1.602.288.467.193.852.47 1.156.832.304.362.534.798.69 1.308a5.94 5.94 0 01.233 1.729v7.05h-1.067v-7.05c0-1.035-.238-1.844-.712-2.428-.475-.59-1.197-.886-2.168-.886-.72 0-1.394.184-2.024.554-.623.362-1.179.868-1.668 1.518v8.292h-1.068V4.788h.59c.185 0 .292.093.322.278l.1 1.651zM248.558 37.14c0 1.212-.182 2.302-.545 3.27-.363.968-.875 1.792-1.534 2.472-.66.68-1.453 1.2-2.38 1.563-.919.362-1.935.543-3.047.543h-5.749V29.303h5.749c1.112 0 2.128.181 3.047.543.927.363 1.72.884 2.38 1.563.659.68 1.171 1.504 1.534 2.472s.545 2.055.545 3.26zm-1.179 0c0-1.094-.152-2.069-.456-2.926-.304-.858-.734-1.582-1.29-2.173a5.513 5.513 0 00-2.001-1.352c-.778-.31-1.638-.466-2.58-.466h-4.603v13.845h4.603c.942 0 1.802-.155 2.58-.466a5.512 5.512 0 002.001-1.352c.556-.591.986-1.315 1.29-2.172.304-.858.456-1.837.456-2.938zm11.908 1.22c0-.592-.085-1.12-.255-1.586a3.3 3.3 0 00-.701-1.197 3.006 3.006 0 00-1.09-.742 3.47 3.47 0 00-1.378-.267c-.571 0-1.083.09-1.535.267a3.422 3.422 0 00-1.179.764 3.873 3.873 0 00-.789 1.198 5.53 5.53 0 00-.4 1.562h7.327zm-7.383.676v.21c0 .828.096 1.556.289 2.184.193.628.467 1.156.823 1.585a3.42 3.42 0 001.29.953 4.277 4.277 0 001.69.322c.556 0 1.038-.06 1.446-.178a5.785 5.785 0 001.023-.41c.281-.155.504-.292.667-.41.163-.126.281-.188.356-.188.096 0 .17.037.222.11l.289.355a2.969 2.969 0 01-.712.62 5.048 5.048 0 01-.978.5c-.356.133-.741.24-1.157.321a6.29 6.29 0 01-1.234.122c-.756 0-1.445-.13-2.068-.388a4.432 4.432 0 01-1.601-1.153c-.445-.502-.79-1.116-1.034-1.84-.238-.731-.356-1.566-.356-2.505 0-.79.111-1.518.333-2.184.23-.672.556-1.248.979-1.729a4.49 4.49 0 011.568-1.141c.622-.274 1.327-.41 2.112-.41a4.64 4.64 0 011.735.32c.534.215.997.53 1.39.943.393.407.701.909.923 1.508.23.598.345 1.285.345 2.061 0 .163-.022.274-.067.333-.044.059-.119.089-.222.089h-8.051zm19.909-5.077l-4.671 11.029h-.934l-4.67-11.03h.834c.104 0 .189.03.256.09.066.051.111.11.133.177l3.659 8.701c.111.325.2.647.266.965.067-.318.16-.64.278-.965l3.67-8.701a.476.476 0 01.144-.189.372.372 0 01.234-.077h.801zm9.779 4.401c0-.592-.085-1.12-.256-1.586a3.299 3.299 0 00-.7-1.197 3.006 3.006 0 00-1.09-.742 3.474 3.474 0 00-1.379-.267 4.17 4.17 0 00-1.534.267 3.413 3.413 0 00-1.179.764 3.893 3.893 0 00-.79 1.198c-.2.465-.333.986-.4 1.562h7.328zm-7.383.676v.21c0 .828.096 1.556.289 2.184.192.628.467 1.156.823 1.585.355.421.785.739 1.289.953a4.286 4.286 0 001.691.322c.556 0 1.037-.06 1.445-.178a5.724 5.724 0 001.023-.41 6.55 6.55 0 00.667-.41c.164-.126.282-.188.356-.188.097 0 .171.037.223.11l.289.355a2.969 2.969 0 01-.712.62 5.048 5.048 0 01-.978.5c-.356.133-.742.24-1.157.321a6.297 6.297 0 01-1.234.122 5.35 5.35 0 01-2.068-.388 4.444 4.444 0 01-1.602-1.153c-.444-.502-.789-1.116-1.034-1.84-.237-.731-.356-1.566-.356-2.505 0-.79.112-1.518.334-2.184.23-.672.556-1.248.978-1.729a4.5 4.5 0 011.568-1.141c.623-.274 1.327-.41 2.113-.41a4.64 4.64 0 011.735.32c.534.215.997.53 1.39.943.393.407.7.909.923 1.508.229.598.344 1.285.344 2.061 0 .163-.022.274-.066.333-.045.059-.119.089-.223.089h-8.05zm12.387-10.176v16.128h-1.068V28.86h1.068zm8.122 4.921c.793 0 1.501.137 2.123.41a4.27 4.27 0 011.591 1.142c.43.495.756 1.094.978 1.796.23.695.345 1.474.345 2.339 0 .864-.115 1.644-.345 2.339a5.01 5.01 0 01-.978 1.784c-.43.495-.96.876-1.591 1.142-.622.266-1.33.4-2.123.4-.794 0-1.505-.134-2.135-.4a4.404 4.404 0 01-1.591-1.142 5.156 5.156 0 01-.989-1.784c-.223-.695-.334-1.474-.334-2.34 0-.864.111-1.643.334-2.338.23-.702.559-1.3.989-1.796a4.403 4.403 0 011.591-1.141c.63-.274 1.341-.41 2.135-.41zm0 10.52c.659 0 1.234-.111 1.723-.333a3.26 3.26 0 001.234-.975c.334-.421.582-.928.745-1.519a7.593 7.593 0 00.245-2.006 7.54 7.54 0 00-.245-1.995c-.163-.599-.411-1.109-.745-1.53a3.217 3.217 0 00-1.234-.987c-.489-.229-1.064-.343-1.723-.343-.66 0-1.238.114-1.735.343a3.34 3.34 0 00-1.234.987c-.327.421-.575.931-.745 1.53a7.547 7.547 0 00-.245 1.995c0 .739.081 1.408.245 2.006.17.591.418 1.098.745 1.519a3.38 3.38 0 001.234.975c.497.222 1.075.333 1.735.333zm9.087-1.718c.215.317.437.587.667.809.237.214.486.391.745.532.26.133.534.229.823.288.297.06.608.089.934.089.652 0 1.223-.119 1.713-.355a3.344 3.344 0 001.223-.997 4.46 4.46 0 00.745-1.552 7.37 7.37 0 00.256-1.996c0-1.64-.304-2.845-.912-3.613-.608-.776-1.479-1.164-2.613-1.164-.734 0-1.398.188-1.991.565-.593.377-1.123.902-1.59 1.574v5.82zm-.044-6.64a5.884 5.884 0 011.712-1.585 4.253 4.253 0 012.213-.588c1.356 0 2.413.47 3.169 1.408.763.939 1.145 2.346 1.145 4.223 0 .806-.107 1.56-.322 2.262a5.297 5.297 0 01-.934 1.818c-.408.51-.912.912-1.513 1.208-.593.295-1.278.443-2.057.443-.748 0-1.397-.137-1.946-.41a4.019 4.019 0 01-1.423-1.208v5.376h-1.068V33.959h.59c.185 0 .293.092.322.277l.112 1.707zM248.558 66.31c0 1.212-.182 2.302-.545 3.27-.363.968-.875 1.792-1.534 2.472-.66.68-1.453 1.2-2.38 1.563-.919.362-1.935.543-3.047.543h-5.749V58.473h5.749c1.112 0 2.128.181 3.047.543.927.363 1.72.884 2.38 1.563.659.68 1.171 1.504 1.534 2.472s.545 2.055.545 3.26zm-1.179 0c0-1.094-.152-2.069-.456-2.926-.304-.857-.734-1.582-1.29-2.173a5.512 5.512 0 00-2.001-1.352c-.778-.31-1.638-.466-2.58-.466h-4.603v13.845h4.603c.942 0 1.802-.155 2.58-.466a5.514 5.514 0 002.001-1.352c.556-.591.986-1.315 1.29-2.172.304-.858.456-1.837.456-2.938zm11.908 1.22c0-.592-.085-1.12-.255-1.586a3.302 3.302 0 00-.701-1.197 3.008 3.008 0 00-1.09-.743 3.471 3.471 0 00-1.378-.266c-.571 0-1.083.09-1.535.266a3.423 3.423 0 00-1.179.765 3.872 3.872 0 00-.789 1.197c-.2.466-.334.987-.4 1.564h7.327zm-7.383.676v.21c0 .828.096 1.556.289 2.184.193.628.467 1.156.823 1.585a3.42 3.42 0 001.29.953 4.277 4.277 0 001.69.322c.556 0 1.038-.06 1.446-.178a5.793 5.793 0 001.023-.41c.281-.155.504-.292.667-.41.163-.126.281-.188.356-.188.096 0 .17.037.222.11l.289.355a2.971 2.971 0 01-.712.621 5.053 5.053 0 01-.978.499c-.356.133-.741.24-1.157.321a6.29 6.29 0 01-1.234.122c-.756 0-1.445-.13-2.068-.388a4.431 4.431 0 01-1.601-1.153c-.445-.502-.79-1.115-1.034-1.84-.238-.731-.356-1.566-.356-2.505 0-.79.111-1.518.333-2.183.23-.673.556-1.25.979-1.73a4.49 4.49 0 011.568-1.141c.622-.274 1.327-.41 2.112-.41a4.64 4.64 0 011.735.32c.534.215.997.53 1.39.943.393.407.701.91.923 1.508.23.598.345 1.285.345 2.061 0 .163-.022.274-.067.333-.044.06-.119.089-.222.089h-8.051zm12.387-10.176v16.128h-1.067V58.03h1.067zm4.919 5.099v11.03h-1.056v-11.03h1.056zm.456-3.802a.82.82 0 01-.089.377 1.029 1.029 0 01-.522.51.938.938 0 01-.378.077.932.932 0 01-.378-.077 1.004 1.004 0 01-.312-.211.926.926 0 01-.289-.676c0-.133.026-.259.078-.377a.972.972 0 011.279-.532.957.957 0 01.522.532.82.82 0 01.089.377zm12.202 3.802l-4.67 11.03h-.934l-4.67-11.03h.834a.37.37 0 01.255.089c.067.051.111.11.134.177l3.658 8.701c.111.325.2.647.267.965.067-.318.159-.64.278-.965l3.669-8.701a.488.488 0 01.145-.189.372.372 0 01.234-.077h.8zm9.78 4.401c0-.592-.086-1.12-.256-1.586a3.302 3.302 0 00-.701-1.197 3.012 3.012 0 00-1.089-.743 3.48 3.48 0 00-1.379-.266c-.571 0-1.083.09-1.535.266a3.409 3.409 0 00-1.178.765c-.327.333-.59.732-.79 1.197-.2.466-.334.987-.4 1.564h7.328zm-7.384.676v.21c0 .828.097 1.556.289 2.184.193.628.467 1.156.823 1.585a3.42 3.42 0 001.29.953 4.277 4.277 0 001.69.322c.556 0 1.038-.06 1.446-.178a5.793 5.793 0 001.023-.41c.281-.155.504-.292.667-.41.163-.126.282-.188.356-.188.096 0 .17.037.222.11l.289.355a2.984 2.984 0 01-.711.621 5.062 5.062 0 01-.979.499 7.31 7.31 0 01-1.156.321 6.3 6.3 0 01-1.235.122c-.756 0-1.445-.13-2.068-.388a4.44 4.44 0 01-1.601-1.153c-.445-.502-.79-1.115-1.034-1.84-.238-.731-.356-1.566-.356-2.505 0-.79.111-1.518.333-2.183.23-.673.556-1.25.979-1.73a4.5 4.5 0 011.568-1.141c.623-.274 1.327-.41 2.113-.41.622 0 1.201.107 1.734.32.534.215.997.53 1.39.943.393.407.701.91.923 1.508.23.598.345 1.285.345 2.061 0 .163-.022.274-.067.333-.044.06-.118.089-.222.089h-8.051zm12.231-2.416c.171-.452.364-.85.579-1.198.222-.355.474-.654.756-.898.289-.244.608-.428.956-.554.356-.133.749-.2 1.179-.2.23 0 .456.023.678.067.223.037.419.107.59.21l-.089.732c-.038.118-.108.177-.212.177a1.69 1.69 0 01-.411-.077 2.631 2.631 0 00-.712-.078c-.43 0-.812.067-1.145.2a2.634 2.634 0 00-.89.576c-.259.259-.489.58-.689.965a9.162 9.162 0 00-.534 1.308v7.138h-1.067v-11.03h.567c.126 0 .215.027.267.078.051.052.085.14.1.266l.077 2.317z" fill="#333"/></svg>