<svg width="820" height="820" viewBox="0 0 820 820" fill="none" xmlns="http://www.w3.org/2000/svg">
<path d="M410 819C635.884 819 819 635.884 819 410C819 184.116 635.884 1 410 1C184.116 1 1 184.116 1 410C1 635.884 184.116 819 410 819Z" stroke="#D6D6D6" stroke-miterlimit="10"/>
<path d="M410 441.461C427.375 441.461 441.461 427.376 441.461 410C441.461 392.624 427.375 378.538 410 378.538C392.624 378.538 378.538 392.624 378.538 410C378.538 427.376 392.624 441.461 410 441.461Z" stroke="#D6D6D6" stroke-miterlimit="10"/>
<path d="M410 472.923C444.751 472.923 472.923 444.751 472.923 410C472.923 375.248 444.751 347.077 410 347.077C375.248 347.077 347.077 375.248 347.077 410C347.077 444.751 375.248 472.923 410 472.923Z" stroke="#D6D6D6" stroke-miterlimit="10"/>
<path d="M503.884 410C503.884 461.851 461.85 503.885 409.999 503.885C358.148 503.885 316.115 461.851 316.115 410C316.115 358.149 358.148 316.115 409.999 316.115C461.85 316.115 503.884 358.149 503.884 410Z" fill="url(#paint0_linear)" stroke="#D6D6D6"/>
<path d="M409.999 535.846C479.502 535.846 535.846 479.503 535.846 410C535.846 340.497 479.502 284.154 409.999 284.154C340.497 284.154 284.153 340.497 284.153 410C284.153 479.503 340.497 535.846 409.999 535.846Z" stroke="#D6D6D6" stroke-miterlimit="10"/>
<path d="M410 567.308C496.878 567.308 567.307 496.879 567.307 410C567.307 323.121 496.878 252.692 410 252.692C323.121 252.692 252.692 323.121 252.692 410C252.692 496.879 323.121 567.308 410 567.308Z" stroke="#D6D6D6" stroke-miterlimit="10"/>
<path d="M410.001 598.769C514.256 598.769 598.77 514.254 598.77 410C598.77 305.746 514.256 221.231 410.001 221.231C305.747 221.231 221.232 305.746 221.232 410C221.232 514.254 305.747 598.769 410.001 598.769Z" stroke="#D6D6D6" stroke-miterlimit="10"/>
<path d="M409.999 630.231C531.629 630.231 630.23 531.63 630.23 410C630.23 288.37 531.629 189.769 409.999 189.769C288.369 189.769 189.768 288.37 189.768 410C189.768 531.63 288.369 630.231 409.999 630.231Z" stroke="#D6D6D6" stroke-miterlimit="10"/>
<path d="M410 661.692C549.006 661.692 661.693 549.006 661.693 410C661.693 270.994 549.006 158.308 410 158.308C270.995 158.308 158.308 270.994 158.308 410C158.308 549.006 270.995 661.692 410 661.692Z" stroke="#D6D6D6" stroke-miterlimit="10"/>
<path d="M410.001 693.154C566.382 693.154 693.154 566.382 693.154 410C693.154 253.618 566.382 126.846 410.001 126.846C253.619 126.846 126.847 253.618 126.847 410C126.847 566.382 253.619 693.154 410.001 693.154Z" stroke="#D6D6D6" stroke-miterlimit="10"/>
<path d="M410 724.615C583.757 724.615 724.616 583.757 724.616 410C724.616 236.243 583.757 95.3846 410 95.3846C236.243 95.3846 95.3848 236.243 95.3848 410C95.3848 583.757 236.243 724.615 410 724.615Z" stroke="#D6D6D6" stroke-miterlimit="10"/>
<path d="M410 756.077C601.133 756.077 756.077 601.133 756.077 410C756.077 218.867 601.133 63.9232 410 63.9232C218.867 63.9232 63.9233 218.867 63.9233 410C63.9233 601.133 218.867 756.077 410 756.077Z" stroke="#D6D6D6" stroke-miterlimit="10"/>
<path d="M410 787.538C618.509 787.538 787.539 618.509 787.539 410C787.539 201.491 618.509 32.4614 410 32.4614C201.492 32.4614 32.4619 201.491 32.4619 410C32.4619 618.509 201.492 787.538 410 787.538Z" stroke="#D6D6D6" stroke-miterlimit="10"/>
<defs>
<linearGradient id="paint0_linear" x1="504.384" y1="315.615" x2="315.615" y2="315.615" gradientUnits="userSpaceOnUse">
<stop stop-color="#C63527"/>
<stop offset="0.499276" stop-color="#FF5E00"/>
<stop offset="1" stop-color="#FF8200"/>
</linearGradient>
</defs>
</svg>
