<svg width="154" height="60" fill="none" xmlns="http://www.w3.org/2000/svg"><path d="M12.908 31.304l12.908 7.174-12.908 7.174L0 38.478l12.908-7.174z" fill="#C63527"/><path d="M38.724 45.652l12.908 7.174L38.724 60l-12.908-7.174 12.908-7.174z" fill="#009CA6"/><path d="M0 7.174L12.908 0v45.652L0 38.478V7.174z" fill="#FF5E00"/><path fill-rule="evenodd" clip-rule="evenodd" d="M51.632 21.522l-12.908-7.174V60l12.908-7.174V21.522z" fill="#2AD2C9"/><path d="M12.908 0l12.908 7.174-12.908 7.174L0 7.174 12.908 0z" fill="#FF8200"/><path d="M38.724 14.348l12.908 7.174-12.908 7.174-12.908-7.174 12.908-7.174z" fill="#7EDDD3"/><path d="M75.84 24.321a1.233 1.233 0 01-.334.402.725.725 0 01-.424.116c-.18 0-.377-.065-.591-.194a11.284 11.284 0 00-.745-.453 5.776 5.776 0 00-1.029-.44c-.385-.138-.844-.207-1.375-.207-.48 0-.9.06-1.26.181a2.63 2.63 0 00-.913.479c-.24.207-.42.457-.54.75-.12.285-.18.6-.18.945 0 .44.12.807.36 1.1.249.294.575.544.977.751a8.97 8.97 0 001.376.556 56.6 56.6 0 011.58.531c.54.181 1.068.397 1.582.647.514.242.972.552 1.375.932.403.371.724.828.964 1.372.249.543.373 1.203.373 1.98 0 .846-.145 1.64-.437 2.381a5.443 5.443 0 01-1.26 1.929c-.548.543-1.22.974-2.018 1.294-.797.31-1.71.466-2.738.466a8.46 8.46 0 01-1.748-.181 8.971 8.971 0 01-1.658-.492 8.938 8.938 0 01-1.478-.777 7.174 7.174 0 01-1.234-1.01l1.015-1.669c.086-.12.197-.22.334-.297a.808.808 0 01.438-.13c.214 0 .445.09.694.272.248.172.544.367.887.582.342.216.74.414 1.195.596.463.172 1.015.258 1.658.258.986 0 1.748-.233 2.288-.698.54-.475.81-1.152.81-2.032 0-.492-.124-.893-.373-1.204-.24-.31-.561-.57-.964-.776a6.936 6.936 0 00-1.375-.544 45.382 45.382 0 01-1.568-.479 13.457 13.457 0 01-1.569-.621 5.08 5.08 0 01-1.375-.945 4.395 4.395 0 01-.977-1.45c-.24-.586-.36-1.306-.36-2.16a5.2 5.2 0 01.399-1.994 5.229 5.229 0 011.182-1.72c.514-.501 1.149-.902 1.903-1.204.754-.302 1.62-.453 2.596-.453 1.097 0 2.108.172 3.034.517.925.345 1.714.829 2.365 1.45l-.861 1.643zm15.038 2.032l-7.185 16.928a1.16 1.16 0 01-.373.505c-.145.12-.373.181-.681.181h-2.365l2.468-5.332-5.335-12.282h2.79c.248 0 .44.06.578.181.146.121.253.26.321.415l2.803 6.885c.094.233.171.465.231.698.069.234.133.47.193.712.077-.241.154-.478.231-.712.077-.241.163-.478.257-.711l2.648-6.872a.93.93 0 01.874-.595h2.545zm4.547 1.631c.265-.268.544-.513.835-.738a5.12 5.12 0 012.005-.957 5.05 5.05 0 011.234-.143c.72 0 1.359.125 1.916.375a3.642 3.642 0 011.388 1.036c.377.44.66.97.848 1.592a6.61 6.61 0 01.296 2.032v8.45h-3.175v-8.45c0-.812-.184-1.437-.553-1.877-.368-.449-.93-.673-1.684-.673-.548 0-1.062.125-1.542.375s-.934.591-1.363 1.023v9.603h-3.175V26.353h1.941c.412 0 .682.194.81.583l.219 1.048zm15.762 11.855c-1.148 0-2.031-.324-2.648-.971-.609-.656-.913-1.557-.913-2.705v-7.415h-1.349a.614.614 0 01-.437-.169c-.12-.112-.18-.28-.18-.505v-1.268l2.12-.35.669-3.623a.711.711 0 01.244-.401.723.723 0 01.463-.142h1.645v4.18h3.522v2.277h-3.522v7.196c0 .414.099.738.296.97.205.234.484.35.835.35.197 0 .36-.021.489-.064.137-.052.253-.104.347-.156.103-.051.193-.099.27-.142a.411.411 0 01.231-.078c.094 0 .172.026.232.078.06.043.124.112.192.207l.952 1.553a4.809 4.809 0 01-1.594.88c-.6.198-1.221.298-1.864.298zm13.565-8.374c0-.414-.06-.802-.18-1.165a2.7 2.7 0 00-.514-.97 2.346 2.346 0 00-.887-.647c-.351-.164-.763-.246-1.234-.246-.917 0-1.641.263-2.172.79-.523.526-.857 1.272-1.003 2.238h5.99zm-6.054 1.929c.051.681.171 1.272.36 1.773.188.491.437.901.745 1.23.309.318.673.56 1.093.724.428.155.9.233 1.414.233.514 0 .955-.06 1.324-.181a5.92 5.92 0 00.977-.402c.282-.146.527-.28.732-.4a1.25 1.25 0 01.617-.182c.266 0 .463.1.592.298l.912 1.164a5.435 5.435 0 01-1.182 1.049 7.04 7.04 0 01-1.376.673 7.57 7.57 0 01-1.452.35c-.489.068-.964.103-1.427.103a7.09 7.09 0 01-2.558-.453 5.845 5.845 0 01-2.057-1.36c-.582-.603-1.041-1.345-1.375-2.225-.334-.889-.501-1.915-.501-3.08 0-.906.145-1.756.437-2.55a6.118 6.118 0 011.247-2.084 5.933 5.933 0 011.992-1.41c.788-.345 1.675-.518 2.661-.518a6.43 6.43 0 012.301.401 4.98 4.98 0 011.812 1.178c.506.51.9 1.139 1.183 1.89.291.742.437 1.591.437 2.55 0 .482-.052.81-.155.983-.102.164-.3.246-.591.246h-8.162zm20.738-4.232a1.46 1.46 0 01-.283.284c-.085.07-.214.104-.385.104a.897.897 0 01-.476-.143 8.174 8.174 0 00-.553-.336 3.569 3.569 0 00-.771-.336c-.291-.104-.656-.156-1.093-.156-.557 0-1.045.104-1.465.31-.42.2-.771.488-1.054.868-.274.38-.48.841-.617 1.385a7.375 7.375 0 00-.206 1.825c0 .707.073 1.337.219 1.889.154.552.373 1.018.655 1.398.283.37.626.656 1.029.854.403.19.857.285 1.362.285.506 0 .913-.06 1.221-.181.318-.13.583-.268.797-.415.215-.155.399-.293.553-.414a.848.848 0 01.54-.194c.257 0 .45.1.578.298l.913 1.164a5.927 5.927 0 01-1.144 1.049c-.411.276-.84.5-1.285.673-.437.164-.892.28-1.363.35a9.398 9.398 0 01-1.388.103 5.888 5.888 0 01-2.301-.453 5.51 5.51 0 01-1.89-1.346c-.539-.587-.968-1.303-1.285-2.148-.308-.855-.463-1.825-.463-2.912 0-.975.137-1.877.412-2.705a6.142 6.142 0 011.234-2.162 5.591 5.591 0 012.005-1.436c.797-.345 1.714-.518 2.751-.518.985 0 1.846.16 2.583.479a6.33 6.33 0 012.006 1.372l-.836 1.165zm6.129-1.385a6.906 6.906 0 011.697-1.178c.617-.302 1.341-.453 2.172-.453.72 0 1.359.125 1.916.375.557.242 1.02.587 1.388 1.036.377.44.66.97.848 1.592a6.61 6.61 0 01.296 2.032v8.45h-3.175v-8.45c0-.812-.184-1.437-.553-1.877-.368-.449-.929-.673-1.684-.673-.548 0-1.062.125-1.542.375s-.934.591-1.363 1.023v9.603h-3.175V20.4h3.175v7.377zM97.827 48.159a6.941 6.941 0 00-.39-.175 3.471 3.471 0 00-.51-.17 5.32 5.32 0 00-.638-.123 5.453 5.453 0 00-.79-.053c-.351 0-.664.02-.94.062-.272.04-.503.105-.695.192a1.11 1.11 0 00-.434.324.758.758 0 00-.148.468.61.61 0 00.14.398c.095.114.222.214.382.302.162.087.35.168.564.24.218.07.447.138.687.202l.747.188c.258.064.507.134.748.21.243.073.472.156.686.25.218.09.406.196.565.319.162.122.29.262.383.42.095.157.143.34.143.547 0 .224-.042.42-.126.59-.084.166-.198.31-.343.433-.142.12-.31.22-.504.302a3.547 3.547 0 01-.617.188 5.003 5.003 0 01-.678.096c-.232.02-.46.031-.687.031-.518 0-.989-.038-1.412-.114a8.193 8.193 0 01-1.204-.31v-.67c.394.237.81.398 1.248.486.44.087.902.131 1.386.131.341 0 .657-.02.947-.061.29-.04.54-.105.752-.193.211-.09.375-.207.49-.35a.794.794 0 00.179-.525.701.701 0 00-.144-.437 1.224 1.224 0 00-.382-.328 2.837 2.837 0 00-.565-.254 9.076 9.076 0 00-.682-.201 21.6 21.6 0 00-.748-.184 16.245 16.245 0 01-.742-.197c-.24-.07-.47-.148-.687-.236a2.733 2.733 0 01-.565-.306 1.504 1.504 0 01-.382-.412 1.026 1.026 0 01-.14-.538 1.204 1.204 0 01.422-.94 1.81 1.81 0 01.465-.285c.177-.078.365-.14.565-.183.203-.047.413-.08.63-.1a6.877 6.877 0 011.899.082c.194.032.382.07.565.114.185.044.372.09.56.14v.63zm9.421 2.121c0 .54-.097 1.007-.291 1.4a2.708 2.708 0 01-.8.972 3.457 3.457 0 01-1.199.564 5.782 5.782 0 01-1.49.184 5.847 5.847 0 01-1.499-.184 3.494 3.494 0 01-1.208-.564 2.696 2.696 0 01-.804-.971c-.194-.394-.291-.86-.291-1.4 0-.359.044-.684.134-.976a2.76 2.76 0 01.378-.787 2.57 2.57 0 01.587-.604c.232-.17.488-.31.769-.42a4.3 4.3 0 01.913-.25 6.05 6.05 0 011.021-.083c.533 0 1.029.062 1.49.184.461.123.86.312 1.199.569.339.254.606.577.8.971.194.391.291.856.291 1.396zm-.561 0c0-.425-.069-.801-.208-1.128a2.09 2.09 0 00-.608-.822 2.701 2.701 0 00-1.009-.508 4.986 4.986 0 00-1.394-.175c-.53 0-.998.058-1.404.175a2.78 2.78 0 00-1.012.512 2.096 2.096 0 00-.617.827c-.139.326-.209.7-.209 1.12 0 .426.07.802.209 1.129.139.326.344.602.617.826.272.222.609.391 1.012.508.406.114.874.17 1.404.17a5.1 5.1 0 001.394-.17 2.792 2.792 0 001.009-.508c.269-.224.472-.5.608-.826.139-.327.208-.703.208-1.13zm5.284-2.497c-.437 0-.814.03-1.129.092-.316.058-.577.15-.782.275a1.19 1.19 0 00-.452.481 1.533 1.533 0 00-.148.7v.67h5.101v.512h-5.101v2.769h-.543V49.24c0-.31.053-.587.161-.832.11-.245.283-.45.521-.617.238-.169.542-.297.912-.384a5.798 5.798 0 011.352-.136h2.785v.512h-2.677zm6.723-.013v5.512h-.539V47.77h-2.716v-.5h5.971v.5h-2.716zm8.956-.5l2.129 5.574 2.207-5.573h.604l-2.403 6.01h-.808l-2.094-5.428-2.09 5.429h-.809l-2.403-6.011h.604l2.208 5.573 2.125-5.573h.73zm11.758 6.012v-.665a5.12 5.12 0 01-.713.315 8.156 8.156 0 01-2.655.468c-.388 0-.737-.035-1.047-.105a2.452 2.452 0 01-.782-.31 1.502 1.502 0 01-.495-.517 1.444 1.444 0 01-.174-.717c0-.269.067-.505.2-.709.136-.207.329-.386.578-.538a3.74 3.74 0 01.899-.39 9.419 9.419 0 011.182-.27c.435-.077.904-.138 1.408-.184.507-.05 1.04-.09 1.599-.123v-.46c0-.186-.035-.35-.104-.494a1.14 1.14 0 00-.291-.372 1.617 1.617 0 00-.439-.266 3.016 3.016 0 00-.548-.175 4.415 4.415 0 00-.617-.092 6.82 6.82 0 00-.647-.03 6.7 6.7 0 00-.8.043 6.099 6.099 0 00-1.273.297 17.81 17.81 0 00-.578.215v-.639c.403-.108.832-.201 1.286-.28a8.284 8.284 0 011.456-.123c.434 0 .84.038 1.217.114.376.073.704.191.982.355.278.163.496.374.656.634.159.257.239.57.239.94v4.078h-.539zm0-3.26a28.65 28.65 0 00-2.429.224c-.669.096-1.217.214-1.642.354-.426.14-.739.303-.939.49-.197.187-.296.398-.296.634a.92.92 0 00.144.512c.098.15.239.275.421.377.183.099.404.175.665.227.261.05.553.074.878.074a6.03 6.03 0 001.204-.122 7.269 7.269 0 001.155-.32c.174-.064.332-.132.474-.205.145-.073.266-.147.365-.223v-2.021zm7-2.287a3.38 3.38 0 00-.352-.084 2.78 2.78 0 00-.573-.048c-.325 0-.63.041-.917.123a3.607 3.607 0 00-.795.324 4 4 0 00-.678.48 4.88 4.88 0 00-.565.578v4.174h-.543V47.27h.543v1.225c.194-.201.404-.387.63-.556a4.348 4.348 0 011.512-.717 3.513 3.513 0 011.134-.096c.082.002.155.008.222.017a3.34 3.34 0 01.382.053v.538zm7.101 5.232c-.244.076-.47.141-.678.197a7.048 7.048 0 01-.617.127 8.279 8.279 0 01-1.312.1 5.461 5.461 0 01-1.586-.214 3.57 3.57 0 01-1.208-.613 2.745 2.745 0 01-.765-.97c-.18-.38-.27-.806-.27-1.278 0-.458.086-.878.257-1.26.174-.382.416-.71.725-.985.31-.274.681-.487 1.113-.638a4.283 4.283 0 011.429-.228c.542 0 1.024.073 1.447.219.423.146.78.354 1.069.626.29.27.51.6.661.988.15.385.226.82.226 1.304v.136h-6.366c.032.373.125.71.278 1.01.154.3.371.556.652.766.284.21.631.372 1.043.485.414.111.896.167 1.447.167.234 0 .472-.016.712-.048a5.965 5.965 0 001.295-.31c.183-.071.332-.142.448-.215v.634zM153.465 50a2.706 2.706 0 00-.204-.875 2.08 2.08 0 00-.521-.74 2.483 2.483 0 00-.878-.507c-.354-.125-.778-.188-1.273-.188-.467 0-.875.063-1.226.188-.35.125-.647.294-.89.507-.244.21-.435.455-.574.735a2.67 2.67 0 00-.265.88h5.831z" fill="#000"/></svg>