<svg width="178" height="68" fill="none" xmlns="http://www.w3.org/2000/svg"><path fill-rule="evenodd" clip-rule="evenodd" d="M14.733 35.382l14.734 8.108-14.734 8.11L0 43.49l14.733-8.109z" fill="#AAA"/><path fill-rule="evenodd" clip-rule="evenodd" d="M44.2 51.599l14.733 8.108L44.2 67.816l-14.733-8.109L44.2 51.6z" fill="#999"/><path fill-rule="evenodd" clip-rule="evenodd" d="M0 8.109L14.733 0v51.6L0 43.49V8.11z" fill="#FAFAFA"/><path fill-rule="evenodd" clip-rule="evenodd" d="M58.933 24.326L44.2 16.216v51.6l14.733-8.108V24.326z" fill="#fff"/><path fill-rule="evenodd" clip-rule="evenodd" d="M14.733 0l14.734 8.108-14.734 8.109L0 8.108 14.733 0z" fill="#CCC"/><path fill-rule="evenodd" clip-rule="evenodd" d="M44.2 16.217l14.733 8.108L44.2 32.434l-14.733-8.109L44.2 16.217z" fill="#DDD"/><path d="M86.174 28.29a1.402 1.402 0 01-.381.455.831.831 0 01-.484.132c-.206 0-.43-.073-.675-.22a12.876 12.876 0 00-.851-.514 6.609 6.609 0 00-1.174-.499c-.44-.156-.963-.234-1.57-.234-.548 0-1.027.068-1.438.205-.41.127-.758.308-1.041.543-.274.235-.48.518-.617.85a2.72 2.72 0 00-.205 1.072c0 .499.137.915.41 1.247.284.333.656.616 1.116.851.46.235.983.445 1.57.631a62.53 62.53 0 011.804.602c.617.205 1.218.45 1.805.733.587.274 1.11.626 1.57 1.057.46.42.827.939 1.1 1.555.284.616.426 1.364.426 2.245 0 .958-.166 1.858-.499 2.7a6.169 6.169 0 01-1.438 2.186c-.626.616-1.394 1.105-2.303 1.467-.91.352-1.952.528-3.126.528-.674 0-1.34-.069-1.995-.205a10.29 10.29 0 01-1.893-.558 10.22 10.22 0 01-1.687-.88 8.172 8.172 0 01-1.408-1.145l1.159-1.892c.097-.137.225-.25.381-.338a.925.925 0 01.499-.147c.245 0 .509.103.792.309.284.195.621.415 1.013.66.39.244.846.47 1.364.675.528.195 1.16.293 1.893.293 1.125 0 1.995-.264 2.612-.792.616-.538.924-1.306.924-2.304 0-.557-.142-1.012-.426-1.364a3.222 3.222 0 00-1.1-.88 7.959 7.959 0 00-1.57-.617 52.113 52.113 0 01-1.79-.543 15.424 15.424 0 01-1.79-.704 5.8 5.8 0 01-1.57-1.071 4.978 4.978 0 01-1.115-1.643c-.274-.665-.41-1.482-.41-2.45 0-.773.15-1.527.454-2.26a5.927 5.927 0 011.35-1.951c.587-.568 1.31-1.023 2.171-1.365.861-.342 1.85-.514 2.964-.514 1.252 0 2.406.196 3.463.587 1.056.392 1.956.94 2.7 1.644l-.984 1.863zm17.165 2.303l-8.202 19.192c-.107.254-.25.445-.425.572-.166.137-.426.205-.778.205h-2.7l2.818-6.044-6.09-13.925h3.184c.284 0 .504.069.66.206.167.137.29.293.368.47l3.198 7.805c.108.264.196.528.264.792.079.264.152.534.22.807.088-.273.176-.543.264-.807.088-.273.186-.542.294-.807l3.022-7.79a1.068 1.068 0 01.998-.675h2.905zm5.189 1.85c.304-.304.622-.583.954-.837a5.899 5.899 0 012.289-1.086 5.8 5.8 0 011.409-.161c.821 0 1.55.142 2.186.425a4.143 4.143 0 011.584 1.174c.431.499.753 1.1.969 1.805.225.694.337 1.462.337 2.303v9.581h-3.624v-9.58c0-.92-.21-1.63-.631-2.128-.42-.509-1.061-.763-1.922-.763-.626 0-1.213.142-1.761.425a6.324 6.324 0 00-1.555 1.16v10.886h-3.624V30.594h2.216c.469 0 .777.22.924.66l.249 1.188zm17.992 13.439c-1.311 0-2.318-.367-3.022-1.1-.695-.744-1.042-1.766-1.042-3.067v-8.407h-1.541a.708.708 0 01-.499-.19c-.137-.128-.205-.319-.205-.573v-1.438l2.421-.396.763-4.108a.806.806 0 01.279-.455.83.83 0 01.528-.162h1.878v4.74h4.02v2.582h-4.02v8.158c0 .47.112.836.337 1.1.235.264.553.396.954.396.225 0 .411-.024.558-.073.156-.059.288-.117.396-.176.117-.059.22-.113.308-.162a.473.473 0 01.264-.088.39.39 0 01.264.088c.069.05.142.127.22.235l1.086 1.76a5.49 5.49 0 01-1.819.998 6.774 6.774 0 01-2.128.338zm15.484-9.493c0-.47-.068-.91-.205-1.32a3.07 3.07 0 00-.587-1.1 2.681 2.681 0 00-1.013-.735c-.401-.185-.87-.278-1.408-.278-1.047 0-1.873.298-2.48.895-.596.596-.978 1.443-1.144 2.538h6.837zm-6.911 2.186c.059.773.196 1.443.411 2.01.215.558.499 1.023.851 1.394a3.47 3.47 0 001.247.822 4.733 4.733 0 001.614.264c.587 0 1.091-.069 1.512-.206.43-.136.802-.288 1.115-.454.322-.167.601-.318.836-.455a1.44 1.44 0 01.704-.206c.303 0 .528.113.675.338l1.042 1.32c-.401.47-.851.866-1.35 1.189a8.026 8.026 0 01-1.57.763 8.716 8.716 0 01-1.658.396c-.557.078-1.1.117-1.628.117a8.145 8.145 0 01-2.92-.513 6.668 6.668 0 01-2.348-1.54c-.665-.685-1.188-1.527-1.57-2.524-.381-1.008-.572-2.172-.572-3.492 0-1.028.166-1.99.499-2.89a6.93 6.93 0 011.423-2.363 6.78 6.78 0 012.274-1.6c.9-.39 1.913-.586 3.037-.586.949 0 1.825.151 2.627.455a5.684 5.684 0 012.069 1.335c.577.577 1.027 1.29 1.349 2.142.333.841.499 1.805.499 2.89 0 .548-.058.92-.176 1.115-.117.186-.342.28-.675.28h-9.317zm23.672-4.798a1.677 1.677 0 01-.323.323c-.098.078-.244.118-.44.118-.186 0-.367-.054-.543-.162a9.489 9.489 0 00-.631-.381 4.097 4.097 0 00-.88-.382c-.333-.117-.748-.176-1.247-.176-.636 0-1.194.117-1.673.352a3.17 3.17 0 00-1.203.983c-.313.43-.548.954-.704 1.57-.157.607-.235 1.296-.235 2.069 0 .802.083 1.516.249 2.142.176.626.426 1.154.749 1.585.322.42.714.743 1.173.968.46.215.979.323 1.556.323.577 0 1.041-.069 1.394-.206.361-.146.665-.303.909-.469.245-.176.455-.333.631-.47a.971.971 0 01.616-.22c.294 0 .514.113.661.338l1.041 1.32c-.401.47-.836.866-1.305 1.189-.47.313-.959.567-1.468.763a7.557 7.557 0 01-1.555.396c-.528.078-1.056.117-1.585.117a6.76 6.76 0 01-2.626-.513 6.295 6.295 0 01-2.157-1.526c-.616-.665-1.105-1.477-1.467-2.436-.352-.968-.528-2.069-.528-3.301 0-1.105.156-2.127.469-3.066.323-.95.793-1.766 1.409-2.45a6.376 6.376 0 012.289-1.63c.909-.39 1.956-.586 3.14-.586 1.125 0 2.108.18 2.949.543a7.2 7.2 0 012.289 1.555l-.954 1.32zm6.996-1.57a7.877 7.877 0 011.937-1.335c.704-.342 1.531-.513 2.48-.513.821 0 1.55.142 2.186.425a4.143 4.143 0 011.584 1.174c.431.499.754 1.1.969 1.805.225.694.337 1.462.337 2.303v9.581h-3.624v-9.58c0-.92-.21-1.63-.631-2.128-.42-.509-1.061-.763-1.922-.763a3.77 3.77 0 00-1.76.425 6.31 6.31 0 00-1.556 1.16v10.886h-3.624V23.844h3.624v8.364zM111.05 54.11a7.724 7.724 0 00-.447-.2 3.943 3.943 0 00-.58-.193 6.104 6.104 0 00-.729-.139 6.26 6.26 0 00-.903-.06c-.4 0-.757.024-1.071.07a2.988 2.988 0 00-.794.218c-.215.096-.38.219-.496.367a.857.857 0 00-.168.531.69.69 0 00.158.452c.109.129.255.243.437.342.185.099.4.19.645.273.248.079.509.155.783.228l.853.213c.295.073.579.152.853.238.278.083.539.177.784.283.248.102.463.223.645.362.185.139.33.297.436.476.109.179.164.385.164.62 0 .255-.048.478-.144.67a1.553 1.553 0 01-.392.49c-.162.136-.354.25-.575.343-.218.09-.453.16-.704.213-.248.053-.506.09-.774.11a9.02 9.02 0 01-.784.034 9.24 9.24 0 01-1.612-.129 9.423 9.423 0 01-1.374-.352v-.759c.45.268.925.451 1.424.55.503.1 1.03.15 1.582.15.39 0 .751-.024 1.081-.07a3.6 3.6 0 00.858-.218 1.42 1.42 0 00.561-.397.899.899 0 00.203-.595.792.792 0 00-.163-.496 1.403 1.403 0 00-.437-.372 3.261 3.261 0 00-.645-.288 10.379 10.379 0 00-.778-.228 22.895 22.895 0 00-.854-.208c-.29-.07-.573-.144-.848-.224a8.411 8.411 0 01-.783-.267c-.245-.1-.46-.215-.645-.348a1.722 1.722 0 01-.437-.466 1.164 1.164 0 01-.158-.61 1.356 1.356 0 01.481-1.066c.152-.13.329-.237.531-.323a3.37 3.37 0 01.644-.208c.232-.053.472-.09.72-.114a7.901 7.901 0 012.167.094c.221.037.436.08.645.13.211.049.425.102.64.158v.714zm10.753 2.405c0 .611-.111 1.14-.333 1.587-.221.443-.525.81-.912 1.1a3.942 3.942 0 01-1.369.64 6.644 6.644 0 01-1.701.209c-.612 0-1.182-.07-1.711-.208a4.016 4.016 0 01-1.379-.64 3.068 3.068 0 01-.918-1.101c-.221-.447-.332-.976-.332-1.587 0-.407.051-.776.154-1.107.102-.333.246-.631.431-.892.185-.265.408-.493.67-.685a3.91 3.91 0 01.878-.476 4.915 4.915 0 011.041-.282c.37-.063.759-.095 1.166-.095.608 0 1.175.07 1.701.209.526.138.982.353 1.369.644.387.288.691.655.912 1.101.222.444.333.97.333 1.583zm-.64 0c0-.483-.079-.91-.238-1.28a2.372 2.372 0 00-.695-.932c-.307-.255-.691-.447-1.15-.576-.457-.132-.987-.198-1.592-.198-.605 0-1.139.066-1.602.198-.46.132-.845.326-1.156.58a2.376 2.376 0 00-.704.938 3.19 3.19 0 00-.238 1.27c0 .482.079.909.238 1.28.158.37.393.682.704.937.311.25.696.443 1.156.575.463.129.997.193 1.602.193.605 0 1.135-.064 1.592-.193a3.185 3.185 0 001.15-.575 2.42 2.42 0 00.695-.938c.159-.37.238-.797.238-1.28zm6.031-2.833c-.499 0-.929.035-1.289.105a2.64 2.64 0 00-.893.312 1.366 1.366 0 00-.516.546 1.74 1.74 0 00-.168.793v.76h5.822v.58h-5.822v3.139h-.62v-4.583c0-.35.061-.665.183-.942a1.7 1.7 0 01.595-.7c.271-.191.619-.337 1.042-.436.426-.102.941-.154 1.542-.154h3.18v.58h-3.056zm7.673-.014v6.249h-.615v-6.25h-3.099v-.565h6.814v.566h-3.1zm10.223-.566l2.43 6.319 2.52-6.319h.689l-2.742 6.815h-.923l-2.391-6.155-2.385 6.155h-.923l-2.743-6.815h.69l2.519 6.319 2.426-6.319h.833zm13.422 6.815v-.754c-.239.13-.51.248-.814.357a9.316 9.316 0 01-3.03.53c-.443 0-.842-.039-1.196-.118a2.809 2.809 0 01-.892-.352 1.7 1.7 0 01-.566-.585 1.631 1.631 0 01-.198-.814c0-.304.076-.572.228-.803.155-.235.375-.438.66-.61a4.271 4.271 0 011.026-.442c.404-.122.853-.225 1.349-.307a20.349 20.349 0 011.607-.209 45.992 45.992 0 011.826-.139v-.52c0-.212-.04-.399-.119-.56a1.29 1.29 0 00-.333-.422 1.833 1.833 0 00-.501-.303 3.465 3.465 0 00-.625-.198 5.054 5.054 0 00-.704-.105 7.83 7.83 0 00-.739-.034c-.334 0-.638.016-.913.05-.274.032-.53.079-.768.138a6.9 6.9 0 00-.685.199c-.218.076-.438.157-.659.243v-.724a16.37 16.37 0 011.468-.318 9.508 9.508 0 011.661-.139c.496 0 .959.043 1.389.13.43.082.803.216 1.121.4.317.186.567.426.749.72.182.291.273.646.273 1.066v4.623h-.615zm0-3.695c-1.082.06-2.006.144-2.773.253-.764.109-1.389.243-1.875.402-.486.158-.843.343-1.071.555-.225.212-.337.451-.337.72 0 .218.054.411.163.58.113.168.273.31.481.426.209.113.462.198.759.258a5.43 5.43 0 001.002.084 6.84 6.84 0 001.374-.139 8.343 8.343 0 001.319-.362c.199-.072.379-.15.541-.233.165-.082.304-.167.417-.253v-2.291zm7.99-2.594a3.947 3.947 0 00-.402-.094 3.197 3.197 0 00-.654-.055c-.371 0-.719.047-1.047.139-.324.09-.626.212-.907.367a4.522 4.522 0 00-.774.546 5.505 5.505 0 00-.645.654v4.732h-.62v-6.815h.62v1.389a5.97 5.97 0 01.719-.63 4.943 4.943 0 011.726-.813c.318-.08.645-.12.982-.12.116 0 .22.004.313.01.092.004.177.01.253.02a3.923 3.923 0 01.436.06v.61zm8.105 5.932c-.278.086-.536.16-.774.223-.238.06-.473.108-.704.144a9.502 9.502 0 01-1.498.114 6.277 6.277 0 01-1.81-.243 4.096 4.096 0 01-1.379-.694 3.132 3.132 0 01-.873-1.102 3.323 3.323 0 01-.308-1.448c0-.519.098-.995.293-1.428.198-.433.474-.805.828-1.116.354-.31.777-.552 1.27-.724a4.93 4.93 0 011.632-.258c.618 0 1.169.083 1.651.248.483.165.89.402 1.22.71.331.307.582.68.754 1.12.172.436.258.93.258 1.478v.154h-7.266c.036.423.142.805.318 1.145.175.341.423.63.744.868.324.239.72.422 1.19.551.473.126 1.023.188 1.651.188.268 0 .539-.018.814-.054a6.823 6.823 0 001.478-.352c.208-.08.379-.16.511-.243v.719zm-.05-3.363a3.066 3.066 0 00-.233-.992 2.35 2.35 0 00-.595-.838 2.827 2.827 0 00-1.002-.575c-.403-.142-.888-.214-1.453-.214-.533 0-.999.072-1.399.214-.4.142-.739.334-1.017.575a2.649 2.649 0 00-.654.833 3 3 0 00-.303.997h6.656z" fill="#fff"/></svg>