<svg xmlns="http://www.w3.org/2000/svg" width="1286" height="649" fill="none"><g opacity=".15" filter="url(#A)"><path d="M776.046 459.95v1.796c-.558-.224-1.954-.673-1.954-.673 0 8.53-2.79 14.368-5.303 20.88-2.233 5.163-3.35 13.02-10.606 13.02-3.07 0-5.582-3.368-5.582-6.286 0-1.572.28-2.02.28-2.92-1.396-1.122-1.396-2.918-1.396-4.714 0-.45 2.233-2.245 2.512-2.245 0 0 2.512-4.94 2.512-5.164 0-1.347-1.953-4.266-1.953-6.062 0-5.612 4.465-5.388 7.815-7.41 2.79-1.57 6.42-5.837 8.373-7.857.558-.674.28-2.47.837-3.368 3.628.45 3.35 7.858 4.466 11zm100.477-75.2c0 1.572 1.396 3.143 3.07 3.143 2.233 0 3.908-2.694 3.908-4.714 0-3.592-3.63-5.164-5.303-7.858 0 3.368-1.675 6.062-1.675 9.43zm89.314 40.41c0-1.122-.56-2.694.558-3.143v-5.163c0-1.123-1.675-1.572-2.512-2.245-1.396-1.347-2.79-2.02-2.79-4.5-1.396 0-2.233-.45-2.233-1.797l.558-1.122c-.28-.45-.558-1.123-1.116-1.123h-.837c0-.224.28-.45.28-.673 0-1.796-1.954-2.245-3.908-2.92-3.35-1.122-4.745-2.47-6.977-4.714-1.117-1.123-1.954-2.47-3.908-3.143-.558-.225-1.116 0-1.395-.674-.838-1.796-1.954-3.592-4.466-4.5h-3.908c-.837-.45-1.116-1.123-2.512-1.123h-.837v.898c.28 1.123 2.233 4.49 3.35 4.715s2.233 0 2.79 1.123c.838 1.347 1.117 2.02 1.675 3.592.837 1.57 3.63 1.122 4.466 3.816.28.898 1.116 3.817 1.674 4.04.28.225 1.675.45 1.954.674.28.45 0 1.122.28 1.122s1.675 2.246 1.954 2.92c1.395 2.694 2.233 4.715 4.745 7.184 2.233 2.02 4.465 2.92 6.698 5.164 0 0 2.233 3.143 2.79 3.143 1.117 0 3.63-.45 3.63-1.572zM977 404.722c0 .674 1.116 4.715 1.674 4.94s1.396.225 1.675.674v.674c1.675 2.245-.28 6.286 4.187 6.286.837 0 1.674-.674 2.512-.674 0 .45-.001 1.796.28 1.796s.558.674.837.674c1.396 0 1.954-1.347 3.07-1.347 1.954 0 3.35 1.347 5.303 1.796 0 .673.28 1.57 1.675 1.57 1.674 0 1.957-1.347 3.627-1.796 0-1.347 1.4-2.918 1.4-4.04 0-.673-.56-.898-.56-1.57s1.1-2.47 2.5-2.694c0-2.02.84-2.695 1.67-5.164l.56-1.123c.28-.224.84-.224 1.12-.224 1.4 0 2.23.673 2.5-1.123-2.23 0-5.3-5.837-5.3-7.633 0-.45.56-.673.84-.898 0-.45-.28-.673-.56-1.123 0 0 3.35-1.347 3.63-1.57-.28 0-.56-.45-.56-.674 0-1.122 2.8-.45 2.8-1.347 0-2.245-5.03-.898-5.03-3.367 0-1.796.28-2.92-1.95-2.92-1.95 0-4.46 4.5-5.58 6.286-.558.898-3.35.45-4.186 1.347-.28.225-.28.898-.838.898-.558.225-.558.45-1.116.898 0 0-1.396.9-.837 1.348-.838.898-.838 2.02-2.79 2.47-1.396.225-2.512.225-3.35 1.123-1.674 1.57-1.116 5.163-5.024 5.163-1.674 0-4.186-.673-4.186 1.347zm42.42 1.347c1.96 0 2.8-.45 4.47-.45s2.5.898 4.2.898c2.5 0 3.35-2.02 3.63-3.816.27 0 .55-.674.55-.898h-.83c-1.4.898-3.07 2.02-3.9 2.694h-.84l-8.37-1.347c-3.07 0-4.47 3.816-4.47 6.5 0 .674-.83 1.348-1.1 1.797-.84 2.694-2.24 3.816-2.24 6.286 0 1.347 1.68 1.347 2.52 1.57v5.613c0 .673.83 1.57 1.95 1.57 1.4 0 1.95-4.04 1.95-4.714 0-1.572-1.1-2.245-1.1-3.817 0-.898.83-1.347 1.67-1.347.28 0 .56.225.84 0l-.56 2.47c0 1.57 1.95 2.02 1.95 3.592v1.122h1.68c0-1.347 2.8-1.122 2.8-2.47-.56-.225-1.68-1.347-1.68-2.02 0-.224.28-.45.56-.673-.83-.45-3.07-4.5-3.07-4.94 3.35 0 3.63-2.47 6.42-3.368v-.898c-.84-.225-6.98 1.796-7.25 2.02l.27-.45c-.55.673-.55 1.122-1.4 1.122-1.68 0-2.5-2.245-2.5-4.04 0-2.47 1.95-2.02 3.9-2.02zm-23.16 29.41c1.395 0 1.395.898 2.512.898.28 0 1.116-.898 1.4-1.347-.84-.45-.84-.674-1.957-1.123s-1.954.674-2.79-.224c-.28-.225-.28-1.123-1.117-1.123-2.233 0-3.628-.224-5.024-1.57.28 0 4.466-.225 4.466-.898h-.837l-3.63.45c-2.232 0-3.07-2.02-5.303-2.02-1.395 0-1.674 1.796-3.628 1.796-3.907 0-5.582-3.817-9.2-3.817-.838 0-1.117.674-1.954.674-.28 0-.558-.45-.837-.45-.838 0-2.792 2.02-3.07 2.47 1.675 0 2.79 1.347 3.908 2.47s3.07 0 4.745.674c2.512.673 4.465.898 6.698.898 1.117 0 1.675 1.57 3.07 1.57 4.745 0 8.932.225 12.84 1.796-.28-.45-.558-1.122-.28-1.122zm25.4 1.347c1.67-.45 2.5-.898 3.35-2.245-1.12.45-1.68 1.122-3.35 1.122-1.96 0-2.5-.898-4.75-.898-.83 0-2.23-.224-2.23.898 0 1.347 1.67 1.123 2.8 1.123h4.2zm-13.12-1.796v.898c-.56-.225-1.12-.45-2.23-.45-1.12 0-1.96-.225-1.96 1.122 0 .45 1.4.898 2.5.898 1.12 0 1.68-.673 2.8-1.122l.83.45h1.12c-.28-.225 0-.898 0-1.796h-3.07zm6.98 3.143h-1.4c-.84 0-2.23-.225-2.23.673 0 1.123 1.95 1.347 3.07 1.347 0 .45 0 1.572.84 1.572h.55c.28 0 .84-.45.84-.898 0-1.347-1.67-.898-1.67-2.694zm-13.12-3.368h-1.12v1.123c0 .45.56.898.84.898.56 0 1.12-.45 1.12-1.123-.28-.224-.28-.898-.84-.898zm29.86 3.817c1.96 0 5.86-.898 6.98-2.694-1.12-.674-6.42-.225-7.53.898-.28.224-.28.898-.56 1.122-1.68.674-4.2.674-4.2 3.143 0 .45.28 1.123.84 1.123 1.4 0 3.35-1.347 3.9-2.02.55-.45 0-1.57.55-1.57zm33.22-11.674c0-.9-.28-.225-.56-1.348-.84 0-.84 1.123-.84 2.02 0 .674-1.12.898-1.12 2.02 0 .45.28.898.84.898.84 0 .84-1.347.84-2.47.28 0 .84-.45.84-1.122zm-29.87-8.756c0 .898 1.4 2.245 2.24 2.245.27 0 1.1-1.347 1.1-1.572 0-1.347-3.35-2.245-3.35-.673zm6.42 0s1.68.45 2.23.45h2.8c1.67 0 2.5 1.122 4.18 1.122.28 0 .84 0 .84-.224 0-.898-1.4-1.123-1.4-2.02l-.27.225c-.84 0-1.68.45-1.68-.45h-5.3c-.84 0-1.4.224-1.4.898zm-.56-18.634c-.83.45-1.1 1.347-1.1 2.245 0 1.57.83 2.02.83 3.143v1.57c0 .674.28 2.245 1.68 2.245-.56-.898-.84-1.347-1.4-2.02v-.898c.84 0 2.24-.225 2.8-.225 0-.898-.83-1.122-.83-1.796s1.1-.898 1.1-1.57c-1.95 0-2.8-.898-3.07-2.694zm71.73 26.042c.28 1.347 2.24 1.123 3.07 2.02.56.45 1.4.898 1.68.898 2.5 0 3.63-1.347 5.86-1.796 0-2.02 2.5-1.572 2.5-4.04 0-.674-.28-1.796-1.1-1.796-1.68 0-.84 2.47-2.8 3.367-1.1.45-2.8.45-4.74.898 0 0-1.12.45-1.4.45h-3.07zm-6.14 1.123c-2.8-1.347-2.8-4.5-6.7-5.613-.55-.224-1.67-.224-1.67-1.122-1.4 0-2.23-1.572-3.63-1.572-2.8 0-6.42-1.122-8.1-2.47v-.225h-.28c-.56-.224-1.68-.45-1.96-.898h-3.34c-.84-.45-1.68-1.796-3.07-2.245-.28-.224-1.4 0-1.4-.673-1.4.224-2.8 2.245-3.9 2.694-1.67.45-1.95.673-2.8 1.57-.28.225-1.4 2.02-2.23 2.02s-2.5-1.796-2.5-2.245c-1.12 0-1.68-.45-1.68-1.123v-4.265c-2.23-.45-3.63-2.246-5.86-2.246s-3.07 2.02-4.46 2.02c-.84 0-1.68.45-1.68 1.123 0 1.57 2.8.898 3.63 2.47 0 .45.28.898.84 1.123.55.224 1.1.45 1.67.45 1.4 0 2.23-.225 3.35-.45h.84c-.84 1.347-4.47 1.122-6.14 2.02.28.898 1.67.45 2.23 1.347s0 1.347.56 2.47c0 .45.84.45 1.1.45.84 0 1.4-1.123 1.68-2.02v1.123c1.95-.674 2.8 2.47 4.47 2.47 1.95 0 5.3.674 6.4 1.123 1.12.673 4.47 1.796 5.03 3.143.56 1.796 0 3.368 1.67 4.94-.83.45-3.07.898-3.07 2.245 0 .898 1.12.898 1.96.898h2.5c0-.673 1.4-.673 1.67-.673 3.07 0 3.9 3.592 6.98 3.592h4.47c0-.898 1.1-1.347.55-2.694 1.68-.898 1.4-2.92 4.47-2.92 3.9 0 6.14 3.143 8.65 5.613.28.224 1.12.45 1.12.898 0 1.347 2.8 2.47 4.46 2.918h3.07c.28.225 1.96 1.348 2.24 1.348h.83c0-.9.84-1.348 1.68-1.797-.28 0-2.23.225-2.5-.45-.28-.45-.56-1.122-1.12-1.347s-1.12.45-1.4-.224c-.28-.45-.56-1.347-.84-1.347-.84 0-2.23-.674-2.5-1.123-.84-1.347-.84-2.245-1.96-3.367-.28-.225-2.23-2.245-2.23-2.694 0-1.123 2.23-.674 2.23-1.796.28-3.144-2.23-2.02-3.35-2.47zm20.1-7.633c-1.4-1.347-2.5-2.694-4.75-3.368.28.898 1.12.898 2.24 1.347 1.67.898 1.4 2.245 2.8 2.92-.28 1.122-.28 2.02 1.1 2.245.28.224.56 0 .84 0v-.898c0-1.572-1.1-1.347-2.23-2.245zm7.8 6.286c-.28 1.123.28 2.245 1.68 2.47v.9c0 .45.28.898.84.898.27 0 .83-.674.83-.898 0-.45-2.5-2.92-3.35-3.368zm23.17 15.49c0 .673.84 2.47 1.95 2.47v-.674c0-1.123-.83-1.347-1.95-1.796zm-5.3-1.796c0 1.347 1.95 1.796 3.35 1.796l.55-.225c-.55-1.122-1.95-1.57-3.9-1.57zm.83-4.715c0 .898 2.24 3.592 3.63 3.592-.84-1.57-1.95-2.47-3.63-3.592zm-7.25-2.245c-.28 1.347 2.5 2.245 3.63 2.245.27 0 .83-.224.83-.224-.83-1.123-3.07-1.796-4.18-2.245l-.28.224zm-5.6-3.367l.56.45h-.56l1.68 1.122h1.12c-.56-.898-1.4-.673-2.8-1.57zM1105.95 551.1s-6.7-1.796-6.7 0c0 2.47 3.9 11 7.53 11 2.52 0 5.6-6.062 5.6-8.756 0-1.347-.84-2.02-1.4-3.368-1.4.45-3.35 1.123-5.02 1.123zm6.14-2.245c0-.674.28-.898.28-2.02h-1.68c0 .898.28 1.796 1.4 2.02zm-40.47-17.063c1.1 1.123 2.8.898 4.18 0-1.67-.898-1.95-1.122-4.18 0zm-18.98-85.088h1.1v-1.796c-1.67 0-2.5.225-4.74.674.56.45 2.23 1.122 3.63 1.122zm74.52 45.126c-2.23-2.245-6.98-4.266-6.98-8.756-1.67 0-3.63 0-3.9-1.57-.55-1.572-.83-3.817-2.23-5.164-1.95-2.02-7.26-2.92-8.1-5.837-.84-2.92-1.96-4.5-3.07-7.633-.56-1.796-.56-5.613-1.96-6.51-.56-.225-2.8-.898-3.9-1.347-1.4-.898-.84-2.92-1.12-4.715-.84-2.245-2.23-4.265-2.5-7.408-1.96 1.122-1.4 2.47-3.35 4.04v10.55c-.56 2.695-1.4 9.43-5.03 9.43-2.23 0-2.8-2.47-4.46-3.143-3.07-1.123-4.75-1.796-8.1-2.92-.55 0-.55-1.796-1.1-2.245-.84-.45-2.5-.225-2.5-1.123l1.4-5.837c.84-.673 2.8-.898 2.8-2.245 0-.898-1.67-2.02-2.5-2.02-1.4 0-1.67.898-3.35.898-4.2 0-6.7-1.572-10.88-3.143.28 1.347 1.4 1.57 2.23 2.694-.28 0-1.4.898-2.23.898-1.96 0-6.98 1.122-6.98 2.694s-1.68 2.47-1.68 4.04c0 1.122.28 1.796-.28 2.918-.27 0-1.1-.898-1.67-.898-1.12 0-1.95.45-2.8 1.347-.28-2.02-1.4-4.5-3.63-4.5-2.5 0-3.07 2.245-6.42 2.245-.28 2.694-2.5 3.144-2.5 6.287-1.12 0-1.67-.45-2.5-.898-.56 1.347 0 2.918-1.4 3.816-.56-.898-1.1-1.347-1.95-2.245-1.12.674-1.68 1.796-1.68 2.92v2.02c0 4.04-9.76 7.184-14.23 7.858-2.23.45-6.7.673-8.1 2.02-1.4 1.347-4.19 4.265-6.424 4.5v-1.123c-.558.225-1.395.45-1.395 1.347v6.735c0 2.92 1.395 4.266 1.395 6.062 0 .674.28 1.123 0 1.572-.28-.45-.837-.898-1.116-1.572-.28.674-.558 1.123-.838 1.572-.558 1.796 1.954 2.245 2.512 4.04 1.675 4.5 1.954 6.06 3.35 11.225.558 2.02 2.516 4.04 2.516 7.41 0 2.694-2.796 3.367-2.796 5.163 0 1.572 5.866 4.042 7.816 4.042 5.3 0 7.26-3.817 11.44-3.817 1.4 0 1.4-.898 3.35 0 2.5 0 4.75-.674 7.26-.898.84-5.837 8.65-3.817 14.8-5.837 2.8-.898 3.63-2.694 7.82-2.694 3.9 0 11.16 1.122 13.1 3.367.84 1.347 3.63 6.96 4.47 6.96 0 0-.56 2.02.84 2.02 2.5 0 5.58-6.062 7.8-8.083 0 1.796-.56 7.858-3.63 8.307 0 .674.56 1.123 1.12 1.123 1.67 0 1.95-2.02 3.07-2.47 0-.45.28-.898.28-1.122.56.45 1.12.898 1.12 2.245 0 1.122-.56 1.796-.84 2.47h1.4c.84-.224 1.68-.45 2.52-.898v.674c0 1.57 1.67 2.918 1.67 4.714 0 4.715 7.82 7.858 12.28 7.858 3.07 0 1.95-2.245 4.75-2.47 0 .674 5.02 3.368 6.14 3.592.83-5.612 10.88-3.143 12.28-8.53v.225c0-4.04 2.5-7.633 3.35-10.552 1.1-3.817 3.35-4.94 5.58-8.082.56-.898.28-1.347.84-2.245v-3.143c1.1-1.123 1.67-4.715 1.67-7.185 0-3.592-1.12-9.653-3.07-12.123l.28-.898zm71.73 59.943c-.56.225-1.12 1.123-1.96 1.123-.83 0-.55-.898-.55-1.572-.28 0-.84-.45-.84-1.122-1.12.45-2.8 2.02-2.8 3.816v.674c-.84.224-1.68.45-2.23 1.347v1.122s-1.68 2.47-2.24 2.695c-1.95.898-3.9 3.816-6.7 3.816-.83 0-1.4.674-1.95 1.572-1.12 1.796-4.74 3.367-4.74 6.286 0 .224.27.45.55.45 0 .673 4.75 2.245 5.3 2.245.83 0 2.23.673 2.5.673 1.4 0 3.63-1.796 4.46-2.694 0 0 3.35-6.735 3.63-8.082.84 0 3.9-.673 4.47-.673.28-1.347-.28-1.796 0-3.592 1.95 0 4.46-4.266 4.74-5.838-.55-.224-.83-.898-.83-1.796-.28 0-.56 0-.84-.45zm15.35-13.47c-1.95 0-1.68 1.122-4.2 1.122-2.8 0-4.46-1.796-4.46-4.714h-.84c-.56 0-1.12.45-1.12 1.122h-.83c-.56-.673-1.96-3.143-1.96-3.816 0-.45.28-.45.56-.898-.84-.45-.84-1.123-1.4-1.796-1.12-1.123-3.35-1.347-4.47-3.143.84 2.694 2.5 6.5 5.3 7.184 0 .45-.28.898-.28 1.122 0 .898.84 1.347 1.4 2.245.28.674.56 1.572.56 2.245 0 1.796-.28 3.368-1.4 4.49-.56.673-1.67.673-1.67 1.796 0 2.02 4.46 1.122 4.46 3.367 0 1.347-1.4 2.02-1.4 3.368 0 .898.83 1.57 1.67 1.57 2.5 0 3.35-2.245 4.47-4.04.28-.45 1.67-1.57 1.67-2.245 0-.45-.56-.898-.56-1.122 0-.898 1.12-1.347 2.52-1.572l.27-.45.56.674c1.12-1.797.84-4.266 2.52-5.838-.56-.45-.84-.673-1.4-.673zm.56-70.72v-1.347c-.56 0-1.12-.45-1.4-1.122-1.1.45-2.8.673-2.8 2.245 0 .45 1.68.673 2.5.673.84 0 .84.225 1.68-.45zm.56-4.265c0 .224.27 1.122.83 1.122 1.12 0 1.68-1.122 3.07-1.57v-1.123c-.83 0-3.9.225-3.9 1.572zm-181.7-88.68c0 .225 0 1.797-.28 2.47s-2.23.225-2.23 1.572c-.56 0-1.12.673-1.12 1.347h-.56c-.83 0-.56-1.572-1.95-1.572-1.96 0-1.4 2.245-3.9 2.245-.28.898-.56 1.572-.84 2.694 0 .225.56.674.28 1.123 0 .45-.83 2.245 0 2.245 1.12 0 1.12-3.368 2.24-4.266 0 0 .83.898 1.1.898l.28-.45c.28.225.56.45 1.12.45v-.898h1.4c0 .225.28.674.56.898-.28.225-.56.45-.56 1.123 0 2.02 1.12 3.592 2.8 3.592h1.12c0 .224.28.898.56.898.84 0 1.12-.674 1.12-1.347 0-1.123-1.4-1.347-1.4-2.245 0-.674.56-.898 1.12-1.347.28.224.55.45.55.898v-.225c.28.674.84 2.245 1.4 2.47 0-1.796 1.4-2.245 1.4-3.368 0-.898-1.68-6.96-2.52-7.633-.28-1.123-.83-1.572-1.67-1.572zm-25.68 4.042h.84c1.4-.898 3.35-2.02 3.9-4.49.83 0 1.67-.224 1.95-1.122.56 0 .56-.225 1.12-.674-.56-.45-.84-.673-.84-1.57-.28.224-.28.898-.56 1.347-1.4 2.245-5.3 3.367-6.42 6.51zm6.14-21.33c0 .674 1.96 1.796 2.5 1.796.28 0 .56-.45.84-.673h.56v1.122c-.28.225-.56.45-.56 1.123 0 .45.84 1.347 1.68 1.347.55 0 1.1-.673 1.67-.673 1.67 0 1.67 2.245 3.07 2.245-.28-.898-.56-1.347 0-2.02.56.898 3.35 1.796 3.9 3.143 0 .225.28.898.56.898s.55-.45.55-.673v-.898c-.83 0-1.4-.45-1.4-1.347-.28 0-.84.224-.84 0 0-.45.56-.674.56-1.123-.28 0-.56-.224-.56-.224-.56 0-.56.673-1.12.673-.55 0-.83-2.245-2.23-2.245-.56 0-1.1.45-1.1.898v.45c-1.12-.45-2.8-3.143-2.8-4.5 0-2.02 1.96-2.245 1.96-4.5 0-1.796-1.4-3.143-1.4-4.5 0-.225-.28-.45-.28-.674l-.28-.45c-.55.225-.83.898-1.4.898-1.12 0-.84-1.796-1.95-1.796-.84 0-1.12.898-1.12 2.02s.56 2.02.56 3.143c0 .898-.28 2.245-.84 2.918-1.12-.224-.56 2.02-.56 3.592zm18.42 8.98c-.83 0-1.4-.45-2.5-.45-.28 0-.56.224-1.12.45.28.898 2.52 1.57 2.52 2.918 0 .225-.28.674-.56.674h-1.4v.673c0 .225.84 1.347 1.68 1.347v.674c-.56.673-.28 1.347.56 1.347h1.1v-.674c-.56-.224-.84-1.122-.84-2.02h1.68c0-.45.28-.674.56-1.347l-.84-.898v-1.572h-.56c-.28-.224-.28-.673-.28-1.122zm-9.5 2.02l-.56-.45c-.27 0-.55.225-.55.45 0 .898.28 2.92.28 4.5 1.1-.673 3.62-1.347 3.62-3.143 0-.45-1.95-.898-2.8-1.347zm3.35 2.92c-.56 0-1.1 2.694-1.1 2.918-.28 0-1.12.225-1.12.674 0 .673 1.95 2.694 2.23 2.694s.56-.224.56-.45c0-.673-.56-.45-.56-1.347 0-1.123 1.4-2.02 1.4-3.143.28-.674-.28-1.572-1.4-1.347zm1.12 4.04h.56c0-1.572 1.4-2.02 1.4-3.817h-1.1c0 1.796-.56 2.694-.84 3.817zm3.35-1.347c-.28.45-.84.224-1.4 0-.28.673-1.1.898-1.1 1.57 0 .225.55.45.55.45 1.12 0 1.96-.898 1.96-2.02zm-2.5-5.388c0-1.347-1.4-1.572-1.68-2.47h-1.12v1.572h1.68c0 .224 1.12 1.347 1.12.898zm-8.66-2.02c.56 0 1.12-1.122.84-2.02-.28-1.123-1.4-1.123-2.8-1.796h-1.12s2.52 3.816 3.07 3.816zm1.12-3.143c.28.225.84.225 1.12 0a1.02 1.02 0 00-1.12 0zm-1.4-41.983c-1.67 0-4.18 4.49-4.18 6.96 0 1.796-.28 3.368 1.67 3.368 2.8-.225 5.3-10.328 2.5-10.328zm-35.72 19.757c0-.674-.837-1.796-1.395-1.796-1.675 0-5.582 2.918-6.7 2.918-.558 0 0 1.123 0 1.797 0 1.57.838 2.245 2.79 2.245 1.675 0 5.303-3.593 5.303-5.164zm-17.025 73.638c0 .45.558 1.572.837 1.572.558 0 .838.673 1.675.673h.837v-1.122c-1.674 0-2.512-2.245-3.07-4.04-.837 0-2.512.898-2.512 1.57-.28.898 1.675.225 2.233 1.347zm7.257 2.92c.837 0 1.116-.674 1.395-1.347-.28 0-.837-.674-1.116-.674h-1.117v.674c-.28.45 0 1.347.838 1.347zm-30.702-7.184h-.837v.45c0 .898 1.675 2.694 2.233 2.694 0-1.123-.56-1.796-1.117-2.694v-.45h-.28zm-4.745-6.96l-.558.224c0 .674 1.675 2.47 2.233 2.47 1.116 0-.837-2.245-1.675-2.694zM1047.9 293.142c0 .674.56 1.348 1.12 1.348.28 0 .84-.45 1.4-.45-.28-.45 0-.673 0-1.122 0 .673.27 1.347.83 1.572l-.56 1.57s-1.1 1.572-1.1 1.796c0 .45.84 1.796 1.67 1.796v-.673c0 .45 0 1.122.28 1.122 1.68 0 2.8-3.592 3.07-5.612.28.224.84 0 1.12 0-.28-.45 0-.9 0-1.123l-1.12-.898c-.28 0 0-.898 0-1.123-1.4 0-2.23-.898-3.07-.898-.28-.224-3.63 2.02-3.63 2.694zm11.17.898c1.67 0 1.67-1.796 2.8-2.918.28.224.84.898 1.67.898 1.12 0 2.8-4.04 0-4.04-1.67 0-1.95 2.02-4.18 1.347 0 .224-2.24 1.796-2.24 1.796 0 .673.28.898.84 1.347.28.45.56 1.57 1.12 1.57zm13.12-14.143c-1.12 0-1.68 3.592-3.9 3.592h-7.54c-3.07 0-4.18 2.918-6.7 4.5-.55.224-1.67.45-1.67.898s.84.45 1.67.45c2.52 0 4.75-.898 6.14-1.572.84-.45 1.68 0 2.52-.45.27-.224.55-.898 1.1-.898 1.4 0 2.24.674 3.63 1.123 0 .45-.28 1.347-.28 2.02 0 .45-.28.898 0 .898.84 0 .84.898 1.68 1.123.55-1.123 1.95-2.92 2.8-2.92h1.1s-1.1-1.347-1.1-1.796.28-.898.83-.898c1.12 0 1.12 2.02 3.35 2.02.84 0 1.68-.674 2.52-1.347h1.1c0 .224.28.673.56.673.56-1.57 1.67-1.796 3.35-2.694 0 .898-.56.898 0 1.796 1.4-.45 1.4-1.57 2.8-2.245-.28-.673-.56-1.122-.56-2.245 0-1.57 1.4-2.245 1.4-3.143 0-1.347-.28-4.94.84-5.164.27-.224.83.225 1.1-.224v-.674c0-1.57 1.68-1.796 1.68-3.592 0-1.57-1.68-2.47-1.68-4.04 0-.898 0-1.57-.28-2.245 0-.45-.56-.673-1.4-.673-.28 0 0 1.122.28 1.122l.28.225c-1.4 1.122-1.4-.45-1.68-.45-1.67 0-2.8 2.918-2.8 4.265 0 .674.56.674.56 1.347 0 3.817-4.2 8.53-6.7 9.43-1.4.45-1.68 1.57-3.63 1.57-.28 0-.56-.224-.56-.673s.28-.898.56-1.347l-1.4 2.245zm13.4-25.82c-.28.898-2.23 1.572-2.23 2.92 0 .45.56.673.56 1.122v2.695h.83c.84-.9 1.96-.45 2.8-1.797-.56-.45-2.24-.45-2.24-1.57 0-2.02 1.96-.898 3.63-.898 0-.45.56-.898.84-.898 1.95 1.347 3.35 1.57 5.3 2.694.84-1.347 1.96-4.04 4.47-4.04 1.67 0 2.5-.45 3.63-1.123-.56-.224-1.4-.898-1.4-1.57s.56-.898.84-1.347c-.84-.45-1.68.224-2.5.224-4.75 0-6.14-3.816-9.5-5.837-.28.45-.84.674-.84 1.572 0 .45.56.673.56 1.122 0 1.572-.84 6.062-2.8 6.062h-1.12l.28.224-.84-.673v1.122h-.28zm17.3-3.367c-.28.45-.28 1.122 0 1.122 1.1 0 2.5-1.796 3.07-2.47l-.28-.225c-1.12-.224-2.23.898-2.8 1.572zm2.5-2.02c.28.225.28 0 .28 0h-.28zm6.7-4.04c-1.4 0-2.8 2.47-2.8 2.47v.673c1.67 0 1.67-2.245 4.46-2.245v-.898h-1.67zm5.58-1.123c.84 0 1.95-1.57 1.95-2.245-.28 0-1.67 0-1.95.674 0 .45.28.898 0 .898v.673zm-22.9-32.33c-.56-1.57-1.4-2.918-1.4-5.388h-.84v2.47c0 .673-.56.898-.56 1.57-1.67.45-2.5 3.593-2.5 5.838 0 1.796 1.95 2.47 1.95 4.265v6.96c0 1.347-.55 1.796-.55 3.592 0 1.347.83 1.572.83 3.143 0 1.796-.56 3.143-.56 5.164 0 .673-.27 3.367 0 3.367 1.4 0 1.4-2.47 2.8-2.47h1.1c0 .45.84 1.347 1.12 1.122l.28-.224c-1.12-2.02-3.63-3.143-3.63-5.837 0-2.92.28-6.735 3.63-6.735 1.1 0 1.95.673 2.5 1.57-.84-2.694-2.23-5.164-3.35-8.082-.28-.674-1.12-2.02-.84-3.143v-2.694c-.28-1.796.56-2.92 0-4.49zm-312.873-93.62s3.35-.224 3.628 0c1.954.674.838 2.47 1.675 4.04.28.674 2.233 0 3.07 0 .28 0 .558.674.837.898h9.5c0-.224-.28-.45-.28-.673-2.79-2.245-6.7-3.368-6.7-7.633 0-7.41 8.373-15.267 14.514-16.838 2.233-.674 2.79-3.143 5.86-3.143 1.395 0 1.954-2.245 2.512-2.694 3.907-1.796 6.977-.898 11.164-2.92 3.07-1.347 12.28-2.02 12.28-6.062 0-1.347-3.35-2.918-4.745-2.918-6.14 0-11.723 6.51-18.142 6.51-1.395 0-2.233-1.347-3.628-1.347-2.233 0-2.233 1.347-3.908 1.347-4.465 0-7.815 5.613-10.885 5.613-1.954 0-3.07.898-4.745.898-.837 0-1.116.674-1.116 1.123 0 .673.837 1.123.837 2.02 0 3.143-6.14 4.94-6.14 6.96 0 .898 1.675 1.122 1.675 2.47-1.954.45-5.862 1.347-5.862 3.368v1.796c0 2.02-3.628 1.796-3.628 4.715 0 1.57 2.233 2.47 2.233 2.47zm18.142 4.04c0 .225 0 .225 0 0 .28.225.28.45.558.45l-.558-.45zm455.22 26.492c-3.35 1.123-5.3.898-7.26 3.143-1.4 1.572-1.67 5.837-4.2 5.837-5.3 0-11.72-9.878-19.25-9.878-2.52 0-1.12 2.92-1.68 4.04-1.4 2.694-8.37 2.02-8.37 6.96 0 1.796 14.23 8.307-3.63 8.756-9.5.224-17.03 13.246-27.63 13.246-3.63 0-12.56-10.777-22.33 9.204-1.12 2.47 0 3.817 0 5.164 0 2.02-4.2 3.143-4.2 6.96 0 2.47-5.3 3.143-4.74 6.286-5.02 1.122-6.7 7.633-8.93 11-3.35-2.47-4.75-16.614-4.75-20.88 0-4.94 4.2-7.634 7.26-9.205 3.63-2.02 5.86-6.286 8.37-9.878 2.24-2.92 5.03-2.02 8.38-4.042 9.5-5.837 3.07-8.306 1.95-8.082-13.12 15.716-12.28 5.613-10.33 4.04-4.18-.673-5.02 0-7.25 0-8.38 0-12 4.5-13.96 12.124h-6.98c-3.07 0-5.3-2.245-10.32-2.245-3.9 0-18.42 1.122-22.9 2.245-5.3 1.347-10.05 7.408-13.96 11-2.5 2.47-8.93 6.062-8.93 9.205 0 .674 3.63 8.756 10.9 3.368 2.5-1.796 7.53 4.266 7.53 7.41 0 2.47-1.4 5.163-2.23 6.286-1.95 3.143-.56 5.388-1.4 8.756-.84 2.918-3.35 6.735-5.3 8.755-4.74 4.715-11.16 18.634-18.14 18.634-3.63 0-8.37-1.122-8.37-1.122-2.8 2.245-3.9 4.04-5.3 7.184-.55.898-2.5 2.02-3.62 2.92-.84.898-2.24 1.796-3.63 1.796-.28 2.02.84 2.918 1.95 4.04 2.8 2.47 4.47 5.163 4.47 9.654 0 2.694-.84 4.04-2.5 4.5-.84.224-3.63.45-3.63 1.347-1.4.45-1.68.45-2.5 1.122h-1.68c0-.673.56-.898.84-1.57-.56 0-.56-.674-.56-1.123 0-.898 1.12-2.245 1.12-2.694 0-.673-.56-1.347-.56-2.02-.84 0-.84-.674-1.12-.898v-1.123c.84 0 1.96-.673 1.96-1.572 0-1.347-1.68-2.245-3.35-2.245-.84 0-1.4.45-1.68.45-.84 0-1.1-1.347-1.1-2.02 0-1.347 1.4-1.347 1.4-2.47 0-1.347-.56-1.347 0-2.47-1.95 0-2.5-1.347-3.9-1.347-3.9 0-6.7 3.592-10.04 3.592 0-2.02 2.23-2.92 2.23-4.715 0-.673-1.4-2.245-2.23-2.245-1.12 0-1.68 1.123-1.96 1.572-.84 1.57-3.63 3.143-5.3 4.265-1.68 1.123-5.3.45-5.3 2.694 0 1.123 1.95 1.572 2.5 2.02 1.4 1.122.84 2.245 2.5 3.143.84.674 2.23.225 3.07.225s.84-2.47 1.67-2.47c1.4 0 1.96.898 2.8 1.347 1.67 1.122 3.62-.225 4.46 1.123-2.5 2.245-7.53 2.245-8.65 5.388-.56 1.347-2.5 1.57-2.5 2.918 0 1.572 2.23 2.694 3.35 2.92v2.245h.28v.224c1.1.674 1.1 2.02 1.4 2.47 2.23 3.143 3.35 4.94 3.35 9.878 0 3.368-1.67 4.5-1.67 6.96-1.68.45-5.03 4.94-5.87 6.286-1.1 2.245-1.95 6.51-4.74 6.51-.28 1.122-.84 1.57-1.68 2.02-3.34 1.797-4.74 5.164-10.322 5.164-1.116 0-1.675-.898-3.07-.898-.28 0-1.396 2.245-1.396 2.245-1.395 1.347-3.628.898-6.14 2.02-.837.45-3.35.898-4.186 1.57-.838.898-.28 2.47-1.675 2.47-1.117 0-.837-2.245-.558-2.92-2.233-1.122-3.63-.45-5.86-1.347-2.512 3.592-8.374 4.5-8.374 9.43 0 1.123.56 1.347 1.117 1.797 2.79 2.694 3.907 5.612 6.977 7.633 2.79 1.796 4.745 6.96 4.745 10.776 0 2.694-1.395 3.817-1.395 5.837-3.908.898-4.187 2.245-7.257 3.592-1.396.674-1.116 2.47-2.79 2.47-.28 0-.28-.674-.28-1.123v1.347c0 1.123-2.512 2.92-2.79 2.92-.558 0-.838-1.572-.838-2.245 0-.898 0-1.347.56-1.572-.56-.224-.838-1.122-.838-1.796-1.674 0-4.186-.673-4.186-2.245-2.79 0-1.396-1.796-2.79-3.143-1.675-1.57-3.35-1.796-5.303-2.245-.28 0-.558-1.57-.558-1.57-.28-1.347-1.675-1.572-3.07-1.572-.837 0-.837.674-.837 1.347 0 1.123.558 1.347.558 2.245 0 3.592-3.628 4.5-3.628 7.633 0 3.592 4.187 2.245 4.187 5.613h-.28c.56.898.56 2.92 1.396 3.817 3.35 3.143 10.327 3.816 10.327 9.653 0 1.123-.558 1.123-.558 2.246 0 2.02 1.674 2.694 2.232 4.265s.56 2.02 1.117 3.368h-1.675c-.28 0-.558.45-.837.45-1.116 0-1.396-.898-1.954-1.123-3.628-1.122-6.978-4.714-8.373-8.53-1.116-3.368-1.396-5.837-2.512-8.53-.837-1.572-1.674-5.837-3.628-5.837-1.117 0-.558.673-1.675 0-.28 0 0-.45 0-.674 0-1.572.28-2.694.558-4.5h.56c-.838-.45 0-3.143 0-4.5 0-5.164-3.07-8.082-3.07-11.9-1.674 0 .56-3.592-.837-5.164-.28-.673-1.395-.45-1.675-.673-.837-.674-.28-1.123-1.116-1.796-1.954 2.02-2.79 5.388-6.14 5.388-1.675 0-1.954-1.347-1.954-2.92s.558-2.245.558-3.592c0-.673-.558-.898-.837-1.57-.837-2.47-2.233-4.266-3.35-6.062-1.675-1.347-3.07-2.245-3.908-3.817-.837-1.347-.837-3.143-1.116-4.714-.558-1.572-2.512-2.245-4.466-2.694 0 3.592-3.35 4.265-6.42 4.265-1.954 0-1.954-.673-2.79-1.122-.838 1.796-3.35 1.796-3.63 2.918-.558 1.572-.28 2.92-1.395 4.04-2.233 2.02-5.582 2.694-7.536 4.5-2.512 2.246-4.466 4.715-6.978 6.736-.837.898-2.232 2.245-3.07 2.47-2.233.674-4.745 1.123-4.745 3.592 0 2.02.838 3.143.838 5.164 0 2.92-1.396 4.715-1.396 6.96l.558 2.918-.558.225c0 .45-.837.45-1.116.45-1.675.45-1.396 3.367-2.233 4.04-1.396.673-1.675.224-2.233 1.347-.558.898-.558 2.245-1.674 2.245-.838 0-1.675-.45-1.954-1.122-.558 0-.838-.898-1.117-1.123-.837-2.694-2.232-5.164-3.07-7.633-.558-1.572-2.233-2.694-2.79-3.592-.837-1.796-.28-3.368-1.395-4.715-.838-1.572-.838-2.245-1.396-3.817-.558-1.796-2.79-5.612-3.628-8.082-.838-2.245-1.954-4.5-1.954-6.735 0-.45-.28-1.347-.28-1.572 0-1.57.558-1.796.558-3.367 0-1.796-1.116-3.143-1.116-4.715 0-.224.837-1.122.837-1.57h-.837c-1.675 1.57-1.675 5.388-4.745 5.388-3.628 0-5.303-3.592-6.978-5.388 1.117-.674 1.954 0 3.07-.45.837-.225 1.116-1.347 1.674-1.796-.837-.225-1.954-.225-2.79-.225-2.512 0-5.86-2.245-6.977-4.04-1.117-1.572-1.675-4.266-3.07-4.715s-2.232 0-3.628 0-1.675.898-3.07.898l-3.07-.898c-.558.225-.838.674-1.117.898l-4.186.225h-.56c-2.232 0-7.535-1.347-10.885-1.347-.558 0-4.186-.898-4.186-1.123-1.117-1.122-1.116-4.714-3.628-4.714-1.396 0-1.954 1.122-2.512 1.796h-6.14c-1.953-.674-2.79-2.02-4.186-3.143-1.396-1.347-3.35-.674-4.745-2.02-.837-.673-.28-1.572-.558-2.02-1.396-2.47-3.908-6.06-7.257-6.06-1.675 0-2.512 2.02-2.512 3.816 0 1.123 0 1.796.28 2.694.837 2.695 4.187 7.858 6.978 8.307 0 1.347.837 1.572.837 2.694 1.396-.45 1.117-1.796 2.512-2.02v1.347c0 1.347-.837 2.245-.837 3.816s3.07 2.47 5.024 2.47c8.094 0 8.652-4.715 13.118-7.858v4.266c1.674 3.367 3.907 4.04 7.535 4.94 1.396.225 1.396 2.245 2.233 2.694v-.224c.558 1.122 2.233.898 2.233 1.796 0 2.694-3.628 3.592-3.628 6.286-1.675 0-3.07.45-3.63 1.796s-.28 3.367-1.674 3.367c-1.954 0-1.675 3.368-3.63 3.368-1.116 0-3.35 2.02-3.35 3.368-3.35.673-10.606 1.796-10.606 4.5 0 .45.28.898.558 1.122-2.79 1.347-6.42 2.02-9.49 2.694-1.396.45-6.14 3.593-7.815 4.266h-3.628c-1.954 1.347-2.513 2.245-5.024 2.245l-.838.45c-.28 0-3.35-1.347-3.628-1.57s.558-.225-.28-1.347c-1.117-1.796-2.233-3.817-2.233-5.838-1.396 0-.28-2.245 0-3.367.558-2.47-1.396-3.592-2.79-4.94s-4.745-5.39-4.745-8.083c-4.186-.898-5.303-3.367-5.303-7.633 0-2.694-1.674-3.143-1.953-5.388-.56-.45-1.117-1.123-1.675-1.572s-1.954-.224-2.512-.673c-.837-.674-.558-2.47-.837-3.143-.28-1.123-1.117-2.02-1.675-2.694l-3.908-5.837c-.28-.674-1.953-2.47-1.953-2.694 0-.9.28-2.246.558-3.593-.558 1.572-1.675 4.715-2.233 5.838-2.512-.45-4.465-5.613-6.698-7.634v2.02l11.443 19.532c-.558 2.47 3.07 7.633 4.745 8.98v6.062c1.116 3.143 3.628 3.143 5.303 5.388 2.233 2.694.837 5.837 3.07 7.858 1.954 1.796 3.35 2.02 5.303 3.367s3.07 6.287 6.977 6.287c0 2.02 1.117 2.245 0 3.592 1.675 1.122 3.07 4.94 5.024 4.94s1.954-1.572 3.63-2.02c1.674-.673 3.07.225 4.744 0 4.466-.673 8.932-2.47 13.118-3.592.28.674.838 1.123.838 1.796 0 6.51-5.303 15.267-8.373 19.083-3.63 4.715-5.303 8.756-9.5 12.124-7.815 6.06-16.467 7.857-19.537 18.185-.838 2.918-3.908 3.592-3.908 6.96 0 3.593.838 5.164.838 8.756 0 4.04 4.465 5.837 4.465 8.082 0 .674-.837 1.572-.837 1.797v2.918c0 1.796-.28 4.04-.28 7.41.837.673.837 1.347.837 2.245 0 8.98-15.91 8.082-17.304 15.715-1.675.225-3.63 2.245-3.63 3.592 0 2.47 3.35 4.266 3.35 7.858 0 1.796-.28 5.613-.837 6.735-.837.898-2.79.45-3.628.898-2.79 1.347-4.466 2.47-6.14 5.39 1.116.673 1.674 1.347 1.674 2.47 0 3.143-3.35 5.837-4.745 7.184-2.79 2.47-2.79 5.164-4.744 7.634-3.07 3.592-4.466 6.96-9.21 9.204-1.954.898-5.024 0-5.303 2.02-1.674.224-2.512.898-3.628.898-1.396 0-1.954-1.123-3.35-1.123-5.024 0-8.094 3.593-12.56 3.593-1.954 0-3.07-1.123-3.907-2.246-.838.225-.838.45-1.117.674 0-2.245-1.116-4.94-2.233-5.837.837-.898 1.675-1.796 1.675-3.143 0-1.796-3.35-5.388-3.908-6.286-4.465-7.185-9.768-13.92-9.768-24.247v-3.143c0-1.572-1.396-2.245-2.512-3.817-3.35-5.388-6.978-9.878-6.978-17.51 0-8.083 7.536-10.103 7.536-16.165 0-2.918-1.116-4.04-1.675-6.51-.837-4.94-1.674-6.735-3.07-9.653-.837-2.245-.558-4.94-1.954-6.96-3.07-3.817-10.047-7.858-10.047-13.47 0-1.348 1.953-4.266 2.79-4.715-.558-1.123 0-1.347 0-1.796 0-1.347 0-4.94 1.116-5.837-1.395-2.47-3.628-4.94-7.536-4.94h-5.024c-3.628 0-4.465-6.735-9.49-6.735-6.14 0-10.327 2.694-15.072 4.04-1.674.674-2.512 2.02-4.186 2.02s-4.745-1.796-7.257-1.796c-4.745 0-6.698 2.245-11.443 2.245-1.396 0-3.07-.674-3.63-.898-3.35-2.47-10.326-6.286-12.838-10.103-2.233-3.367-3.07-6.062-6.14-8.53-.837-.674-7.256-6.062-7.256-6.51-.56-.673-.838-.898-1.675-1.57h.28c0-1.796-.558-2.694-.558-3.817 0-1.572-.837-2.245-1.675-3.817 2.512-1.347 5.024-7.633 5.024-10.55 0-5.164-2.512-8.307-2.512-13.022 0-2.245 2.79-3.816 3.35-5.612 1.675-4.49 5.303-10.777 8.094-14.593 1.675-2.245 4.745-2.02 6.978-3.143 1.675-1.123 4.745-3.368 5.303-5.164 1.396-4.266-.28-6.062 1.954-8.98 3.07-3.817 7.257-7.41 10.327-11h-.28c.837-1.123 1.116-2.245 2.51-3.143 3.07 2.02 6.14 2.918 10.327 2.918 2.512 0 3.07-1.347 4.466-2.02 4.745-2.245 13.676-5.388 18.98-5.388 1.675 0 3.35 1.122 4.187 1.122 1.395 0 3.35-1.796 5.024-1.796s2.232.898 3.628.898c2.512 0 2.512-1.796 4.745-1.796s1.674 2.02 3.628 2.02c.837 0 1.116-.674 1.675-.674 0 1.796-1.675 1.572-1.675 2.92 0 1.122 1.675 1.57 1.675 2.47 0 1.796-1.675 2.694-1.675 4.5 0 2.92 3.07 5.388 5.303 5.388h3.35c7.815 0 10.606 9.205 19.538 9.205 1.116 0 2.512-1.122 2.512-1.796v-2.245c0-3.816 2.79-3.816 6.698-4.94l.28.224h2.512c0 1.572 1.396 2.02 1.675 2.695 1.116 1.347 3.907.45 5.86 1.122 3.907 1.347 9.2 3.143 13.397 3.143 3.907 0 5.024-1.796 8.93-1.796 2.233 0 3.63 1.572 6.14 1.572 1.675 0 1.675-.674 3.35-.898 0 .224.28.45.28.898l-.558-1.572c0-.898.837-.898.837-1.347.837-2.47 1.116-3.817 1.954-6.062s3.07-2.918 3.07-5.612c0-2.02-.558-3.592-.558-4.94 0-.674.558-.898.837-1.123v-1.122c-.837.45-1.396 1.122-2.233 1.122a3.964 3.964 0 01-2.512-.898c-1.954 1.347-2.512 2.92-6.14 2.92-2.512 0-3.628-2.92-6.14-2.92s-1.954 2.694-4.187 2.694-3.628-3.143-5.86-2.02h-1.396c.28 0 .838-.45.838-.674-.838-.673-4.187-2.47-3.07-3.592-1.117-1.572-2.512-1.347-4.187-2.245 1.116-1.123 2.512-.898 2.512-3.143 0-.898-.28-.898 0-1.347-.837 0-1.954.224-1.954-.674 0-3.592 8.652-2.918 10.885-4.04-.28-.898-.837-.673-.837-1.347 0-1.122 2.233-.673 2.79-.673h3.628c1.396 0 3.63-1.572 5.024-2.246 1.675-.898 5.024-1.122 6.978-1.122 3.35 0 3.07 1.796 5.86 1.796 0 1.347 4.745 2.245 6.14 2.245h6.978c2.512 0 3.907-1.796 6.14-2.694h-.558c0-9.205-13.955-8.082-16.746-14.817 6.977-1.797 3.907-4.94 3.628-5.613.558-.225 2.233-2.02 2.233-2.02-3.35 1.123-12.002 4.266-12.002 5.164 0 1.347 1.675 1.796 1.954 1.796l3.35.45c-.837 1.123-6.698 3.592-8.373 3.592s-7.256-8.756-9.49-8.756c-2.79 0-2.79 2.92-5.582 3.817v1.796c-1.117.225-2.512.898-2.512 2.02-.56 1.796-.28.898-.838 1.57v2.92c-1.116 1.122-3.35 3.592-3.35 5.163 0 2.245 3.35 4.04 3.908 4.94-.56.45-.838.45-1.675.45-1.116.45-1.954 0-3.07.45-1.675.673-1.954 2.245-3.63 2.245s-2.79-2.245-5.023-2.245c-1.954 0-2.512 1.122-3.908 1.57.28.898.28 1.572 0 2.47-1.675 0-1.954-1.796-3.07-1.796-.558 0-1.396.673-1.396 1.347l2.233 2.47c0 .674-.558 1.123-.558 1.347 0 .45 3.35 3.143 4.187 3.143 0 .45.28.898.558 1.123-.558.45-1.675 0-1.954.673h-.28c-1.396-.224-2.512-1.122-3.07-1.796v.898c.28.674.837 1.123.837 2.02 0 .673-1.116 2.02 0 2.694h-1.674c-1.954 0-3.63-1.796-3.63-3.817 0-.898 1.117-1.122 1.675-1.796h-1.954c-.558 0-.837-1.122-.837-1.347-.56-1.57-1.396-2.694-2.512-3.816-1.396-1.347-3.35-2.47-3.35-4.94v-2.92c0-1.572-2.79-4.04-4.466-4.94s-3.628-.898-3.628-2.47h-1.675c-2.79 0-5.582-4.04-5.582-6.5h-1.954c-1.675 0-.837-2.47-1.675-3.144-1.395.9-3.907.898-3.907 2.02 0 .225.28.674.558.674-.28.673-.558 1.347-.558 2.02 0 1.796 1.116 2.47 2.512 2.92 1.675.673 2.79 2.47 3.07 3.592.558 1.57 1.396 3.592 2.233 4.04 1.675.898 3.07.224 4.745.224 0 .45 0 .674-.28.898-.56 1.347 2.512 2.02 3.07 2.246 2.512 1.122 5.303 2.02 5.024 4.5-1.117-.225-1.954-1.796-3.908-1.796-1.395 0-2.512.673-2.512 1.796 0 1.57 2.233 1.796 2.233 3.367 0 .674-1.675.674-1.675.674-1.116 1.122-.837 3.592-2.512 3.592-.837 0-1.395-.45-1.395-.898 1.396 0 1.954-1.796 1.954-3.143 0-1.796-.838-2.245-1.117-3.143-.28 0-3.35-2.694-3.35-3.368-.558 0-2.233-.45-2.233-1.122-3.628-.898-4.465-1.797-6.698-3.817-.838-.898-2.79-1.347-2.79-2.02-2.233-2.694-2.79-7.408-7.536-7.408-2.233 0-2.233 1.57-3.35 2.02-2.233 1.123-3.908 3.143-6.42 3.143-2.79 0-4.465-1.347-6.698-1.347-1.675 0-3.63 1.123-3.63 2.92l.838 2.47c-.838 2.246-3.35 3.144-5.862 3.817-2.232.45-5.582 5.164-5.582 7.858 0 .898.56 1.347 1.117 1.57-1.675 2.245-2.233 3.817-4.745 4.94-1.395.674-1.675 3.593-4.187 2.92-1.116-.224-3.07.225-3.628.225-2.79 0-4.466 2.245-6.978 2.245-1.674 0-1.953-4.266-4.744-4.266-1.954 0-3.35.898-5.303.898-.838 0-.838-.674-.838-.898v-4.715c-.837 0-1.953-.673-1.953-1.57 0-1.572 1.395-1.796 1.395-2.694 0-2.92 1.117-5.837 1.117-8.98 0-1.796-1.396-3.367-1.396-4.5 0-.673 4.187-3.143 4.745-3.143s1.116.674 1.675.45h5.302c.56.45 1.396.674 1.954.674h5.86c1.396-.45 2.233.45 3.35.45.837 0 2.512-.674 3.07-.674 0-2.245 1.674-2.918 1.674-5.163v-3.144l-.28.225c.28-.45.56-1.347.56-1.796 0-1.123-.838-.898-.838-1.796-2.512 0-3.07-2.02-3.07-4.04-.837-.225-.837-.674-1.395-.898-1.954-.674-7.257-1.572-7.257-3.368v-.45c0-1.122 3.35-1.796 4.466-2.02.28.673 2.232 1.122 3.35 1.122.837 0 2.233-.45 2.79-.673v-.898c-.837-.225-.558-2.02-.558-2.246v.674h1.116c.837.898 2.233 1.572 3.628 1.572.838 0 1.675-.898 1.954-1.796 3.63 0 4.466-2.47 5.303-5.39.837 0 1.117-.224 1.675-.224.837-.225 5.582-2.02 6.14-2.47.837-.898.558-2.245.558-3.816 0-.45 1.117-1.123 1.117-1.347 1.674-1.572 3.35-3.593 6.14-3.593 1.675 0 .837.45 1.675 0 .28.45.837-.673.837-.898.837-.898 1.954-.224 3.07-.224.837 0 2.512-1.123 2.512-2.02 0-.673-.837-2.694-.837-2.918-.56-3.143-2.512-4.04-2.512-6.735 0-4.94 4.745-5.164 7.815-7.41v1.347c-.56 1.122-.838 1.796-.838 2.92s1.396 1.347 2.233 1.347v.898c0 .673-1.116.898-1.395 1.122-1.117 1.123-2.79 2.245-2.79 4.266 0 1.122.558 2.02 1.395 2.02v1.347c1.396 0 1.954.45 2.79.45.28.674.558 1.347.837 1.347 3.35 0 5.582-2.694 8.374-2.245 0 .674-.838.898-.838 1.347 0 .225 1.954 1.572 1.954 1.572 1.396 0 1.396-.898 1.954-1.123 1.953-.898 3.628-.673 5.303-1.347 1.116-.45 3.07-2.245 4.465-2.245 1.675 0 3.35.225 4.187.45-.28.45-.558 1.123-.558 1.347 1.395 0 3.07-.224 4.465-.224.28-4.04 4.187-3.368 4.187-8.082 0-2.694 2.79-8.083 4.745-8.083s2.512 2.92 4.745 2.92c1.395 0 4.744-2.02-1.396-7.633-1.954-1.572 4.187-4.04 6.978-4.04 2.512 0 3.907.898 6.14.898 1.675 0 5.303-1.572 6.698-2.47-.837-2.245-1.953-2.694-3.07-4.04-1.116 2.245-6.698 2.694-8.93 2.245-2.512.674-5.303 1.796-7.257 1.796-1.674 0-2.512-.224-2.512-1.572-2.512 0-5.303-1.57-5.303-4.04 0-1.122 1.396-2.02 1.675-2.47-1.117-.45-2.233-3.143-2.233-4.5 0-.898.28-1.572 0-2.245 5.024 0 7.815-6.287 10.885-8.083 1.675-.898 4.466-1.57 4.466-3.592 0-2.918-3.908-3.367-6.978-3.367-3.907 0-7.257 1.347-7.257 4.714 0 1.347.28 2.02 0 2.694 0 2.694-5.582 4.94-8.093 6.287-1.954 1.122-4.187 1.57-5.303 3.816-.838 1.572.28 3.817-1.675 4.715v2.245c.558.45.837 1.347.837 2.02 2.233.45 5.303 2.47 5.303 4.715 0 1.796-3.628 4.715-4.745 4.715-2.512 0-3.35 3.367-3.35 5.837 0 1.347 1.117 1.796 1.954 2.02-.28 3.144-3.35 3.368-3.63 5.613h-3.35c-1.953 0-2.79 3.817-5.86 3.817-.837 0-2.512-4.94-2.512-5.388s.28-.898.28-1.123c-1.953-2.02-1.674-3.592-2.512-6.062-.558-1.796-2.512-2.245-2.512-4.265 0-.674.28-1.123.56-1.572-1.396-.673-1.675-1.57-2.512-2.694-2.512 3.592-6.42 7.858-11.444 7.858-.837 0-5.303-2.694-5.303-3.143 0-.898 1.675-1.572 1.954-1.796v-1.796c-1.675 0-1.675 0-3.07.673 0-.898 1.396-2.245 1.954-2.918-1.675-2.02-1.954-4.94-1.954-8.307 0-1.796 1.954-1.572 2.512-2.694 1.395-2.02 2.79-3.368 5.303-4.04 2.233-.674 2.512-3.368 6.978-2.92-1.396-.45-1.675-.674-2.792-.898 5.303-1.347 7.257-5.388 10.885-8.082 1.396-1.123 1.117-4.715 2.233-4.715 0 0 1.117-2.47 1.117-2.694 1.395-2.245 3.07-4.04 5.582-4.94s5.86-4.94 6.42-7.41c-3.07.674-4.186 2.02-6.977 2.02.558-.898 1.953-1.347 2.512-1.572-.56 0-1.675-.45-1.675-.45.28-1.122.837-1.796 1.675-1.796.28 0 .558.45.837.45.28-.673.837-1.122 1.116-1.57.56.673.838 1.347.28 2.02 1.954 0 2.512 1.123 3.908 1.123.558 0 1.954-2.694 2.233-2.92-.838-.224-.838-.45-1.954-.224.558-.898 1.675-1.796 2.79-1.796.837 0 1.675.224 2.512-.225-.558-.673-.558-.45-.837-.898 1.116-1.123 3.35-1.123 5.303-1.347v1.347c1.674-.45 1.953-2.92 4.465-3.143v2.02c1.675-2.694 3.63-2.02 5.86-3.367-.837-.45-1.674-.674-1.674-1.347s2.233-1.123 2.512-1.796c.837.898 1.395 1.796 2.512 1.796 1.953 0 6.42-2.92 6.42-1.347s-1.954 2.02-2.512 3.816c2.512.225 3.07-2.47 5.303-3.592.558.898.558 1.347.558 2.02 1.675-1.572 2.512-2.02 4.466-3.143 0 1.57 0 2.47 1.117 2.694.28-.898.837-1.796 1.953-1.796.558 0 3.35 1.347 4.187 1.796-1.117 2.694-1.954 1.796-4.745 2.694 1.116.898 1.954 1.122 1.954 1.796 1.116.224 3.628.45 3.907.45 2.79-.45 2.79.224 3.35.224 3.908 0 17.026 6.287 22.887 8.083 20.654 6.286 6.978 14.368.28 12.797-5.024-1.347-7.815-1.123-13.118-1.123 2.512 3.368 1.675 10.552 8.373 11V153.5c13.956 5.837 12.28-5.388 15.63-6.286 3.35-1.122 9.5 1.796 9.5-2.245 0-2.02-2.233-2.47-1.675-3.368 5.303-15.49 7.815-5.163 6.14-.673-.558 1.347 1.675 2.245 3.07 2.245 4.465 0 22.607-15.49 25.398-8.756 5.582 2.47 13.118-2.245 16.746-2.245 2.233 0 6.14 7.184 6.7-1.796 0-.898-5.303-6.286 11.164-2.02 5.86 1.57 22.05 12.796 15.35 2.694-2.79-2.694-5.303-6.287-5.303-11.675 0-4.5 9.768-12.572 15.07-11.674 10.327 2.02 3.63 3.592 3.63 7.633 0 3.592 1.395 21.104 6.42 21.104 3.907 0-3.628-8.53-1.116-11.226 3.628-3.816-1.396-7.184-2.512-10.55 3.07-1.572 5.582-3.143 6.14-6.96 1.675 2.02 1.116 12.797 8.094 3.592 8.373 0 9.5 1.572 12 0-.558-1.796-1.674-3.143-1.674-4.715 0-6.735 15.072-5.163 18.98-5.163 2.79 0 3.35-4.715 5.303-6.287 8.93-7.633 25.678-8.756 29.864-9.878-1.395 5.388 14.234-.674 16.746-2.245 3.35-2.47 5.862-6.96 12.002-6.96 5.303 0 7.815 3.143 8.93 6.286h12.56c29.867 6.96-6.42 16.39-10.327 20.88 0 0-3.628 7.857 12.28-4.715 2.512 4.266 23.443 6.51 27.353 7.633H1025c0-3.592 1.67-4.94 4.74-4.714 24.84 2.02 15.07 7.857 15.07 8.755 0 3.144 2.24 9.205 7.26 9.205 1.95 0 2.5-3.592 3.07-5.163 3.9.224 4.47 2.918 7.8 2.918h19.26c.84-4.5 1.96-9.205 11.45-9.205s17.3 1.796 24.56 4.042c3.63 1.122 3.63 3.816 6.14 5.837 2.8 2.245 9.5.673 13.95.673 8.1 0 12.28 2.02 13.96 8.082l27.63.674c2.23 0 11.44 11.225 7.8 0-.55-1.572 2.24-2.245 6.14-2.245 13.96 0 26.52 5.613 36 11 6.98 3.367 21.2 6.5 25.4 12.123zM769.626 270.916c-.558.674 1.117.674 1.675 1.796.837 1.347 0 2.245.558 3.817.558 1.347 2.233.673 3.63.898 1.116.224 1.395 1.347 1.953 2.02.838.898 3.908.673 5.582.673 1.954 0 4.187-.45 5.582-.673v-2.02c0-.225-1.116-1.347-1.116-2.47s.837-1.347.837-2.694c0-2.245-1.674-4.5-4.186-4.94.28-1.796 1.395-2.918 2.512-2.918h3.628c0-1.796-1.954-2.694-1.954-4.49-.837.225-3.07 1.347-4.186 1.797 0-4.49-3.35-6.062-5.582-9.88-.838-1.347-2.79-1.122-2.79-3.592.28.225 5.303-2.918 8.373-2.918 2.233 0 4.465 1.347 6.42 0-2.512-3.368-3.628-6.51-10.048-6.51-3.907 0-5.86.898-8.93 2.02-.28.225-3.907 2.02-4.466 1.796-.558.674-2.79 4.94-2.79 5.613 0 1.796 2.79 3.592 2.79 4.715 0 4.04 5.024 11 8.094 12.572-1.953.898-1.953 3.592-3.35 5.613-.558-.225-1.954-.898-2.233-.225zm172.766 101.702c-.28.45-.28.673-.558 1.122 0-.45.28-.898.558-1.122zm1.674-4.5c-.837 1.347-1.116 2.47-1.674 3.592.558-1.123 1.116-2.02 1.674-3.592zm1.117-1.123c0 .225-.28.45-.28.674 0-.45.28-.45.28-.674zm271.847-247.182c1.4 0 10.9-.673 10.9-2.02 0-1.796-4.47-2.92-6.42-2.92-1.96 0-5.6 2.02-5.6 3.817 0 .45.56 1.122 1.12 1.122zm-34.05 7.184c.56 0 1.12-.673 1.12-1.122 0-.674-.84-.898-.84-1.347h-3.9c.84 1.347 1.96 2.47 3.63 2.47zm-114.43-36.82c.83 0 1.1-.898 1.1-1.572v-.224h-.28l-.83-.898c-.56.674-.84 1.123-.84 1.796-.28.674 0 .898.84.898zm-79.27 5.837c-1.116 0-2.512.674-2.512 1.796s1.396 1.347 2.512 1.347c.838 0 1.675-.224 2.512-.674.28-.224.28-.45.28-.673 0-1.347-1.116-1.796-2.79-1.796zm2.79 2.245c-.28.224-.28.224 0 0-.558.45-.837.674-.837.898l.837-.898zm-48.006-26.267c0 1.123.28 1.796 1.675 1.796l6.42-1.796s3.63-.673 4.187-.673c2.233.45 8.373 0 8.373-2.92 0-1.572-5.024-4.715-6.698-4.715-.838 0-1.396.898-2.233 1.123 1.116-.898.28-.898.28-2.47h-1.675c-4.744 0-5.86 4.266-8.652 6.96-.28.673-1.675.674-1.675 2.694zm-29.026-13.92c0 1.123 1.674 2.92 2.512 2.92 1.395 0 5.303-.224 5.582-2.245-.838-.224-4.187-1.796-4.745-1.796-.837-.224-3.35-.224-3.35 1.123zm16.467-.45c-3.908 1.122-5.024 2.47-8.93 3.817 1.674.898 5.023 4.266 6.42 4.266 4.466 0 8.094 2.02 13.397 2.02 1.116 0 2.512-.674 2.512-1.796 0-.898-.838-1.122-1.675-1.347.837-.225 2.512-.45 2.512-1.572s-.28-1.347.837-2.245c-1.674-1.572-1.674-2.245-3.907-2.245h-2.512c-1.396 0-2.233-1.122-3.628-1.122-.838 0-1.396-.45-2.512 0 .837-.45 2.233-1.347 2.233-2.02v-2.245c.558.225.28.45 1.395-.225-1.954-1.347-3.907-4.5-7.257-4.5-5.86 0-7.535 5.388-12.56 6.735 3.07 1.572 5.303 2.47 8.93 2.47.28-.224 3.35 0 4.745 0zm-.28 23.573c1.395 0 2.233-.674 2.512-2.245h-1.675c-.558.45-1.116.898-1.675 1.123-.28.45.28 1.123.838 1.123zm-14.514-31.656l-.28-.898h-4.466c.56 1.572 3.07 1.123 4.745.898zM971.14 72.9c.837 0 1.395-.898 1.674-1.796-1.116.45-1.395-.225-3.907.45.28.45.837 1.347 2.233 1.347zM775.488 55.165c-.28.224-.56.45-.838.45v.45l.838-.898zm-12.56-2.47c1.116 0 1.674.674 2.79 1.123-.558.45-1.117.673-1.675 1.123.558 0 1.117.224 2.233.224-.837.224-1.675.45-2.512.898.28 1.123 1.675 1.347 3.35 1.347.28.45.838 1.122 1.396 1.122 1.116 0 1.395-2.02 2.512-2.47 1.674-.898 2.79.224 4.186-.45v-.673h1.117c1.395-1.123 3.07 0 3.35-2.02-.837-.224-2.233-1.123-3.628-1.123-1.675 0-2.512 1.572-4.466 1.572-2.233 0-3.907-1.572-6.978-1.572-2.51 0-8.094.45-9.2 2.245.837.224 1.675.45 2.512.45 1.395-.224 3.628-1.796 5.024-1.796zm57.216-.45c.838 0 5.582-.898 6.42-1.572l-1.675-3.817c-1.675 0-6.7 1.796-6.7 3.368-.28 1.347.28 2.02 1.954 2.02zm-6.698 2.92l-.56-1.347c1.117 0 2.233.45 3.07-.674V51.35c-1.117.224-3.07.224-3.908 0 .28 0 .838-.45 1.117-.898h-3.908v1.572c-1.395.45-2.512 1.347-2.512 3.143 0 .45 5.86.224 6.7 0zm-12.56-.224c-1.116 0-6.14.673-6.14 2.245 0 .45.558.898 1.116.898 1.117 0 1.675 0 1.675-1.123.837 0 1.674 1.123 2.512 1.123 1.674 0 1.674-1.796 3.907-1.796-.558-.898-1.674-1.347-3.07-1.347zm-.837-2.47c1.395 0 2.512.224 3.628-.45-2.512-1.122-3.35-1.347-6.978-1.796 1.117-1.123 3.63-1.796 5.583-2.92 0-.674.558-1.123 1.116-1.572 0-.45 0-1.347-.28-1.347-1.117 0-1.954.898-1.954 2.02-3.628 0-3.628 2.245-7.257 2.245v1.572c1.117-.674.838-.224 1.954.224h-5.024l-1.674 1.347c.28.224 5.303 2.245 6.14 2.245 1.395-.224 3.35-1.572 4.745-1.572zM642.913 65.268c.28 0 .558.45.837.45-.558 1.796 1.396 2.694 3.35 3.817-.28 0-.56.225-.838.225.558 1.122 1.954 1.796 3.908 1.796 2.512 0 2.512-2.47 3.628-3.143h1.116c.56.45 1.675 1.123 1.675 1.123h3.07c-1.395 1.123-4.465 2.47-6.14 2.92-.558.225-3.35.225-3.35 1.123 0 2.694 3.07 1.572 4.465 1.572.838 0 4.745.225 5.303.674-1.395.45-2.79 0-3.907.898 0 0-2.79-.45-4.466-.225 0 4.04 6.42 5.388 9.5 7.41 1.674-1.572 1.395-4.94 3.628-6.286.558-.45 1.675-.225 1.954-.898 1.116-2.92 2.512-8.082 6.698-8.082a3.78 3.78 0 002.791 1.796c-.558 0-1.116 0-1.674.225.558.898 1.674 2.92 2.512 3.143-.28 1.796-1.675 1.122-1.675 3.143 1.675.225 4.187 0 5.582.225-.28.674-.28 1.123 0 2.02 3.07-.898 4.466-2.918 7.536-4.04-1.116-1.572-4.466-.674-4.466-4.266h-3.907c.28-.45.28-1.123 0-1.796-.837.225-1.117.225-2.233 0 .28 0 .837 0 1.116-.224-1.116-1.347-7.535-4.94-9.768-4.94-.28 0-.838-.225-1.117-.225.28-.898.56-2.694-1.395-2.694-.838 0-1.116 1.123-2.233 1.572 0-.898.28-1.572.28-2.245 0-1.123-3.35-2.245-4.745-2.245-1.674 0-2.512 0-2.512 1.796 0 2.245.838 3.143 1.396 5.164-3.07-1.122-2.233-5.164-5.303-5.164-1.117 0-1.954.898-1.954 2.02 0 .673.28 1.347.838 1.572-.838-.898-1.954-.898-3.35-1.796.28-.674.838-.898 1.396-1.572-2.79-.45-4.187-.45-6.14-.45-1.116 0-3.628 2.245-4.186 2.694.837.898 1.954 2.92 2.79 2.92zm24.003-6.286c-.28 2.694 2.233 1.347 4.187 1.347.28 0 5.303.45 5.582.45-.56.224-1.954.224-3.07.674-.28 0-1.674 0-2.51.224 0 .898.558 1.572 1.674 1.796h6.978c.837 1.347 1.953 2.02 4.186 2.02 3.63 0 9.5-4.04 12.28-5.837-.837-1.347-3.07-3.143-5.303-3.143h-3.908c-1.953 0-2.51 1.123-3.628 1.123-.28-.898 0-1.347 0-2.92h-1.395c-.56.45-1.675 2.694-3.07 2.694-.558 0-4.186-1.572-4.744-2.245h-3.35l.56 1.122h-1.954v.674c-.837.45-1.675.224-2.512-.45h-1.675c0 .898.56 1.796 1.675 2.47zM644.03 71.554c-.837-2.47-2.512-2.92-3.907-4.715-1.675 1.123 1.675 4.266 3.907 4.715zm-73.962 145.93c0 1.347 1.674 2.694 3.07 2.694.837 0 1.675 0 2.233-.45.837-.674 2.512-2.47 4.465-2.47 1.117 0 2.512 0 3.07-.673.837-.898 0-2.245 0-3.368v-4.04c0-.898 2.232-.898 2.232-1.796 0-2.02-1.395-4.715-4.186-4.715h-1.954c-1.116 0-3.628 1.347-3.628 2.245 0 .674.28.898.837 1.572-.837.673-2.79 1.347-3.628 1.347-.28 0-1.396-.225-1.396 1.347 0 1.122 1.117 1.796 2.233 2.47-.28 2.694-3.35 2.918-3.35 5.837zm10.885-26.717c1.395 0 2.233-1.347 2.233-2.694-.838 0-3.07.674-3.07 1.347 0 .45.28 1.347.837 1.347zm3.907 3.368v.898s-.837.898-.837 1.572c0 .45 1.116.898 1.675.898v1.122c-.28.225-.56.45-.56.898v1.796h.838c-.28-.45-.558-.898 0-1.796.28.225 1.116.674 1.953.674-.28.898 0 1.122 0 2.245 0 .898-1.116 1.57-1.116 2.47s.837.898 1.954.898c.837 0 1.674-.673 2.79-.673h1.116c-.28.45-.837.673-.837 1.57 0 1.123 1.675 1.347 2.79 1.347v1.796c-.558 1.123-3.35 2.246-5.303 2.246 0 1.347.837 1.796.837 3.367 0 1.796-3.35 1.796-3.35 3.592 0 .225.28.674.558.674.558 0 .558-.674 1.117-.674 1.395 0 1.674 1.347 3.35 1.347.837 0 1.674-.45 2.233-1.122 0 .224.28.673.28.898 0 1.57-2.512 1.122-4.187 1.57-.28 0-3.907 3.817-4.186 4.266v.673h.837c.558-.45.837-.898 1.675-.898h1.674c0-.898.838-2.02 1.954-2.02.837 0 1.396.673 2.233.673 1.674 0 5.024-1.122 6.14-1.122h4.745c1.395 0 2.233-.674 3.35-1.796v-.898c-.837 0-1.116-.225-2.512-.45.838-1.572 3.908-2.47 3.908-4.715 0-1.122-1.117-2.245-2.512-2.245-.838 0-.838-.224-1.675.45l.558-.45c-.558.225-.558.674-1.395.898v-.898c.28-.224.558-.45.558-.898 0-.898-1.396-1.57-1.396-2.47 0-2.694-3.07-3.592-5.023-5.388-1.396-1.347-1.117-4.265-3.35-4.94-.837-.224-1.674.225-2.79-.224 0-.45.558-.898 1.117-.898 0-2.47 3.628-3.817 3.35-7.185h-6.978c-.28-.45-.28-.673-.28-.898.28-1.57 3.07-1.347 3.07-2.918 0-.225-.837-1.123-1.116-1.123h-3.35c-.837 0-1.954.898-1.954 1.572s-.558 1.122-.558 2.02c-.838 0-1.675.45-1.675 1.347 0 .225.28.674.558.674 0 .224-.28.673-.558.673s-.837-.45-.837-1.122h-1.954c.28 2.02 1.117 2.47 3.07 2.694zm3.908 13.246c-.837.45-.838.898-.838 1.347h1.396v-1.347h-.558zM1080 94.903c1.12 0 1.67-1.123 2.5-1.796.56.674 1.12 1.123 2.23 1.123 1.12 0 1.96-.898 2.52-.898.83 0 1.4-.898 2.5-.898.84 0 1.4 1.123 2.23 1.123 1.4 0 1.96-1.123 3.07-1.123h3.35c0-.898 1.68-2.245 2.23-3.817-2.5-.674-9.5-3.143-11.72-3.143-1.4 0-1.95 1.347-1.95 3.143-3.35 0-3.63-3.817-7.26-3.817-2.5 0-5.3 2.02-5.3 4.715-.56 2.92 2.23 5.388 5.58 5.388zm-423.96 180.28c-1.954-.45-2.512.673-4.187.673s-2.79-1.57-5.303-.45v.898c.28.674 1.396.45 1.675.674 1.954.674 3.628 2.47 5.582 2.92 0 .45.558.45.837.45s.838-.45.838-.898c0-.898-.56-1.123-.56-1.796 0-.45.56-1.348.56-1.348l.558-1.122zm-20.375-13.02c.28-.674.838-3.144 1.117-4.715-.28-.225-.558-.674-.558-1.347-.56.224-1.117 1.122-1.954 1.122-.28 0-.558.225-.838.225.56 1.122 1.117 4.5 2.233 4.715zm-1.674 4.94c0 .898-.56 1.347-.838 2.245 0 .898 0 2.47 1.117 2.47.837 0 3.07-1.57 3.07-3.143 0-1.796.28-2.918-.837-4.714-.28 0-.838-.674-1.675-.674-1.116 0-1.116 1.123-2.512 1.572.558.673 1.675 1.122 1.675 2.245zm-18.142 2.47c0-.45-.558-1.122-.558-1.347-.838 0-1.117.45-1.954.898 0 0 1.116 1.123 1.675 1.123.28-.225.837-.45.837-.674zm25.398-65.78c0-1.123-.837-.898-.837-2.245h-2.233v1.122c0 1.123 1.396 1.572 2.79 1.572v.898c0-.674.28-.45.28-1.347zm1.396 1.347l-.28-.45c0 .224-.558.45-.558.673 0 0 .837.674 1.674.674 2.512 0 1.675-4.04 3.63-4.715-.56-2.02-.838-2.918-3.07-2.918-.837 0-2.232 2.918-2.232 3.592s1.395 1.57 2.51 1.796c.28.224-.558 1.122-1.674 1.347zm25.957-15.49c-2.233.224-2.79 2.245-2.79 2.918s-.28 1.123 0 1.572c.837-1.123 1.674-1.572 1.674-2.92.28-.673.838-1.122 1.117-1.57zm10.885-.45c.558 0 1.953-.898 1.953-1.123v-1.347c.28-.224.838-.898.838-1.57-.56-.225-.838-.45-1.396-1.123 0 0-1.116.674-1.116 1.123 0 .673.558.898.837 1.347-.837.224-1.675.898-2.512.898.28.673.28 1.796 1.396 1.796zm13.955 97.21c-1.954-.673-5.024-1.122-7.536-.673 1.396.673 3.628.898 4.466.898s1.395.45 3.07-.225zm28.468-2.02c-1.953.224-5.303 1.57-6.977 2.245 0 .224.28.673.558.673 0 .45.558.674.837.674 1.117 0 3.35-.674 3.63-1.347 0-.45 0-1.123.28-1.123.837-.45 1.395 0 1.674-1.122zm65.6 83.067c.837 0 1.954-.898 2.233-1.347-1.675 0-2.512.225-3.35.674 0 .45.837.673 1.116.673zm-18.142-238.2c-.28 0-1.674 2.245-1.674 2.694 0 1.122.837 1.347 2.232 1.347 1.954 0 3.35-1.123 5.024-2.02v-1.57c-1.674-.225-2.512-1.796-4.186-1.796-.56.224-.838 1.347-1.396 1.347zm34.33-4.715c0 1.347 2.79 2.918 4.187 2.918 0 0 1.674.225 1.674-.673 0-2.245-5.86-4.715-5.86-2.245zm44.378-18.634c-1.117-.898-1.675-2.245-3.07-2.245-1.116 0-1.674 1.347-1.674 2.245 0 .45-.28 1.122 0 1.122 1.395 0 4.186-.673 4.745-1.122zm244.215-1.123h3.63c0-2.694-2.5-4.714-5.58-4.714-2.8 0-4.47 1.57-5.86 3.367l.55-.673c2.24 1.122 5.03.898 7.26 2.02zM1116 94.454c1.96 0 5.3-.45 5.3-1.796 0-.674-.56-1.123-1.12-1.123s-13.12-1.572-14.23-2.245l1.1.898c0 2.918 5.86 4.266 8.93 4.266zm-28.74 4.04c0-1.572-3.35-1.796-3.35 0 0 1.123 0 1.572 1.4 1.572 1.12 0 1.96-.45 1.96-1.572zm-529.464 55.678l.28-.225c0-3.143-4.465-2.47-4.465-5.837 0-.45.28-.898.837-1.122-1.117 0-1.675.673-2.79.673s-2.233-.224-2.233-1.57c-.558.45-.558.224-1.395 0-.28.45-.56.898-.56 1.796-1.116-1.123-2.512.45-4.186.45-1.117 0-1.954-.45-3.908-.45v1.122c-.558-.224-.837-.673-1.674-.898l-2.79.674c-.838 0-1.117-.674-1.675-1.123-.28.45-.28.674 0 1.572-.558.224-1.396.673-2.233.673s-1.954-1.57-1.674-2.245c0-.673-.56-1.122-.838-1.796h-.837c-.837 0-1.116 1.347-2.233 1.347v.898c-.837-.45-1.395-.673-2.512-.224.28 1.347 4.745 2.47 6.14 2.47 0 .45 0 .674.56.898-1.396.45-4.466 1.123-6.14 1.123 1.117 1.122 3.35 0 5.303.45-.28 1.347-.558 2.02-.558 3.367-.28 0-.837.45-1.116.674 2.79 0 3.628 1.57 5.303 2.02 3.35 1.123 6.42 2.02 10.885 2.02 4.186 0 6.42-2.02 9.2-2.92 1.396 0 4.187-2.245 5.303-3.816zM349.853 341.187c-.837-.225-1.395-2.02-2.79-2.245h-1.674v-.898c-2.79 0-5.86-1.347-7.536-2.92-.28-.224-1.116-1.347-1.954-1.347-3.907 0-6.42-2.918-11.722-2.918s-7.815 2.02-9.77 5.163h1.117c1.116-1.122 4.465-2.694 6.698-2.694.558 0 1.117-.224 1.675.45-.28.45-.558.898.28 1.347h3.628c1.675 0 2.512 1.796 4.187 1.796.837 0 1.674-.45 2.512.225.558.224.28 1.122 1.395 1.122.28 1.796 2.233 1.572 4.187 2.47 0 .673-.558 1.122-1.117 1.122v.674c2.233 0 4.187.898 6.978.898.837-.898 3.07-.898 3.907-2.245zm-29.585-6.062v.898c-.28 0-1.116.225-1.116 1.123 0 .224 1.675 0 1.675 0 .28-.674 0-1.123 0-1.796l-.56-.225zm16.747 12.348c0 .898.837 1.796 1.953 1.796 1.396 0 2.512-.45 3.908-.673 0-.45-.28-.898-1.117-1.123l.28.225c-.838-.225-2.512-.898-3.908-.898-.28 0-1.116.224-1.116.673zm37.958-.224c0 1.122 1.675 1.347 3.07 1.347.837 0 1.675 0 1.954-.674-.28-.673-3.35-1.347-3.63-1.347-.558 0-1.395.225-1.395.674zm-24.84-.45c0 .673.837 1.796 1.395 1.796v-.898c.558.45.558 0 1.396 0 1.395 0 4.465-.45 5.303.45.558.45.28 1.57 1.395 1.57 1.396 0 1.117-2.02 2.79-2.02.558 0 .558.673 1.117.673.837 0 1.395-.45 2.232-.898h4.466c-.837-1.122-1.954-1.57-3.35-2.47l.558.45c-2.233-1.123-2.79-2.92-6.698-2.92-1.396 0-1.954.45-3.63.45-1.116 0-1.674-.898-2.79-.898-.28 0-.837.45-.837.898 0 .673.837 1.347 1.674 1.347 0 .898 0 1.796.838 2.47-1.396.673-2.512 0-5.303 0 0-.225-.28 0-.558 0zm43.54 28.96c0 .45.837 0 1.116 0 .838 0 1.117-1.123 1.396-1.572v-.898h-1.117c-.558.225-1.395 1.347-1.395 2.47zm39.912 32.778c-1.396 0-2.512 1.122-2.512 2.92 0 1.122 3.07 3.143 5.024 3.143 1.395 0 3.35-2.694 3.35-3.817 0-.224-.28-1.123-.837-1.123s-1.675 1.348-1.954-.224c-.837 0-1.675-.674-2.512-1.123-.28.225-.558.225-.558.225zm-81.22 155.808h1.117v-3.592c0-.45.558-.674.558-1.348 0-.898-.28-1.795-1.395-1.795-.838 0-1.396 3.592-1.396 3.592v1.57c-.28.45.28 1.572 1.116 1.572zm133.97-133.133c0 8.53-5.023 10.776-8.094 15.716-.837 1.122-1.116 1.347-1.953 2.47-1.117 1.796-2.512 2.02-3.63 3.143-1.674 1.796 0 5.388 0 8.307 0 2.02-.837 4.04-.837 5.613 0 .673-.558 1.122-.558 1.347-.558.673-1.675 1.796-1.675 2.694 0 1.122-.28 3.592-.558 4.04-1.675 2.694-2.512 3.817-4.187 6.062-.558.673-.28 2.02-.558 2.47-.837 1.347-3.35 2.92-5.303 2.92-2.233 0-4.186-.225-5.86.673-.837.45-.837.898-1.116 1.347-2.79 2.694-5.862 1.123-8.094 4.49-.838 1.57-2.512 1.57-3.63 2.47-1.674 1.572-1.395 3.143-1.395 5.388v5.388c-2.512 1.123-3.63 3.143-4.745 5.613v-.224c-.837 1.57-.837 2.245-1.675 3.816-2.232 3.143-4.465 3.368-6.698 6.51-2.512 3.592-3.35 9.205-8.93 9.205-1.954 0-4.745-1.347-5.583-1.347-1.674 0-3.35-1.347-5.023-1.347-.28 0-.838.224-.838.673 0 1.123 1.675 1.572 2.233 2.02.837.898.837 2.245 1.396 3.592.28 1.347 2.232 1.347 2.232 2.47 0 1.347 0 2.245-.558 3.143-1.116 1.572-1.954 2.47-3.07 3.593-1.954 2.02-4.466 1.347-7.536 2.245-1.953.45-5.86-.674-6.977.224-1.675 1.572-.28 4.94-1.117 6.51v1.122c0 .674-1.953 1.347-2.79 1.347-2.512 0-3.07-1.57-5.303-1.57-.837 0-1.116.898-1.116 1.347 0 1.57 1.395 4.714 2.512 4.714.558 0 1.395-.673 1.674-.898.56.45 1.117.674 1.117 1.123 0 .674-.838 1.572-1.117 1.572-1.395 0-1.953-1.123-3.07-1.123 0 1.347.837 1.572 1.396 1.796-2.233 2.02-2.233 4.266-2.79 6.96-.28 1.347-2.512 1.347-3.35 1.57-1.953.45-3.628 2.02-3.628 4.04 0 4.49 5.303 2.92 5.303 6.51 0 3.143-3.07 3.592-4.745 5.164-.837.898-.558 2.47-1.395 4.04s-2.79.898-3.908 2.02c-1.395 1.347-1.953 2.918-1.953 5.163 0 1.123 1.116 2.47 1.674 2.694 2.233 1.123 1.954 6.51 3.63 8.083 2.79 2.47 5.86 3.592 9.2 5.163-.558.674-1.116.45-1.954.45-1.674 0-4.745 2.245-5.86 2.245h-1.395c-.28 0-.838.45-1.117.45h-3.35c-2.79 0-1.675-3.143-3.628-3.816-1.675-.674-4.466-.674-4.466-2.694h-2.233c-.837 0-1.116-.9-1.395-1.572-3.35 0-4.466-1.572-5.862-3.143-.28-.45-1.116-.898-1.116-1.123 0-1.122 2.233-.898 2.233-2.02l-.838-.674c.28-.673.838-1.347.838-2.02 0-2.694-3.35-2.245-3.35-4.715v-1.572c0-2.47-1.674-6.5-1.674-8.53s2.79-2.918 2.79-4.714c0-.898-1.396-2.695-1.675-4.042v-1.122c0-.674.558-1.347 1.117-1.347 2.233 0 1.395 2.02 3.07 2.02l3.907-17.288v-1.796h-1.116c-.837.45-.837 1.348-1.675 1.348s-1.674-2.695-1.674-4.042c0-2.245.837-3.143 1.116-5.163.837 0 1.116-.45 1.116-.674 0-.673-.837-1.347-.837-1.347-.558 0-.558-3.143-.558-4.04 0-2.694 1.675-5.388 2.79-6.96.558-.898.837-2.47 1.396-3.143.28-.45.837-.45 1.116-.898.837-2.694.837-4.714 1.675-7.41v-8.755c-.838-2.02.558-3.817.558-5.613 0-4.5 2.79-7.41 2.79-11.225v-.674c0-.898.558-2.918.837-4.04v-5.164c0-1.57 1.117-4.714 1.117-6.735 0-1.122-.56-8.082-.838-9.205-1.116-2.694-3.07-4.5-5.303-5.612-1.674-.898-3.07-.674-4.465-1.796-1.396-1.347-2.233-1.796-3.908-2.245-3.35-1.123-5.024-2.694-7.257-4.715-.837-.898-.558-2.245-.558-3.592 0-1.796-1.674-2.694-2.233-4.5-.837-2.694-3.35-4.94-4.186-7.41-.838-2.694-1.675-4.266-2.512-6.286-.28-.674-1.117-.45-1.675-.898-.837-.898-1.116-2.47-1.395-3.368-.28-.673-1.396-.45-1.675-.898-1.395-1.347-3.07-3.592-3.07-5.613 0-1.347.837-2.918 1.395-3.592 1.117-1.796 3.35-2.245 3.63-4.04-1.117-.673-.837-.224-1.675-.224-1.674 0-1.954-2.245-1.954-4.04 0-2.694 3.07-2.245 2.512-7.41 3.35 0 4.187-3.143 5.024-4.94 1.396-2.47 4.466-1.796 5.303-4.94-.558-.225-1.116-.898-1.116-1.123l.558-.898v-.674c0-.898-.837-1.57-.837-2.47 0-1.347.558-1.796.558-2.92 0-2.47-2.233-2.02-2.233-4.265 0-.225 0-.45.28-.674l-.28.225c-.28-.225-1.395-.674-1.395-.898 0-.45.558-.674.837-1.123-1.396-.673-1.675-2.02-3.07-2.02-.838 0-4.187 2.245-4.187 2.918 0 .45.838.898.838 1.123-.28 1.122-.838 1.796-1.675 1.796-1.954 0-3.07-2.245-4.187-3.143-.837-.898-2.79-.225-3.628-.225-.28 0-.558-.45-.558-.673-1.675-.45-1.675-1.572-2.233-2.47-.28-.673-4.466-3.143-4.466-3.143-.28.45-.28.898 0 1.122h-1.116c-1.675-1.122-.558-2.694-1.117-4.5-.28-1.122-.837-1.347-1.674-2.02-1.954-1.796-3.908-2.92-4.745-5.613h-.837c-.838 0-1.396.674-2.233.674-2.233 0-3.628-1.347-5.024-2.02-2.233-1.122-3.907-.45-6.42-1.57-3.63-1.796-4.187-4.49-7.536-5.838h-.838c-.837-.673-1.674-.898-2.79-.898-2.232 0-2.512 2.245-4.465 2.245-.838 0-1.954-.898-2.512-1.122-.838-.45-1.675-.225-2.79-.225-1.396 0-5.582-2.694-6.7-3.367-1.395-.674-2.233.224-3.628-.225-1.675-.45-1.954-1.796-3.628-2.694-1.675-.673-2.512-.45-3.908-1.122-.837-.45-.837-.45-1.395-.898-1.396-1.347-5.303-2.245-5.582-3.817-1.117 0-1.675-1.347-1.675-2.245 0-1.347 1.116-2.02 1.116-3.143 0-1.572-.837-1.796-1.116-2.694-1.396-4.266-5.582-7.633-8.094-10.103-1.117-1.123-3.07-1.572-4.466-2.694-.837-.898 0-2.02-.837-3.368-1.117-2.02-4.745-2.245-4.745-5.163-1.116-.225-.837-.45-1.395 0l-4.187-4.04c-1.116-1.123-.837-2.92-1.675-4.042-1.116-1.122-.837-3.592-1.674-4.04-1.954-.898-3.908-.898-5.582-2.245-.28.45-.28 1.123-.28 1.572 0 2.47 1.116 4.04 2.232 5.837.838 1.796 2.512 1.796 3.63 2.92 1.674 1.57 1.953 2.694 2.512 4.714.837 2.694 3.35 4.04 4.186 6.286.838 2.694 1.675 5.837 3.908 7.185.837-.9 2.512 1.122 2.512 2.02 0 .674-.56 1.796-.838 1.796s-1.953-2.02-1.953-2.47c-2.233 0-3.35-2.695-4.745-3.593-.837-.45-.838-.45-1.117-1.122v-2.92c-1.395-1.347-2.232-2.47-3.628-3.816-1.675-1.572-4.466-1.347-5.582-2.92.558 0 3.35.45 2.512-1.122-1.675-2.47-3.628-4.94-5.86-6.287-1.396-.898-1.396-4.04-1.954-5.612-1.116-2.02-2.233-2.694-3.07-5.388v-.898h.28c-1.675-3.593-7.815-5.838-12.28-7.634-.837-.45-.558-1.57-.837-2.47-1.675-4.04-5.024-5.388-4.466-10.103-2.512-.45-5.023-5.388-7.256-8.98-.56-.898.558-1.796 1.116-2.245-1.395-2.47 0-6.736-1.116-9.654s1.953-9.43 1.953-13.022c0-2.47-3.07-3.592-3.07-6.06 0-.674 1.396-.898 1.675-.898 1.675 0 2.79.898 3.628 2.02.558-.673 1.675-2.02 1.675-3.143s-1.117-1.57-1.675-2.694c-.558-.224-1.116-.45-1.395-.673-1.117-1.123-4.187-1.347-4.466-2.47-.837-2.92-5.303-1.572-5.86-3.817-4.187 0-4.466-3.143-5.303-5.837 0-.45-3.35-2.245-3.35-2.245-1.396-.898 0-2.47-1.117-3.592-.837-.673-1.674-.673-2.512-.898-1.674-.45-1.116-3.592-1.116-5.164 0-.673-.837-1.122-.837-1.57 0-.898 1.674-1.123 1.674-2.245 0 1.347-1.674 1.57-1.674 2.245-.56 0-.56.224-1.117.224-1.954 0-5.024-2.245-5.024-3.367v-1.796c0-1.796-1.395-1.796-3.628-1.796-1.675 0-2.233-1.123-2.233-1.796 0-.898 1.675-1.123 1.675-2.02v-1.572c-2.233.225-1.675 1.572-3.35 1.572-.558 0-1.674-1.123-1.674-1.796 0-1.347.837-1.796 1.116-2.47-.558-.673-1.674-1.57-2.233-.898-1.674 0-2.512-.898-3.628-1.796-.28.898-.837 2.02-1.675 2.02-2.512 0-4.186-3.368-5.582-4.5-3.07-2.245-7.256-2.02-10.885-4.04h-6.698c-3.908-1.347-9.21-1.796-11.444-5.838-1.395.674-3.907 1.123-5.023 1.796.28.9.558 1.123 1.116 1.572-1.675 2.245-9.2 6.51-12 6.51-.558 0-1.116-.45-1.116-.898 0-.674.837-.898.837-.898-.558-.898 0-.898 0-1.347 0-2.47 1.675-4.49 5.303-5.613v-1.123h-1.395c-2.79 0-10.885 6.287-10.885 10.328v1.796c0 2.694-2.512 3.592-5.303 4.714-1.675.674-1.954 1.796-3.07 2.92-1.675 2.245-5.86 3.368-7.815 5.164-1.675 1.796-6.14 2.918-9.77 3.367-4.466.674-6.7 5.613-11.722 4.266 1.396-2.245 3.628-1.347 5.86-2.47 1.396-.898 2.512-3.143 3.907-3.816 1.954-1.123 4.466 0 5.86-1.796 1.954-2.47 6.7-4.5 9.77-6.287 2.79-1.796 2.79-5.163 5.582-6.96h-1.954c-1.675.673-2.512 1.57-4.466 1.57-1.396 0-1.954-.673-3.35-.898-.28.898-.837 1.347-.837 2.02-2.79-1.123-3.628-1.796-5.86-3.143-.28.673 0 1.347 0 1.796h-1.396c-.837 0-1.395.898-1.954.898-.837 0-1.116-2.02-1.116-2.92v-2.245c0-.45 0-1.796-.837-1.796s-1.954 2.02-2.512 2.02c-1.675 0-7.257-4.266-8.094-5.388.558 0 1.116-.45 1.675-.45-.837-2.47-4.745-3.144-4.745-4.94 0-3.367 6.42-6.286 8.93-6.286 1.116 0 9.21-3.143 9.21-4.714 0-.898-1.954-2.47-1.954-2.695 1.116-.673.837-.673 1.675-.224v-1.796c-1.117-.225-1.117 0-1.675 0-1.954 0-2.512 2.02-5.303 2.02-2.512 0-3.35-1.122-5.024-.898h-6.42c0-1.796-1.675-2.245-1.675-3.143 0-.45.28-.898.28-1.122-1.954 0-3.07-.674-3.628-1.796 3.07-1.796 7.815-3.143 10.885-5.164h2.233c0 3.817 1.954 2.694 4.466 2.694 1.675 0 1.954.45 3.35 0-1.116-3.816-3.628-4.04-7.257-5.613-.837-.45-2.512-4.04-3.628-4.714-1.395-.898-6.42-1.796-6.42-2.47 0 0 1.675-2.918 1.675-3.143h6.7c3.628-4.714 8.93-8.98 15.35-11 1.675-.45 2.79.45 4.466-.224 1.954-.674 3.07-3.143 5.303-3.143 1.675 0 2.233 1.347 3.628 1.796-.558.673-.837.898-1.116 1.57 1.116.225 2.512-.673 3.07-1.57 1.396.45 1.675.898 2.79 1.122h6.14c1.395.898 1.954 1.572 3.628 2.245h9.2c2.512 2.245 9.77 2.92 13.676 2.92 2.233 0 3.63-.898 5.582-.898 3.63 0 4.466 1.347 7.536 2.245v-.224c1.116.224.558.45 1.396 0 0 .45 1.395 1.347 1.674 1.57 5.024 2.92 10.327 3.592 13.397 3.592 1.117 0-4.465-2.694 3.35-2.918 1.117 0 .56-3.593 3.63-.898 1.116.898 4.186-1.347 5.582-1.572 3.35-1.347 4.745-1.572 8.373-2.245.28.898 1.116 1.572 2.233 1.572 2.512 0 1.675-3.368 4.186-3.368.838 0 3.908 5.164 6.14 5.164 2.512 0 2.512-2.47 4.745-2.92.28.898 1.674 3.143 2.79 3.143 1.953 0 2.79-1.57 5.303-1.57 7.256 0 10.885 5.837 18.42 5.163 6.978-.45 6.42-1.347 9.77 3.143-.837.674-4.466.225-4.466 1.347 0 .45 0 2.02 4.745 1.796 2.512 0 4.187-1.122 6.7-1.122h7.815l1.674.898c1.954.898 2.512 3.816 5.024 3.816.558 0-.837-2.694-.837-3.367 0-4.04 6.14-.898 5.582-4.715-1.396.898-4.745 1.796-6.42 1.796-.837 0-1.395-.45-1.395-1.347 0-2.47 7.257-2.694 9.49-3.143 1.675 4.715 9.21 6.96 15.63 6.96 6.978 0 8.094-.225 10.327 0 0-2.47.838-3.817 3.07-3.817 1.675 0 5.024.898 5.303 1.347.838 1.347-2.232 5.164 1.675 4.04 0-5.612 7.815-3.367 6.42-8.082-.837.45-1.674.674-2.512 1.123 0 0 .838-2.694.838-3.592 0-4.042-8.094-1.572-8.094-5.39 0-1.57 1.674-1.57 1.674-2.694s-.837-1.796-.837-2.918c0-1.796 1.954-1.347 3.35-1.796 0-1.123-1.116-2.694 1.117-2.47 4.744.225 7.256 2.47 7.536 6.062 0 1.796 3.628 1.57 3.628 3.816 0 1.572-2.233 2.245-3.07 2.695 1.395 1.796 4.186.673 6.14 1.796-.558.45-.837.898-1.116 1.347 2.512 1.122 2.79 2.47 2.79 4.5 3.628 0 1.395-4.94 4.744-4.94.838 0 4.466 3.367 4.466 4.04 0 1.796-1.954 1.347-1.954 2.918 0 1.347 3.63 6.735 6.42 3.368 1.674-2.245 1.395-3.592 2.233-5.613.558-1.122 3.35-1.122 3.35-2.245s-1.675-1.57-1.675-3.143c0-1.347 1.675-2.245 3.07-2.245 1.117 0 1.954.674 3.07.898 5.023 0 3.907 2.92 7.814 2.92 0 2.02.56 1.796 0 2.918-3.907 1.796-2.232 3.592-2.232 4.5 0 .674 2.79 1.796 2.79 2.92 0 1.57-6.14 6.51-6.978 5.388-1.396-2.245-1.954-.224-1.395.674-2.233 0-2.792.898-3.908.898-1.675 0-2.512-2.245-5.303-2.245-.837 0 .837 2.02.837 2.47 0 1.347-3.628 3.817-5.303 3.817-2.232 0-3.907-1.796-5.303-2.694h-2.232c1.674 3.592 5.86 2.918 10.047 3.816v1.796c-1.953 1.347-3.628 4.266-6.42 4.266h-2.79c-1.396 0 0 3.143-2.512 2.47-9.77-2.92-6.14-.45-7.257-.898 1.675.898 6.42 1.122 6.42 2.918 0 2.694-3.63 1.572-5.582 2.245-.838.45-3.07 4.94-3.908 5.837-2.79 2.694-4.186 5.39-4.186 10.103 0 3.368.558 3.817 0 5.164 1.116-.225 1.674-1.123 3.07-1.123 2.512 0 4.465 6.51 4.465 9.205 1.675 0 2.512-1.796 4.466-1.796 1.675 0 4.466 2.02 5.303 2.245 5.303 2.02 10.327 3.817 14.793 6.96h7.814c3.35 2.02 2.79 4.94 2.79 8.756 0 3.367 4.187 6.96 7.257 9.204 1.117.898 2.233-1.347 3.63-1.347 0-1.347 1.674-2.02 2.232-2.694-1.674-2.02 0-8.307-4.186-10.327 2.512-.45 9.768-5.613 9.768-7.858 0-7.633-4.186-9.205-6.977-13.695 1.674-.673 5.024-1.347 4.466-4.94-.28-1.796-3.908-4.266-2.512-5.164 3.907-2.47-.28-4.04-.28-5.163 0-2.02 1.675-2.92 3.63-2.92 3.35 0 5.582 2.02 8.93 2.02 1.675 0 1.675-1.123 3.35-1.123 3.35 0 4.187 4.04 7.536 4.5 0 4.266 6.42 2.02 6.978 5.164.28 2.47 1.116 8.082 3.35 8.082 1.396 0 1.954 2.47 3.908 2.47 3.07 0 6.977-4.266 6.977-6.062 0-1.57 1.954-2.694 2.79-3.143.558.45 1.675 1.572 1.954 1.572.28 3.143 5.582 3.816 4.186 6.286-1.116 2.02 2.792 4.5 3.908 4.94-.28 1.122.837 2.02.837 3.143 0 1.347-1.116 1.796-1.674 2.02 1.674 1.122 3.07 2.694 5.86 2.694v.45c0 4.04 6.14 5.163 8.93 4.94 0 .673 1.117.673 1.117 1.347-.838 2.245-7.536 3.143-9.77 4.265 0 .225.837.45 1.116.45 2.79 0 8.653-2.02 11.444-3.592v1.347c1.395.674 0 1.796.837 1.796 1.116 1.797 1.954 2.92 1.954 5.613 0 3.817-9.77 4.266-11.444 6.286-3.628 4.5-6.977 2.47-12.838 2.47-4.466 0-7.257-.898-11.723.673-2.512.898-1.395 1.796-3.07 3.368-2.512 2.47-5.303 1.572-6.698 4.715 3.628-.45 6.14-4.04 11.443-4.04 2.512 0 6.14-.45 6.14 1.796s-4.466 2.918-5.024 3.816c1.117 0 2.512.45 3.07.45-.28 1.123-1.116 2.02-1.116 2.694 0 2.92 5.582 6.062 8.93 6.062.838 0 3.908 0 3.908 1.347 0 .898-8.373 4.04-8.932 4.04-2.512.674-4.744 3.817-5.582 3.817s-2.512-1.796-2.512-2.92c0-2.47 4.187-4.5 6.978-4.714-1.954 0-1.675-.225-1.675-1.797-1.953 0-1.953 1.572-2.79 2.246-1.116.673-4.186.224-4.744.224-.28 0-.838.225-1.117 0v.674c.28.224.28.673.558.898-.837 1.347-2.232 2.02-3.907 2.02-1.396 0-1.675-.673-2.79 0-1.954 1.796-6.14 3.143-6.14 7.633 0 .45 0 .898.558 1.123 0 .673.558 2.02 1.116 2.02.28 0 1.396-.898 1.396-.898v.898c-1.396.45-3.63.898-3.908.45-2.512 1.796-6.42 1.122-8.93 2.47h1.116c1.117 0 2.233-.673 3.07 0-1.675.674-2.792.674-4.466.674-.28 0-.837-.225-1.117-.225-.28.225-.837.45-.837.898 0 .674 1.117 1.347 1.117 1.347-.28.898-2.512 4.94-3.35 4.94-.28 0-.558-.673-.837-.898l-.558.674c.28.898 1.116 1.347 1.116 2.245 0 .673-2.512 4.715-2.79 4.715s-.558-.45-.558-.674v-1.347c0-.898-1.116-2.694-1.396-3.817-.28.674 0 1.572 0 1.572 0 .898.56 2.918.56 4.04s-.838 1.123 0 1.796h.837v1.123c0 .898-1.117 1.347-1.675 1.347.558.898 1.117.898 1.675.898-.28 1.347-.837 1.122-1.954 1.122v.898l1.396.898c-.28.45-.838 1.123-1.396 1.347-1.395.225-1.954 1.123-3.07 1.347-1.395.45-1.396.898-1.954 1.572l.28.224c-5.582 3.143-12.838 5.164-12.838 13.695 0 3.817 3.35 4.94 3.35 8.756v.674c.28 1.347 1.395 2.47 1.395 4.714 0 2.47-.558 4.715-2.512 4.715-1.674 0-1.674-1.796-2.512-2.92-1.395-1.796-2.8-2.47-3.628-4.265-1.954-3.817-.558-10.777-5.86-10.777-1.116 0-1.675 1.572-2.512 1.572-2.233 0-3.628-2.694-6.42-2.694-1.675 0-1.954.898-3.07.898-.28 0-.837-.674-.837-.898-1.954.45-4.465.224-6.42.898 1.116.45.837.45 1.674 0 0 1.796-1.116 2.694.28 3.816-3.35 1.572-6.14-2.245-8.653-2.245-.837 0-1.116.898-1.674.898-1.396 0-1.954-1.122-3.35-1.122-3.628 0-5.303 2.918-6.698 4.266-.837.898-1.954 0-3.35.673-2.79.898-4.187 4.04-4.187 7.633 0 .225.558.898.558 1.123h-.28v.224c.28.674.558 1.123.558 1.796 0 2.02-.837 2.92-1.116 4.715v6.51c-.28.898.837 1.796.837 2.245.558 1.122 0 1.796.28 2.694.56.898 1.954 2.47 2.79 3.367 2.233 2.02 2.233 4.042 5.303 4.94 1.117.45 1.117 1.347 1.954 1.347 2.233 0 4.187-1.572 6.7-1.572 1.395 0 1.674.674 2.232.674.838 0 1.675-1.347 1.675-1.796.558-1.348 2.512-2.92 2.512-4.715 0-3.368 3.908-4.5 7.257-4.5 1.116 0 1.953.224 2.512.45s1.953.224 2.79.224v1.123c0 1.57-1.954 3.816-1.954 5.837 0 1.796-.837 2.694-1.396 3.817v-.898h-1.953v5.612c0 1.123-1.396 1.572-2.233 2.245v.674c0 .898.837 1.347 1.395 1.347 3.908 0 7.257-.674 11.444-.674 2.79 0 3.628 2.02 5.86 2.47v1.796c0 1.123 0 4.04-.837 5.164v7.184c0 2.47 2.512 3.592 4.465 4.5 1.396.674 1.396 2.694 3.35 2.694 3.07 0 4.745-2.245 7.536-2.245 3.35 0 4.745 2.245 6.7 3.817 0 0-.28.45-.837.898.28-.225.837-.45.837-.898.837.224.558.224 1.395 0v-.674c0-.224.56-.673.838-.673 0-1.123 1.116-1.572 1.953-2.02s.838-2.02 1.117-2.92c.558-1.796 1.674-2.245 3.35-2.694 2.79-.898 4.745-1.347 7.815-2.245 1.675-.45 1.954-2.245 3.35-2.245.558 0 1.117 1.347 1.117 1.347 0 .898-.838 1.347-1.117 1.347-.28 1.796-1.116 3.817-1.116 4.715 0 1.347.558 3.592 1.954 3.592.558 0 1.116-1.347 1.116-1.796 0-1.347-1.396-2.245-1.396-3.592 0-1.796 1.954-1.572 3.07-2.245h2.79c-.56-1.347-2.233-.898-2.233-2.245h2.233c.558 1.796 3.07 2.47 5.024 2.918 0 1.123.837 2.02 1.395 2.02h6.42c0 1.122 1.396 1.347 2.512 1.347 1.675-.225 3.07-.225 3.63-1.572 0-.45 2.512-.45 3.07-.673 1.116 0 3.35.45 3.35.45-.558.45-1.395.45-1.675.224v.898c.838 1.572 3.35 2.02 5.303 2.47 1.675.45 1.117 2.245 1.675 3.817h3.35c2.233 2.245 3.35 1.796 4.745 4.714.28.45 1.117.674 1.675.674.837 3.367 5.86 2.918 9.2 3.592h3.07c.838.45 2.79 1.347 3.908 1.347v.224h.837c1.954 0 4.466 3.817 6.42 4.266 0 1.347 1.674 5.164 2.232 6.286s2.233 1.123 2.233 2.245c-1.954 2.245-5.303 3.592-5.303 6.96 0 1.123 1.117 1.123 1.675 1.347 1.116.674 1.674 1.572 1.954 2.694h2.79c0 .45.28 1.347.558 1.347.558 0 .837-.898 1.395-1.347 1.117-1.796 2.512-4.265 4.466-4.265 2.233 0 6.42 2.245 8.094 3.143.837.673 1.954.45 2.233 1.347.28 1.122.28 1.796.28 2.918h.837c1.117-.45 1.675-1.347 2.79-1.347 2.512 0 3.07 1.796 5.303 1.796l4.466-.673c2.233.45 4.466 1.347 5.582 1.796 1.116 1.796 4.745 4.94 6.7 5.612 1.674.45 2.79-.224 4.465.225 2.79.673 3.35 3.143 3.35 5.388zm-155.74-175.79c0 .45.56.674.56.898 0-.224-.28-.45-.28-.673.838 0 .838-.225 1.396-.225 3.628 0 11.164 1.123 11.164-3.143l.28-.224-.28.224c-3.07 0-8.652 1.347-11.443 2.245 0 .225-1.396.45-1.396.898zm-.28 4.04c.838-.45 1.396-.673 1.954-.898-.558.225-1.396.45-1.954.898zm-3.07-.45c-1.675 0-3.628-.224-4.466.898-.558.45-.558 1.123-1.674 1.123-.838 0-1.396-.898-1.675-1.347 0 1.123.558 2.92 1.675 2.92 2.512 0 6.42-1.797 9.2-3.144-.837.225-1.395-.45-3.07-.45zm-29.864-23.797c-1.117 0-6.14 3.367-8.93 6.735h1.674a9.28 9.28 0 012.233-.898c.558 1.122.837 1.122 1.675 1.122 1.953 0 2.232-1.57 3.35-1.57 1.395 0 3.628-2.245 5.303-2.47 0 1.572-.837 2.02-1.396 2.92h2.512c0 .898 1.117 1.347 1.954 1.347 1.675 0 1.954-1.123 3.35-1.123 2.79 0 4.466 1.572 6.978 1.572v1.347c-1.675.674-4.466 0-5.303 0-2.512 0-7.536 3.143-7.815 5.613 1.116-.674 1.675-1.572 2.79-1.572-1.954 2.47-3.07 8.53-3.07 11.45 0 1.347 1.395 2.245 2.79 2.245 1.675 0 2.512-3.592 2.512-4.94v-3.817c0-1.57 0-4.94 1.395-5.163 4.466-.225 2.233-3.143 4.466-3.143.837 0 5.303 2.02 5.303 3.367 0 1.572-.837 2.694-1.395 4.266 1.395 0 1.116-.45 2.51-.898.56 1.796.56 2.694 1.675 3.592 1.675 0 2.79-5.613 3.35-7.41.558.45 1.954 2.02 3.35 2.02.837 0 1.116-.674 1.116-1.347 0-1.796-1.675-2.92-3.35-3.817h-3.07c-3.07-1.796-6.7-1.347-9.5-4.04-.837-.898-.28-2.02-.837-3.592-.28-.45-5.303-4.5-6.14-4.5h-.837v1.57c-.558-.45-1.395-2.47-2.79-2.47-1.116 0-.837 1.796-1.954 2.47-1.674 1.123-2.512 1.123-3.907 1.123zm-163.555-49.616c-1.117 0-1.954-.45-3.07-1.347.837.673 1.953 1.347 3.07 1.347zm11.722 2.47c-1.674-2.02-3.35-3.367-5.86-5.837 2.512 2.245 4.187 3.592 5.86 5.837zm6.7 9.43c.28.224.28.224.558.224-.28.225-.558 0-.558-.224-1.396-1.347-1.954-2.92-2.512-4.49.558 1.572 1.116 3.368 2.512 4.49zm183.65 126.846c0 .898 0 2.245 1.117 2.245.28 0 .558-.45.558-.674 0-.898-.28-1.57-1.396-1.57.28 0-.28-.225-.28 0zm0-6.735c-.558 0-1.395.45-1.674.898.837 0 1.953.224 3.07 0-.28-.225-.558-.898-1.396-.898zm3.63 1.57c0 .225.28 1.123.558.898l-.558-.898zm14.513 18.4v-1.123c-.558.674-1.395 1.347-2.512 1.123v.673c0 .225.28 0 .558 0 .838 0 1.675-.224 1.954-.673zM150.573 206.483c.558 0 .837-.45.837-1.123 0-2.47-3.35-2.918-2.79-6.06-2.512-.45-3.07-.45-3.07 2.245 1.396-.898.837-.45 2.512 0-.28.673 0 1.57 0 2.245 0 .224 1.396 2.694 2.512 2.694zm-8.652-11.45c-.28.225-1.117.45-1.117 0-.558-1.796 0-1.796 0-4.94-1.674.898-.558 0-2.79 0-.558 0-1.395.224-1.395 1.122 0 1.796 1.395 3.144 3.35 3.593 0 1.796.558 3.143 1.954 4.714.837-1.347-.28-2.918 0-4.5zm111.362-66.903c2.233 0 2.512.45 4.745-.898-2.233-1.796-12.28-4.266-12.28-8.082 0-2.92-3.35-5.613-3.35-9.88 0-1.122 2.512-2.02 2.512-3.816s-1.953-2.47-4.186-2.47c-1.954 0-3.63.898-3.63 2.02v1.122c-1.953.898-1.116 0-3.35 0-.837 0-2.233.674-2.233 1.572 0 1.122 1.675 6.51 2.79 8.082-.558.45-.558.898-1.674.898-2.233 0-1.396-2.918-1.954-4.265s-2.233-2.695-3.908-3.368h-2.51c.28.673.558 1.122.558 2.02-1.396.45-2.233.674-3.63.9-.837-2.02-1.953-3.593-5.303-3.593-1.953 0-2.79 1.572-3.628 2.02-.558-.674-.28-4.04-1.954-4.04-4.465 0-15.35 4.265-15.35 9.878 0 .674 2.232 2.245 3.628 2.245 1.675 0 2.233-.45 4.187.225-1.396.898-4.745-.225-4.745 2.47 0 3.143 6.698 2.02 9.2 2.02h6.42c1.116 0 2.232.673 3.07 1.122-1.396 0-2.233.225-3.908.225-5.024 0-8.93.673-11.722 2.694.837 1.347 3.07 4.04 5.582 4.04 1.675 0 5.303-.45 6.7.674s-.001 2.918 2.232 2.918h10.885c2.512-1.796 5.582-.898 8.653-2.245 1.674-.898.837-2.02 3.07-2.02 3.628 0 5.303 3.592 9.768 3.592 3.07 0 5.862 0 6.978-2.02-.558-.45-1.116-.673-1.116-1.57-.56 0-1.675 0-1.675-.898-.558-1.123 0-1.572 1.116-1.572zm-75.916-11.225c.28.673 1.116 2.245 1.675 2.245s.837 1.122 1.674 1.122 9.21-2.918 9.21-3.816c0-2.694 5.303-7.634 8.93-8.756 1.116-.45 7.536-1.347 7.536-2.47 0-2.694-5.86-4.94-8.373-4.94-1.675 0-3.07 1.347-4.187.45-2.512-.224-3.907-1.57-6.42-2.245-2.233-.673-3.35.898-4.745.898-2.79 0-4.187-1.123-7.257 0 0 1.347 1.675 3.143 1.675 4.04 0 4.266-6.14 7.41-6.14 11.45.558 1.123 5.582.674 6.42 2.02zm28.47-31.656c2.232-.45 2.79 0 3.907 0 .558 0 1.954.45 1.954 1.796h2.79c3.628 0 6.14 4.5 11.443 4.5 1.675 0 2.233-.45 2.79-1.572-1.395 0-1.954-.225-2.512-.45 0-.224.838-.45 1.117-.45v-1.572c-.838-.224-3.07-.673-3.07-1.796 0-1.796 3.07-2.694 4.465-3.817.838.45 1.396.898 2.233.898v1.572c0 1.796 2.233 4.266 4.466 4.266 1.116 0 1.674-1.347 3.35-1.347 1.395 0 2.79 1.572 2.79 2.92 0 1.572-2.79 5.164-3.907 5.388-.838.225-7.815-.673-7.815-.224 0 .224-7.815 1.796-8.094 2.02-2.512.898-4.745 1.796-7.815 1.796-1.396 0-3.35-1.123-3.35-1.796 0-1.796 1.675-1.347 3.35-1.347-.838-.898-1.675-1.572-1.954-2.694-.837.224-1.396.898-1.396 1.572-1.953.224-3.628.898-5.023.898-1.675 0-3.35-.898-4.187-.898s-1.675-.898-1.675-1.796c0-1.123.56-.898 0-1.796 1.117-.225 1.675-1.123 3.07-1.123.558 0 .837 0 1.395.224-.558-.224-.837-.224-1.395-.45v-1.796h2.51c-.558-.225-.837-.225-1.116-.45.558-.674 1.396-1.347 2.512-1.347h.28c-.558-.224-1.116-.45-1.116-1.123zm2.512 3.368c.837.225 1.395.225 1.953.225-.837 0-1.395 0-1.953-.225zm-14.793 2.245c0 .898 1.116 1.347 1.954 1.347 1.674 0 3.35-2.47 3.628-4.04-1.116-.225-5.582.898-5.582 2.694zm17.025-6.96h2.512V82.33h-4.186c0 1.123 1.116 1.572 1.674 1.572zm-25.677 4.266c1.116 0 1.954.674 3.35 0 .28.45 1.117 1.796 1.954 1.796 1.395 0 2.233-1.347 2.512-2.47 1.954.225 3.907-1.572 4.186-3.592 1.117.674.838 3.368 3.07 3.368l5.302-3.817c0-.898-.837-1.123-.837-2.245.837-.225 1.675-1.123 1.675-1.796 0-2.02-7.257-.225-7.257-.225-1.116-.225-1.116-.225-2.233-.225-3.35 0-3.907 2.92-6.14 4.266-1.954 1.123-3.908 1.347-5.86 2.245-.558.225-2.79 1.796-2.79 2.02 0 .45.837.898 1.116 1.796.837-.225 1.117-1.123 1.954-1.123zm34.33-15.266h5.303c1.395 0 2.233-.674 3.35-1.123-.558-1.572-2.512-2.92-5.024-2.92-1.675 0-8.652 2.47-8.652 4.04.837-.225 1.395-.898 2.512-.898.558 0 1.116.898 2.512.898zm4.744.45c-2.512 0-9.768.225-9.768 2.92 0 1.122 1.954 3.143 3.907 3.143 2.512 0 6.7-1.123 6.42-3.368h-3.35c1.675 0 3.908-.45 5.303-1.347-.558-.674-1.116-1.347-2.512-1.347zm-13.117 3.817c.837 0 1.116-.674 1.674-1.347-.837-.45-4.186-3.143-4.186-.45 0 .673 1.395 1.796 2.512 1.796zm59.728 33.45c0-1.122.28-.224.28-1.796 0-1.347-3.628-.224-4.466-.224.838-1.123 3.908-2.02 3.908-4.266 0-.673-.838-1.122-1.117-1.122h-4.744c-2.79 0-5.303-.45-7.257 1.347 0 .45-.837.673-.837.898 0 1.57 2.232 1.347 3.907 1.57v3.143h-1.675c-1.953 0-3.907-1.347-5.303-1.347v2.02c3.63 3.368 7.257 2.92 10.606 6.062.838.673.838 2.02 2.512 2.02 1.117 0 1.396-1.347 2.512-1.796 3.908-1.347 4.187.225 4.745-6.062-1.116-.224-2.512-.45-3.07-.45zm-23.724-26.49h-1.395c0 .674.28 1.123.28 1.347l-.28-.224v2.02c.837.673 1.674 1.572 3.07 1.123l.28 1.122h1.674c0 .674.56 1.347 1.396 1.347 2.512 0 6.698-1.123 8.652-1.123.558 0 1.117.224 1.396.45-.838.674-3.07.674-3.07 1.796v1.123c-.558.225-.837.674-.837 1.123 0 1.123 3.07.674 3.908.674.28 0 3.07 0 4.744-.674-.558-3.143.838-4.715.838-7.41 0-1.796-.28-2.92-2.512-2.92-.838 0-1.396.898-2.512.898-2.233 0-3.63-1.123-5.303-1.123-.837 0-1.396-.225-2.233.224.558 1.572 2.233 1.572 4.187 1.572v2.47c-3.07 0-3.908-2.47-6.7-2.47v1.347c.558.673 1.396 1.347 2.512 2.02-2.79 1.123-4.466-4.715-8.094-4.715zm18.7 47.595c-.558 0-2.512-.45-2.512.674 0 .45 8.93 3.367 10.606 3.367 1.396 0 1.675-1.122 3.07-1.796-.837-1.57-5.582-5.837-7.536-5.837-2.79-.224-2.232 3.143-3.628 3.592zm16.188-30.982c-2.512 0-3.35 1.572-3.35 1.796 0 .45-.28 1.123 0 1.123h-2.79v2.02c.837 2.245 0 3.817 1.953 5.613v3.368h2.512c1.396-1.347 2.512-1.796 2.79-3.817h-1.674c.837-2.245.837-.898 3.35-.898 3.628 0 5.303-2.47 6.978-4.715 0 0 2.233-1.57 2.233-1.796v-1.57c-4.466.224-7.815-1.123-12.002-1.123zm-37.958-20.205c.837 0 1.675-.674 1.675-1.347-2.512-.898-2.792-3.143-5.862-3.143 0 1.347 2.79 4.5 4.187 4.5zm-.558 14.144c.837 0 1.116.225 2.512.225.837 0 1.674-.225 1.674-1.572 0-.898-.558-1.123-.837-1.796-1.675.674-2.79 1.347-3.35 3.143zm0-27.614c0 .45-.56.898-.838 1.123.838.674 1.675 0 4.187 0-.28.45-.28 1.123 0 1.347-1.396.45-2.512.45-3.628 1.347 1.116 1.123 1.674.898 3.35.898s3.35-.674 3.907.45c2.233-.225 3.35.45 5.582.45 2.79 0 2.512 2.92 5.303 2.92.838 0 2.233-.45 2.233-1.572 0-1.347-2.512-2.245-3.35-3.143.28-.45.837-.898.837-1.122-.558-.674-1.954-2.694-3.628-2.694-.837 0-1.117.898-1.675.898-1.395 0-1.116-2.694-3.628-2.694-.837 0-1.396.898-2.512.898-1.396 0-1.954-2.02-4.466-2.02-1.395 0-2.512.674-3.907.898.28 1.572.558 2.02 2.233 2.02zm10.047 7.184c-.558 0-3.35 1.796-1.116 1.796 1.675 0 3.35 0 3.907-.898-1.116-.45-1.395-.898-2.79-.898zm45.215 22.45h1.396c-.28 2.02 3.628 2.245 6.14 1.796h9.77c1.116-.673 1.395-1.347 3.07-1.572.28.898.837 1.796 2.512 1.796 4.186 0 9.768 0 10.048-4.04 0 0-.838.225-1.675 0 0-.45.28-.898.558-1.123.28 0 .838 0 .838-.224-1.675-2.92-4.745-3.143-9.77-3.143-6.14 0-8.373 2.92-15.072 2.92-3.07 0-5.303-.674-8.373-1.347-.558.45-1.954 1.123-1.954-.674 0-.45.56-.45.838-.674-1.675-1.347-4.745.45-5.303-2.694h4.744c-1.116-1.572-6.698-.898-5.582-3.592h-2.232c-.56.674-1.117.898-2.512.898-4.187 0-5.024-4.04-10.606-4.04-1.396 0-3.63 0-3.63 1.796 0 1.123 7.257 4.04 8.653 4.04.837 0 1.674-.45 2.51-1.123 1.954 2.02 2.512 3.817 4.745 5.837-.558.225-1.395 1.123-1.395 1.796 0 2.245 6.14 5.164 8.652 5.164 1.116 0 3.07-1.347 3.628-1.796zm-15.63-2.47c0-1.572-2.79-3.817-5.023-3.817-2.79 0-2.233 2.694-3.63 2.694-.28 0-1.674.674-1.674 1.796 0 0 6.977 3.143 7.815 3.143 1.953 0 2.51-1.796 2.51-3.817zm.56-16.838V75.82c-1.117.224-.28 0-1.675 0-2.233 0-6.698.224-7.815 1.347l7.536 1.347c1.116.225 1.954-.45 1.954-1.123zm-12.84-4.04c-.28.225-1.117.674-1.117 1.123 0 1.347 4.187.898 8.374 0-.28-1.347 0-2.02 0-2.92 0-2.47-4.187.225-4.187-2.694-1.396 0-3.907-.898-4.187-1.796-1.116.225-2.79.674-2.79 1.796 0 2.47 2.512 3.143 3.908 4.5zm-5.86-11.45h1.953v-2.245c-.837 0-2.79-.224-4.186 0 0 1.123 1.395 1.347 2.233 2.245zm15.35-2.47c-1.116 0-3.07-.674-3.628-1.123h-1.954c.28 3.368 2.79 3.592 6.978 3.592-.837.898-1.675 1.123-2.79 1.572 0 .674 0 1.123.837 1.123s1.396-.45 2.512-.898c.28.673.558 1.572 1.675 1.572 1.395 0 1.674-.898 3.628-.898s3.07.45 5.024.898c-1.675.45-9.2.224-9.2 2.245 0 1.796 3.35 2.92 5.303 2.92-.28.45-.838.674-1.675.898.28 1.572 2.79 2.02 4.745 2.02 1.674 0 2.79-.674 2.79-2.694 1.116.674 3.35 2.245 4.465 2.02v-1.572H301c-.28-.898-.837-1.123-1.674-2.245.558-.674.837-1.123 1.395-1.796.28 1.347.28 2.245 1.954 2.245s3.35-3.592 5.582-3.817c.837-.224 2.233 0 2.79-.673.28-.45 0-.898 0-1.796-1.675-.225-4.745-1.572-5.86-1.572-.28 0-1.954 1.122-1.954 0 0-.674.837-.898.837-1.796s-1.395-.898-1.395-1.796c0-1.347 0-2.02-1.675-2.02h-1.116l.558.898v1.572h-.837c-1.117-1.123-.28-2.47-2.233-3.143-1.675-.674-3.07.45-4.745-.224-1.954-.674-1.395-4.04-3.907-4.94-2.233-.898-4.466-1.123-7.536-1.347 0 1.572 2.233 1.796 3.628 2.47h-1.954c-2.232-.45-3.07.224-4.465 1.122 0 .225 1.116 1.796 1.674 1.796.838 0 2.233-.673 3.35 0-.28.45-.56 1.123-1.396 1.123s-1.674-.898-3.35-.898c-1.117 0-2.79-.224-2.79 1.123s3.628 2.02 5.303 2.47c0 .673-.837 1.572-1.117 1.572zm43.82 99.905c-.558-.45-.28-1.347-.838-2.02-2.232-2.694-6.14-1.572-8.652-4.715-.28.225-.837.45-1.116.898-.558-1.122-1.117-1.57-1.954-3.143-3.35.45-3.907 4.94-3.907 6.96v1.796c0 .673-.56 1.122-1.117 1.57-.28.674-1.674.45-1.674 2.246.837 0 3.35-.45 5.303 0-.28 1.122-.56 2.245.837 2.245.558 0 .558-.45.837-.898 1.675.673 5.582-1.796 5.582-4.266.838.224 4.466 2.92 4.466 2.92h3.35c1.675 0 2.512-.45 3.908-1.347-.838-1.572-3.07-.898-5.024-2.246zm22.886-19.083c0-3.816-7.535-4.714-7.535 0 0 1.347 1.116 2.47 3.07 2.47 1.395 0 4.465-1.123 4.465-2.47zM319.7 165.847c0 .674-1.674 1.796-2.79 2.92v1.57c1.954-.224 5.024-2.47 6.14-4.04-1.395-.45-.837-.45-3.35-.45zm13.118-55.902c1.954 0 3.07-1.123 4.466-1.123s1.954.898 3.628.898c1.117 0 1.675-.898 2.233-1.796-2.233-1.122-5.024-3.592-8.094-3.592-2.512 0-3.35-.898-6.14-.898-.838 0-1.954.674-1.954 1.796 0 1.347 1.395 1.796 2.512 2.47-1.117 1.796.837 2.245 3.35 2.245zm-2.79 62.637c1.116 0 1.396-1.57 2.233-2.47-1.116-1.347-3.908-1.347-3.908.898-.28-.225 1.396 1.57 1.675 1.57zm22.05-33.227c-.28-.45-1.395-1.796-2.512-1.796-.28 0-1.674.898-1.674 1.123 0 .673.837.898 1.674.898 1.117 0 .838 0 2.512-.225zm-17.025-8.53c-1.396 0-4.187 2.694-2.79 2.694 1.675 0 2.512-1.347 2.79-2.694zm25.957-10.776c.28-2.02-2.512-2.245-3.908-2.245h-3.07c-3.907 0-4.745-4.04-7.536-5.837-1.674-1.123-6.698-1.797-8.93-1.797s-2.79 2.92-4.745 2.92c-1.116 0-1.395-1.122-2.79-1.122-1.116 0-1.675 1.122-2.512 1.122-.558 0 0-1.796 0-2.245 0-2.47-1.674-6.51-4.745-6.51-4.744 0-12.838 1.347-12.838 5.837 0 1.123 1.116 2.02 1.116 3.144 0 .898-1.675 2.245-2.512 2.245-1.395 0-1.116-1.123-1.116-2.02 0 0-.28-1.347 0-2.02-.56 0-.838-.45-.838-1.123 0-3.368 3.908-3.592 5.303-6.062l-3.907-1.122c-4.187 0-7.257 2.02-9.77 4.265-.558.45 0 2.47-.837 3.143-1.675 1.348-2.512 2.02-2.512 5.164 0 1.123 1.675 3.143 1.675 3.143s5.582.45 6.698 1.123v1.57c-1.954-.224-3.907-.898-5.303-.45.28 1.572 1.954 1.796 2.79 3.368h5.86c.838.898 2.512 2.245 3.63 2.245 5.303 0 14.513-.45 18.42 0 0 .898-.56 2.694.837 2.694 2.233 0 4.186-4.5 5.582-4.5s7.815 5.388 8.93 6.286c-.837 0-2.79.45-2.79 1.572 0 .224.558 1.347.838 1.347 1.674 0 2.232-1.347 3.907-1.347 2.512 0 10.327 5.612 10.327 8.755 0 1.572-2.512 4.266-3.628 5.164-.838.898-3.07-.224-3.07 1.796 0 .898 1.675 2.02 2.233 2.47-1.395.898-4.465 1.57-5.303 1.57H341.2c-1.674 0-4.745 2.02-4.745 3.143 0 1.572 3.908 3.143 5.303 3.143s2.233-1.796 3.63-1.796c1.116 0 .837.898 1.954.898s1.674-.898 2.51-1.796c3.35 2.02 5.303 4.266 9.5 5.838-1.954 3.816 5.303 3.592 8.094 5.163 3.07 1.796 5.303 1.123 8.652 2.694.28.225.558 1.347 1.117 1.347s1.116-.673 1.116-1.347c0-3.143-6.698-5.612-8.93-8.082h1.674c1.396 1.572 8.932 4.5 11.165 4.715.558-1.347 1.674-3.592 1.674-4.715 0-1.347-2.233-1.796-2.233-2.694v-2.245h-1.953c-.28-2.02-1.117-.674-3.35-1.347-.837-.45-2.512-2.92-2.512-4.5h-1.674v-1.347c.558.45 1.116.224 1.674 0v-1.347c-1.116.224-1.395.45-2.51-.225 0 0 1.674-1.347 2.51-1.347 5.862 0 6.14 7.858 12.002 7.858 1.395 0 1.675-2.02 1.675-3.143 2.232 0 2.79-1.123 2.79-1.347v-1.572c1.674 0 3.628-.45 3.628-2.02 0-1.797-.837-2.695-3.35-2.695-.558 0-1.675 0-2.233-.673-.837-2.245-1.675-.674-4.187-.674-1.674 0-2.512-2.02-2.512-4.04-2.512-.224-5.86-1.347-6.14-4.04-1.675 0-2.233-.45-3.35-.898 1.116-1.796 1.954-1.796 3.907-2.694-.28-.673-1.116-1.122-1.674-1.122-1.117 0-1.675 0-3.63-.225.838-1.347 2.512-1.347 4.187-1.57-.837-1.572-1.675-2.695-3.35-2.695h-2.233v-2.02c-3.35-.225-5.024-2.02-8.373-3.143zm-25.678 43.78c1.116.898 1.675.898 2.79 0-1.395-.674-1.675-1.572-2.79 0zm-20.095-14.144c0 .898.837 1.796 2.512 1.796-.838-.898-.838-2.47-2.512-1.796zm-22.05-103.05h3.63c-1.396.45-2.233.898-3.35 2.02.28.224 1.675.898 2.233.898 2.233 0 2.512-2.02 4.745-2.02.837 0 1.396 0 2.512.224-3.07.898-6.14.674-7.536 3.592.837-.224 3.35 0 5.582 0-1.674.224-2.512.673-3.35 1.347.837 1.123 4.187 2.47 6.698 2.47 1.117 0 1.675-.674 2.512-1.123h1.675c-.837 1.572 2.512 2.245 4.745 2.245.837 0 1.395-1.122 2.512-1.122s1.954.898 4.186.898c3.908 0 6.7-.898 8.932-2.694h1.674c-1.395 1.796-3.628 2.245-5.86 3.143h-5.582c-.28.45-.837.673-.837 1.123 0 .673 3.907 2.92 4.465 3.592-3.35.45-4.465-2.92-7.535-4.04-2.512-.673-5.024-.224-6.42-.224-.558 0-1.116-.224-1.674 0 .28.898.558 1.347 1.674 1.347-1.116 0-3.07-.224-3.07.898 0 2.02 8.094 2.02 8.094 5.837 0 3.143-3.628 2.245-6.698 3.143-1.675.674-2.512 1.796-3.63 3.817v1.347h1.675l1.116-.898h1.675c0 2.694 3.628 4.266 5.303 5.837h-2.233c-2.233-1.347-3.628-3.143-7.536-3.143-1.116 0-3.07-.45-3.07 1.123 0 2.02 2.512 2.47 3.907 3.368-2.51 1.796-8.93 0-8.93 4.715 0 .45.28.898 1.117.898.558 0 1.116-.674 1.395-1.123 4.187 1.347 7.536 2.245 11.443 2.245 1.675 0 2.512-1.123 3.63-1.123h8.93c2.512 0 1.116 1.796 3.907 1.796s9.77-2.02 9.77-4.04c0-1.123-1.395-.898-1.674-.898h-3.07c0-4.04 5.024-1.796 5.024-5.388 0-.674-.558-.898-.837-1.796h6.14c1.954-1.347 2.79-4.266 5.303-5.388-.837-1.572-1.954-2.02-3.628-2.694 2.233.225 3.628.45 3.628-2.02h-2.233c1.954-1.572 5.024-1.796 7.536-2.47 1.954-.673 4.466.898 6.14-.45 3.628-2.47 6.42-7.184 11.164-8.756 4.465-1.347 11.164-2.92 13.955-5.613-3.07-.224-7.815.898-8.93-.45 6.42-2.92 12.28-.898 17.025-4.5.837-.673 3.07-.224 3.07-1.796 0-2.02-6.42-1.572-7.815-2.92-.837-.674-.837-1.572-1.954-2.02-.837-.224-1.395-.45-2.232-.898l-9.77 2.694c.837-.224 1.395-.45 2.233-1.347-2.512-2.245-12.84-2.02-15.63-2.02h-3.35c-1.117 0-1.675-.898-3.63-.898-1.674 0-2.233 2.02-3.907 2.02s-2.512-1.347-4.466-1.347c-.558 0-1.116.45-1.395.898h-13.956c-1.116 0-2.232.45-2.79 1.572-1.674 1.347-.28.224-2.512.224-3.628 0-5.023 2.47-6.14 5.164-1.116-.45-5.86-2.47-8.094-2.47-2.512 0-.837 2.47-4.745 2.47 0 .45-.558.898-.837.898h-2.512c-3.628 0-11.443 1.347-12 4.266h2.512c.558.224 1.395-.224 1.953-.45zm235.285 78.802c-2.512-.898-13.118-.45-13.118-3.817.56-.224 2.79-.45 2.79-1.57 0-.898-1.116-1.347-1.116-2.92.558.45 1.116 0 1.675 0 5.023 0 3.628 5.837 9.49 5.837 1.396 0 3.35-.224 3.35-1.347 0-6.735-7.815-8.53-12-12.797v-1.796c.28 0 .558.225 1.674 0 .838 2.245 4.466 5.164 6.7 5.164 1.396 0 1.675-1.796 1.675-3.368 0-3.143-5.303-2.02-6.7-5.163h1.675c.837 1.347 2.233 1.796 3.628 2.694.837-2.47 5.86-.898 6.7-4.5-.56-.225-1.117-.898-1.117-1.796 2.233-.225 4.745-1.347 5.303-3.143-1.395-.45-4.745-.45-4.745-2.245 0-1.572 1.954-1.572 3.908-1.572-.558-.674 0-1.572 0-2.47 0-1.796-1.675-2.47-1.675-4.94-1.674 0-3.907 0-3.907-2.02 0-.898 1.116-1.796 2.512-1.796 2.233 0 8.373 1.123 8.373-1.796 0-2.694-4.745-2.245-5.303-4.04.837 0 1.674-.45 2.233-.673-1.117-.898-2.79-2.245-4.745-2.245-1.396 0-2.233.674-3.628 0 .837-1.123.558-4.04 1.953-4.94 2.233-1.572 4.745-2.47 4.745-4.94v-1.796c2.233-.674 5.303-1.123 5.303-2.92 0-1.122.837.224 0-1.572 2.233-.45 5.303-.45 5.303-3.817-.837.674-1.116.674-2.512 0 5.303 0 7.815-3.368 12.002-4.715.837-.225 3.07-1.347 3.07-2.694 0-1.572-5.582-4.04-7.257-4.04-1.116 0-1.954 0-2.512 1.572h-5.86c-1.954.898-2.233 1.572-4.466 2.245-.558.224-2.79-.45-2.79-.45h-8.094c-1.954 1.347-8.094 8.98-11.164 9.878.28-1.123 8.094-8.98 8.094-10.103 0-1.796-.837-3.592-3.07-3.592-3.908 0-11.164 6.51-14.234 6.51-.838 0 4.186-4.94 4.465-5.837-2.233-.898-22.328 1.572-24.282 0l26.515-1.347c3.35-1.123 11.443-.674 12.002-4.715-3.07-.674-7.257.224-10.606-1.123C513.13 32.5 507.827 28 500.57 28h-17.584c-6.14 0-10.885 3.143-16.746 3.143-1.675 0-3.07-.224-4.745 0V32.5h-2.512c-2.79-.898-4.465-.898-7.536-.898-3.907 0-6.977.898-10.326 2.245.558.898 1.674.898 2.512 1.796-1.117.224-4.745-.45-4.745 1.347 0 2.245 5.024 3.817 6.977 4.715h-5.303c-3.07-1.347-5.86-4.04-10.885-4.04-1.116 0-3.07.225-3.07 1.572 0 .898.558 1.572.837 2.47h-1.674c-2.512-.898-4.466-.673-5.86-2.92l-1.117 1.123c0 .898.558 1.572.558 2.245-2.232 0-2.79-3.592-5.023-3.592-3.35 0-5.583 1.796-8.932 2.694-4.465 0-6.42 1.123-11.164 1.796-3.907.45-.558 5.837-4.745 5.837-1.116 0-2.233-.224-3.07-.898-2.512 2.245-7.815 5.164-12 6.286-.56.224-2.512.674-2.512 1.796 0 2.245 6.977 2.02 8.93 2.245 0 2.92-1.395 4.94-3.35 6.062-2.512 1.572-6.978-.224-10.327.898-2.233.673-3.628 2.02-5.86 2.694-2.512.898-6.978-.45-6.978 3.143 0 1.796 11.443 4.94 12.002 4.94h4.186c.558 0 .838-.673 1.117-1.123h4.744c-.28 1.347-.28 1.796-1.674 2.47h-6.978c-.558.898-.837.898-2.233.898h-3.07c-.837 0-3.35.673-3.628 2.245 2.233.898 1.674 0 4.186 0 1.396 0 2.79 1.347 4.745 2.02-.558 1.123-1.395 1.123-2.512 1.796 1.396 1.796 5.303 2.694 7.815 2.694.837 0 .837.45 1.675-.45l-1.117-.898c.56-.225 1.117-.45 2.512-.45s2.512.898 3.63.898c1.674 0 2.232-1.572 3.907-1.572h3.628c13.397 0 22.05 10.103 25.4 19.98v1.796c1.116.224 3.07.224 3.07 2.02 0 2.694-2.512 2.47-2.512 4.94 0 1.796 1.117 2.02 3.35 2.02 1.675 0 1.954-2.02 3.07-2.02 3.907 0 5.023 5.388 8.652 6.5 0 .674 0 1.796-1.117 1.796-2.79 0-4.744-1.796-7.256-1.796-1.117 0-.838-.45-2.233 0 .558 3.368 9.2 3.817 13.118 4.94-1.117 3.144-2.79 4.49-3.63 7.858-1.674-.673-1.674-.673-3.35.225v.224c-2.512 1.796-3.07 4.266-4.745 6.286v2.694c.838-.673 1.675-.45 2.512 0-.28 1.123-1.116 1.796-1.116 2.92 0 3.143 3.35 4.5 3.907 6.51.28 1.122.838 3.367 1.117 3.816 1.953 1.123 2.512-1.796 4.465.45-.837.898-1.674.674-1.674 2.245 0 3.368 4.465 8.532 6.977 10.552.28.225 0 1.796.838 2.245 1.953 1.347 3.07.674 3.907 3.143 1.396-.224 3.35-1.57 5.024-1.57 3.07 0 2.79 5.163 5.86 5.163.838 0 .838-.673 2.512-.898.28.674.558 1.123 1.396 1.123 3.35 0 1.674-6.062 4.465-7.41-.28-1.347 0-4.265 0-6.286 0-3.368 5.582-2.02 5.582-6.062 0-1.347-1.395-1.796-1.395-2.694 0-.673.558-.898.837-1.347 0-.45-.28-.898-.28-1.122 0-3.817 6.42-2.694 8.93-5.164 1.117-1.122.56-2.245 2.512-2.918v2.245h1.675c2.512-1.796 6.7-1.123 8.93-3.593 1.675-1.796 1.954-4.04 4.187-5.837l3.07-2.02c0-.898 1.116-1.347 2.512-2.02h5.582c4.466-1.796 8.094-1.57 12.28-2.918 3.35-1.123 4.744-4.266 8.652-5.613 3.07 2.02 4.187 1.796 6.14.45zm-109.68 5.163h2.79c1.954 0 4.466-.45 4.745-2.245-3.07-.9-4.187-4.042-7.257-4.042-1.116 0-2.512.674-2.512 2.245-.28 1.347 1.117 3.817 2.233 4.042zm-5.024 90.7c0-.45-.28-1.122-.837-1.122-1.954 0-2.79 2.02-3.628 3.367-1.675 2.694-3.07 7.858-6.42 9.43 0 .45.558.673.838.673v.674c0 .224-2.233 1.796-2.233 2.245s.558 1.122 1.116 1.122c1.396 0 1.954-.673 3.63-.673 1.395 0 1.953.898 3.628.898.837 0 1.675-.225 2.512-.674.558 1.123 2.233.45 3.35.45-.28.674-1.395.674-1.395 1.796 0 .225.558 0 .837 0 1.395 0 2.512-1.796 3.628-3.143.838.898.28 3.143 1.117 3.143.28 0 .558.225.837.225 0 .45.28 1.347 1.116 1.347 1.117 0 1.954-1.347 1.954-2.694 0-1.123-.837-1.123-.837-2.47-.838.45-.28.674-1.675.674 0-.898-.837-1.347-.837-1.796s1.116-.674 1.116-1.796c-.558 0-1.116.224-1.395.45v-3.817c-.558.45-2.233.45-3.63 0l-1.395.45v-.673h-2.233v-1.123l.558-.674c-.558-.45-1.116-.673-1.953-.673s-.838.674-1.675.898v-1.123c1.395-1.57 3.907-2.918 3.907-5.388zm-86.8-5.837h.558c0-1.57-1.954-2.02-4.186-2.02v.898c.837.673 2.512 1.122 3.628 1.122zM170.39 230.28c1.954 1.122 6.14 4.265 8.932 4.265h1.116v-1.122c-3.07-2.92-6.14-5.837-11.164-7.41-.837-.225-1.954-1.572-3.35-1.572-.558 0-1.117.45-1.675.674h.558s1.117.45 1.675.45c0 .45-.558.898-1.116 1.122.558 1.348 3.907 2.47 6.14 2.47 0 .45-.837.45-1.117 1.123zm-17.862-15.716c0-.673-.558-.898-.558-1.347 0-1.122.28-1.796 0-2.47-.28.674-.838 1.572-1.675 1.572s.837-1.347.837-1.347c-1.116 0-1.674-.898-2.79-.898v.898c.558.674.838 2.02 1.396 2.02.837 0 .837 1.347 1.953 1.57 0 .225-.558.674-.558 1.347 0 .898.838 2.245 1.675 2.245 1.116 0-.837-1.796-.837-2.245 0-.673.558-.898.558-1.347zm-77.87-20.43v1.347c.837.674 1.395.674 2.512 1.572 1.675-1.347 2.512-2.245 4.745-3.368v-1.347H80.52c-2.233 0-3.907 1.122-5.86 1.796zm317.9 36.595c-2.512-1.347-4.744-3.593-8.652-2.694 1.396 1.122 5.024 3.367 6.978 3.367.837 0 1.395-.224 1.674-.673zm-7.535 9.653c-.28.225-.56.45-.56.898 0 .898 4.466 2.92 5.303 2.92.28 0 1.396-.674 1.396-1.347v-.674h-3.628c-1.117-.224-1.954-.673-2.512-1.796zm13.955 3.817v-.898c-2.79 0-.838-.674-.838-1.796 0-.45-.558-.674-.837-1.123-1.116.45-2.79 3.143-2.79 4.04 0 .674.837 1.348 1.954 1.348s2.512-.674 2.512-1.572zM35.303 180.216c-.837 0-1.396-.225-1.675.898h-1.954c.28.45.837.898 1.395 1.122h3.908c0-1.347-.28-2.02-1.675-2.02z" fill="#fff"/></g><defs><filter id="A" x="0" y="0" width="1285.27" height="648.432" filterUnits="userSpaceOnUse" color-interpolation-filters="sRGB"><feFlood flood-opacity="0" result="A"/><feColorMatrix in="SourceAlpha" values="0 0 0 0 0 0 0 0 0 0 0 0 0 0 0 0 0 0 127 0"/><feOffset dy="2"/><feGaussianBlur stdDeviation="15"/><feColorMatrix values="0 0 0 0 0.0244097 0 0 0 0 0.291229 0 0 0 0 0.308333 0 0 0 0.2 0"/><feBlend in2="A"/><feBlend in="SourceGraphic"/></filter></defs></svg>