<svg width="1286" height="649" fill="none" xmlns="http://www.w3.org/2000/svg"><g opacity=".15" filter="url(#filter0_d)"><path d="M776.046 459.951v1.796c-.558-.224-1.954-.673-1.954-.673 0 8.531-2.791 14.368-5.303 20.879-2.233 5.163-3.349 13.021-10.606 13.021-3.07 0-5.582-3.368-5.582-6.286 0-1.572.279-2.021.279-2.919-1.396-1.122-1.396-2.918-1.396-4.714 0-.449 2.233-2.245 2.512-2.245 0 0 2.512-4.94 2.512-5.164 0-1.347-1.953-4.266-1.953-6.062 0-5.612 4.465-5.388 7.815-7.409 2.791-1.571 6.419-5.837 8.373-7.857.558-.674.279-2.47.837-3.368 3.628.449 3.349 7.858 4.466 11.001zm100.477-75.21c0 1.572 1.396 3.143 3.07 3.143 2.233 0 3.908-2.694 3.908-4.714 0-3.592-3.629-5.164-5.303-7.858 0 3.368-1.675 6.062-1.675 9.429zm89.314 40.411c0-1.122-.559-2.694.558-3.143v-5.163c0-1.123-1.675-1.572-2.512-2.245-1.396-1.347-2.791-2.021-2.791-4.49-1.396 0-2.233-.45-2.233-1.797l.558-1.122c-.279-.449-.558-1.123-1.116-1.123h-.837c0-.224.279-.449.279-.673 0-1.796-1.954-2.245-3.908-2.919-3.349-1.122-4.745-2.469-6.977-4.714-1.117-1.123-1.954-2.47-3.908-3.143-.558-.225-1.116 0-1.395-.674-.838-1.796-1.954-3.592-4.466-4.49h-3.908c-.837-.449-1.116-1.123-2.512-1.123h-.837v.898c.279 1.123 2.233 4.491 3.349 4.715 1.117.225 2.233 0 2.791 1.123.838 1.347 1.117 2.02 1.675 3.592.837 1.571 3.629 1.122 4.466 3.816.279.898 1.116 3.817 1.674 4.041.279.225 1.675.449 1.954.674.279.449 0 1.122.279 1.122s1.675 2.246 1.954 2.919c1.395 2.694 2.233 4.715 4.745 7.184 2.233 2.021 4.465 2.919 6.698 5.164 0 0 2.233 3.143 2.791 3.143 1.117 0 3.629-.449 3.629-1.572zm11.164-20.43c0 .674 1.116 4.715 1.674 4.939.559.225 1.396.225 1.675.674v.674c1.675 2.245-.279 6.286 4.187 6.286.837 0 1.674-.674 2.512-.674 0 .449-.001 1.796.279 1.796.279 0 .558.674.837.674 1.396 0 1.954-1.347 3.07-1.347 1.954 0 3.349 1.347 5.303 1.796 0 .673.279 1.571 1.675 1.571 1.674 0 1.957-1.347 3.627-1.796 0-1.347 1.4-2.918 1.4-4.041 0-.673-.56-.898-.56-1.571 0-.674 1.11-2.47 2.51-2.694 0-2.021.84-2.695 1.67-5.164l.56-1.123c.28-.224.84-.224 1.12-.224 1.4 0 2.23.673 2.51-1.123-2.23 0-5.3-5.837-5.3-7.633 0-.449.56-.673.84-.898 0-.449-.28-.673-.56-1.123 0 0 3.35-1.347 3.63-1.571-.28 0-.56-.449-.56-.674 0-1.122 2.79-.449 2.79-1.347 0-2.245-5.03-.898-5.03-3.367 0-1.796.28-2.919-1.95-2.919-1.95 0-4.46 4.49-5.581 6.286-.558.898-3.349.449-4.186 1.347-.28.225-.28.898-.838.898-.558.225-.558.449-1.116.898 0 0-1.396.899-.837 1.348-.838.898-.838 2.02-2.791 2.469-1.396.225-2.512.225-3.35 1.123-1.674 1.571-1.116 5.163-5.024 5.163-1.674 0-4.186-.673-4.186 1.347zm42.419 1.347c1.96 0 2.8-.449 4.47-.449s2.51.898 4.19.898c2.51 0 3.35-2.02 3.63-3.816.27 0 .55-.674.55-.898h-.83c-1.4.898-3.07 2.02-3.91 2.694h-.84l-8.37-1.347c-3.07 0-4.47 3.816-4.47 6.51 0 .674-.83 1.348-1.11 1.797-.84 2.694-2.24 3.816-2.24 6.286 0 1.347 1.68 1.347 2.52 1.571v5.613c0 .673.83 1.571 1.95 1.571 1.39 0 1.95-4.041 1.95-4.714 0-1.572-1.11-2.245-1.11-3.817 0-.898.83-1.347 1.67-1.347.28 0 .56.225.84 0l-.56 2.47c0 1.571 1.95 2.02 1.95 3.592v1.122h1.68c0-1.347 2.79-1.122 2.79-2.469-.56-.225-1.68-1.347-1.68-2.021 0-.224.28-.449.56-.673-.83-.449-3.07-4.49-3.07-4.939 3.35 0 3.63-2.47 6.42-3.368v-.898c-.84-.225-6.98 1.796-7.25 2.021l.27-.449c-.55.673-.55 1.122-1.39 1.122-1.68 0-2.51-2.245-2.51-4.041 0-2.47 1.95-2.021 3.9-2.021zm-23.161 29.411c1.395 0 1.395.898 2.512.898.279 0 1.116-.898 1.399-1.347-.841-.449-.841-.674-1.957-1.123-1.117-.449-1.954.674-2.791-.224-.279-.225-.279-1.123-1.117-1.123-2.233 0-3.628-.224-5.024-1.571.279 0 4.466-.225 4.466-.898h-.837l-3.629.449c-2.232 0-3.07-2.021-5.303-2.021-1.395 0-1.674 1.796-3.628 1.796-3.907 0-5.582-3.817-9.21-3.817-.838 0-1.117.674-1.954.674-.279 0-.558-.449-.837-.449-.838 0-2.792 2.021-3.071 2.47 1.675 0 2.791 1.347 3.908 2.469 1.116 1.123 3.07 0 4.745.674 2.512.673 4.465.898 6.698.898 1.117 0 1.675 1.571 3.07 1.571 4.745 0 8.932.225 12.839 1.796-.279-.449-.558-1.122-.279-1.122zm25.401 1.347c1.67-.449 2.51-.898 3.35-2.245-1.12.449-1.68 1.122-3.35 1.122-1.96 0-2.51-.898-4.75-.898-.83 0-2.23-.224-2.23.898 0 1.347 1.67 1.123 2.79 1.123h4.19zm-13.12-1.796v.898c-.56-.225-1.12-.449-2.23-.449-1.12 0-1.96-.225-1.96 1.122 0 .449 1.4.898 2.51.898 1.12 0 1.68-.673 2.8-1.122l.83.449h1.12c-.28-.225 0-.898 0-1.796h-3.07zm6.98 3.143h-1.4c-.84 0-2.23-.225-2.23.673 0 1.123 1.95 1.347 3.07 1.347 0 .449 0 1.572.84 1.572h.55c.28 0 .84-.449.84-.898 0-1.347-1.67-.898-1.67-2.694zm-13.12-3.368h-1.12v1.123c0 .449.56.898.84.898.56 0 1.12-.449 1.12-1.123-.28-.224-.28-.898-.84-.898zm29.86 3.817c1.96 0 5.86-.898 6.98-2.694-1.12-.674-6.42-.225-7.53.898-.28.224-.28.898-.56 1.122-1.68.674-4.19.674-4.19 3.143 0 .449.28 1.123.84 1.123 1.39 0 3.35-1.347 3.91-2.021.55-.449 0-1.571.55-1.571zm33.22-11.674c0-.899-.28-.225-.56-1.348-.84 0-.84 1.123-.84 2.021 0 .674-1.12.898-1.12 2.021 0 .449.28.898.84.898.84 0 .84-1.347.84-2.47.28 0 .84-.449.84-1.122zm-29.87-8.756c0 .898 1.4 2.245 2.24 2.245.27 0 1.11-1.347 1.11-1.572 0-1.347-3.35-2.245-3.35-.673zm6.42 0s1.68.449 2.23.449h2.8c1.67 0 2.51 1.122 4.18 1.122.28 0 .84 0 .84-.224 0-.898-1.4-1.123-1.4-2.021l-.27.225c-.84 0-1.68.449-1.68-.449h-5.3c-.84 0-1.4.224-1.4.898zm-.56-18.634c-.83.449-1.11 1.347-1.11 2.245 0 1.571.83 2.02.83 3.143v1.571c0 .674.28 2.245 1.68 2.245-.56-.898-.84-1.347-1.4-2.02v-.898c.84 0 2.24-.225 2.79-.225 0-.898-.83-1.122-.83-1.796 0-.673 1.11-.898 1.11-1.571-1.95 0-2.79-.898-3.07-2.694zm71.73 26.042c.28 1.347 2.24 1.123 3.07 2.021.56.449 1.4.898 1.68.898 2.51 0 3.63-1.347 5.86-1.796 0-2.021 2.51-1.572 2.51-4.041 0-.674-.28-1.796-1.11-1.796-1.68 0-.84 2.469-2.8 3.367-1.11.449-2.79.449-4.74.898 0 0-1.12.449-1.4.449h-3.07zm-6.14 1.123c-2.79-1.347-2.79-4.49-6.7-5.613-.55-.224-1.67-.224-1.67-1.122-1.4 0-2.23-1.572-3.63-1.572-2.79 0-6.42-1.122-8.09-2.469v-.225h-.28c-.56-.224-1.68-.449-1.96-.898h-3.34c-.84-.449-1.68-1.796-3.07-2.245-.28-.224-1.4 0-1.4-.673-1.4.224-2.79 2.245-3.91 2.694-1.67.449-1.95.673-2.79 1.571-.28.225-1.39 2.021-2.23 2.021-.84 0-2.51-1.796-2.51-2.245-1.12 0-1.68-.449-1.68-1.123v-4.265c-2.23-.45-3.63-2.246-5.86-2.246-2.23 0-3.07 2.021-4.46 2.021-.84 0-1.68.449-1.68 1.123 0 1.571 2.79.898 3.63 2.469 0 .449.28.898.84 1.123.55.224 1.11.449 1.67.449 1.4 0 2.23-.225 3.35-.449h.84c-.84 1.347-4.47 1.122-6.14 2.02.28.898 1.67.449 2.23 1.347.56.898 0 1.347.56 2.47 0 .449.84.449 1.11.449.84 0 1.4-1.123 1.68-2.021v1.123c1.95-.674 2.79 2.469 4.47 2.469 1.95 0 5.3.674 6.41 1.123 1.12.673 4.47 1.796 5.03 3.143.56 1.796 0 3.368 1.67 4.939-.83.449-3.07.898-3.07 2.245 0 .898 1.12.898 1.96.898h2.51c0-.673 1.39-.673 1.67-.673 3.07 0 3.91 3.592 6.98 3.592h4.47c0-.898 1.11-1.347.55-2.694 1.68-.898 1.4-2.919 4.47-2.919 3.91 0 6.14 3.143 8.65 5.613.28.224 1.12.449 1.12.898 0 1.347 2.79 2.469 4.46 2.918h3.07c.28.225 1.96 1.348 2.24 1.348h.83c0-.899.84-1.348 1.68-1.797-.28 0-2.23.225-2.51-.449-.28-.449-.56-1.122-1.12-1.347-.56-.224-1.12.449-1.39-.224-.28-.449-.56-1.347-.84-1.347-.84 0-2.23-.674-2.51-1.123-.84-1.347-.84-2.245-1.96-3.367-.28-.225-2.23-2.245-2.23-2.694 0-1.123 2.23-.674 2.23-1.796.28-3.144-2.23-2.021-3.35-2.47zm20.1-7.633c-1.4-1.347-2.51-2.694-4.75-3.368.28.898 1.12.898 2.24 1.347 1.67.898 1.39 2.245 2.79 2.919-.28 1.122-.28 2.02 1.11 2.245.28.224.56 0 .84 0v-.898c0-1.572-1.11-1.347-2.23-2.245zm7.81 6.286c-.28 1.123.28 2.245 1.68 2.469v.899c0 .449.28.898.84.898.27 0 .83-.674.83-.898 0-.449-2.51-2.919-3.35-3.368zm23.17 15.491c0 .673.84 2.47 1.95 2.47v-.674c0-1.123-.83-1.347-1.95-1.796zm-5.3-1.796c0 1.347 1.95 1.796 3.35 1.796l.55-.225c-.55-1.122-1.95-1.571-3.9-1.571zm.83-4.715c0 .898 2.24 3.592 3.63 3.592-.84-1.571-1.95-2.469-3.63-3.592zm-7.25-2.245c-.28 1.347 2.51 2.245 3.63 2.245.27 0 .83-.224.83-.224-.83-1.123-3.07-1.796-4.18-2.245l-.28.224zm-5.59-3.367l.56.449h-.56l1.68 1.122h1.12c-.56-.898-1.4-.673-2.8-1.571zm-34.88 122.356s-6.7-1.796-6.7 0c0 2.469 3.91 11.001 7.53 11.001 2.52 0 5.59-6.062 5.59-8.756 0-1.347-.84-2.021-1.4-3.368-1.39.449-3.35 1.123-5.02 1.123zm6.14-2.245c0-.674.28-.898.28-2.021h-1.68c0 .898.28 1.796 1.4 2.021zm-40.47-17.063c1.11 1.123 2.79.898 4.18 0-1.67-.898-1.95-1.122-4.18 0zm-18.98-85.088h1.11v-1.796c-1.67 0-2.51.225-4.74.674.56.449 2.23 1.122 3.63 1.122zm74.52 45.126c-2.23-2.245-6.98-4.266-6.98-8.756-1.67 0-3.63 0-3.91-1.571-.55-1.572-.83-3.817-2.23-5.164-1.95-2.021-7.26-2.919-8.09-5.837-.84-2.919-1.96-4.49-3.07-7.633-.56-1.796-.56-5.613-1.96-6.511-.56-.225-2.79-.898-3.9-1.347-1.4-.898-.84-2.919-1.12-4.715-.84-2.245-2.23-4.265-2.51-7.408-1.96 1.122-1.4 2.469-3.35 4.041v10.551c-.56 2.695-1.4 9.43-5.03 9.43-2.23 0-2.79-2.47-4.46-3.143-3.07-1.123-4.75-1.796-8.1-2.919-.55 0-.55-1.796-1.11-2.245-.84-.449-2.51-.225-2.51-1.123l1.39-5.837c.84-.673 2.79-.898 2.79-2.245 0-.898-1.67-2.02-2.51-2.02-1.39 0-1.67.898-3.35.898-4.19 0-6.7-1.572-10.88-3.143.28 1.347 1.39 1.571 2.23 2.694-.28 0-1.4.898-2.23.898-1.96 0-6.98 1.122-6.98 2.694 0 1.571-1.68 2.469-1.68 4.041 0 1.122.28 1.796-.28 2.918-.27 0-1.11-.898-1.67-.898-1.12 0-1.95.449-2.79 1.347-.28-2.02-1.4-4.49-3.63-4.49-2.51 0-3.07 2.245-6.42 2.245-.28 2.694-2.51 3.144-2.51 6.287-1.12 0-1.67-.449-2.51-.898-.56 1.347 0 2.918-1.4 3.816-.56-.898-1.11-1.347-1.95-2.245-1.12.674-1.68 1.796-1.68 2.919v2.02c0 4.041-9.76 7.184-14.23 7.858-2.23.449-6.7.673-8.09 2.021-1.4 1.347-4.191 4.265-6.424 4.49v-1.123c-.558.225-1.395.449-1.395 1.347v6.735c0 2.919 1.395 4.266 1.395 6.062 0 .674.279 1.123 0 1.572-.279-.449-.837-.898-1.116-1.572-.279.674-.558 1.123-.838 1.572-.558 1.796 1.954 2.245 2.512 4.041 1.675 4.49 1.954 6.061 3.35 11.225.558 2.021 2.516 4.041 2.516 7.409 0 2.694-2.796 3.367-2.796 5.163 0 1.572 5.866 4.042 7.816 4.042 5.3 0 7.26-3.817 11.44-3.817 1.4 0 1.4-.898 3.35 0 2.51 0 4.75-.674 7.26-.898.84-5.837 8.65-3.817 14.79-5.837 2.79-.898 3.63-2.694 7.82-2.694 3.9 0 11.16 1.122 13.11 3.367.84 1.347 3.63 6.96 4.47 6.96 0 0-.56 2.021.84 2.021 2.51 0 5.58-6.062 7.81-8.083 0 1.796-.56 7.858-3.63 8.307 0 .674.56 1.123 1.12 1.123 1.67 0 1.95-2.021 3.07-2.47 0-.449.28-.898.28-1.122.56.449 1.12.898 1.12 2.245 0 1.122-.56 1.796-.84 2.469h1.39c.84-.224 1.68-.449 2.52-.898v.674c0 1.571 1.67 2.918 1.67 4.714 0 4.715 7.82 7.858 12.28 7.858 3.07 0 1.95-2.245 4.75-2.47 0 .674 5.02 3.368 6.14 3.592.83-5.612 10.88-3.143 12.28-8.531v.225c0-4.041 2.51-7.633 3.35-10.552 1.11-3.817 3.35-4.939 5.58-8.082.56-.898.28-1.347.84-2.245v-3.143c1.11-1.123 1.67-4.715 1.67-7.185 0-3.592-1.12-9.653-3.07-12.123l.28-.898zm71.73 59.943c-.56.225-1.12 1.123-1.96 1.123-.83 0-.55-.898-.55-1.572-.28 0-.84-.449-.84-1.122-1.12.449-2.79 2.02-2.79 3.816v.674c-.84.224-1.68.449-2.23 1.347v1.122s-1.68 2.47-2.24 2.695c-1.95.898-3.9 3.816-6.7 3.816-.83 0-1.39.674-1.95 1.572-1.12 1.796-4.74 3.367-4.74 6.286 0 .224.27.449.55.449 0 .673 4.75 2.245 5.31 2.245.83 0 2.23.673 2.51.673 1.39 0 3.63-1.796 4.46-2.694 0 0 3.35-6.735 3.63-8.082.84 0 3.91-.673 4.47-.673.28-1.347-.28-1.796 0-3.592 1.95 0 4.46-4.266 4.74-5.838-.55-.224-.83-.898-.83-1.796-.28 0-.56 0-.84-.449zm15.35-13.47c-1.95 0-1.68 1.122-4.19 1.122-2.79 0-4.46-1.796-4.46-4.714h-.84c-.56 0-1.12.449-1.12 1.122h-.83c-.56-.673-1.96-3.143-1.96-3.816 0-.449.28-.449.56-.898-.84-.449-.84-1.123-1.39-1.796-1.12-1.123-3.35-1.347-4.47-3.143.84 2.694 2.51 6.51 5.3 7.184 0 .449-.28.898-.28 1.122 0 .898.84 1.347 1.4 2.245.28.674.56 1.572.56 2.245 0 1.796-.28 3.368-1.4 4.491-.56.673-1.67.673-1.67 1.796 0 2.02 4.46 1.122 4.46 3.367 0 1.347-1.39 2.021-1.39 3.368 0 .898.83 1.571 1.67 1.571 2.51 0 3.35-2.245 4.47-4.041.28-.449 1.67-1.571 1.67-2.245 0-.449-.56-.898-.56-1.122 0-.898 1.12-1.347 2.52-1.572l.27-.449.56.674c1.12-1.797.84-4.266 2.52-5.838-.56-.449-.84-.673-1.4-.673zm.56-70.72v-1.347c-.56 0-1.12-.449-1.4-1.122-1.11.449-2.79.673-2.79 2.245 0 .449 1.68.673 2.51.673.84 0 .84.225 1.68-.449zm.56-4.265c0 .224.27 1.122.83 1.122 1.12 0 1.68-1.122 3.07-1.571v-1.123c-.83 0-3.9.225-3.9 1.572zm-181.7-88.681c0 .225 0 1.797-.28 2.47-.28.674-2.23.225-2.23 1.572-.56 0-1.12.673-1.12 1.347h-.56c-.83 0-.56-1.572-1.95-1.572-1.96 0-1.4 2.245-3.91 2.245-.28.898-.56 1.572-.84 2.694 0 .225.56.674.28 1.123 0 .449-.83 2.245 0 2.245 1.12 0 1.12-3.368 2.24-4.266 0 0 .83.898 1.11.898l.28-.449c.28.225.56.449 1.12.449v-.898h1.39c0 .225.28.674.56.898-.28.225-.56.449-.56 1.123 0 2.02 1.12 3.592 2.79 3.592h1.12c0 .224.28.898.56.898.84 0 1.12-.674 1.12-1.347 0-1.123-1.4-1.347-1.4-2.245 0-.674.56-.898 1.12-1.347.28.224.55.449.55.898v-.225c.28.674.84 2.245 1.4 2.47 0-1.796 1.4-2.245 1.4-3.368 0-.898-1.68-6.96-2.52-7.633-.28-1.123-.83-1.572-1.67-1.572zm-25.68 4.042h.84c1.39-.898 3.35-2.021 3.91-4.491.83 0 1.67-.224 1.95-1.122.56 0 .56-.225 1.12-.674-.56-.449-.84-.673-.84-1.571-.28.224-.28.898-.56 1.347-1.39 2.245-5.3 3.367-6.42 6.511zm6.14-21.329c0 .674 1.96 1.796 2.51 1.796.28 0 .56-.449.84-.673h.56v1.122c-.28.225-.56.45-.56 1.123 0 .449.84 1.347 1.68 1.347.55 0 1.11-.673 1.67-.673 1.67 0 1.67 2.245 3.07 2.245-.28-.898-.56-1.347 0-2.021.56.898 3.35 1.796 3.91 3.143 0 .225.28.898.56.898s.55-.449.55-.673v-.898c-.83 0-1.39-.449-1.39-1.347-.28 0-.84.224-.84 0 0-.449.56-.674.56-1.123-.28 0-.56-.224-.56-.224-.56 0-.56.673-1.12.673-.55 0-.83-2.245-2.23-2.245-.56 0-1.11.449-1.11.898v.449c-1.12-.449-2.8-3.143-2.8-4.49 0-2.021 1.96-2.245 1.96-4.49 0-1.796-1.4-3.143-1.4-4.49 0-.225-.28-.449-.28-.674l-.28-.449c-.55.225-.83.898-1.39.898-1.12 0-.84-1.796-1.95-1.796-.84 0-1.12.898-1.12 2.021 0 1.122.56 2.02.56 3.143 0 .898-.28 2.245-.84 2.918-1.12-.224-.56 2.021-.56 3.592zm18.42 8.981c-.83 0-1.39-.449-2.51-.449-.28 0-.56.224-1.12.449.28.898 2.52 1.571 2.52 2.918 0 .225-.28.674-.56.674h-1.4v.673c0 .225.84 1.347 1.68 1.347v.674c-.56.673-.28 1.347.56 1.347h1.11v-.674c-.56-.224-.84-1.122-.84-2.02h1.68c0-.449.28-.674.56-1.347l-.84-.898v-1.572h-.56c-.28-.224-.28-.673-.28-1.122zm-9.49 2.02l-.56-.449c-.27 0-.55.225-.55.449 0 .898.28 2.919.28 4.49 1.11-.673 3.62-1.347 3.62-3.143 0-.449-1.95-.898-2.79-1.347zm3.35 2.919c-.56 0-1.11 2.694-1.11 2.918-.28 0-1.12.225-1.12.674 0 .673 1.95 2.694 2.23 2.694s.56-.224.56-.449c0-.673-.56-.449-.56-1.347 0-1.123 1.4-2.021 1.4-3.143.28-.674-.28-1.572-1.4-1.347zm1.12 4.041h.56c0-1.572 1.39-2.021 1.39-3.817h-1.11c0 1.796-.56 2.694-.84 3.817zm3.35-1.347c-.28.449-.84.224-1.4 0-.28.673-1.11.898-1.11 1.571 0 .225.55.449.55.449 1.12 0 1.96-.898 1.96-2.02zm-2.51-5.388c0-1.347-1.4-1.572-1.68-2.47h-1.12v1.572h1.68c0 .224 1.12 1.347 1.12.898zm-8.66-2.021c.56 0 1.12-1.122.84-2.02-.28-1.123-1.39-1.123-2.79-1.796h-1.12s2.52 3.816 3.07 3.816zm1.12-3.143c.28.225.84.225 1.12 0-.28-.224-.84-.224-1.12 0zm-1.4-41.983c-1.67 0-4.18 4.491-4.18 6.96 0 1.796-.28 3.368 1.67 3.368 2.79-.225 5.31-10.328 2.51-10.328zm-35.721 19.757c0-.674-.837-1.796-1.395-1.796-1.675 0-5.582 2.918-6.699 2.918-.558 0 0 1.123 0 1.797 0 1.571.838 2.245 2.791 2.245 1.675 0 5.303-3.593 5.303-5.164zm-17.025 73.638c0 .449.558 1.572.837 1.572.558 0 .838.673 1.675.673h.837v-1.122c-1.674 0-2.512-2.245-3.07-4.041-.837 0-2.512.898-2.512 1.571-.279.898 1.675.225 2.233 1.347zm7.257 2.919c.837 0 1.116-.674 1.395-1.347-.279 0-.837-.674-1.116-.674h-1.117v.674c-.279.449 0 1.347.838 1.347zm-30.702-7.184h-.837v.449c0 .898 1.675 2.694 2.233 2.694 0-1.123-.559-1.796-1.117-2.694v-.449h-.279zm-4.745-6.96l-.558.224c0 .674 1.675 2.47 2.233 2.47 1.116 0-.837-2.245-1.675-2.694zm109.406-110.458c0 .674.56 1.348 1.12 1.348.28 0 .84-.45 1.4-.45-.28-.449 0-.673 0-1.122 0 .673.27 1.347.83 1.572l-.56 1.571s-1.11 1.572-1.11 1.796c0 .449.84 1.796 1.67 1.796v-.673c0 .449 0 1.122.28 1.122 1.68 0 2.79-3.592 3.07-5.612.28.224.84 0 1.12 0-.28-.449 0-.899 0-1.123l-1.12-.898c-.28 0 0-.898 0-1.123-1.39 0-2.23-.898-3.07-.898-.28-.224-3.63 2.021-3.63 2.694zm11.17.898c1.67 0 1.67-1.796 2.79-2.918.28.224.84.898 1.67.898 1.12 0 2.79-4.041 0-4.041-1.67 0-1.95 2.02-4.18 1.347 0 .224-2.24 1.796-2.24 1.796 0 .673.28.898.84 1.347.28.449.56 1.571 1.12 1.571zm13.12-14.143c-1.12 0-1.68 3.592-3.91 3.592h-7.54c-3.07 0-4.18 2.918-6.7 4.49-.55.224-1.67.449-1.67.898s.84.449 1.67.449c2.52 0 4.75-.898 6.14-1.572.84-.449 1.68 0 2.52-.449.27-.224.55-.898 1.11-.898 1.4 0 2.24.674 3.63 1.123 0 .449-.28 1.347-.28 2.02 0 .449-.28.898 0 .898.84 0 .84.898 1.68 1.123.55-1.123 1.95-2.919 2.79-2.919h1.11s-1.11-1.347-1.11-1.796c0-.449.28-.898.83-.898 1.12 0 1.12 2.021 3.35 2.021.84 0 1.68-.674 2.52-1.347h1.11c0 .224.28.673.56.673.56-1.571 1.67-1.796 3.35-2.694 0 .898-.56.898 0 1.796 1.39-.449 1.39-1.571 2.79-2.245-.28-.673-.56-1.122-.56-2.245 0-1.571 1.4-2.245 1.4-3.143 0-1.347-.28-4.939.84-5.164.27-.224.83.225 1.11-.224v-.674c0-1.571 1.68-1.796 1.68-3.592 0-1.571-1.68-2.469-1.68-4.041 0-.898 0-1.571-.28-2.245 0-.449-.56-.673-1.39-.673-.28 0 0 1.122.28 1.122l.28.225c-1.4 1.122-1.4-.449-1.68-.449-1.67 0-2.79 2.918-2.79 4.265 0 .674.56.674.56 1.347 0 3.817-4.19 8.531-6.7 9.43-1.4.449-1.68 1.571-3.63 1.571-.28 0-.56-.224-.56-.673 0-.449.28-.898.56-1.347.28-.45-1.39 2.245-1.39 2.245zm13.39-25.819c-.28.898-2.23 1.572-2.23 2.919 0 .449.56.673.56 1.122v2.695h.83c.84-.899 1.96-.45 2.8-1.797-.56-.449-2.24-.449-2.24-1.571 0-2.021 1.96-.898 3.63-.898 0-.449.56-.898.84-.898 1.95 1.347 3.35 1.571 5.3 2.694.84-1.347 1.96-4.041 4.47-4.041 1.67 0 2.51-.449 3.63-1.123-.56-.224-1.4-.898-1.4-1.571 0-.674.56-.898.84-1.347-.84-.449-1.68.224-2.51.224-4.75 0-6.14-3.816-9.49-5.837-.28.449-.84.674-.84 1.572 0 .449.56.673.56 1.122 0 1.572-.84 6.062-2.79 6.062h-1.12l.28.224-.84-.673v1.122h-.28zm17.31-3.367c-.28.449-.28 1.122 0 1.122 1.11 0 2.51-1.796 3.07-2.469l-.28-.225c-1.12-.224-2.23.898-2.79 1.572zm2.51-2.021c.28.225.28 0 .28 0h-.28zm6.7-4.041c-1.4 0-2.79 2.47-2.79 2.47v.673c1.67 0 1.67-2.245 4.46-2.245v-.898h-1.67zm5.58-1.123c.84 0 1.95-1.571 1.95-2.245-.28 0-1.67 0-1.95.674 0 .449.28.898 0 .898v.673zm-22.89-32.329c-.56-1.571-1.39-2.918-1.39-5.388h-.84v2.47c0 .673-.56.898-.56 1.571-1.67.449-2.51 3.593-2.51 5.838 0 1.796 1.95 2.469 1.95 4.265v6.96c0 1.347-.55 1.796-.55 3.592 0 1.347.83 1.572.83 3.143 0 1.796-.56 3.143-.56 5.164 0 .673-.27 3.367 0 3.367 1.4 0 1.4-2.469 2.8-2.469h1.11c0 .449.84 1.347 1.12 1.122l.28-.224c-1.12-2.021-3.63-3.143-3.63-5.837 0-2.919.28-6.735 3.63-6.735 1.11 0 1.95.673 2.51 1.571-.84-2.694-2.23-5.164-3.35-8.082-.28-.674-1.12-2.021-.84-3.143v-2.694c-.28-1.796.56-2.919 0-4.491zm-312.873-93.619s3.349-.224 3.628 0c1.954.674.838 2.47 1.675 4.041.279.674 2.233 0 3.07 0 .279 0 .558.674.837.898h9.49c0-.224-.279-.449-.279-.673-2.791-2.245-6.699-3.368-6.699-7.633 0-7.409 8.373-15.267 14.514-16.838 2.233-.674 2.791-3.144 5.861-3.144 1.395 0 1.954-2.245 2.512-2.694 3.907-1.796 6.977-.898 11.164-2.918 3.07-1.347 12.281-2.02 12.281-6.062 0-1.347-3.35-2.918-4.745-2.918-6.14 0-11.723 6.51-18.142 6.51-1.395 0-2.233-1.347-3.628-1.347-2.233 0-2.233 1.347-3.908 1.347-4.465 0-7.815 5.613-10.885 5.613-1.954 0-3.07.898-4.745.898-.837 0-1.116.674-1.116 1.123 0 .673.837 1.122.837 2.02 0 3.143-6.14 4.939-6.14 6.96 0 .898 1.675 1.122 1.675 2.469-1.954.449-5.862 1.347-5.862 3.368v1.796c0 2.021-3.628 1.796-3.628 4.715 0 1.571 2.233 2.469 2.233 2.469zm18.142 4.041c0 .225 0 .225 0 0 .279.225.279.449.558.449l-.558-.449zm455.221 26.492c-3.35 1.123-5.31.898-7.26 3.143-1.39 1.572-1.67 5.837-4.19 5.837-5.3 0-11.72-9.878-19.25-9.878-2.52 0-1.12 2.919-1.68 4.041-1.39 2.694-8.37 2.021-8.37 6.96 0 1.796 14.23 8.307-3.63 8.756-9.49.224-17.03 13.246-27.63 13.246-3.63 0-12.56-10.777-22.33 9.204-1.12 2.47 0 3.817 0 5.164 0 2.021-4.19 3.143-4.19 6.96 0 2.469-5.3 3.143-4.74 6.286-5.02 1.122-6.7 7.633-8.93 11.001-3.35-2.47-4.75-16.614-4.75-20.879 0-4.94 4.19-7.634 7.26-9.205 3.63-2.021 5.86-6.286 8.37-9.878 2.24-2.919 5.03-2.021 8.38-4.042 9.49-5.837 3.07-8.306 1.95-8.082-13.12 15.716-12.28 5.613-10.33 4.041-4.18-.673-5.02 0-7.25 0-8.38 0-12.01 4.49-13.96 12.124h-6.98c-3.07 0-5.3-2.245-10.32-2.245-3.91 0-18.42 1.122-22.89 2.245-5.3 1.347-10.05 7.408-13.96 11-2.51 2.47-8.93 6.062-8.93 9.205 0 .674 3.63 8.756 10.89 3.368 2.51-1.796 7.53 4.266 7.53 7.409 0 2.469-1.39 5.163-2.23 6.286-1.95 3.143-.56 5.388-1.39 8.756-.84 2.918-3.35 6.735-5.31 8.755-4.74 4.715-11.16 18.634-18.14 18.634-3.63 0-8.37-1.122-8.37-1.122-2.79 2.245-3.91 4.041-5.31 7.184-.55.898-2.51 2.021-3.62 2.919-.84.898-2.24 1.796-3.63 1.796-.28 2.02.84 2.918 1.95 4.041 2.79 2.469 4.47 5.163 4.47 9.654 0 2.694-.84 4.041-2.51 4.49-.84.224-3.63.449-3.63 1.347-1.4.449-1.68.449-2.51 1.122h-1.68c0-.673.56-.898.84-1.571-.56 0-.56-.674-.56-1.123 0-.898 1.12-2.245 1.12-2.694 0-.673-.56-1.347-.56-2.02-.84 0-.84-.674-1.12-.898v-1.123c.84 0 1.96-.673 1.96-1.572 0-1.347-1.68-2.245-3.35-2.245-.84 0-1.4.449-1.68.449-.84 0-1.11-1.347-1.11-2.02 0-1.347 1.39-1.347 1.39-2.47 0-1.347-.56-1.347 0-2.469-1.95 0-2.51-1.347-3.91-1.347-3.9 0-6.7 3.592-10.04 3.592 0-2.021 2.23-2.919 2.23-4.715 0-.673-1.4-2.245-2.23-2.245-1.12 0-1.68 1.123-1.96 1.572-.84 1.571-3.63 3.143-5.3 4.265-1.68 1.123-5.3.449-5.3 2.694 0 1.123 1.95 1.572 2.51 2.021 1.39 1.122.84 2.245 2.51 3.143.84.674 2.23.225 3.07.225.84 0 .84-2.47 1.67-2.47 1.4 0 1.96.898 2.8 1.347 1.67 1.122 3.62-.225 4.46 1.123-2.51 2.245-7.53 2.245-8.65 5.388-.56 1.347-2.51 1.571-2.51 2.918 0 1.572 2.23 2.694 3.35 2.919v2.245h.28v.224c1.11.674 1.11 2.021 1.39 2.47 2.23 3.143 3.35 4.939 3.35 9.878 0 3.368-1.67 4.49-1.67 6.96-1.68.449-5.03 4.939-5.87 6.286-1.11 2.245-1.95 6.511-4.74 6.511-.28 1.122-.84 1.571-1.68 2.02-3.34 1.797-4.74 5.164-10.322 5.164-1.116 0-1.675-.898-3.07-.898-.279 0-1.396 2.245-1.396 2.245-1.395 1.347-3.628.898-6.14 2.021-.837.449-3.349.898-4.186 1.571-.838.898-.28 2.47-1.675 2.47-1.117 0-.837-2.245-.558-2.919-2.233-1.122-3.629-.449-5.861-1.347-2.512 3.592-8.374 4.49-8.374 9.429 0 1.123.559 1.347 1.117 1.797 2.791 2.694 3.907 5.612 6.977 7.633 2.791 1.796 4.745 6.959 4.745 10.776 0 2.694-1.395 3.817-1.395 5.837-3.908.898-4.187 2.245-7.257 3.592-1.396.674-1.116 2.47-2.791 2.47-.279 0-.279-.674-.279-1.123v1.347c0 1.123-2.512 2.919-2.791 2.919-.558 0-.838-1.572-.838-2.245 0-.898 0-1.347.559-1.572-.559-.224-.838-1.122-.838-1.796-1.674 0-4.186-.673-4.186-2.245-2.791 0-1.396-1.796-2.791-3.143-1.675-1.571-3.349-1.796-5.303-2.245-.279 0-.558-1.571-.558-1.571-.28-1.347-1.675-1.572-3.071-1.572-.837 0-.837.674-.837 1.347 0 1.123.558 1.347.558 2.245 0 3.592-3.628 4.49-3.628 7.633 0 3.592 4.187 2.245 4.187 5.613h-.28c.559.898.559 2.919 1.396 3.817 3.349 3.143 10.327 3.816 10.327 9.653 0 1.123-.558 1.123-.558 2.246 0 2.02 1.674 2.694 2.232 4.265.559 1.572.559 2.021 1.117 3.368h-1.675c-.279 0-.558.449-.837.449-1.116 0-1.396-.898-1.954-1.123-3.628-1.122-6.978-4.714-8.373-8.531-1.116-3.368-1.396-5.837-2.512-8.531-.837-1.572-1.674-5.837-3.628-5.837-1.117 0-.558.673-1.675 0-.279 0 0-.449 0-.674 0-1.572.279-2.694.558-4.49h.559c-.838-.449 0-3.143 0-4.49 0-5.164-3.071-8.082-3.071-11.899-1.674 0 .559-3.592-.837-5.164-.279-.673-1.395-.449-1.675-.673-.837-.674-.279-1.123-1.116-1.796-1.954 2.02-2.791 5.388-6.14 5.388-1.675 0-1.954-1.347-1.954-2.919 0-1.571.558-2.245.558-3.592 0-.673-.558-.898-.837-1.571-.837-2.47-2.233-4.266-3.349-6.062-1.675-1.347-3.071-2.245-3.908-3.817-.837-1.347-.837-3.143-1.116-4.714-.558-1.572-2.512-2.245-4.466-2.694 0 3.592-3.349 4.265-6.419 4.265-1.954 0-1.954-.673-2.791-1.122-.838 1.796-3.35 1.796-3.629 2.918-.558 1.572-.279 2.919-1.395 4.041-2.233 2.021-5.582 2.694-7.536 4.49-2.512 2.246-4.466 4.715-6.978 6.736-.837.898-2.232 2.245-3.07 2.469-2.233.674-4.745 1.123-4.745 3.592 0 2.021.838 3.143.838 5.164 0 2.919-1.396 4.715-1.396 6.96l.558 2.918-.558.225c0 .449-.837.449-1.116.449-1.675.449-1.396 3.367-2.233 4.041-1.396.673-1.675.224-2.233 1.347-.558.898-.558 2.245-1.674 2.245-.838 0-1.675-.449-1.954-1.122-.558 0-.838-.898-1.117-1.123-.837-2.694-2.232-5.164-3.07-7.633-.558-1.572-2.233-2.694-2.791-3.592-.837-1.796-.279-3.368-1.395-4.715-.838-1.572-.838-2.245-1.396-3.817-.558-1.796-2.791-5.612-3.628-8.082-.838-2.245-1.954-4.49-1.954-6.735 0-.449-.279-1.347-.279-1.572 0-1.571.558-1.796.558-3.367 0-1.796-1.116-3.143-1.116-4.715 0-.224.837-1.122.837-1.571h-.837c-1.675 1.571-1.675 5.388-4.745 5.388-3.628 0-5.303-3.592-6.978-5.388 1.117-.674 1.954 0 3.071-.449.837-.225 1.116-1.347 1.674-1.796-.837-.225-1.954-.225-2.791-.225-2.512 0-5.861-2.245-6.977-4.041-1.117-1.572-1.675-4.266-3.071-4.715-1.395-.449-2.232 0-3.628 0s-1.675.898-3.07.898l-3.07-.898c-.558.225-.838.674-1.117.898l-4.186.225h-.559c-2.232 0-7.535-1.347-10.885-1.347-.558 0-4.186-.898-4.186-1.123-1.117-1.122-1.116-4.714-3.628-4.714-1.396 0-1.954 1.122-2.512 1.796h-6.141c-1.953-.674-2.791-2.021-4.186-3.143-1.396-1.347-3.35-.674-4.745-2.021-.837-.673-.279-1.572-.558-2.021-1.396-2.469-3.908-6.061-7.257-6.061-1.675 0-2.512 2.02-2.512 3.816 0 1.123 0 1.796.279 2.694.837 2.695 4.187 7.858 6.978 8.307 0 1.347.837 1.572.837 2.694 1.396-.449 1.117-1.796 2.512-2.02v1.347c0 1.347-.837 2.245-.837 3.816 0 1.572 3.07 2.47 5.024 2.47 8.094 0 8.652-4.715 13.118-7.858v4.266c1.674 3.367 3.907 4.041 7.535 4.939 1.396.225 1.396 2.245 2.233 2.694v-.224c.558 1.122 2.233.898 2.233 1.796 0 2.694-3.628 3.592-3.628 6.286-1.675 0-3.071.449-3.629 1.796-.558 1.347-.279 3.367-1.674 3.367-1.954 0-1.675 3.368-3.629 3.368-1.116 0-3.349 2.021-3.349 3.368-3.349.673-10.606 1.796-10.606 4.49 0 .449.279.898.558 1.122-2.791 1.347-6.419 2.021-9.489 2.694-1.396.449-6.141 3.593-7.815 4.266h-3.628c-1.954 1.347-2.513 2.245-5.024 2.245l-.838.449c-.279 0-3.349-1.347-3.628-1.571-.279-.225.558-.225-.279-1.347-1.117-1.796-2.233-3.817-2.233-5.838-1.396 0-.279-2.245 0-3.367.558-2.47-1.396-3.592-2.791-4.939-1.396-1.347-4.745-5.389-4.745-8.083-4.186-.898-5.303-3.367-5.303-7.633 0-2.694-1.674-3.143-1.953-5.388-.559-.449-1.117-1.123-1.675-1.572-.558-.449-1.954-.224-2.512-.673-.837-.674-.558-2.47-.837-3.143-.28-1.123-1.117-2.021-1.675-2.694-1.396-2.021-2.512-3.817-3.908-5.837-.279-.674-1.953-2.47-1.953-2.694 0-.899.279-2.246.558-3.593-.558 1.572-1.675 4.715-2.233 5.838-2.512-.449-4.465-5.613-6.698-7.634v2.021l11.443 19.532c-.558 2.47 3.07 7.633 4.745 8.98v6.062c1.116 3.143 3.628 3.143 5.303 5.388 2.233 2.694.837 5.837 3.07 7.858 1.954 1.796 3.349 2.02 5.303 3.367 1.954 1.347 3.07 6.287 6.977 6.287 0 2.02 1.117 2.245 0 3.592 1.675 1.122 3.071 4.939 5.024 4.939 1.954 0 1.954-1.572 3.629-2.021 1.674-.673 3.07.225 4.744 0 4.466-.673 8.932-2.469 13.118-3.592.279.674.838 1.123.838 1.796 0 6.511-5.303 15.267-8.373 19.083-3.629 4.715-5.303 8.756-9.49 12.124-7.815 6.061-16.467 7.857-19.537 18.185-.838 2.918-3.908 3.592-3.908 6.959 0 3.593.838 5.164.838 8.756 0 4.041 4.465 5.837 4.465 8.082 0 .674-.837 1.572-.837 1.797v2.918c0 1.796-.279 4.041-.279 7.409.837.673.837 1.347.837 2.245 0 8.98-15.909 8.082-17.304 15.715-1.675.225-3.629 2.245-3.629 3.592 0 2.47 3.349 4.266 3.349 7.858 0 1.796-.279 5.613-.837 6.735-.837.898-2.791.449-3.628.898-2.791 1.347-4.466 2.47-6.14 5.389 1.116.673 1.674 1.347 1.674 2.469 0 3.143-3.349 5.837-4.745 7.184-2.791 2.47-2.791 5.164-4.744 7.634-3.07 3.592-4.466 6.959-9.211 9.204-1.954.898-5.024 0-5.303 2.021-1.674.224-2.512.898-3.628.898-1.396 0-1.954-1.123-3.349-1.123-5.024 0-8.094 3.593-12.56 3.593-1.954 0-3.07-1.123-3.907-2.246-.838.225-.838.45-1.117.674 0-2.245-1.116-4.939-2.233-5.837.837-.898 1.675-1.796 1.675-3.143 0-1.796-3.349-5.388-3.908-6.286-4.465-7.185-9.768-13.92-9.768-24.247v-3.143c0-1.572-1.396-2.245-2.512-3.817-3.349-5.388-6.978-9.878-6.978-17.511 0-8.083 7.536-10.103 7.536-16.165 0-2.918-1.116-4.041-1.675-6.511-.837-4.939-1.674-6.735-3.07-9.653-.837-2.245-.558-4.94-1.954-6.96-3.07-3.817-10.047-7.858-10.047-13.47 0-1.348 1.953-4.266 2.791-4.715-.558-1.123 0-1.347 0-1.796 0-1.347 0-4.939 1.116-5.837-1.395-2.47-3.628-4.94-7.536-4.94h-5.024c-3.628 0-4.465-6.735-9.489-6.735-6.14 0-10.327 2.694-15.072 4.041-1.674.674-2.512 2.021-4.186 2.021-1.675 0-4.745-1.796-7.257-1.796-4.745 0-6.698 2.245-11.443 2.245-1.396 0-3.07-.674-3.629-.898-3.349-2.47-10.326-6.286-12.838-10.103-2.233-3.367-3.07-6.062-6.141-8.531-.837-.674-7.256-6.062-7.256-6.511-.559-.673-.838-.898-1.675-1.571h.279c0-1.796-.558-2.694-.558-3.817 0-1.572-.837-2.245-1.675-3.817 2.512-1.347 5.024-7.633 5.024-10.551 0-5.164-2.512-8.307-2.512-13.022 0-2.245 2.791-3.816 3.349-5.612 1.675-4.491 5.303-10.777 8.094-14.593 1.675-2.245 4.745-2.021 6.978-3.143 1.675-1.123 4.745-3.368 5.303-5.164 1.396-4.266-.279-6.062 1.954-8.98 3.07-3.817 7.257-7.409 10.327-11.001h-.279c.837-1.123 1.116-2.245 2.511-3.143 3.071 2.02 6.141 2.918 10.327 2.918 2.512 0 3.071-1.347 4.466-2.02 4.745-2.245 13.676-5.388 18.979-5.388 1.675 0 3.349 1.122 4.187 1.122 1.395 0 3.349-1.796 5.024-1.796 1.674 0 2.232.898 3.628.898 2.512 0 2.512-1.796 4.745-1.796 2.232 0 1.674 2.021 3.628 2.021.837 0 1.116-.674 1.675-.674 0 1.796-1.675 1.572-1.675 2.919 0 1.122 1.675 1.571 1.675 2.469 0 1.796-1.675 2.694-1.675 4.49 0 2.919 3.07 5.388 5.303 5.388h3.349c7.815 0 10.606 9.205 19.538 9.205 1.116 0 2.512-1.122 2.512-1.796v-2.245c0-3.816 2.791-3.816 6.698-4.939l.279.224h2.512c0 1.572 1.396 2.021 1.675 2.695 1.116 1.347 3.907.449 5.861 1.122 3.907 1.347 9.21 3.143 13.397 3.143 3.907 0 5.024-1.796 8.931-1.796 2.233 0 3.629 1.572 6.14 1.572 1.675 0 1.675-.674 3.35-.898 0 .224.279.449.279.898l-.558-1.572c0-.898.837-.898.837-1.347.837-2.469 1.116-3.817 1.954-6.062.837-2.245 3.07-2.918 3.07-5.612 0-2.021-.558-3.592-.558-4.939 0-.674.558-.898.837-1.123v-1.122c-.837.449-1.396 1.122-2.233 1.122a3.959 3.959 0 01-2.512-.898c-1.954 1.347-2.512 2.919-6.14 2.919-2.512 0-3.628-2.919-6.14-2.919-2.512 0-1.954 2.694-4.187 2.694-2.233 0-3.628-3.143-5.861-2.02h-1.396c.279 0 .838-.449.838-.674-.838-.673-4.187-2.47-3.07-3.592-1.117-1.572-2.512-1.347-4.187-2.245 1.116-1.123 2.512-.898 2.512-3.143 0-.898-.279-.898 0-1.347-.837 0-1.954.224-1.954-.674 0-3.592 8.652-2.918 10.885-4.041-.279-.898-.837-.673-.837-1.347 0-1.122 2.233-.673 2.791-.673h3.628c1.396 0 3.629-1.572 5.024-2.246 1.675-.898 5.024-1.122 6.978-1.122 3.349 0 3.07 1.796 5.861 1.796 0 1.347 4.745 2.245 6.14 2.245h6.978c2.512 0 3.907-1.796 6.14-2.694h-.558c0-9.205-13.955-8.082-16.746-14.817 6.977-1.797 3.907-4.94 3.628-5.613.558-.225 2.233-2.021 2.233-2.021-3.349 1.123-12.002 4.266-12.002 5.164 0 1.347 1.675 1.796 1.954 1.796 0 0 3.07.449 3.349.449-.837 1.123-6.698 3.592-8.373 3.592-1.674 0-7.256-8.756-9.489-8.756-2.791 0-2.791 2.919-5.582 3.817v1.796c-1.117.225-2.512.898-2.512 2.021-.559 1.796-.279.898-.838 1.571v2.919c-1.116 1.122-3.349 3.592-3.349 5.163 0 2.245 3.349 4.041 3.908 4.94-.559.449-.838.449-1.675.449-1.116.449-1.954 0-3.07.449-1.675.673-1.954 2.245-3.629 2.245-1.674 0-2.791-2.245-5.023-2.245-1.954 0-2.512 1.122-3.908 1.571.279.898.279 1.572 0 2.47-1.675 0-1.954-1.796-3.07-1.796-.558 0-1.396.673-1.396 1.347l2.233 2.469c0 .674-.558 1.123-.558 1.347 0 .449 3.349 3.143 4.187 3.143 0 .449.279.898.558 1.123-.558.449-1.675 0-1.954.673h-.279c-1.396-.224-2.512-1.122-3.07-1.796v.898c.279.674.837 1.123.837 2.021 0 .673-1.116 2.021 0 2.694h-1.674c-1.954 0-3.629-1.796-3.629-3.817 0-.898 1.117-1.122 1.675-1.796h-1.954c-.558 0-.837-1.122-.837-1.347-.559-1.571-1.396-2.694-2.512-3.816-1.396-1.347-3.349-2.47-3.349-4.939v-2.919c0-1.572-2.791-4.041-4.466-4.939-1.675-.898-3.628-.898-3.628-2.47h-1.675c-2.791 0-5.582-4.041-5.582-6.51h-1.954c-1.675 0-.837-2.47-1.675-3.144-1.395.899-3.907.898-3.907 2.021 0 .225.279.674.558.674-.279.673-.558 1.347-.558 2.02 0 1.796 1.116 2.47 2.512 2.919 1.675.673 2.791 2.469 3.07 3.592.558 1.571 1.396 3.592 2.233 4.041 1.675.898 3.07.224 4.745.224 0 .449 0 .674-.279.898-.559 1.347 2.512 2.021 3.07 2.246 2.512 1.122 5.303 2.02 5.024 4.49-1.117-.225-1.954-1.796-3.908-1.796-1.395 0-2.512.673-2.512 1.796 0 1.571 2.233 1.796 2.233 3.367 0 .674-1.675.674-1.675.674-1.116 1.122-.837 3.592-2.512 3.592-.837 0-1.395-.449-1.395-.898 1.396 0 1.954-1.796 1.954-3.143 0-1.796-.838-2.245-1.117-3.143-.279 0-3.349-2.694-3.349-3.368-.558 0-2.233-.449-2.233-1.122-3.628-.898-4.465-1.797-6.698-3.817-.838-.898-2.791-1.347-2.791-2.021-2.233-2.694-2.791-7.408-7.536-7.408-2.233 0-2.233 1.571-3.349 2.02-2.233 1.123-3.908 3.143-6.42 3.143-2.791 0-4.465-1.347-6.698-1.347-1.675 0-3.629 1.123-3.629 2.919l.838 2.469c-.838 2.246-3.35 3.144-5.862 3.817-2.232.449-5.582 5.164-5.582 7.858 0 .898.559 1.347 1.117 1.571-1.675 2.245-2.233 3.817-4.745 4.939-1.395.674-1.675 3.593-4.187 2.919-1.116-.224-3.07.225-3.628.225-2.791 0-4.466 2.245-6.978 2.245-1.674 0-1.953-4.266-4.744-4.266-1.954 0-3.35.898-5.303.898-.838 0-.838-.674-.838-.898v-4.715c-.837 0-1.953-.673-1.953-1.571 0-1.572 1.395-1.796 1.395-2.694 0-2.919 1.117-5.837 1.117-8.981 0-1.796-1.396-3.367-1.396-4.49 0-.673 4.187-3.143 4.745-3.143.558 0 1.116.674 1.675.449h5.302c.559.449 1.396.674 1.954.674h5.861c1.396-.449 2.233.449 3.35.449.837 0 2.512-.674 3.07-.674 0-2.245 1.674-2.918 1.674-5.163v-3.144l-.279.225c.279-.449.559-1.347.559-1.796 0-1.123-.838-.898-.838-1.796-2.512 0-3.07-2.021-3.07-4.041-.837-.225-.837-.674-1.395-.898-1.954-.674-7.257-1.572-7.257-3.368v-.449c0-1.122 3.349-1.796 4.466-2.02.279.673 2.232 1.122 3.349 1.122.837 0 2.233-.449 2.791-.673v-.898c-.837-.225-.558-2.021-.558-2.246v.674h1.116c.837.898 2.233 1.572 3.628 1.572.838 0 1.675-.898 1.954-1.796 3.629 0 4.466-2.47 5.303-5.389.837 0 1.117-.224 1.675-.224.837-.225 5.582-2.021 6.14-2.47.837-.898.558-2.245.558-3.816 0-.449 1.117-1.123 1.117-1.347 1.674-1.572 3.349-3.593 6.14-3.593 1.675 0 .837.45 1.675 0 .279.45.837-.673.837-.898.837-.898 1.954-.224 3.07-.224.837 0 2.512-1.123 2.512-2.021 0-.673-.837-2.694-.837-2.918-.559-3.143-2.512-4.041-2.512-6.735 0-4.94 4.745-5.164 7.815-7.409v1.347c-.559 1.122-.838 1.796-.838 2.919 0 1.122 1.396 1.347 2.233 1.347v.898c0 .673-1.116.898-1.395 1.122-1.117 1.123-2.791 2.245-2.791 4.266 0 1.122.558 2.02 1.395 2.02v1.347c1.396 0 1.954.449 2.791.449.279.674.558 1.347.837 1.347 3.35 0 5.582-2.694 8.374-2.245 0 .674-.838.898-.838 1.347 0 .225 1.954 1.572 1.954 1.572 1.396 0 1.396-.898 1.954-1.123 1.953-.898 3.628-.673 5.303-1.347 1.116-.449 3.07-2.245 4.465-2.245 1.675 0 3.35.225 4.187.449-.279.449-.558 1.123-.558 1.347 1.395 0 3.07-.224 4.465-.224.28-4.041 4.187-3.368 4.187-8.082 0-2.694 2.791-8.083 4.745-8.083 1.953 0 2.512 2.919 4.745 2.919 1.395 0 4.744-2.021-1.396-7.633-1.954-1.572 4.187-4.041 6.978-4.041 2.512 0 3.907.898 6.14.898 1.675 0 5.303-1.572 6.698-2.47-.837-2.245-1.953-2.694-3.07-4.041-1.116 2.245-6.698 2.694-8.931 2.245-2.512.674-5.303 1.796-7.257 1.796-1.674 0-2.512-.224-2.512-1.572-2.512 0-5.303-1.571-5.303-4.041 0-1.122 1.396-2.02 1.675-2.469-1.117-.449-2.233-3.143-2.233-4.49 0-.898.279-1.572 0-2.245 5.024 0 7.815-6.287 10.885-8.083 1.675-.898 4.466-1.571 4.466-3.592 0-2.918-3.908-3.367-6.978-3.367-3.907 0-7.257 1.347-7.257 4.714 0 1.347.28 2.021 0 2.694 0 2.694-5.582 4.939-8.093 6.287-1.954 1.122-4.187 1.571-5.303 3.816-.838 1.572.279 3.817-1.675 4.715v2.245c.558.449.837 1.347.837 2.02 2.233.449 5.303 2.47 5.303 4.715 0 1.796-3.628 4.715-4.745 4.715-2.512 0-3.349 3.367-3.349 5.837 0 1.347 1.117 1.796 1.954 2.02-.279 3.144-3.349 3.368-3.629 5.613h-3.349c-1.953 0-2.791 3.817-5.861 3.817-.837 0-2.512-4.939-2.512-5.388 0-.449.279-.898.279-1.123-1.953-2.02-1.674-3.592-2.512-6.062-.558-1.796-2.512-2.245-2.512-4.265 0-.674.279-1.123.559-1.572-1.396-.673-1.675-1.571-2.512-2.694-2.512 3.592-6.42 7.858-11.444 7.858-.837 0-5.303-2.694-5.303-3.143 0-.898 1.675-1.572 1.954-1.796v-1.796c-1.675 0-1.675 0-3.07.673 0-.898 1.396-2.245 1.954-2.918-1.675-2.021-1.954-4.94-1.954-8.307 0-1.796 1.954-1.572 2.512-2.694 1.395-2.021 2.791-3.368 5.303-4.041 2.233-.674 2.512-3.368 6.978-2.919-1.396-.449-1.675-.674-2.792-.898 5.303-1.347 7.257-5.388 10.885-8.082 1.396-1.123 1.117-4.715 2.233-4.715 0 0 1.117-2.469 1.117-2.694 1.395-2.245 3.07-4.041 5.582-4.939 2.512-.898 5.861-4.939 6.419-7.409-3.07.674-4.186 2.021-6.977 2.021.558-.898 1.953-1.347 2.512-1.572-.559 0-1.675-.449-1.675-.449.279-1.122.837-1.796 1.675-1.796.279 0 .558.449.837.449.279-.673.837-1.122 1.116-1.571.559.673.838 1.347.279 2.02 1.954 0 2.512 1.123 3.908 1.123.558 0 1.954-2.694 2.233-2.919-.838-.224-.838-.449-1.954-.224.558-.898 1.675-1.796 2.791-1.796.837 0 1.675.224 2.512-.225-.558-.673-.558-.449-.837-.898 1.116-1.123 3.349-1.123 5.303-1.347v1.347c1.674-.449 1.953-2.919 4.465-3.143v2.02c1.675-2.694 3.629-2.02 5.861-3.367-.837-.449-1.674-.674-1.674-1.347 0-.674 2.233-1.123 2.512-1.796.837.898 1.395 1.796 2.512 1.796 1.953 0 6.419-2.919 6.419-1.347 0 1.571-1.954 2.02-2.512 3.816 2.512.225 3.07-2.469 5.303-3.592.558.898.558 1.347.558 2.021 1.675-1.572 2.512-2.021 4.466-3.143 0 1.571 0 2.469 1.117 2.694.279-.898.837-1.796 1.953-1.796.558 0 3.349 1.347 4.187 1.796-1.117 2.694-1.954 1.796-4.745 2.694 1.116.898 1.954 1.122 1.954 1.796 1.116.224 3.628.449 3.907.449 2.791-.449 2.791.224 3.349.224 3.908 0 17.026 6.287 22.887 8.083 20.654 6.286 6.978 14.368.279 12.797-5.024-1.347-7.815-1.123-13.118-1.123 2.512 3.368 1.675 10.552 8.373 11.001v-4.715c13.956 5.837 12.281-5.388 15.63-6.286 3.349-1.122 9.49 1.796 9.49-2.245 0-2.021-2.233-2.47-1.675-3.368 5.303-15.491 7.815-5.163 6.14-.673-.558 1.347 1.675 2.245 3.071 2.245 4.465 0 22.607-15.491 25.398-8.756 5.582 2.47 13.118-2.245 16.746-2.245 2.233 0 6.141 7.184 6.699-1.796 0-.898-5.303-6.286 11.164-2.02 5.861 1.571 22.049 12.796 15.351 2.694-2.791-2.694-5.303-6.287-5.303-11.675 0-4.49 9.768-12.572 15.071-11.674 10.327 2.02 3.629 3.592 3.629 7.633 0 3.592 1.395 21.104 6.419 21.104 3.907 0-3.628-8.531-1.116-11.226 3.628-3.816-1.396-7.184-2.512-10.551 3.07-1.572 5.582-3.143 6.14-6.96 1.675 2.02 1.116 12.797 8.094 3.592 8.373 0 9.49 1.572 12.001 0-.558-1.796-1.674-3.143-1.674-4.715 0-6.735 15.072-5.163 18.979-5.163 2.791 0 3.349-4.715 5.303-6.287 8.931-7.633 25.678-8.755 29.864-9.878-1.395 5.388 14.234-.673 16.746-2.245 3.35-2.47 5.862-6.96 12.002-6.96 5.303 0 7.815 3.144 8.931 6.287h12.56c29.867 6.96-6.42 16.389-10.327 20.879 0 0-3.628 7.857 12.281-4.715 2.512 4.266 23.443 6.511 27.353 7.633h13.12c0-3.592 1.67-4.939 4.74-4.714 24.84 2.02 15.07 7.857 15.07 8.755 0 3.144 2.24 9.205 7.26 9.205 1.95 0 2.51-3.592 3.07-5.163 3.91.224 4.47 2.918 7.81 2.918h19.26c.84-4.49 1.96-9.205 11.45-9.205 9.49 0 17.3 1.796 24.56 4.042 3.63 1.122 3.63 3.816 6.14 5.837 2.79 2.245 9.49.673 13.95.673 8.1 0 12.28 2.021 13.96 8.082l27.63.674c2.23 0 11.44 11.225 7.81 0-.55-1.572 2.24-2.245 6.14-2.245 13.96 0 26.52 5.613 36.01 11.001 6.98 3.367 21.21 6.51 25.4 12.123zM769.626 270.916c-.558.674 1.117.674 1.675 1.796.837 1.347 0 2.245.558 3.817.558 1.347 2.233.673 3.629.898 1.116.224 1.395 1.347 1.953 2.021.838.898 3.908.673 5.582.673 1.954 0 4.187-.449 5.582-.673v-2.021c0-.225-1.116-1.347-1.116-2.47 0-1.122.837-1.347.837-2.694 0-2.245-1.674-4.49-4.186-4.939.279-1.796 1.395-2.918 2.512-2.918h3.628c0-1.796-1.954-2.694-1.954-4.491-.837.225-3.07 1.347-4.186 1.797 0-4.491-3.349-6.062-5.582-9.879-.838-1.347-2.791-1.122-2.791-3.592.279.225 5.303-2.918 8.373-2.918 2.233 0 4.465 1.347 6.419 0-2.512-3.368-3.628-6.511-10.048-6.511-3.907 0-5.861.898-8.931 2.02-.279.225-3.907 2.021-4.466 1.796-.558.674-2.791 4.94-2.791 5.613 0 1.796 2.791 3.592 2.791 4.715 0 4.041 5.024 11.001 8.094 12.572-1.953.898-1.953 3.592-3.349 5.613-.558-.225-1.954-.898-2.233-.225zm172.766 101.702c-.279.449-.279.673-.558 1.122 0-.449.279-.898.558-1.122zm1.674-4.49c-.837 1.347-1.116 2.469-1.674 3.592.558-1.123 1.116-2.021 1.674-3.592zm1.117-1.123c0 .225-.279.449-.279.674 0-.449.279-.449.279-.674zm271.847-247.182c1.4 0 10.89-.673 10.89-2.02 0-1.796-4.47-2.919-6.42-2.919-1.96 0-5.59 2.021-5.59 3.817 0 .449.56 1.122 1.12 1.122zm-34.05 7.184c.56 0 1.12-.673 1.12-1.122 0-.674-.84-.898-.84-1.347h-3.91c.84 1.347 1.96 2.469 3.63 2.469zm-114.43-36.819c.83 0 1.11-.898 1.11-1.571v-.225h-.28l-.83-.898c-.56.674-.84 1.123-.84 1.796-.28.674 0 .898.84.898zm-79.269 5.837c-1.116 0-2.512.674-2.512 1.797 0 1.122 1.396 1.347 2.512 1.347.838 0 1.675-.225 2.512-.674.279-.224.279-.449.279-.673 0-1.347-1.116-1.797-2.791-1.797zm2.791 2.246c-.279.224-.279.224 0 0-.558.449-.837.673-.837.898l.837-.898zm-48.006-26.268c0 1.123.28 1.796 1.675 1.796l6.419-1.796s3.629-.673 4.187-.673c2.233.449 8.373 0 8.373-2.919 0-1.571-5.024-4.714-6.698-4.714-.838 0-1.396.898-2.233 1.122 1.116-.898.279-.898.279-2.47h-1.675c-4.744 0-5.861 4.266-8.652 6.96-.279.674-1.675.674-1.675 2.694zm-29.026-13.92c0 1.123 1.674 2.92 2.512 2.92 1.395 0 5.303-.225 5.582-2.246-.838-.224-4.187-1.796-4.745-1.796-.837-.224-3.349-.224-3.349 1.123zm16.467-.448c-3.908 1.122-5.024 2.47-8.931 3.817 1.674.898 5.023 4.265 6.419 4.265 4.466 0 8.094 2.02 13.397 2.02 1.116 0 2.512-.673 2.512-1.795 0-.898-.838-1.123-1.675-1.347.837-.225 2.512-.45 2.512-1.572 0-1.123-.279-1.347.837-2.245-1.674-1.572-1.674-2.245-3.907-2.245h-2.512c-1.396 0-2.233-1.123-3.628-1.123-.838 0-1.396-.449-2.512 0 .837-.449 2.233-1.347 2.233-2.02v-2.245c.558.224.279.449 1.395-.225-1.954-1.347-3.907-4.49-7.257-4.49-5.861 0-7.535 5.388-12.559 6.735 3.07 1.572 5.303 2.47 8.931 2.47.279-.225 3.349 0 4.745 0zm-.279 23.573c1.395 0 2.233-.673 2.512-2.245h-1.675c-.558.449-1.116.898-1.675 1.123-.279.449.279 1.122.838 1.122zm-14.514-31.655l-.279-.898h-4.466c.559 1.571 3.071 1.122 4.745.898zM971.14 72.9c.837 0 1.395-.898 1.674-1.796-1.116.45-1.395-.224-3.907.45.279.448.837 1.346 2.233 1.346zM775.488 55.165c-.28.225-.559.45-.838.45v.448l.838-.898zm-12.56-2.47c1.116 0 1.674.674 2.791 1.123-.558.45-1.117.674-1.675 1.123.558 0 1.117.224 2.233.224-.837.225-1.675.45-2.512.898.279 1.123 1.675 1.347 3.349 1.347.279.45.838 1.123 1.396 1.123 1.116 0 1.395-2.02 2.512-2.47 1.674-.898 2.791.225 4.186-.449v-.673h1.117c1.395-1.123 3.07 0 3.349-2.02-.837-.225-2.233-1.123-3.628-1.123-1.675 0-2.512 1.571-4.466 1.571-2.233 0-3.907-1.571-6.978-1.571-2.511 0-8.094.449-9.21 2.245.837.224 1.675.449 2.512.449 1.395-.225 3.628-1.796 5.024-1.796zm57.216-.448c.838 0 5.582-.898 6.42-1.572l-1.675-3.816c-1.675 0-6.699 1.796-6.699 3.367-.279 1.347.28 2.02 1.954 2.02zm-6.698 2.918l-.559-1.347c1.117 0 2.233.45 3.071-.673v-1.796c-1.117.224-3.071.224-3.908 0 .279 0 .838-.45 1.117-.898h-3.908v1.571c-1.395.45-2.512 1.347-2.512 3.143 0 .45 5.861.225 6.699 0zm-12.56-.224c-1.116 0-6.14.673-6.14 2.245 0 .449.558.898 1.116.898 1.117 0 1.675 0 1.675-1.123.837 0 1.674 1.123 2.512 1.123 1.674 0 1.674-1.796 3.907-1.796-.558-.898-1.674-1.347-3.07-1.347zm-.837-2.47c1.395 0 2.512.225 3.628-.449-2.512-1.122-3.349-1.347-6.978-1.796 1.117-1.122 3.629-1.796 5.583-2.918 0-.674.558-1.123 1.116-1.572 0-.449 0-1.347-.279-1.347-1.117 0-1.954.898-1.954 2.02-3.628 0-3.628 2.246-7.257 2.246v1.571c1.117-.673.838-.224 1.954.225h-5.024l-1.674 1.347c.279.224 5.303 2.245 6.14 2.245 1.395-.225 3.349-1.572 4.745-1.572zM642.913 65.268c.279 0 .558.45.837.45-.558 1.795 1.396 2.693 3.35 3.816-.28 0-.559.224-.838.224.558 1.123 1.954 1.796 3.908 1.796 2.512 0 2.512-2.47 3.628-3.143h1.116c.559.45 1.675 1.123 1.675 1.123h3.07c-1.395 1.122-4.465 2.47-6.14 2.918-.558.225-3.349.225-3.349 1.123 0 2.694 3.07 1.571 4.465 1.571.838 0 4.745.225 5.303.674-1.395.449-2.791 0-3.907.898 0 0-2.791-.449-4.466-.225 0 4.042 6.42 5.389 9.49 7.41 1.674-1.572 1.395-4.94 3.628-6.287.558-.449 1.675-.225 1.954-.898 1.116-2.919 2.512-8.082 6.698-8.082 0 0 .838 1.571 2.791 1.796-.558 0-1.116 0-1.674.224.558.898 1.674 2.919 2.512 3.143-.279 1.796-1.675 1.123-1.675 3.143 1.675.225 4.187 0 5.582.225-.279.674-.279 1.123 0 2.02 3.07-.897 4.466-2.918 7.536-4.04-1.116-1.572-4.466-.674-4.466-4.266h-3.907c.279-.45.279-1.123 0-1.796-.837.224-1.117.224-2.233 0 .279 0 .837 0 1.116-.225-1.116-1.347-7.535-4.939-9.768-4.939-.279 0-.838-.224-1.117-.224.279-.899.559-2.695-1.395-2.695-.838 0-1.116 1.123-2.233 1.572 0-.898.279-1.572.279-2.245 0-1.123-3.349-2.245-4.745-2.245-1.674 0-2.512 0-2.512 1.796 0 2.245.838 3.143 1.396 5.164-3.07-1.123-2.233-5.164-5.303-5.164-1.117 0-1.954.898-1.954 2.02 0 .674.279 1.348.838 1.572-.838-.898-1.954-.898-3.35-1.796.279-.674.838-.898 1.396-1.572-2.791-.449-4.187-.449-6.141-.449-1.116 0-3.628 2.245-4.186 2.694.837.899 1.954 2.92 2.791 2.92zm24.003-6.286c-.279 2.694 2.233 1.347 4.187 1.347.279 0 5.303.449 5.582.449-.559.224-1.954.224-3.071.674-.279 0-1.674 0-2.511.224 0 .898.558 1.572 1.674 1.796h6.978c.837 1.347 1.953 2.02 4.186 2.02 3.629 0 9.49-4.04 12.281-5.837-.837-1.347-3.07-3.143-5.303-3.143h-3.908c-1.953 0-2.511 1.123-3.628 1.123-.279-.898 0-1.347 0-2.919h-1.395c-.559.45-1.675 2.694-3.071 2.694-.558 0-4.186-1.571-4.744-2.245h-3.35l.559 1.123h-1.954v.673c-.837.45-1.675.225-2.512-.449h-1.675c0 .898.559 1.796 1.675 2.47zm-22.887 12.572c-.837-2.47-2.512-2.918-3.907-4.714-1.675 1.122 1.675 4.265 3.907 4.714zm-73.962 145.93c0 1.347 1.674 2.694 3.07 2.694.837 0 1.675 0 2.233-.449.837-.674 2.512-2.47 4.465-2.47 1.117 0 2.512 0 3.071-.673.837-.898 0-2.245 0-3.368v-4.041c0-.898 2.232-.898 2.232-1.796 0-2.021-1.395-4.715-4.186-4.715h-1.954c-1.116 0-3.628 1.347-3.628 2.245 0 .674.279.898.837 1.572-.837.673-2.791 1.347-3.628 1.347-.279 0-1.396-.225-1.396 1.347 0 1.122 1.117 1.796 2.233 2.47-.279 2.694-3.349 2.918-3.349 5.837zm10.885-26.717c1.395 0 2.233-1.347 2.233-2.694-.838 0-3.07.674-3.07 1.347 0 .449.279 1.347.837 1.347zm3.907 3.368v.898s-.837.898-.837 1.572c0 .449 1.116.898 1.675.898v1.122c-.28.225-.559.449-.559.898v1.796h.838c-.279-.449-.558-.898 0-1.796.279.225 1.116.674 1.953.674-.279.898 0 1.122 0 2.245 0 .898-1.116 1.571-1.116 2.469 0 .898.837.898 1.954.898.837 0 1.674-.673 2.791-.673h1.116c-.279.449-.837.673-.837 1.571 0 1.123 1.675 1.347 2.791 1.347v1.796c-.558 1.123-3.349 2.246-5.303 2.246 0 1.347.837 1.796.837 3.367 0 1.796-3.349 1.796-3.349 3.592 0 .225.279.674.558.674.558 0 .558-.674 1.117-.674 1.395 0 1.674 1.347 3.349 1.347.837 0 1.674-.449 2.233-1.122 0 .224.279.673.279.898 0 1.571-2.512 1.122-4.187 1.571-.279 0-3.907 3.817-4.186 4.266v.673h.837c.558-.449.837-.898 1.675-.898h1.674c0-.898.838-2.02 1.954-2.02.837 0 1.396.673 2.233.673 1.674 0 5.024-1.122 6.14-1.122h4.745c1.395 0 2.233-.674 3.349-1.796v-.898c-.837 0-1.116-.225-2.512-.449.838-1.572 3.908-2.47 3.908-4.715 0-1.122-1.117-2.245-2.512-2.245-.838 0-.838-.224-1.675.449l.558-.449c-.558.225-.558.674-1.395.898v-.898c.279-.224.558-.449.558-.898 0-.898-1.396-1.571-1.396-2.47 0-2.694-3.07-3.592-5.023-5.388-1.396-1.347-1.117-4.265-3.35-4.939-.837-.224-1.674.225-2.791-.224 0-.449.558-.898 1.117-.898 0-2.47 3.628-3.817 3.349-7.185h-6.978c-.279-.449-.279-.673-.279-.898.279-1.571 3.07-1.347 3.07-2.918 0-.225-.837-1.123-1.116-1.123h-3.349c-.837 0-1.954.898-1.954 1.572 0 .673-.558 1.122-.558 2.02-.838 0-1.675.449-1.675 1.347 0 .225.279.674.558.674 0 .224-.279.673-.558.673s-.837-.449-.837-1.122h-1.954c.279 2.021 1.117 2.469 3.07 2.694zm3.908 13.246c-.837.449-.838.898-.838 1.347h1.396v-1.347h-.558zM1079.99 94.903c1.12 0 1.67-1.123 2.51-1.796.56.674 1.12 1.123 2.23 1.123 1.12 0 1.96-.898 2.52-.898.83 0 1.39-.899 2.51-.899.84 0 1.39 1.123 2.23 1.123 1.4 0 1.96-1.123 3.07-1.123h3.35c0-.898 1.68-2.245 2.23-3.816-2.51-.674-9.49-3.143-11.72-3.143-1.39 0-1.95 1.347-1.95 3.143-3.35 0-3.63-3.817-7.26-3.817-2.51 0-5.3 2.02-5.3 4.715-.56 2.918 2.23 5.388 5.58 5.388zM656.031 275.182c-1.954-.449-2.512.673-4.187.673-1.674 0-2.791-1.571-5.303-.449v.898c.279.674 1.396.449 1.675.674 1.954.674 3.628 2.47 5.582 2.919 0 .449.558.449.837.449.279 0 .838-.449.838-.898 0-.898-.559-1.123-.559-1.796 0-.45.559-1.348.559-1.348l.558-1.122zm-20.375-13.021c.279-.674.838-3.144 1.117-4.715-.279-.225-.558-.674-.558-1.347-.559.224-1.117 1.122-1.954 1.122-.279 0-.558.225-.838.225.559 1.122 1.117 4.49 2.233 4.715zm-1.674 4.939c0 .898-.559 1.347-.838 2.245 0 .898 0 2.469 1.117 2.469.837 0 3.07-1.571 3.07-3.143 0-1.796.279-2.918-.837-4.714-.28 0-.838-.674-1.675-.674-1.116 0-1.116 1.123-2.512 1.572.558.673 1.675 1.122 1.675 2.245zm-18.142 2.469c0-.449-.558-1.122-.558-1.347-.838 0-1.117.449-1.954.898 0 0 1.116 1.123 1.675 1.123.279-.225.837-.449.837-.674zm25.398-65.78c0-1.123-.837-.898-.837-2.245h-2.233v1.122c0 1.123 1.396 1.572 2.791 1.572v.898c0-.674.279-.449.279-1.347zm1.396 1.347l-.279-.449c0 .224-.558.449-.558.673 0 0 .837.674 1.674.674 2.512 0 1.675-4.041 3.629-4.715-.559-2.02-.838-2.918-3.071-2.918-.837 0-2.232 2.918-2.232 3.592 0 .673 1.395 1.571 2.511 1.796.28.224-.558 1.122-1.674 1.347zm25.957-15.491c-2.233.224-2.791 2.245-2.791 2.918 0 .674-.28 1.123 0 1.572.837-1.123 1.674-1.572 1.674-2.919.279-.673.838-1.122 1.117-1.571zm10.885-.449c.558 0 1.953-.898 1.953-1.123v-1.347c.279-.224.838-.898.838-1.571-.559-.225-.838-.449-1.396-1.123 0 0-1.116.674-1.116 1.123 0 .673.558.898.837 1.347-.837.224-1.675.898-2.512.898.279.673.279 1.796 1.396 1.796zm13.955 97.211c-1.954-.673-5.024-1.122-7.536-.673 1.396.673 3.628.898 4.466.898.837 0 1.395.449 3.07-.225zm28.468-2.02c-1.953.224-5.303 1.571-6.977 2.245 0 .224.279.673.558.673 0 .449.558.674.837.674 1.117 0 3.35-.674 3.629-1.347 0-.449 0-1.123.279-1.123.837-.449 1.395 0 1.674-1.122zm65.59 83.067c.837 0 1.954-.898 2.233-1.347-1.675 0-2.512.225-3.349.674 0 .449.837.673 1.116.673zm-18.142-238.201c-.279 0-1.674 2.245-1.674 2.694 0 1.122.837 1.347 2.232 1.347 1.954 0 3.35-1.123 5.024-2.021v-1.571c-1.674-.225-2.512-1.796-4.186-1.796-.559.224-.838 1.347-1.396 1.347zm34.33-4.715c0 1.347 2.791 2.918 4.187 2.918 0 0 1.674.225 1.674-.673 0-2.245-5.861-4.715-5.861-2.245zm44.378-18.634c-1.117-.898-1.675-2.245-3.071-2.245-1.116 0-1.674 1.347-1.674 2.245 0 .449-.279 1.122 0 1.122 1.395 0 4.186-.673 4.745-1.122zm244.215-1.123h3.63c0-2.694-2.51-4.714-5.58-4.714-2.79 0-4.47 1.571-5.86 3.367l.55-.673c2.24 1.122 5.03.898 7.26 2.02zm23.72-10.327c1.96 0 5.31-.449 5.31-1.796 0-.674-.56-1.123-1.12-1.123s-13.12-1.571-14.23-2.245l1.11.898c0 2.919 5.86 4.266 8.93 4.266zm-28.74 4.041c0-1.571-3.35-1.796-3.35 0 0 1.123 0 1.572 1.39 1.572 1.12 0 1.96-.45 1.96-1.572zm-529.464 55.678l.279-.225c0-3.143-4.465-2.469-4.465-5.837 0-.449.279-.898.837-1.122-1.117 0-1.675.673-2.791.673-1.117 0-2.233-.224-2.233-1.571-.558.449-.558.224-1.395 0-.28.449-.559.898-.559 1.796-1.116-1.123-2.512.449-4.186.449-1.117 0-1.954-.449-3.908-.449v1.122c-.558-.224-.837-.673-1.674-.898l-2.791.674c-.838 0-1.117-.674-1.675-1.123-.279.449-.279.674 0 1.572-.558.224-1.396.673-2.233.673-.837 0-1.954-1.571-1.674-2.245 0-.673-.559-1.122-.838-1.796h-.837c-.837 0-1.116 1.347-2.233 1.347v.898c-.837-.449-1.395-.673-2.512-.224.279 1.347 4.745 2.469 6.14 2.469 0 .449 0 .674.559.898-1.396.449-4.466 1.123-6.141 1.123 1.117 1.122 3.35 0 5.303.449-.279 1.347-.558 2.02-.558 3.367-.279 0-.837.449-1.116.674 2.791 0 3.628 1.571 5.303 2.02 3.349 1.123 6.419 2.021 10.885 2.021 4.186 0 6.419-2.021 9.21-2.919 1.396 0 4.187-2.245 5.303-3.816zM349.853 341.187c-.837-.225-1.395-2.021-2.791-2.245h-1.674v-.898c-2.791 0-5.861-1.347-7.536-2.919-.279-.224-1.116-1.347-1.954-1.347-3.907 0-6.419-2.918-11.722-2.918s-7.815 2.02-9.769 5.163h1.117c1.116-1.122 4.465-2.694 6.698-2.694.558 0 1.117-.224 1.675.449-.279.449-.558.898.279 1.347h3.628c1.675 0 2.512 1.796 4.187 1.796.837 0 1.674-.449 2.512.225.558.224.279 1.122 1.395 1.122.279 1.796 2.233 1.572 4.187 2.47 0 .673-.558 1.122-1.117 1.122v.674c2.233 0 4.187.898 6.978.898.837-.898 3.07-.898 3.907-2.245zm-29.585-6.062v.898c-.279 0-1.116.225-1.116 1.123 0 .224 1.675 0 1.675 0 .279-.674 0-1.123 0-1.796l-.559-.225zm16.747 12.348c0 .898.837 1.796 1.953 1.796 1.396 0 2.512-.449 3.908-.673 0-.449-.279-.898-1.117-1.123l.28.225c-.838-.225-2.512-.898-3.908-.898-.279 0-1.116.224-1.116.673zm37.958-.224c0 1.122 1.675 1.347 3.07 1.347.837 0 1.675 0 1.954-.674-.279-.673-3.35-1.347-3.629-1.347-.558 0-1.395.225-1.395.674zm-24.84-.449c0 .673.837 1.796 1.395 1.796v-.898c.558.449.558 0 1.396 0 1.395 0 4.465-.449 5.303.449.558.449.279 1.571 1.395 1.571 1.396 0 1.117-2.02 2.791-2.02.558 0 .558.673 1.117.673.837 0 1.395-.449 2.232-.898h4.466c-.837-1.122-1.954-1.571-3.349-2.469l.558.449c-2.233-1.123-2.791-2.919-6.698-2.919-1.396 0-1.954.449-3.629.449-1.116 0-1.674-.898-2.791-.898-.279 0-.837.449-.837.898 0 .673.837 1.347 1.674 1.347 0 .898 0 1.796.838 2.47-1.396.673-2.512 0-5.303 0 0-.225-.279 0-.558 0zm43.54 28.961c0 .449.837 0 1.116 0 .838 0 1.117-1.123 1.396-1.572v-.898h-1.117c-.558.225-1.395 1.347-1.395 2.47zm39.912 32.778c-1.396 0-2.512 1.122-2.512 2.919 0 1.122 3.07 3.143 5.024 3.143 1.395 0 3.349-2.694 3.349-3.817 0-.224-.279-1.123-.837-1.123-.559 0-1.675 1.348-1.954-.224-.837 0-1.675-.674-2.512-1.123-.279.225-.558.225-.558.225zm-81.22 155.808h1.117v-3.592c0-.449.558-.674.558-1.348 0-.898-.279-1.795-1.395-1.795-.838 0-1.396 3.592-1.396 3.592v1.571c-.279.449.279 1.572 1.116 1.572zm133.97-133.133c0 8.531-5.023 10.776-8.094 15.716-.837 1.122-1.116 1.347-1.953 2.469-1.117 1.796-2.512 2.021-3.629 3.143-1.674 1.796 0 5.388 0 8.307 0 2.021-.837 4.041-.837 5.613 0 .673-.558 1.122-.558 1.347-.558.673-1.675 1.796-1.675 2.694 0 1.122-.279 3.592-.558 4.041-1.675 2.694-2.512 3.817-4.187 6.062-.558.673-.279 2.02-.558 2.469-.837 1.347-3.349 2.919-5.303 2.919-2.233 0-4.186-.225-5.861.673-.837.449-.837.898-1.116 1.347-2.791 2.694-5.862 1.123-8.094 4.491-.838 1.571-2.512 1.571-3.629 2.469-1.674 1.572-1.395 3.143-1.395 5.388v5.388c-2.512 1.123-3.629 3.143-4.745 5.613v-.224c-.837 1.571-.837 2.245-1.675 3.816-2.232 3.143-4.465 3.368-6.698 6.511-2.512 3.592-3.349 9.205-8.931 9.205-1.954 0-4.745-1.347-5.583-1.347-1.674 0-3.349-1.347-5.023-1.347-.28 0-.838.224-.838.673 0 1.123 1.675 1.572 2.233 2.021.837.898.837 2.245 1.396 3.592.279 1.347 2.232 1.347 2.232 2.469 0 1.347 0 2.245-.558 3.143-1.116 1.572-1.954 2.47-3.07 3.593-1.954 2.02-4.466 1.347-7.536 2.245-1.953.449-5.861-.674-6.977.224-1.675 1.572-.279 4.939-1.117 6.511v1.122c0 .674-1.953 1.347-2.791 1.347-2.512 0-3.07-1.571-5.303-1.571-.837 0-1.116.898-1.116 1.347 0 1.571 1.395 4.714 2.512 4.714.558 0 1.395-.673 1.674-.898.559.449 1.117.674 1.117 1.123 0 .674-.838 1.572-1.117 1.572-1.395 0-1.953-1.123-3.07-1.123 0 1.347.837 1.572 1.396 1.796-2.233 2.021-2.233 4.266-2.791 6.96-.279 1.347-2.512 1.347-3.35 1.571-1.953.449-3.628 2.021-3.628 4.041 0 4.491 5.303 2.919 5.303 6.511 0 3.143-3.07 3.592-4.745 5.164-.837.898-.558 2.469-1.395 4.041-.838 1.572-2.791.898-3.908 2.021-1.395 1.347-1.953 2.918-1.953 5.163 0 1.123 1.116 2.47 1.674 2.694 2.233 1.123 1.954 6.511 3.629 8.083 2.791 2.469 5.861 3.592 9.21 5.163-.558.674-1.116.449-1.954.449-1.674 0-4.745 2.245-5.861 2.245h-1.395c-.28 0-.838.449-1.117.449h-3.349c-2.791 0-1.675-3.143-3.628-3.816-1.675-.674-4.466-.674-4.466-2.694h-2.233c-.837 0-1.116-.899-1.395-1.572-3.35 0-4.466-1.572-5.862-3.143-.279-.449-1.116-.898-1.116-1.123 0-1.122 2.233-.898 2.233-2.02l-.838-.674c.28-.673.838-1.347.838-2.02 0-2.694-3.35-2.245-3.35-4.715v-1.572c0-2.469-1.674-6.51-1.674-8.531 0-2.02 2.791-2.918 2.791-4.714 0-.898-1.396-2.695-1.675-4.042v-1.122c0-.674.558-1.347 1.117-1.347 2.233 0 1.395 2.021 3.07 2.021l3.907-17.288v-1.796h-1.116c-.837.449-.837 1.348-1.675 1.348-.837 0-1.674-2.695-1.674-4.042 0-2.245.837-3.143 1.116-5.163.837 0 1.116-.449 1.116-.674 0-.673-.837-1.347-.837-1.347-.558 0-.558-3.143-.558-4.041 0-2.694 1.675-5.388 2.791-6.96.558-.898.837-2.469 1.396-3.143.279-.449.837-.449 1.116-.898.837-2.694.837-4.714 1.675-7.409v-8.755c-.838-2.021.558-3.817.558-5.613 0-4.49 2.791-7.409 2.791-11.225v-.674c0-.898.558-2.918.837-4.041v-5.164c0-1.571 1.117-4.714 1.117-6.735 0-1.122-.559-8.082-.838-9.205-1.116-2.694-3.07-4.49-5.303-5.612-1.674-.898-3.07-.674-4.465-1.796-1.396-1.347-2.233-1.796-3.908-2.245-3.349-1.123-5.024-2.694-7.257-4.715-.837-.898-.558-2.245-.558-3.592 0-1.796-1.674-2.694-2.233-4.49-.837-2.694-3.349-4.939-4.186-7.409-.838-2.694-1.675-4.266-2.512-6.286-.279-.674-1.117-.449-1.675-.898-.837-.898-1.116-2.47-1.395-3.368-.279-.673-1.396-.449-1.675-.898-1.395-1.347-3.07-3.592-3.07-5.613 0-1.347.837-2.918 1.395-3.592 1.117-1.796 3.35-2.245 3.629-4.041-1.117-.673-.837-.224-1.675-.224-1.674 0-1.954-2.245-1.954-4.041 0-2.694 3.071-2.245 2.512-7.409 3.35 0 4.187-3.143 5.024-4.939 1.396-2.47 4.466-1.796 5.303-4.939-.558-.225-1.116-.898-1.116-1.123l.558-.898v-.674c0-.898-.837-1.571-.837-2.469 0-1.347.558-1.796.558-2.919 0-2.469-2.233-2.02-2.233-4.265 0-.225 0-.449.279-.674l-.279.225c-.279-.225-1.395-.674-1.395-.898 0-.449.558-.674.837-1.123-1.396-.673-1.675-2.02-3.07-2.02-.838 0-4.187 2.245-4.187 2.918 0 .449.838.898.838 1.123-.28 1.122-.838 1.796-1.675 1.796-1.954 0-3.07-2.245-4.187-3.143-.837-.898-2.791-.225-3.628-.225-.279 0-.558-.449-.558-.673-1.675-.449-1.675-1.572-2.233-2.47-.279-.673-4.466-3.143-4.466-3.143-.279.449-.279.898 0 1.122h-1.116c-1.675-1.122-.558-2.694-1.117-4.49-.279-1.122-.837-1.347-1.674-2.02-1.954-1.796-3.908-2.919-4.745-5.613h-.837c-.838 0-1.396.674-2.233.674-2.233 0-3.628-1.347-5.024-2.021-2.233-1.122-3.907-.449-6.419-1.571-3.629-1.796-4.187-4.491-7.536-5.838h-.838c-.837-.673-1.674-.898-2.791-.898-2.232 0-2.512 2.245-4.465 2.245-.838 0-1.954-.898-2.512-1.122-.838-.449-1.675-.225-2.791-.225-1.396 0-5.582-2.694-6.699-3.367-1.395-.674-2.233.224-3.628-.225-1.675-.449-1.954-1.796-3.628-2.694-1.675-.673-2.512-.449-3.908-1.122-.837-.449-.837-.449-1.395-.898-1.396-1.347-5.303-2.245-5.582-3.817-1.117 0-1.675-1.347-1.675-2.245 0-1.347 1.116-2.021 1.116-3.143 0-1.572-.837-1.796-1.116-2.694-1.396-4.266-5.582-7.633-8.094-10.103-1.117-1.123-3.07-1.572-4.466-2.694-.837-.898 0-2.021-.837-3.368-1.117-2.02-4.745-2.245-4.745-5.163-1.116-.225-.837-.449-1.395 0-1.675-1.572-2.791-2.694-4.187-4.041-1.116-1.123-.837-2.919-1.675-4.042-1.116-1.122-.837-3.592-1.674-4.041-1.954-.898-3.908-.898-5.582-2.245-.279.449-.279 1.123-.279 1.572 0 2.469 1.116 4.041 2.232 5.837.838 1.796 2.512 1.796 3.629 2.919 1.674 1.571 1.953 2.694 2.512 4.714.837 2.694 3.349 4.041 4.186 6.286.838 2.694 1.675 5.837 3.908 7.185.837-.899 2.512 1.122 2.512 2.02 0 .674-.559 1.796-.838 1.796-.279 0-1.953-2.02-1.953-2.469-2.233 0-3.35-2.695-4.745-3.593-.837-.449-.838-.449-1.117-1.122v-2.919c-1.395-1.347-2.232-2.469-3.628-3.816-1.675-1.572-4.466-1.347-5.582-2.919.558 0 3.349.449 2.512-1.122-1.675-2.47-3.628-4.94-5.861-6.287-1.396-.898-1.396-4.041-1.954-5.612-1.116-2.021-2.233-2.694-3.07-5.388v-.898h.279c-1.675-3.593-7.815-5.838-12.281-7.634-.837-.449-.558-1.571-.837-2.469-1.675-4.041-5.024-5.388-4.466-10.103-2.512-.449-5.023-5.388-7.256-8.98-.559-.898.558-1.796 1.116-2.245-1.395-2.47 0-6.736-1.116-9.654-1.117-2.919 1.953-9.429 1.953-13.022 0-2.469-3.07-3.592-3.07-6.061 0-.674 1.396-.898 1.675-.898 1.675 0 2.791.898 3.628 2.02.558-.673 1.675-2.02 1.675-3.143 0-1.122-1.117-1.571-1.675-2.694-.558-.224-1.116-.449-1.395-.673-1.117-1.123-4.187-1.347-4.466-2.47-.837-2.919-5.303-1.572-5.861-3.817-4.187 0-4.466-3.143-5.303-5.837 0-.449-3.349-2.245-3.349-2.245-1.396-.898 0-2.469-1.117-3.592-.837-.673-1.674-.673-2.512-.898-1.674-.449-1.116-3.592-1.116-5.164 0-.673-.837-1.122-.837-1.571 0-.898 1.674-1.123 1.674-2.245 0 1.347-1.674 1.571-1.674 2.245-.559 0-.559.224-1.117.224-1.954 0-5.024-2.245-5.024-3.367v-1.796c0-1.796-1.395-1.796-3.628-1.796-1.675 0-2.233-1.123-2.233-1.796 0-.898 1.675-1.123 1.675-2.021v-1.572c-2.233.225-1.675 1.572-3.35 1.572-.558 0-1.674-1.123-1.674-1.796 0-1.347.837-1.796 1.116-2.47-.558-.673-1.674-1.571-2.233-.898-1.674 0-2.512-.898-3.628-1.796-.279.898-.837 2.021-1.675 2.021-2.512 0-4.186-3.368-5.582-4.49-3.07-2.245-7.256-2.021-10.885-4.041h-6.698c-3.908-1.347-9.211-1.796-11.444-5.838-1.395.674-3.907 1.123-5.023 1.796.279.899.558 1.123 1.116 1.572-1.675 2.245-9.21 6.511-12.001 6.511-.559 0-1.117-.449-1.117-.898 0-.674.837-.898.837-.898-.558-.898 0-.898 0-1.347 0-2.47 1.675-4.491 5.303-5.613v-1.123h-1.395c-2.791 0-10.885 6.287-10.885 10.328v1.796c0 2.694-2.512 3.592-5.303 4.714-1.675.674-1.954 1.796-3.07 2.919-1.675 2.245-5.861 3.368-7.815 5.164-1.675 1.796-6.14 2.918-9.769 3.367-4.466.674-6.698 5.613-11.722 4.266 1.395-2.245 3.628-1.347 5.86-2.47 1.396-.898 2.513-3.143 3.908-3.816 1.954-1.123 4.466 0 5.862-1.796 1.953-2.47 6.698-4.49 9.768-6.287 2.791-1.796 2.791-5.163 5.582-6.959h-1.953c-1.675.673-2.512 1.571-4.466 1.571-1.396 0-1.954-.673-3.35-.898-.278.898-.837 1.347-.837 2.021-2.79-1.123-3.628-1.796-5.86-3.143-.28.673 0 1.347 0 1.796h-1.396c-.838 0-1.396.898-1.954.898-.837 0-1.117-2.021-1.117-2.919v-2.245c0-.449 0-1.796-.837-1.796s-1.954 2.021-2.512 2.021c-1.674 0-7.257-4.266-8.094-5.388.558 0 1.117-.449 1.675-.449-.837-2.47-4.745-3.144-4.745-4.94 0-3.367 6.42-6.286 8.931-6.286 1.117 0 9.21-3.143 9.21-4.714 0-.898-1.953-2.47-1.953-2.695 1.116-.673.837-.673 1.675-.224v-1.796c-1.117-.225-1.117 0-1.675 0-1.954 0-2.512 2.02-5.303 2.02-2.512 0-3.35-1.122-5.024-.898h-6.42c0-1.796-1.674-2.245-1.674-3.143 0-.449.28-.898.28-1.122-1.954 0-3.07-.674-3.629-1.796 3.07-1.796 7.815-3.143 10.885-5.164h2.233c0 3.817 1.954 2.694 4.466 2.694 1.674 0 1.953.449 3.349 0-1.117-3.816-3.629-4.041-7.257-5.613-.837-.449-2.512-4.041-3.628-4.714-1.396-.898-6.42-1.796-6.42-2.47 0 0 1.675-2.918 1.675-3.143h6.699c3.628-4.714 8.93-8.98 15.35-11.001 1.675-.449 2.791.449 4.466-.224 1.954-.674 3.07-3.143 5.303-3.143 1.675 0 2.233 1.347 3.628 1.796-.558.673-.837.898-1.116 1.571 1.116.225 2.512-.673 3.07-1.571 1.395.449 1.675.898 2.791 1.122h6.14c1.396.898 1.954 1.572 3.629 2.245h9.21c2.512 2.245 9.769 2.919 13.676 2.919 2.233 0 3.629-.898 5.582-.898 3.629 0 4.466 1.347 7.536 2.245v-.224c1.116.224.558.449 1.396 0 0 .449 1.395 1.347 1.674 1.571 5.024 2.919 10.327 3.592 13.397 3.592 1.117 0-4.465-2.694 3.349-2.918 1.117 0 .559-3.593 3.629-.898 1.116.898 4.186-1.347 5.582-1.572 3.349-1.347 4.745-1.572 8.373-2.245.279.898 1.116 1.572 2.233 1.572 2.512 0 1.675-3.368 4.186-3.368.838 0 3.908 5.164 6.141 5.164 2.512 0 2.512-2.47 4.745-2.919.279.898 1.674 3.143 2.791 3.143 1.953 0 2.791-1.571 5.303-1.571 7.256 0 10.885 5.837 18.42 5.163 6.978-.449 6.42-1.347 9.769 3.143-.837.674-4.466.225-4.466 1.347 0 .449 0 2.021 4.745 1.796 2.512 0 4.187-1.122 6.699-1.122h7.815l1.674.898c1.954.898 2.512 3.816 5.024 3.816.558 0-.837-2.694-.837-3.367 0-4.041 6.14-.898 5.582-4.715-1.396.898-4.745 1.796-6.42 1.796-.837 0-1.395-.449-1.395-1.347 0-2.469 7.257-2.694 9.489-3.143 1.675 4.715 9.211 6.96 15.63 6.96 6.978 0 8.094-.225 10.327 0 0-2.47.838-3.817 3.07-3.817 1.675 0 5.024.898 5.303 1.347.838 1.347-2.232 5.164 1.675 4.041 0-5.612 7.815-3.367 6.419-8.082-.837.449-1.674.674-2.512 1.123 0 0 .838-2.694.838-3.592 0-4.042-8.094-1.572-8.094-5.389 0-1.571 1.674-1.571 1.674-2.694 0-1.122-.837-1.796-.837-2.918 0-1.796 1.954-1.347 3.349-1.796 0-1.123-1.116-2.694 1.117-2.47 4.744.225 7.256 2.47 7.536 6.062 0 1.796 3.628 1.571 3.628 3.816 0 1.572-2.233 2.245-3.07 2.695 1.395 1.796 4.186.673 6.14 1.796-.558.449-.837.898-1.116 1.347 2.512 1.122 2.791 2.469 2.791 4.49 3.628 0 1.395-4.939 4.744-4.939.838 0 4.466 3.367 4.466 4.041 0 1.796-1.954 1.347-1.954 2.918 0 1.347 3.629 6.735 6.42 3.368 1.674-2.245 1.395-3.592 2.233-5.613.558-1.122 3.349-1.122 3.349-2.245 0-1.122-1.675-1.571-1.675-3.143 0-1.347 1.675-2.245 3.07-2.245 1.117 0 1.954.674 3.071.898 5.023 0 3.907 2.919 7.814 2.919 0 2.02.559 1.796 0 2.918-3.907 1.796-2.232 3.592-2.232 4.49 0 .674 2.791 1.796 2.791 2.919 0 1.571-6.141 6.511-6.978 5.388-1.396-2.245-1.954-.224-1.395.674-2.233 0-2.792.898-3.908.898-1.675 0-2.512-2.245-5.303-2.245-.837 0 .837 2.02.837 2.469 0 1.347-3.628 3.817-5.303 3.817-2.232 0-3.907-1.796-5.303-2.694h-2.232c1.674 3.592 5.861 2.918 10.047 3.816v1.796c-1.953 1.347-3.628 4.266-6.419 4.266h-2.791c-1.396 0 0 3.143-2.512 2.47-9.769-2.919-6.14-.449-7.257-.898 1.675.898 6.42 1.122 6.42 2.918 0 2.694-3.629 1.572-5.582 2.245-.838.449-3.071 4.939-3.908 5.837-2.791 2.694-4.186 5.389-4.186 10.103 0 3.368.558 3.817 0 5.164 1.116-.225 1.674-1.123 3.07-1.123 2.512 0 4.465 6.511 4.465 9.205 1.675 0 2.512-1.796 4.466-1.796 1.675 0 4.466 2.021 5.303 2.245 5.303 2.021 10.327 3.817 14.793 6.96h7.814c3.35 2.02 2.791 4.939 2.791 8.756 0 3.367 4.187 6.959 7.257 9.204 1.117.898 2.233-1.347 3.629-1.347 0-1.347 1.674-2.02 2.232-2.694-1.674-2.02 0-8.307-4.186-10.327 2.512-.449 9.768-5.613 9.768-7.858 0-7.633-4.186-9.205-6.977-13.695 1.674-.673 5.024-1.347 4.466-4.939-.28-1.796-3.908-4.266-2.512-5.164 3.907-2.469-.28-4.041-.28-5.163 0-2.021 1.675-2.919 3.629-2.919 3.349 0 5.582 2.021 8.931 2.021 1.675 0 1.675-1.123 3.349-1.123 3.35 0 4.187 4.041 7.536 4.49 0 4.266 6.42 2.021 6.978 5.164.279 2.47 1.116 8.082 3.349 8.082 1.396 0 1.954 2.47 3.908 2.47 3.07 0 6.977-4.266 6.977-6.062 0-1.571 1.954-2.694 2.791-3.143.558.449 1.675 1.572 1.954 1.572.279 3.143 5.582 3.816 4.186 6.286-1.116 2.02 2.792 4.49 3.908 4.939-.279 1.122.837 2.02.837 3.143 0 1.347-1.116 1.796-1.674 2.021 1.674 1.122 3.07 2.694 5.861 2.694v.449c0 4.041 6.14 5.163 8.931 4.939 0 .673 1.117.673 1.117 1.347-.838 2.245-7.536 3.143-9.769 4.265 0 .225.837.449 1.116.449 2.791 0 8.653-2.02 11.444-3.592v1.347c1.395.674 0 1.796.837 1.796 1.116 1.797 1.954 2.919 1.954 5.613 0 3.817-9.769 4.266-11.444 6.286-3.628 4.49-6.977 2.47-12.838 2.47-4.466 0-7.257-.898-11.723.673-2.512.898-1.395 1.796-3.07 3.368-2.512 2.47-5.303 1.572-6.698 4.715 3.628-.449 6.14-4.041 11.443-4.041 2.512 0 6.14-.449 6.14 1.796s-4.466 2.918-5.024 3.816c1.117 0 2.512.449 3.07.449-.279 1.123-1.116 2.021-1.116 2.694 0 2.919 5.582 6.062 8.931 6.062.838 0 3.908 0 3.908 1.347 0 .898-8.373 4.041-8.932 4.041-2.512.674-4.744 3.817-5.582 3.817-.837 0-2.512-1.796-2.512-2.919 0-2.469 4.187-4.49 6.978-4.714-1.954 0-1.675-.225-1.675-1.797-1.953 0-1.953 1.572-2.791 2.246-1.116.673-4.186.224-4.744.224-.28 0-.838.225-1.117 0v.674c.279.224.279.673.558.898-.837 1.347-2.232 2.02-3.907 2.02-1.396 0-1.675-.673-2.791 0-1.954 1.796-6.14 3.143-6.14 7.633 0 .449 0 .898.558 1.123 0 .673.558 2.021 1.116 2.021.279 0 1.396-.898 1.396-.898v.898c-1.396.449-3.629.898-3.908.449-2.512 1.796-6.419 1.122-8.931 2.469h1.116c1.117 0 2.233-.673 3.071 0-1.675.674-2.792.674-4.466.674-.279 0-.837-.225-1.117-.225-.279.225-.837.449-.837.898 0 .674 1.117 1.347 1.117 1.347-.28.898-2.512 4.939-3.35 4.939-.279 0-.558-.673-.837-.898l-.558.674c.279.898 1.116 1.347 1.116 2.245 0 .673-2.512 4.715-2.791 4.715-.279 0-.558-.449-.558-.674v-1.347c0-.898-1.116-2.694-1.396-3.817-.279.674 0 1.572 0 1.572 0 .898.559 2.918.559 4.041 0 1.123-.838 1.123 0 1.796h.837v1.123c0 .898-1.117 1.347-1.675 1.347.558.898 1.117.898 1.675.898-.279 1.347-.837 1.122-1.954 1.122v.898l1.396.898c-.279.449-.838 1.123-1.396 1.347-1.395.225-1.954 1.123-3.07 1.347-1.395.449-1.396.898-1.954 1.572l.279.224c-5.582 3.143-12.838 5.164-12.838 13.695 0 3.817 3.349 4.939 3.349 8.756v.674c.279 1.347 1.395 2.469 1.395 4.714 0 2.47-.558 4.715-2.512 4.715-1.674 0-1.674-1.796-2.512-2.919-1.395-1.796-2.79-2.469-3.628-4.265-1.954-3.817-.558-10.777-5.861-10.777-1.116 0-1.675 1.572-2.512 1.572-2.233 0-3.628-2.694-6.419-2.694-1.675 0-1.954.898-3.071.898-.279 0-.837-.674-.837-.898-1.954.449-4.465.224-6.419.898 1.116.449.837.449 1.674 0 0 1.796-1.116 2.694.28 3.816-3.35 1.572-6.141-2.245-8.653-2.245-.837 0-1.116.898-1.674.898-1.396 0-1.954-1.122-3.35-1.122-3.628 0-5.303 2.918-6.698 4.266-.837.898-1.954 0-3.349.673-2.791.898-4.187 4.041-4.187 7.633 0 .225.558.898.558 1.123h-.279v.224c.279.674.558 1.123.558 1.796 0 2.021-.837 2.919-1.116 4.715v6.511c-.279.898.837 1.796.837 2.245.558 1.122 0 1.796.279 2.694.559.898 1.954 2.469 2.791 3.367 2.233 2.021 2.233 4.042 5.303 4.94 1.117.449 1.117 1.347 1.954 1.347 2.233 0 4.187-1.572 6.699-1.572 1.395 0 1.674.674 2.232.674.838 0 1.675-1.347 1.675-1.796.558-1.348 2.512-2.919 2.512-4.715 0-3.368 3.908-4.49 7.257-4.49 1.116 0 1.953.224 2.512.449.558.224 1.953.224 2.791.224v1.123c0 1.571-1.954 3.816-1.954 5.837 0 1.796-.837 2.694-1.396 3.817v-.898h-1.953v5.612c0 1.123-1.396 1.572-2.233 2.245v.674c0 .898.837 1.347 1.395 1.347 3.908 0 7.257-.674 11.444-.674 2.791 0 3.628 2.021 5.861 2.47v1.796c0 1.123 0 4.041-.837 5.164v7.184c0 2.469 2.512 3.592 4.465 4.49 1.396.674 1.396 2.694 3.349 2.694 3.071 0 4.745-2.245 7.536-2.245 3.35 0 4.745 2.245 6.699 3.817 0 0-.279.449-.837.898.279-.225.837-.449.837-.898.837.224.558.224 1.395 0v-.674c0-.224.559-.673.838-.673 0-1.123 1.116-1.572 1.953-2.021.838-.449.838-2.021 1.117-2.919.558-1.796 1.674-2.245 3.349-2.694 2.791-.898 4.745-1.347 7.815-2.245 1.675-.449 1.954-2.245 3.349-2.245.558 0 1.117 1.347 1.117 1.347 0 .898-.838 1.347-1.117 1.347-.279 1.796-1.116 3.817-1.116 4.715 0 1.347.558 3.592 1.954 3.592.558 0 1.116-1.347 1.116-1.796 0-1.347-1.396-2.245-1.396-3.592 0-1.796 1.954-1.572 3.071-2.245h2.791c-.559-1.347-2.233-.898-2.233-2.245h2.233c.558 1.796 3.07 2.469 5.024 2.918 0 1.123.837 2.021 1.395 2.021h6.419c0 1.122 1.396 1.347 2.512 1.347 1.675-.225 3.07-.225 3.629-1.572 0-.449 2.512-.449 3.07-.673 1.116 0 3.349.449 3.349.449-.558.449-1.395.449-1.675.224v.898c.838 1.572 3.35 2.021 5.303 2.47 1.675.449 1.117 2.245 1.675 3.817h3.349c2.233 2.245 3.35 1.796 4.745 4.714.279.449 1.117.674 1.675.674.837 3.367 5.861 2.918 9.21 3.592h3.07c.838.449 2.791 1.347 3.908 1.347v.224h.837c1.954 0 4.466 3.817 6.42 4.266 0 1.347 1.674 5.164 2.232 6.286.559 1.123 2.233 1.123 2.233 2.245-1.954 2.245-5.303 3.592-5.303 6.96 0 1.123 1.117 1.123 1.675 1.347 1.116.674 1.674 1.572 1.954 2.694h2.791c0 .449.279 1.347.558 1.347.558 0 .837-.898 1.395-1.347 1.117-1.796 2.512-4.265 4.466-4.265 2.233 0 6.419 2.245 8.094 3.143.837.673 1.954.449 2.233 1.347.279 1.122.279 1.796.279 2.918h.837c1.117-.449 1.675-1.347 2.791-1.347 2.512 0 3.07 1.796 5.303 1.796l4.466-.673c2.233.449 4.466 1.347 5.582 1.796 1.116 1.796 4.745 4.939 6.699 5.612 1.674.449 2.791-.224 4.465.225 2.791.673 3.349 3.143 3.349 5.388zm-155.74-175.789c0 .449.559.674.559.898 0-.224-.28-.449-.28-.673.838 0 .838-.225 1.396-.225 3.628 0 11.164 1.123 11.164-3.143l.279-.224-.279.224c-3.07 0-8.652 1.347-11.443 2.245 0 .225-1.396.449-1.396.898zm-.279 4.041c.838-.449 1.396-.673 1.954-.898-.558.225-1.396.449-1.954.898zm-3.07-.449c-1.675 0-3.628-.224-4.466.898-.558.45-.558 1.123-1.674 1.123-.838 0-1.396-.898-1.675-1.347 0 1.123.558 2.919 1.675 2.919 2.512 0 6.419-1.797 9.21-3.144-.837.225-1.395-.449-3.07-.449zm-29.864-23.797c-1.117 0-6.14 3.367-8.931 6.735h1.674c.837-.449 1.396-.674 2.233-.898.558 1.122.837 1.122 1.675 1.122 1.953 0 2.232-1.571 3.349-1.571 1.395 0 3.628-2.245 5.303-2.47 0 1.572-.837 2.021-1.396 2.919h2.512c0 .898 1.117 1.347 1.954 1.347 1.675 0 1.954-1.123 3.349-1.123 2.791 0 4.466 1.572 6.978 1.572v1.347c-1.675.674-4.466 0-5.303 0-2.512 0-7.536 3.143-7.815 5.613 1.116-.674 1.675-1.572 2.791-1.572-1.954 2.47-3.07 8.531-3.07 11.45 0 1.347 1.395 2.245 2.791 2.245 1.675 0 2.512-3.592 2.512-4.939v-3.817c0-1.571 0-4.939 1.395-5.163 4.466-.225 2.233-3.143 4.466-3.143.837 0 5.303 2.02 5.303 3.367 0 1.572-.837 2.694-1.395 4.266 1.395 0 1.116-.449 2.511-.898.559 1.796.559 2.694 1.675 3.592 1.675 0 2.791-5.613 3.349-7.409.558.449 1.954 2.021 3.35 2.021.837 0 1.116-.674 1.116-1.347 0-1.796-1.675-2.919-3.349-3.817h-3.07c-3.071-1.796-6.699-1.347-9.49-4.041-.837-.898-.279-2.021-.837-3.592-.279-.449-5.303-4.49-6.141-4.49h-.837v1.571c-.558-.449-1.395-2.469-2.791-2.469-1.116 0-.837 1.796-1.954 2.469-1.674 1.123-2.512 1.123-3.907 1.123zm-163.555-49.616c-1.117 0-1.954-.449-3.07-1.347.837.673 1.953 1.347 3.07 1.347zm11.722 2.469c-1.674-2.02-3.349-3.367-5.861-5.837 2.512 2.245 4.187 3.592 5.861 5.837zm6.699 9.43c.279.224.279.224.558.224-.279.225-.558 0-.558-.224-1.396-1.347-1.954-2.919-2.512-4.491.558 1.572 1.116 3.368 2.512 4.491zm183.65 126.846c0 .898 0 2.245 1.117 2.245.279 0 .558-.449.558-.674 0-.898-.279-1.571-1.396-1.571.279 0-.279-.225-.279 0zm0-6.735c-.558 0-1.395.449-1.674.898.837 0 1.953.224 3.07 0-.279-.225-.558-.898-1.396-.898zm3.629 1.571c0 .225.279 1.123.558.898l-.558-.898zm14.513 18.41v-1.123c-.558.674-1.395 1.347-2.512 1.123v.673c0 .225.279 0 .558 0 .838 0 1.675-.224 1.954-.673zM150.573 206.483c.558 0 .837-.449.837-1.123 0-2.469-3.349-2.918-2.791-6.061-2.512-.449-3.07-.449-3.07 2.245 1.396-.898.837-.449 2.512 0-.279.673 0 1.571 0 2.245 0 .224 1.396 2.694 2.512 2.694zm-8.652-11.45c-.279.225-1.117.449-1.117 0-.558-1.796 0-1.796 0-4.939-1.674.898-.558 0-2.791 0-.558 0-1.395.224-1.395 1.122 0 1.796 1.395 3.144 3.349 3.593 0 1.796.558 3.143 1.954 4.714.837-1.347-.279-2.918 0-4.49zm111.362-66.903c2.233 0 2.512.449 4.745-.898-2.233-1.796-12.28-4.266-12.28-8.082 0-2.919-3.35-5.613-3.35-9.879 0-1.122 2.512-2.02 2.512-3.816 0-1.796-1.953-2.47-4.186-2.47-1.954 0-3.629.898-3.629 2.021v1.122c-1.953.898-1.116 0-3.349 0-.837 0-2.233.674-2.233 1.572 0 1.122 1.675 6.511 2.791 8.082-.558.449-.558.898-1.674.898-2.233 0-1.396-2.918-1.954-4.265-.558-1.348-2.233-2.695-3.908-3.368h-2.511c.279.673.558 1.122.558 2.02-1.396.45-2.233.674-3.629.899-.837-2.021-1.953-3.593-5.303-3.593-1.953 0-2.791 1.572-3.628 2.021-.558-.674-.279-4.041-1.954-4.041-4.465 0-15.35 4.265-15.35 9.878 0 .674 2.232 2.245 3.628 2.245 1.675 0 2.233-.449 4.187.225-1.396.898-4.745-.225-4.745 2.469 0 3.143 6.698 2.021 9.21 2.021h6.42c1.116 0 2.232.673 3.07 1.122-1.396 0-2.233.225-3.908.225-5.024 0-8.931.673-11.722 2.694.837 1.347 3.07 4.041 5.582 4.041 1.675 0 5.303-.449 6.699.674 1.395 1.122-.001 2.918 2.232 2.918h10.885c2.512-1.796 5.582-.898 8.653-2.245 1.674-.898.837-2.02 3.07-2.02 3.628 0 5.303 3.592 9.768 3.592 3.071 0 5.862 0 6.978-2.021-.558-.449-1.116-.673-1.116-1.571-.559 0-1.675 0-1.675-.898-.558-1.123 0-1.572 1.116-1.572zm-75.916-11.225c.279.673 1.116 2.245 1.675 2.245.558 0 .837 1.122 1.674 1.122.838 0 9.211-2.918 9.211-3.816 0-2.694 5.303-7.634 8.931-8.756 1.116-.449 7.536-1.347 7.536-2.47 0-2.694-5.861-4.939-8.373-4.939-1.675 0-3.07 1.347-4.187.449-2.512-.224-3.907-1.571-6.419-2.245-2.233-.673-3.349.898-4.745.898-2.791 0-4.187-1.122-7.257 0 0 1.347 1.675 3.143 1.675 4.041 0 4.266-6.14 7.409-6.14 11.45.558 1.123 5.582.674 6.419 2.021zm28.469-31.656c2.232-.449 2.791 0 3.907 0 .558 0 1.954.45 1.954 1.796h2.791c3.628 0 6.14 4.49 11.443 4.49 1.675 0 2.233-.449 2.791-1.571-1.395 0-1.954-.225-2.512-.45 0-.224.838-.448 1.117-.448v-1.572c-.838-.224-3.07-.673-3.07-1.796 0-1.796 3.07-2.694 4.465-3.816.838.449 1.396.898 2.233.898v1.571c0 1.796 2.233 4.266 4.466 4.266 1.116 0 1.674-1.347 3.349-1.347 1.395 0 2.791 1.571 2.791 2.918 0 1.572-2.791 5.164-3.907 5.388-.838.225-7.815-.673-7.815-.224 0 .224-7.815 1.796-8.094 2.02-2.512.899-4.745 1.797-7.815 1.797-1.396 0-3.35-1.123-3.35-1.796 0-1.797 1.675-1.348 3.35-1.348-.838-.898-1.675-1.571-1.954-2.694-.837.225-1.396.898-1.396 1.572-1.953.224-3.628.898-5.023.898-1.675 0-3.35-.898-4.187-.898-.837 0-1.675-.898-1.675-1.796 0-1.123.559-.898 0-1.796 1.117-.225 1.675-1.123 3.071-1.123.558 0 .837 0 1.395.225-.558-.225-.837-.225-1.395-.45v-1.795h2.511c-.558-.225-.837-.225-1.116-.45.558-.673 1.396-1.346 2.512-1.346h.279c-.558-.225-1.116-.45-1.116-1.123zm2.512 3.368c.837.224 1.395.224 1.953.224-.837 0-1.395 0-1.953-.224zm-14.793 2.245c0 .898 1.116 1.347 1.954 1.347 1.674 0 3.349-2.47 3.628-4.041-1.116-.225-5.582.898-5.582 2.694zm17.025-6.96h2.512v-1.571h-4.186c0 1.122 1.116 1.571 1.674 1.571zm-25.677 4.266c1.116 0 1.954.673 3.349 0 .279.449 1.117 1.796 1.954 1.796 1.395 0 2.233-1.347 2.512-2.47 1.954.225 3.907-1.571 4.186-3.592 1.117.674.838 3.368 3.071 3.368l5.302-3.817c0-.898-.837-1.122-.837-2.245.837-.224 1.675-1.122 1.675-1.796 0-2.02-7.257-.225-7.257-.225-1.116-.224-1.116-.224-2.233-.224-3.349 0-3.907 2.919-6.14 4.266-1.954 1.122-3.908 1.347-5.861 2.245-.558.224-2.791 1.796-2.791 2.02 0 .45.837.898 1.116 1.796.837-.224 1.117-1.122 1.954-1.122zm34.33-15.267h5.303c1.395 0 2.233-.673 3.349-1.122-.558-1.572-2.512-2.919-5.024-2.919-1.675 0-8.652 2.47-8.652 4.041.837-.224 1.395-.898 2.512-.898.558 0 1.116.898 2.512.898zm4.744.45c-2.512 0-9.768.224-9.768 2.918 0 1.122 1.954 3.143 3.907 3.143 2.512 0 6.699-1.123 6.42-3.368h-3.35c1.675 0 3.908-.449 5.303-1.347-.558-.673-1.116-1.347-2.512-1.347zm-13.117 3.816c.837 0 1.116-.674 1.674-1.347-.837-.45-4.186-3.143-4.186-.45 0 .674 1.395 1.797 2.512 1.797zm59.728 33.451c0-1.122.279-.224.279-1.796 0-1.347-3.628-.224-4.466-.224.838-1.123 3.908-2.021 3.908-4.266 0-.673-.838-1.122-1.117-1.122h-4.744c-2.791 0-5.303-.449-7.257 1.347 0 .449-.837.673-.837.898 0 1.571 2.232 1.347 3.907 1.571v3.143h-1.675c-1.953 0-3.907-1.347-5.303-1.347v2.021c3.629 3.368 7.257 2.919 10.606 6.062.838.673.838 2.02 2.512 2.02 1.117 0 1.396-1.347 2.512-1.796 3.908-1.347 4.187.225 4.745-6.062-1.116-.224-2.512-.449-3.07-.449zm-23.724-26.491h-1.395c0 .673.279 1.122.279 1.347l-.279-.225v2.02c.837.674 1.674 1.572 3.07 1.123l.279 1.123h1.674c0 .673.559 1.347 1.396 1.347 2.512 0 6.698-1.123 8.652-1.123.558 0 1.117.225 1.396.45-.838.673-3.071.673-3.071 1.795v1.123c-.558.225-.837.674-.837 1.123 0 1.122 3.07.673 3.908.673.279 0 3.07 0 4.744-.674-.558-3.143.838-4.714.838-7.408 0-1.796-.279-2.919-2.512-2.919-.838 0-1.396.898-2.512.898-2.233 0-3.629-1.122-5.303-1.122-.837 0-1.396-.225-2.233.224.558 1.572 2.233 1.572 4.187 1.572v2.47c-3.071 0-3.908-2.47-6.699-2.47v1.347c.558.673 1.396 1.347 2.512 2.02-2.791 1.123-4.466-4.714-8.094-4.714zm18.7 47.595c-.558 0-2.512-.449-2.512.674 0 .449 8.931 3.367 10.606 3.367 1.396 0 1.675-1.122 3.07-1.796-.837-1.571-5.582-5.837-7.536-5.837-2.791-.224-2.232 3.143-3.628 3.592zm16.188-30.982c-2.512 0-3.349 1.572-3.349 1.796 0 .449-.279 1.123 0 1.123h-2.791v2.02c.837 2.245 0 3.817 1.953 5.613v3.368h2.512c1.396-1.347 2.512-1.796 2.791-3.817h-1.674c.837-2.245.837-.898 3.349-.898 3.628 0 5.303-2.47 6.978-4.715 0 0 2.233-1.571 2.233-1.796v-1.571c-4.466.224-7.815-1.123-12.002-1.123zm-37.958-20.205c.837 0 1.675-.674 1.675-1.347-2.512-.898-2.792-3.144-5.862-3.144 0 1.347 2.791 4.49 4.187 4.49zm-.558 14.144c.837 0 1.116.224 2.512.224.837 0 1.674-.225 1.674-1.572 0-.898-.558-1.122-.837-1.796-1.675.674-2.791 1.347-3.349 3.144zm0-27.615c0 .45-.559.898-.838 1.123.838.673 1.675 0 4.187 0-.279.449-.279 1.122 0 1.347-1.396.449-2.512.449-3.628 1.347 1.116 1.122 1.674.898 3.349.898 1.674 0 3.349-.674 3.907.449 2.233-.225 3.35.449 5.582.449 2.791 0 2.512 2.918 5.303 2.918.838 0 2.233-.449 2.233-1.571 0-1.347-2.512-2.245-3.349-3.143.279-.45.837-.898.837-1.123-.558-.673-1.954-2.694-3.628-2.694-.837 0-1.117.898-1.675.898-1.395 0-1.116-2.694-3.628-2.694-.837 0-1.396.898-2.512.898-1.396 0-1.954-2.02-4.466-2.02-1.395 0-2.512.673-3.907.898.279 1.571.558 2.02 2.233 2.02zm10.047 7.184c-.558 0-3.349 1.796-1.116 1.796 1.675 0 3.349 0 3.907-.898-1.116-.449-1.395-.898-2.791-.898zM298.498 96.7h1.396c-.279 2.02 3.628 2.245 6.14 1.796h9.769c1.116-.673 1.395-1.347 3.07-1.571.279.898.837 1.796 2.512 1.796 4.186 0 9.768 0 10.048-4.041 0 0-.838.224-1.675 0 0-.45.279-.898.558-1.123.279 0 .838 0 .838-.224-1.675-2.92-4.745-3.144-9.769-3.144-6.14 0-8.373 2.919-15.072 2.919-3.07 0-5.303-.674-8.373-1.347-.558.449-1.954 1.122-1.954-.674 0-.449.559-.449.838-.673-1.675-1.347-4.745.449-5.303-2.694h4.744c-1.116-1.572-6.698-.898-5.582-3.592h-2.232c-.559.673-1.117.898-2.512.898-4.187 0-5.024-4.041-10.606-4.041-1.396 0-3.629 0-3.629 1.796 0 1.122 7.257 4.04 8.653 4.04.837 0 1.674-.448 2.511-1.122 1.954 2.02 2.512 3.817 4.745 5.837-.558.225-1.395 1.123-1.395 1.797 0 2.245 6.14 5.163 8.652 5.163 1.116 0 3.07-1.347 3.628-1.796zm-15.63-2.47c0-1.571-2.791-3.816-5.023-3.816-2.791 0-2.233 2.694-3.629 2.694-.279 0-1.674.674-1.674 1.796 0 0 6.977 3.143 7.815 3.143 1.953 0 2.511-1.796 2.511-3.817zm.559-16.838V75.82c-1.117.224-.279 0-1.675 0-2.233 0-6.698.224-7.815 1.347 0 0 6.978 1.347 7.536 1.347 1.116.225 1.954-.449 1.954-1.123zm-12.839-4.04c-.279.224-1.117.673-1.117 1.122 0 1.347 4.187.898 8.374 0-.28-1.347 0-2.02 0-2.919 0-2.47-4.187.225-4.187-2.694-1.396 0-3.907-.898-4.187-1.796-1.116.225-2.791.674-2.791 1.796 0 2.47 2.512 3.143 3.908 4.49zm-5.861-11.45h1.953v-2.246c-.837 0-2.791-.224-4.186 0 0 1.123 1.395 1.347 2.233 2.245zm15.35-2.47c-1.116 0-3.07-.674-3.628-1.123h-1.954c.279 3.368 2.791 3.593 6.978 3.593-.837.897-1.675 1.122-2.791 1.571 0 .674 0 1.123.837 1.123.838 0 1.396-.45 2.512-.898.279.673.558 1.571 1.675 1.571 1.395 0 1.674-.898 3.628-.898 1.954 0 3.07.45 5.024.898-1.675.45-9.21.225-9.21 2.245 0 1.796 3.349 2.919 5.303 2.919-.28.449-.838.673-1.675.898.279 1.571 2.791 2.02 4.745 2.02 1.674 0 2.791-.673 2.791-2.694 1.116.674 3.349 2.245 4.465 2.02v-1.57h2.233c-.279-.899-.837-1.123-1.674-2.246.558-.673.837-1.122 1.395-1.796.279 1.347.279 2.245 1.954 2.245 1.675 0 3.349-3.592 5.582-3.816.837-.225 2.233 0 2.791-.674.279-.449 0-.898 0-1.796-1.675-.225-4.745-1.572-5.861-1.572-.279 0-1.954 1.123-1.954 0 0-.673.837-.898.837-1.796s-1.395-.898-1.395-1.796c0-1.347 0-2.02-1.675-2.02h-1.116l.558.898v1.571h-.837c-1.117-1.122-.279-2.47-2.233-3.143-1.675-.673-3.07.45-4.745-.224-1.954-.674-1.395-4.041-3.907-4.94-2.233-.897-4.466-1.122-7.536-1.346 0 1.571 2.233 1.796 3.628 2.47h-1.954c-2.232-.45-3.07.224-4.465 1.122 0 .224 1.116 1.796 1.674 1.796.838 0 2.233-.674 3.35 0-.279.449-.559 1.122-1.396 1.122-.837 0-1.674-.898-3.349-.898-1.117 0-2.791-.224-2.791 1.123s3.628 2.02 5.303 2.47c0 .673-.837 1.57-1.117 1.57zm43.82 99.905c-.558-.449-.279-1.347-.838-2.02-2.232-2.694-6.14-1.572-8.652-4.715-.279.225-.837.449-1.116.898-.558-1.122-1.117-1.571-1.954-3.143-3.349.449-3.907 4.939-3.907 6.96v1.796c0 .673-.559 1.122-1.117 1.571-.279.674-1.674.449-1.674 2.246.837 0 3.349-.449 5.303 0-.28 1.122-.559 2.245.837 2.245.558 0 .558-.449.837-.898 1.675.673 5.582-1.796 5.582-4.266.838.224 4.466 2.919 4.466 2.919h3.349c1.675 0 2.512-.449 3.908-1.347-.838-1.572-3.07-.898-5.024-2.246zm22.886-19.083c0-3.816-7.535-4.714-7.535 0 0 1.347 1.116 2.47 3.07 2.47 1.395 0 4.465-1.123 4.465-2.47zm-27.073 25.594c0 .674-1.674 1.796-2.791 2.919v1.571c1.954-.224 5.024-2.469 6.14-4.041-1.395-.449-.837-.449-3.349-.449zm13.118-55.902c1.954 0 3.07-1.123 4.466-1.123 1.395 0 1.954.898 3.628.898 1.117 0 1.675-.898 2.233-1.796-2.233-1.122-5.024-3.592-8.094-3.592-2.512 0-3.349-.898-6.14-.898-.838 0-1.954.674-1.954 1.796 0 1.347 1.395 1.796 2.512 2.47-1.117 1.796.837 2.245 3.349 2.245zm-2.791 62.637c1.116 0 1.396-1.571 2.233-2.469-1.116-1.347-3.908-1.347-3.908.898-.279-.225 1.396 1.571 1.675 1.571zm22.049-33.227c-.279-.449-1.395-1.796-2.512-1.796-.279 0-1.674.898-1.674 1.123 0 .673.837.898 1.674.898 1.117 0 .838 0 2.512-.225zm-17.025-8.531c-1.396 0-4.187 2.694-2.791 2.694 1.675 0 2.512-1.347 2.791-2.694zm25.957-10.776c.279-2.021-2.512-2.245-3.908-2.245h-3.07c-3.907 0-4.745-4.041-7.536-5.837-1.674-1.123-6.698-1.797-8.931-1.797-2.233 0-2.791 2.919-4.745 2.919-1.116 0-1.395-1.122-2.791-1.122-1.116 0-1.675 1.122-2.512 1.122-.558 0 0-1.796 0-2.245 0-2.47-1.674-6.511-4.745-6.511-4.744 0-12.838 1.347-12.838 5.837 0 1.123 1.116 2.021 1.116 3.144 0 .898-1.675 2.245-2.512 2.245-1.395 0-1.116-1.123-1.116-2.021 0 0-.279-1.347 0-2.02-.559 0-.838-.45-.838-1.123 0-3.368 3.908-3.592 5.303-6.062l-3.907-1.122c-4.187 0-7.257 2.02-9.769 4.265-.558.449 0 2.47-.837 3.143-1.675 1.348-2.512 2.021-2.512 5.164 0 1.123 1.675 3.143 1.675 3.143s5.582.449 6.698 1.123v1.571c-1.954-.224-3.907-.898-5.303-.449.279 1.572 1.954 1.796 2.791 3.368h5.861c.838.898 2.512 2.245 3.629 2.245 5.303 0 14.513-.449 18.421 0 0 .898-.559 2.694.837 2.694 2.233 0 4.186-4.49 5.582-4.49 1.395 0 7.815 5.388 8.931 6.286-.837 0-2.791.449-2.791 1.572 0 .224.558 1.347.838 1.347 1.674 0 2.232-1.347 3.907-1.347 2.512 0 10.327 5.612 10.327 8.755 0 1.572-2.512 4.266-3.628 5.164-.838.898-3.071-.224-3.071 1.796 0 .898 1.675 2.021 2.233 2.47-1.395.898-4.465 1.571-5.303 1.571h-5.303c-1.674 0-4.745 2.021-4.745 3.143 0 1.572 3.908 3.143 5.303 3.143 1.396 0 2.233-1.796 3.629-1.796 1.116 0 .837.898 1.954.898 1.116 0 1.674-.898 2.511-1.796 3.35 2.021 5.303 4.266 9.49 5.838-1.954 3.816 5.303 3.592 8.094 5.163 3.07 1.796 5.303 1.123 8.652 2.694.279.225.558 1.347 1.117 1.347.558 0 1.116-.673 1.116-1.347 0-3.143-6.698-5.612-8.931-8.082h1.674c1.396 1.572 8.932 4.49 11.165 4.715.558-1.347 1.674-3.592 1.674-4.715 0-1.347-2.233-1.796-2.233-2.694v-2.245h-1.953c-.279-2.021-1.117-.674-3.35-1.347-.837-.449-2.512-2.919-2.512-4.49h-1.674v-1.347c.558.449 1.116.224 1.674 0v-1.347c-1.116.224-1.395.449-2.511-.225 0 0 1.674-1.347 2.511-1.347 5.862 0 6.141 7.858 12.002 7.858 1.395 0 1.675-2.021 1.675-3.143 2.232 0 2.791-1.123 2.791-1.347v-1.572c1.674 0 3.628-.449 3.628-2.02 0-1.797-.837-2.695-3.349-2.695-.558 0-1.675 0-2.233-.673-.837-2.245-1.675-.674-4.187-.674-1.674 0-2.512-2.02-2.512-4.041-2.512-.224-5.861-1.347-6.14-4.041-1.675 0-2.233-.449-3.349-.898 1.116-1.796 1.954-1.796 3.907-2.694-.279-.673-1.116-1.122-1.674-1.122-1.117 0-1.675 0-3.629-.225.838-1.347 2.512-1.347 4.187-1.571-.837-1.572-1.675-2.695-3.349-2.695h-2.233v-2.02c-3.349-.225-5.024-2.021-8.373-3.143zm-25.678 43.779c1.116.898 1.675.898 2.791 0-1.395-.674-1.675-1.572-2.791 0zm-20.095-14.144c0 .898.837 1.796 2.512 1.796-.838-.898-.838-2.47-2.512-1.796zm-22.05-103.049h3.629c-1.396.45-2.233.898-3.35 2.02.28.225 1.675.899 2.233.899 2.233 0 2.512-2.02 4.745-2.02.837 0 1.396 0 2.512.224-3.07.898-6.14.673-7.536 3.592.837-.225 3.349 0 5.582 0-1.674.224-2.512.673-3.349 1.347.837 1.122 4.187 2.47 6.698 2.47 1.117 0 1.675-.674 2.512-1.123h1.675c-.837 1.571 2.512 2.245 4.745 2.245.837 0 1.395-1.123 2.512-1.123 1.116 0 1.954.898 4.186.898 3.908 0 6.699-.898 8.932-2.694h1.674c-1.395 1.796-3.628 2.245-5.861 3.143h-5.582c-.279.45-.837.674-.837 1.123 0 .673 3.907 2.919 4.465 3.592-3.349.449-4.465-2.919-7.535-4.041-2.512-.674-5.024-.225-6.42-.225-.558 0-1.116-.224-1.674 0 .279.898.558 1.347 1.674 1.347-1.116 0-3.07-.224-3.07.898 0 2.021 8.094 2.021 8.094 5.838 0 3.143-3.628 2.245-6.698 3.143-1.675.673-2.512 1.796-3.629 3.816v1.347h1.675l1.116-.898h1.675c0 2.694 3.628 4.266 5.303 5.838h-2.233c-2.233-1.348-3.628-3.144-7.536-3.144-1.116 0-3.07-.449-3.07 1.123 0 2.02 2.512 2.47 3.907 3.368-2.511 1.796-8.931 0-8.931 4.714 0 .45.279.898 1.117.898.558 0 1.116-.673 1.395-1.122 4.187 1.347 7.536 2.245 11.443 2.245 1.675 0 2.512-1.123 3.629-1.123h8.931c2.512 0 1.116 1.796 3.907 1.796 2.792 0 9.769-2.02 9.769-4.04 0-1.123-1.395-.899-1.674-.899h-3.071c0-4.041 5.024-1.796 5.024-5.388 0-.674-.558-.898-.837-1.796h6.14c1.954-1.347 2.791-4.266 5.303-5.388-.837-1.572-1.954-2.02-3.628-2.694 2.233.224 3.628.449 3.628-2.02h-2.233c1.954-1.572 5.024-1.797 7.536-2.47 1.954-.674 4.466.898 6.141-.45 3.628-2.47 6.419-7.184 11.164-8.755 4.465-1.347 11.164-2.919 13.955-5.613-3.07-.224-7.815.898-8.931-.449 6.419-2.919 12.28-.898 17.025-4.49.837-.674 3.07-.225 3.07-1.796 0-2.02-6.419-1.572-7.815-2.919-.837-.673-.837-1.571-1.954-2.02-.837-.225-1.395-.45-2.232-.898l-9.769 2.694c.837-.225 1.395-.45 2.233-1.347-2.512-2.245-12.839-2.02-15.63-2.02h-3.349c-1.117 0-1.675-.899-3.629-.899-1.674 0-2.233 2.02-3.907 2.02-1.675 0-2.512-1.346-4.466-1.346-.558 0-1.116.449-1.395.898h-13.956c-1.116 0-2.232.449-2.791 1.571-1.674 1.347-.279.225-2.512.225-3.628 0-5.023 2.47-6.14 5.163-1.116-.449-5.861-2.47-8.094-2.47-2.512 0-.837 2.47-4.745 2.47 0 .45-.558.898-.837.898h-2.512c-3.628 0-11.443 1.347-12.001 4.266h2.512c.558.225 1.395-.224 1.953-.449zm235.285 78.802c-2.512-.898-13.118-.449-13.118-3.817.559-.224 2.791-.449 2.791-1.571 0-.898-1.116-1.347-1.116-2.919.558.449 1.116 0 1.675 0 5.023 0 3.628 5.837 9.489 5.837 1.396 0 3.349-.224 3.349-1.347 0-6.735-7.815-8.531-12.001-12.797v-1.796c.279 0 .558.225 1.674 0 .838 2.245 4.466 5.164 6.699 5.164 1.396 0 1.675-1.796 1.675-3.368 0-3.143-5.303-2.02-6.699-5.163h1.675c.837 1.347 2.233 1.796 3.628 2.694.837-2.47 5.861-.898 6.699-4.49-.559-.225-1.117-.898-1.117-1.796 2.233-.225 4.745-1.347 5.303-3.143-1.395-.45-4.745-.45-4.745-2.246 0-1.571 1.954-1.571 3.908-1.571-.558-.674 0-1.572 0-2.47 0-1.796-1.675-2.47-1.675-4.939-1.674 0-3.907 0-3.907-2.02 0-.898 1.116-1.796 2.512-1.796 2.233 0 8.373 1.122 8.373-1.796 0-2.695-4.745-2.245-5.303-4.042.837 0 1.674-.449 2.233-.673-1.117-.898-2.791-2.245-4.745-2.245-1.396 0-2.233.673-3.628 0 .837-1.123.558-4.041 1.953-4.94 2.233-1.57 4.745-2.469 4.745-4.938v-1.796c2.233-.674 5.303-1.123 5.303-2.92 0-1.122.837.225 0-1.57 2.233-.45 5.303-.45 5.303-3.817-.837.673-1.116.673-2.512 0 5.303 0 7.815-3.368 12.002-4.715.837-.224 3.07-1.347 3.07-2.694 0-1.572-5.582-4.041-7.257-4.041-1.116 0-1.954 0-2.512 1.571h-5.861c-1.954.898-2.233 1.572-4.466 2.245-.558.225-2.791-.449-2.791-.449h-8.094c-1.954 1.348-8.094 8.98-11.164 9.879.279-1.123 8.094-8.98 8.094-10.103 0-1.796-.837-3.592-3.07-3.592-3.908 0-11.164 6.51-14.234 6.51-.838 0 4.186-4.939 4.465-5.837-2.233-.898-22.328 1.572-24.282 0l26.515-1.347c3.349-1.122 11.443-.673 12.002-4.714-3.071-.674-7.257.224-10.606-1.123C513.129 32.49 507.827 28 500.57 28h-17.584c-6.14 0-10.885 3.143-16.746 3.143-1.675 0-3.07-.224-4.745 0v1.347h-2.512c-2.791-.898-4.465-.898-7.536-.898-3.907 0-6.977.898-10.326 2.245.558.898 1.674.898 2.512 1.796-1.117.225-4.745-.449-4.745 1.347 0 2.245 5.024 3.817 6.977 4.715h-5.303c-3.07-1.347-5.861-4.041-10.885-4.041-1.116 0-3.07.224-3.07 1.571 0 .898.558 1.572.837 2.47h-1.674c-2.512-.898-4.466-.674-5.861-2.919l-1.117 1.123c0 .898.558 1.571.558 2.245-2.232 0-2.791-3.592-5.023-3.592-3.35 0-5.583 1.796-8.932 2.694-4.465 0-6.419 1.122-11.164 1.796-3.907.449-.558 5.837-4.745 5.837-1.116 0-2.233-.224-3.07-.898-2.512 2.245-7.815 5.164-12.001 6.286-.559.225-2.512.674-2.512 1.796 0 2.245 6.977 2.02 8.931 2.245 0 2.919-1.395 4.94-3.349 6.062-2.512 1.572-6.978-.224-10.327.898-2.233.674-3.628 2.02-5.861 2.694-2.512.898-6.978-.449-6.978 3.143 0 1.796 11.443 4.94 12.002 4.94h4.186c.558 0 .838-.674 1.117-1.123h4.744c-.279 1.347-.279 1.796-1.674 2.47h-6.978c-.558.898-.837.898-2.233.898h-3.07c-.837 0-3.349.673-3.628 2.245 2.233.898 1.674 0 4.186 0 1.396 0 2.791 1.347 4.745 2.02-.558 1.123-1.395 1.123-2.512 1.796 1.396 1.796 5.303 2.694 7.815 2.694.837 0 .837.45 1.675-.449l-1.117-.898c.559-.224 1.117-.449 2.512-.449 1.396 0 2.512.898 3.629.898 1.674 0 2.232-1.571 3.907-1.571h3.628c13.397 0 22.05 10.103 25.399 19.981v1.796c1.116.224 3.07.224 3.07 2.02 0 2.694-2.512 2.47-2.512 4.94 0 1.796 1.117 2.02 3.349 2.02 1.675 0 1.954-2.02 3.071-2.02 3.907 0 5.023 5.388 8.652 6.51 0 .674 0 1.796-1.117 1.796-2.791 0-4.744-1.796-7.256-1.796-1.117 0-.838-.449-2.233 0 .558 3.368 9.21 3.817 13.118 4.939-1.117 3.144-2.791 4.491-3.629 7.858-1.674-.673-1.674-.673-3.349.225v.224c-2.512 1.796-3.07 4.266-4.745 6.286v2.694c.838-.673 1.675-.449 2.512 0-.279 1.123-1.116 1.796-1.116 2.919 0 3.143 3.349 4.49 3.907 6.511.279 1.122.838 3.367 1.117 3.816 1.953 1.123 2.512-1.796 4.465.449-.837.898-1.674.674-1.674 2.245 0 3.368 4.465 8.532 6.977 10.552.28.225 0 1.796.838 2.245 1.953 1.347 3.07.674 3.907 3.143 1.396-.224 3.349-1.571 5.024-1.571 3.07 0 2.791 5.163 5.861 5.163.838 0 .838-.673 2.512-.898.279.674.558 1.123 1.396 1.123 3.349 0 1.674-6.062 4.465-7.409-.279-1.347 0-4.265 0-6.286 0-3.368 5.582-2.02 5.582-6.062 0-1.347-1.395-1.796-1.395-2.694 0-.673.558-.898.837-1.347 0-.449-.279-.898-.279-1.122 0-3.817 6.42-2.694 8.931-5.164 1.117-1.122.559-2.245 2.512-2.918v2.245h1.675c2.512-1.796 6.699-1.123 8.931-3.593 1.675-1.796 1.954-4.041 4.187-5.837l3.07-2.02c0-.898 1.116-1.347 2.512-2.021h5.582c4.466-1.796 8.094-1.571 12.281-2.918 3.349-1.123 4.744-4.266 8.652-5.613 3.07 2.02 4.187 1.796 6.14.449zM418.792 130.6h2.791c1.954 0 4.466-.449 4.745-2.245-3.07-.899-4.187-4.042-7.257-4.042-1.116 0-2.512.674-2.512 2.245-.279 1.347 1.117 3.817 2.233 4.042zm-5.024 90.7c0-.449-.279-1.122-.837-1.122-1.954 0-2.791 2.02-3.628 3.367-1.675 2.694-3.07 7.858-6.42 9.43 0 .449.558.673.838.673v.674c0 .224-2.233 1.796-2.233 2.245 0 .449.558 1.122 1.116 1.122 1.396 0 1.954-.673 3.629-.673 1.395 0 1.953.898 3.628.898.837 0 1.675-.225 2.512-.674.558 1.123 2.233.449 3.349.449-.279.674-1.395.674-1.395 1.796 0 .225.558 0 .837 0 1.395 0 2.512-1.796 3.628-3.143.838.898.279 3.143 1.117 3.143.279 0 .558.225.837.225 0 .449.279 1.347 1.116 1.347 1.117 0 1.954-1.347 1.954-2.694 0-1.123-.837-1.123-.837-2.47-.838.449-.279.674-1.675.674 0-.898-.837-1.347-.837-1.796 0-.449 1.116-.674 1.116-1.796-.558 0-1.116.224-1.395.449v-3.817c-.558.449-2.233.449-3.629 0l-1.395.449v-.673h-2.233v-1.123l.558-.674c-.558-.449-1.116-.673-1.953-.673-.838 0-.838.674-1.675.898v-1.123c1.395-1.571 3.907-2.918 3.907-5.388zm-86.801-5.837h.558c0-1.571-1.954-2.02-4.186-2.02v.898c.837.673 2.512 1.122 3.628 1.122zm-156.578 14.818c1.954 1.122 6.141 4.265 8.932 4.265h1.116v-1.122c-3.07-2.919-6.14-5.837-11.164-7.409-.837-.225-1.954-1.572-3.349-1.572-.558 0-1.117.449-1.675.674h.558s1.117.449 1.675.449c0 .449-.558.898-1.116 1.122.558 1.348 3.907 2.47 6.14 2.47 0 .449-.837.449-1.117 1.123zm-17.862-15.716c0-.673-.558-.898-.558-1.347 0-1.122.279-1.796 0-2.47-.28.674-.838 1.572-1.675 1.572-.837 0 .837-1.347.837-1.347-1.116 0-1.674-.898-2.791-.898v.898c.558.674.838 2.021 1.396 2.021.837 0 .837 1.347 1.953 1.571 0 .225-.558.674-.558 1.347 0 .898.838 2.245 1.675 2.245 1.116 0-.837-1.796-.837-2.245 0-.673.558-.898.558-1.347zm-77.87-20.43v1.347c.837.674 1.395.674 2.512 1.572 1.674-1.347 2.512-2.245 4.744-3.368v-1.347h-1.395c-2.233 0-3.908 1.122-5.861 1.796zm317.899 36.595c-2.512-1.347-4.744-3.593-8.652-2.694 1.396 1.122 5.024 3.367 6.978 3.367.837 0 1.395-.224 1.674-.673zm-7.535 9.653c-.279.225-.559.449-.559.898 0 .898 4.466 2.919 5.303 2.919.279 0 1.396-.674 1.396-1.347v-.674h-3.628c-1.117-.224-1.954-.673-2.512-1.796zm13.955 3.817v-.898c-2.791 0-.838-.674-.838-1.796 0-.449-.558-.674-.837-1.123-1.116.449-2.791 3.143-2.791 4.041 0 .674.837 1.348 1.954 1.348 1.116 0 2.512-.674 2.512-1.572zM35.303 180.216c-.837 0-1.396-.225-1.675.898h-1.953c.279.449.837.898 1.395 1.122h3.908c0-1.347-.28-2.02-1.675-2.02z" fill="#fff"/></g><defs><filter id="filter0_d" x="0" y="0" width="1285.27" height="648.432" filterUnits="userSpaceOnUse" color-interpolation-filters="sRGB"><feFlood flood-opacity="0" result="BackgroundImageFix"/><feColorMatrix in="SourceAlpha" values="0 0 0 0 0 0 0 0 0 0 0 0 0 0 0 0 0 0 127 0"/><feOffset dy="2"/><feGaussianBlur stdDeviation="15"/><feColorMatrix values="0 0 0 0 0.0244097 0 0 0 0 0.291229 0 0 0 0 0.308333 0 0 0 0.2 0"/><feBlend in2="BackgroundImageFix" result="effect1_dropShadow"/><feBlend in="SourceGraphic" in2="effect1_dropShadow" result="shape"/></filter></defs></svg>