<svg width="24" height="16" fill="none" xmlns="http://www.w3.org/2000/svg"><path d="M18.731 10.182a5.358 5.358 0 01-2.914-.858 5.127 5.127 0 01-1.931-2.285 4.953 4.953 0 01-.299-2.941 5.047 5.047 0 011.436-2.607A5.296 5.296 0 0117.708.098a5.392 5.392 0 013.03.29 5.214 5.214 0 012.354 1.875c.576.837.884 1.821.884 2.828l.024.727a9.922 9.922 0 01-.799 3.897 10.168 10.168 0 01-2.273 3.303 10.516 10.516 0 01-3.403 2.207A10.767 10.767 0 0113.51 16v-2.91a7.643 7.643 0 002.869-.549 7.466 7.466 0 003.174-2.42 5.47 5.47 0 01-.823.062v-.001zm-13.486 0a5.358 5.358 0 01-2.914-.858A5.127 5.127 0 01.399 7.039a4.952 4.952 0 01-.298-2.941A5.046 5.046 0 011.536 1.49 5.296 5.296 0 014.222.098a5.392 5.392 0 013.03.29 5.214 5.214 0 012.354 1.875c.576.837.883 1.821.883 2.828l.024.727c0 2.7-1.105 5.29-3.072 7.2C5.474 14.928 2.806 16 .024 16v-2.91a7.643 7.643 0 002.869-.549 7.466 7.466 0 003.174-2.42 5.47 5.47 0 01-.822.062v-.001z" fill="url(#paint0_linear)"/><defs><linearGradient id="paint0_linear" x1="0" y1="16" x2="24" y2="16" gradientUnits="userSpaceOnUse"><stop stop-color="#7EDDD3"/><stop offset=".499" stop-color="#2AD2C9"/><stop offset="1" stop-color="#009CA6"/></linearGradient></defs></svg>