<svg width="130" height="130" fill="none" xmlns="http://www.w3.org/2000/svg"><rect x="21.016" y="43.016" width="33.969" height="24.969" rx="2.984" stroke="#333" stroke-width="2.031"/><path d="M30.016 68.016h7.968V87c0 .544-.44.984-.984.984h-6a.984.984 0 01-.984-.984V68.016zm8 26.984c0-.544.44-.984.984-.984h14c.544 0 .984.44.984.984v10c0 .544-.44.984-.984.984H39a.984.984 0 01-.984-.984V95zM20.984 49.016v11.968H16a.984.984 0 01-.984-.984V50c0-.544.44-.984.984-.984h4.984zm17.032 19h7.966a7.166 7.166 0 01-7.164 6.968.803.803 0 01-.802-.802v-6.166zm42.583 6.799L55.016 63.387V45.613l25.583-11.428a.984.984 0 011.385.899v38.832a.984.984 0 01-1.385.899zM74.984 72V37M39 82.016h-8" stroke="#333" stroke-width="2.031"/><circle cx="29.5" cy="50.5" r="2.484" stroke="#333" stroke-width="2.031"/><path d="M86.016 90a4.984 4.984 0 019.968 0v3.984h-9.968V90z" stroke="#333" stroke-width="2.031"/><circle cx="91" cy="79" r="2.984" stroke="#333" stroke-width="2.031"/><path d="M96.016 87a8.984 8.984 0 1117.968 0v6.984H96.016V87z" stroke="#333" stroke-width="2.031"/><circle cx="104.5" cy="69.5" r="5.484" stroke="#333" stroke-width="2.031"/><path d="M38 94l6.683 5.848a2 2 0 002.634 0L54 94m14.446-10.796l-4.242 4.242m7.07-1.414l-4.242 4.243m-.851-13.071a.984.984 0 01.772.286l1.47 1.47 7.072 7.072a.984.984 0 010 1.392l-7.071 7.071a.984.984 0 01-1.392 0l-9.9-9.9a.985.985 0 010-1.392l3.536-3.535 1.952-1.952a.984.984 0 01.62-.285l2.941-.227zM89.114 41.58a.984.984 0 01.253-.955L99.86 30.132a.984.984 0 011.392 0l7.071 7.071a.983.983 0 010 1.393L97.831 49.089a.984.984 0 01-.956.253l-5.555-1.515a.984.984 0 01-.691-.69l-1.515-5.556z" stroke="#333" stroke-width="2.031"/><circle cx="94.9" cy="43.556" r="2" transform="rotate(-45 94.9 43.556)" fill="#333"/><circle cx="55.899" cy="29.899" r="5.984" transform="rotate(45 55.9 29.9)" stroke="#333" stroke-width="2.031"/><path stroke="#333" stroke-width="2.031" stroke-linecap="round" d="M60.142 25.635l4.928-4.928"/></svg>