<svg width="130" height="130" fill="none" xmlns="http://www.w3.org/2000/svg"><path d="M50.98 82.984L35.526 46.016H98.18c4.696 0 8.054 4.541 6.677 9.031l-8.564 27.937H50.98z" stroke="#333" stroke-width="2.031" stroke-linecap="round"/><path d="M46 71L31 35H19m32.25 48l-4.125 6.244C44.928 92.568 47.312 97 51.296 97H96" stroke="#333" stroke-width="2.031" stroke-linecap="round"/><circle cx="73" cy="50" r="13.984" fill="#fff" stroke="#333" stroke-width="2.031" stroke-linecap="round"/><path stroke="#333" stroke-width="2.031" stroke-linecap="round" d="M73.016 44.016v11.968m5.968-5.968H67.016"/><circle cx="56.5" cy="100.5" r="8.484" fill="#fff" stroke="#333" stroke-width="2.031" stroke-linecap="round"/><circle cx="56.5" cy="100.5" r="2.484" fill="#fff" stroke="#333" stroke-width="2.031" stroke-linecap="round"/><circle cx="90.5" cy="100.5" r="8.484" fill="#fff" stroke="#333" stroke-width="2.031" stroke-linecap="round"/><path stroke="#333" stroke-width="2.031" stroke-linecap="round" d="M49.016 75.984h48.968m-65.968 5h9.968m-24.968-5h21.968m-14.968 10h12.968"/><circle cx="90.5" cy="100.5" r="2.484" fill="#fff" stroke="#333" stroke-width="2.031" stroke-linecap="round"/></svg>