<svg width="130" height="130" fill="none" xmlns="http://www.w3.org/2000/svg"><rect x="19.244" y="51.459" width="81.969" height="50.969" rx="2.984" transform="rotate(-15 19.244 51.459)" stroke="#333" stroke-width="2.031"/><path stroke="#333" stroke-width="2.031" stroke-linecap="round" d="M22.272 58.897l56.96-15.262M36.281 84.132l21.22-5.686M37.575 88.961l8.663-2.321m3.894-1.043l3.833-1.028m32.058-42.754l4.8-1.286m11.738 5.17l-66.619 17.85m-6.791 1.82l-4.8 1.286"/><mask id="a" fill="#fff"><rect x="85.462" y="66.828" width="14" height="10" rx="2" transform="rotate(-15 85.462 66.828)"/></mask><rect x="85.462" y="66.828" width="14" height="10" rx="2" transform="rotate(-15 85.462 66.828)" stroke="#333" stroke-width="4.063" mask="url(#a)"/><path d="M25.428 99.967h38.5m4.5 0h7" stroke="#333" stroke-width="2" stroke-linecap="round"/></svg>