<svg width="130" height="130" fill="none" xmlns="http://www.w3.org/2000/svg"><path d="M23.016 63A2.984 2.984 0 0126 60.016h79.984V95A2.984 2.984 0 01103 97.984H26A2.984 2.984 0 0123.016 95V63z" stroke="#333" stroke-width="2.031"/><path stroke="#333" stroke-width="2.031" stroke-linecap="round" d="M11.016 105.984h77.968m-49.968-31h8.968m-26.968 37h17.968m-8.968-79h8.968m-8.968 5h8.968"/><path stroke="#333" stroke-width="2.031" d="M92.016 76.016h7.969v4.969h-7.969zm-8 0h7.969v4.969h-7.969zm-8 0h7.969v4.969h-7.969zm-8 0h7.969v4.969h-7.969zm-8 0h7.969v4.969h-7.969zm32-5h7.969v4.969h-7.969zm-8 0h7.969v4.969h-7.969zm-8 0h7.969v4.969h-7.969zm-8 0h7.969v4.969h-7.969zm-8 0h7.969v4.969h-7.969zm32-5h7.969v4.969h-7.969zm-8 0h7.969v4.969h-7.969zm-8 0h7.969v4.969h-7.969zm-8 0h7.969v4.969h-7.969zm-8 0h7.969v4.969h-7.969zM35.016 81c0-.544.44-.984.984-.984h6.984v17.968H36a.984.984 0 01-.984-.984V81zm8-.984H50c.544 0 .984.44.984.984v16.984h-7.968V80.016z"/><path d="M51 91h38.5M23 91h12m59 0h7" stroke="#333" stroke-width="2" stroke-linecap="round"/><path d="M76.289 42.304c.613-.642 1.695-.207 1.695.68V59c0 .544-.44.984-.984.984H59.377l16.912-17.68z" fill="#fff" stroke="#333" stroke-width="2.031"/><path d="M90.289 42.304c.613-.642 1.695-.207 1.695.68V59c0 .544-.44.984-.984.984H73.377l16.912-17.68z" fill="#fff" stroke="#333" stroke-width="2.031"/><path d="M104.289 42.304c.613-.642 1.695-.207 1.695.68V59c0 .544-.44.984-.984.984H87.377l16.912-17.68z" fill="#fff" stroke="#333" stroke-width="2.031"/><path d="M29.848 29.884a1.984 1.984 0 011.98-1.868h5.343c1.051 0 1.92.819 1.981 1.868l1.77 30.1H28.078l1.77-30.1z" stroke="#333" stroke-width="2.031"/><path stroke="#333" stroke-width="2.031" stroke-linecap="round" d="M46.016 32.984h8.968m-8.968 5h8.968"/><path d="M45.848 29.884a1.984 1.984 0 011.98-1.868h5.343c1.051 0 1.92.819 1.981 1.868l1.77 30.1H44.078l1.77-30.1z" stroke="#333" stroke-width="2.031"/><path d="M61.037 25.353l.031.015a3.806 3.806 0 003.81-.198l.558-.364.555.367c.143.094.291.18.445.259l.002.001a4.96 4.96 0 002.933.51l.66-.089.344.571a6.156 6.156 0 006.014 2.938l.654-.08.339.565a7.226 7.226 0 002.92 2.72l.005.003a7.383 7.383 0 009.465-10.75l-28.735 3.532zm0 0a3.785 3.785 0 012.675-7.022l.645.16.405-.527a4.984 4.984 0 013.546-1.931h0a4.98 4.98 0 013.812 1.326l.488.457.612-.267a6.126 6.126 0 015.274.178h0l.006.003c.568.29 1.086.669 1.536 1.121l.461.465.614-.229a7.384 7.384 0 018.661 2.733l-28.735 3.533z" fill="#fff" stroke="#333" stroke-width="2.031"/></svg>