<svg width="130" height="130" fill="none" xmlns="http://www.w3.org/2000/svg"><path stroke="#333" stroke-width="2.031" stroke-linecap="round" d="M11.016 100.984h101.968m-38.968 6h23.968M34 61v40h61V61m-7-10V39h-5v8.176"/><path d="M27 66l37.5-27L102 66" stroke="#333" stroke-width="2.031" stroke-linecap="round"/><path d="M27 61l37.5-27L102 61" stroke="#333" stroke-width="2.031" stroke-linecap="round"/><path d="M95.016 100.984v-9.782l3.484-3.717 3.484 3.717v9.782h-6.968zm-68 0v-9.782l3.484-3.717 3.484 3.717v9.782h-6.968zm-7 0v-9.782l3.484-3.717 3.484 3.717v9.782h-6.968z" stroke="#333" stroke-width="2.031"/><path d="M60.155 66A10.152 10.152 0 0055 74.867C55 80.463 59.477 85 65 85s10-4.537 10-10.133A10.15 10.15 0 0069.845 66m-4.829-3.984v10.968M83 16c-5.147-3.136-11.584-5-18.57-5-6.922 0-13.306 1.83-18.43 4.916m5 6.007C54.944 19.43 59.537 18 64.44 18c4.952 0 9.589 1.459 13.56 4m-5 5a19.12 19.12 0 00-8.5-2c-3.017 0-5.89.712-8.5 2" stroke="#333" stroke-width="2.031" stroke-linecap="round"/></svg>