<svg width="154" height="60" viewBox="0 0 154 60" fill="none" xmlns="http://www.w3.org/2000/svg">
<path d="M12.9079 31.3042L25.8159 38.4781L12.9079 45.652L0 38.4781L12.9079 31.3042Z" fill="#C63527"/>
<path d="M38.7239 45.652L51.6318 52.8259L38.7239 59.9997L25.8159 52.8259L38.7239 45.652Z" fill="#009CA6"/>
<path d="M0 7.17412L12.9079 0V45.6522L0 38.4783V7.17412Z" fill="#FF5E00"/>
<path fill-rule="evenodd" clip-rule="evenodd" d="M51.6318 21.5219L38.7239 14.3478V60L51.6318 52.8261V21.5219Z" fill="#2AD2C9"/>
<path d="M12.9079 0L25.8159 7.17388L12.9079 14.3478L0 7.17388L12.9079 0Z" fill="#FF8200"/>
<path d="M38.7239 14.3478L51.6318 21.5217L38.7239 28.6955L25.8159 21.5217L38.7239 14.3478Z" fill="#7EDDD3"/>
<path d="M75.8407 24.3214C75.7379 24.5026 75.6265 24.6363 75.5065 24.7226C75.3951 24.8002 75.2537 24.8391 75.0823 24.8391C74.9024 24.8391 74.7053 24.7744 74.491 24.6449C74.2854 24.5069 74.0368 24.3559 73.7455 24.192C73.4541 24.0281 73.1114 23.8814 72.7172 23.752C72.3315 23.6139 71.8731 23.5449 71.3418 23.5449C70.8619 23.5449 70.442 23.6053 70.0821 23.7261C69.7222 23.8382 69.4179 23.9979 69.1694 24.2049C68.9295 24.412 68.7495 24.6622 68.6296 24.9555C68.5096 25.2403 68.4496 25.5552 68.4496 25.9003C68.4496 26.3403 68.5696 26.707 68.8095 27.0004C69.058 27.2937 69.3837 27.5439 69.7864 27.751C70.1892 27.9581 70.6477 28.1436 71.1618 28.3075C71.676 28.4714 72.203 28.6483 72.7429 28.8381C73.2827 29.0193 73.8098 29.235 74.3239 29.4852C74.8381 29.7268 75.2965 30.0374 75.6993 30.417C76.1021 30.788 76.4234 31.2453 76.6634 31.7888C76.9119 32.3324 77.0361 32.9924 77.0361 33.7689C77.0361 34.6145 76.8905 35.4082 76.5991 36.1502C76.3163 36.8836 75.8964 37.5264 75.3394 38.0786C74.791 38.6221 74.1183 39.0535 73.3213 39.3727C72.5243 39.6834 71.6117 39.8387 70.5834 39.8387C69.9921 39.8387 69.4094 39.7783 68.8352 39.6575C68.2611 39.5453 67.7084 39.3814 67.1771 39.1657C66.6543 38.95 66.1616 38.6911 65.6988 38.3892C65.2361 38.0872 64.8248 37.7507 64.4648 37.3797L65.4803 35.7102C65.566 35.5894 65.6774 35.4902 65.8145 35.4125C65.9516 35.3263 66.0973 35.2831 66.2516 35.2831C66.4658 35.2831 66.6972 35.3737 66.9457 35.5549C67.1942 35.7275 67.4898 35.9216 67.8326 36.1373C68.1754 36.353 68.5739 36.5514 69.028 36.7326C69.4908 36.9052 70.0435 36.9914 70.6862 36.9914C71.6717 36.9914 72.4344 36.7585 72.9742 36.2926C73.5141 35.8181 73.784 35.1408 73.784 34.2607C73.784 33.7689 73.6598 33.3677 73.4113 33.0571C73.1713 32.7465 72.85 32.4877 72.4472 32.2806C72.0445 32.0649 71.586 31.8837 71.0718 31.7371C70.5577 31.5904 70.0349 31.4308 69.5036 31.2582C68.9723 31.0857 68.4496 30.8786 67.9354 30.637C67.4213 30.3954 66.9628 30.0805 66.5601 29.6923C66.1573 29.304 65.8317 28.8208 65.5831 28.2428C65.3432 27.6561 65.2232 26.9356 65.2232 26.0815C65.2232 25.3999 65.3561 24.7355 65.6217 24.0884C65.8959 23.4414 66.2901 22.8676 66.8043 22.3672C67.3184 21.8668 67.9526 21.4656 68.7067 21.1636C69.4608 20.8616 70.3263 20.7106 71.3032 20.7106C72.4001 20.7106 73.4113 20.8832 74.3368 21.2283C75.2623 21.5734 76.0507 22.0566 76.7019 22.6778L75.8407 24.3214Z" fill="black"/>
<path d="M90.8784 26.3533L83.6929 43.2812C83.5987 43.5055 83.4744 43.6737 83.3202 43.7859C83.1745 43.9067 82.9474 43.9671 82.6389 43.9671H80.2737L82.7417 38.6351L77.4073 26.3533H80.1966C80.4451 26.3533 80.6379 26.4137 80.7751 26.5345C80.9207 26.6552 81.0279 26.7933 81.0964 26.9486L83.8986 33.8336C83.9929 34.0666 84.07 34.2995 84.13 34.5325C84.1985 34.7655 84.2628 35.0027 84.3228 35.2443C84.3999 35.0027 84.477 34.7655 84.5542 34.5325C84.6313 34.2909 84.717 34.0537 84.8112 33.8207L87.4592 26.9486C87.5277 26.776 87.6391 26.6337 87.7934 26.5215C87.9562 26.4093 88.1362 26.3533 88.3333 26.3533H90.8784Z" fill="black"/>
<path d="M95.4247 27.9839C95.6903 27.7165 95.9688 27.4706 96.2602 27.2463C96.5601 27.0133 96.8729 26.8192 97.1986 26.6639C97.5328 26.4999 97.8884 26.3748 98.2654 26.2886C98.6425 26.1937 99.0538 26.1462 99.4994 26.1462C100.219 26.1462 100.858 26.2713 101.415 26.5215C101.972 26.7631 102.434 27.1082 102.803 27.5569C103.18 27.9969 103.463 28.5275 103.651 29.1487C103.848 29.7613 103.947 30.4386 103.947 31.1806V39.6316H100.772V31.1806C100.772 30.3695 100.588 29.744 100.219 29.304C99.8508 28.8554 99.2895 28.631 98.5354 28.631C97.9869 28.631 97.4728 28.7561 96.9929 29.0063C96.513 29.2565 96.0588 29.5974 95.6304 30.0287V39.6316H92.4554V26.3533H94.3964C94.8077 26.3533 95.0776 26.5474 95.2062 26.9356L95.4247 27.9839Z" fill="black"/>
<path d="M111.187 39.8387C110.039 39.8387 109.156 39.5151 108.539 38.868C107.93 38.2123 107.626 37.3107 107.626 36.1632V28.7475H106.277C106.105 28.7475 105.959 28.6914 105.84 28.5793C105.72 28.4671 105.66 28.2989 105.66 28.0745V26.8062L107.78 26.4568L108.449 22.8331C108.492 22.6605 108.573 22.5268 108.693 22.4319C108.813 22.337 108.967 22.2895 109.156 22.2895H110.801V26.4697H114.323V28.7475H110.801V35.9432C110.801 36.3573 110.9 36.6808 111.097 36.9138C111.302 37.1468 111.581 37.2632 111.932 37.2632C112.129 37.2632 112.292 37.2417 112.421 37.1985C112.558 37.1468 112.674 37.095 112.768 37.0432C112.871 36.9915 112.961 36.944 113.038 36.9009C113.115 36.8491 113.192 36.8232 113.269 36.8232C113.363 36.8232 113.441 36.8491 113.501 36.9009C113.561 36.944 113.625 37.013 113.693 37.1079L114.645 38.6609C114.182 39.0492 113.65 39.3425 113.051 39.541C112.451 39.7394 111.83 39.8387 111.187 39.8387Z" fill="black"/>
<path d="M124.752 31.4653C124.752 31.0512 124.692 30.6629 124.572 30.3005C124.461 29.9295 124.289 29.606 124.058 29.3299C123.827 29.0538 123.531 28.8381 123.171 28.6828C122.82 28.5189 122.408 28.4369 121.937 28.4369C121.02 28.4369 120.296 28.7001 119.765 29.2264C119.242 29.7527 118.908 30.499 118.762 31.4653H124.752ZM118.698 33.3936C118.749 34.0752 118.869 34.6662 119.058 35.1667C119.246 35.6584 119.495 36.0683 119.803 36.3961C120.112 36.7154 120.476 36.9569 120.896 37.1209C121.324 37.2762 121.796 37.3538 122.31 37.3538C122.824 37.3538 123.265 37.2934 123.634 37.1726C124.011 37.0518 124.336 36.9181 124.611 36.7714C124.893 36.6248 125.138 36.491 125.343 36.3702C125.558 36.2495 125.763 36.1891 125.96 36.1891C126.226 36.1891 126.423 36.2883 126.552 36.4867L127.464 37.6515C127.113 38.0656 126.719 38.4151 126.282 38.6998C125.845 38.9759 125.386 39.2002 124.906 39.3727C124.435 39.5367 123.951 39.6532 123.454 39.7222C122.965 39.7912 122.49 39.8257 122.027 39.8257C121.11 39.8257 120.257 39.6747 119.469 39.3727C118.681 39.0621 117.995 38.6092 117.412 38.0139C116.83 37.4099 116.371 36.6679 116.037 35.7879C115.703 34.8992 115.536 33.8725 115.536 32.7077C115.536 31.8018 115.681 30.9519 115.973 30.1582C116.264 29.3558 116.68 28.6612 117.22 28.0745C117.768 27.4792 118.432 27.009 119.212 26.6639C120 26.3188 120.887 26.1462 121.873 26.1462C122.704 26.1462 123.471 26.2799 124.174 26.5474C124.876 26.8149 125.48 27.2074 125.986 27.7251C126.492 28.2341 126.886 28.864 127.169 29.6146C127.46 30.3566 127.606 31.2065 127.606 32.1641C127.606 32.6473 127.554 32.9752 127.451 33.1477C127.349 33.3117 127.151 33.3936 126.86 33.3936H118.698Z" fill="black"/>
<path d="M139.436 29.1616C139.342 29.2824 139.248 29.3773 139.153 29.4464C139.068 29.5154 138.939 29.5499 138.768 29.5499C138.605 29.5499 138.446 29.5024 138.292 29.4075C138.138 29.304 137.954 29.1918 137.739 29.0711C137.525 28.9416 137.268 28.8295 136.968 28.7346C136.677 28.631 136.312 28.5793 135.875 28.5793C135.318 28.5793 134.83 28.6828 134.41 28.8899C133.99 29.0883 133.639 29.3773 133.356 29.757C133.082 30.1366 132.876 30.5982 132.739 31.1417C132.602 31.6767 132.533 32.2849 132.533 32.9665C132.533 33.674 132.606 34.3039 132.752 34.856C132.906 35.4082 133.125 35.8741 133.407 36.2538C133.69 36.6248 134.033 36.9095 134.436 37.1079C134.839 37.2977 135.293 37.3926 135.798 37.3926C136.304 37.3926 136.711 37.3323 137.019 37.2115C137.337 37.082 137.602 36.944 137.816 36.7973C138.031 36.642 138.215 36.504 138.369 36.3832C138.532 36.2538 138.712 36.1891 138.909 36.1891C139.166 36.1891 139.359 36.2883 139.487 36.4867L140.4 37.6515C140.049 38.0656 139.667 38.4151 139.256 38.6998C138.845 38.9759 138.416 39.2002 137.971 39.3727C137.534 39.5367 137.079 39.6532 136.608 39.7222C136.145 39.7912 135.683 39.8257 135.22 39.8257C134.406 39.8257 133.639 39.6747 132.919 39.3727C132.199 39.0621 131.569 38.6135 131.029 38.0268C130.49 37.4401 130.061 36.724 129.744 35.8785C129.436 35.0243 129.281 34.0537 129.281 32.9665C129.281 31.9916 129.418 31.09 129.693 30.2617C129.975 29.4248 130.387 28.7044 130.927 28.1004C131.467 27.4878 132.135 27.009 132.932 26.6639C133.729 26.3188 134.646 26.1462 135.683 26.1462C136.668 26.1462 137.529 26.3058 138.266 26.625C139.012 26.9443 139.68 27.4016 140.272 27.9969L139.436 29.1616Z" fill="black"/>
<path d="M145.565 27.7769C146.08 27.2937 146.645 26.9011 147.262 26.5992C147.879 26.2972 148.603 26.1462 149.434 26.1462C150.154 26.1462 150.793 26.2713 151.35 26.5215C151.907 26.7631 152.37 27.1082 152.738 27.5569C153.115 27.9969 153.398 28.5275 153.586 29.1487C153.783 29.7613 153.882 30.4386 153.882 31.1806V39.6316H150.707V31.1806C150.707 30.3695 150.523 29.744 150.154 29.304C149.786 28.8554 149.225 28.631 148.47 28.631C147.922 28.631 147.408 28.7561 146.928 29.0063C146.448 29.2565 145.994 29.5974 145.565 30.0287V39.6316H142.39V20.4H145.565V27.7769Z" fill="black"/>
<path d="M97.8273 48.1589C97.7143 48.1035 97.5839 48.0452 97.4362 47.9839C97.2885 47.9198 97.119 47.8629 96.9278 47.8133C96.7395 47.7637 96.5266 47.7229 96.2891 47.6908C96.0515 47.6558 95.7879 47.6383 95.4982 47.6383C95.1477 47.6383 94.8349 47.6587 94.5597 47.6996C94.2874 47.7404 94.0556 47.8046 93.8644 47.8921C93.6761 47.9767 93.5313 48.0846 93.4299 48.2158C93.3314 48.3471 93.2822 48.5031 93.2822 48.6839C93.2822 48.8356 93.3285 48.9683 93.4212 49.082C93.5168 49.1958 93.6443 49.2964 93.8036 49.3839C93.9658 49.4714 94.1541 49.5516 94.3685 49.6245C94.5857 49.6945 94.8146 49.7616 95.055 49.8258C95.2984 49.887 95.5475 49.9497 95.8024 50.0139C96.0602 50.078 96.3093 50.148 96.5498 50.2239C96.7931 50.2968 97.022 50.3799 97.2363 50.4732C97.4536 50.5637 97.6419 50.6701 97.8012 50.7926C97.9634 50.9151 98.0909 51.0551 98.1836 51.2126C98.2792 51.3701 98.327 51.5524 98.327 51.7595C98.327 51.984 98.285 52.1809 98.201 52.3501C98.1169 52.5163 98.0025 52.6607 97.8577 52.7832C97.7157 52.9028 97.5477 53.0034 97.3536 53.085C97.1624 53.1638 96.9568 53.2265 96.7366 53.2732C96.5194 53.3198 96.2934 53.3519 96.0588 53.3694C95.827 53.3898 95.5982 53.4 95.3722 53.4C94.8537 53.4 94.383 53.3621 93.96 53.2863C93.54 53.2104 93.1388 53.1069 92.7564 52.9757V52.3063C93.1504 52.5426 93.5661 52.7044 94.0035 52.7919C94.4438 52.8794 94.9058 52.9232 95.3896 52.9232C95.7314 52.9232 96.0472 52.9028 96.3369 52.8619C96.6265 52.8211 96.8771 52.7569 97.0886 52.6694C97.3 52.579 97.4637 52.4623 97.5796 52.3194C97.6984 52.1765 97.7577 52.0015 97.7577 51.7945C97.7577 51.6282 97.7099 51.4824 97.6143 51.357C97.5217 51.2316 97.3942 51.1222 97.232 51.0289C97.0726 50.9326 96.8844 50.848 96.6671 50.7751C96.4527 50.7022 96.2253 50.6351 95.9849 50.5739C95.7445 50.5097 95.4953 50.4485 95.2375 50.3901C94.9826 50.3289 94.7349 50.2632 94.4945 50.1933C94.2541 50.1233 94.0252 50.0445 93.808 49.957C93.5936 49.8695 93.4053 49.7674 93.2431 49.6508C93.0838 49.5312 92.9563 49.3941 92.8607 49.2395C92.768 49.085 92.7217 48.9056 92.7217 48.7014C92.7217 48.5002 92.7593 48.3223 92.8346 48.1677C92.9099 48.0102 93.0128 47.8746 93.1431 47.7608C93.2764 47.6471 93.4314 47.5523 93.6081 47.4765C93.7848 47.3977 93.9731 47.3365 94.173 47.2927C94.3757 47.246 94.5857 47.2125 94.803 47.1921C95.0203 47.1717 95.2346 47.1615 95.4461 47.1615C95.6778 47.1615 95.8965 47.1717 96.1022 47.1921C96.3108 47.2125 96.5107 47.2402 96.7019 47.2752C96.8959 47.3073 97.0842 47.3452 97.2667 47.389C97.4521 47.4327 97.639 47.4794 97.8273 47.529V48.1589Z" fill="black"/>
<path d="M107.248 50.2807C107.248 50.8203 107.151 51.287 106.957 51.6807C106.763 52.0715 106.496 52.3953 106.157 52.6519C105.818 52.9057 105.419 53.0938 104.958 53.2163C104.497 53.3388 104.001 53.4 103.468 53.4C102.932 53.4 102.432 53.3388 101.969 53.2163C101.505 53.0938 101.102 52.9057 100.761 52.6519C100.419 52.3953 100.151 52.0715 99.9567 51.6807C99.7626 51.287 99.6656 50.8203 99.6656 50.2807C99.6656 49.922 99.7105 49.5968 99.8003 49.3052C99.8901 49.0106 100.016 48.7481 100.178 48.5177C100.341 48.2844 100.536 48.0831 100.765 47.9139C100.997 47.7448 101.253 47.6048 101.534 47.494C101.818 47.3802 102.122 47.2971 102.447 47.2446C102.771 47.1892 103.111 47.1615 103.468 47.1615C104.001 47.1615 104.497 47.2227 104.958 47.3452C105.419 47.4677 105.818 47.6573 106.157 47.9139C106.496 48.1677 106.763 48.4914 106.957 48.8852C107.151 49.276 107.248 49.7412 107.248 50.2807ZM106.687 50.2807C106.687 49.8549 106.618 49.4787 106.479 49.152C106.343 48.8254 106.14 48.5512 105.871 48.3296C105.601 48.105 105.265 47.9358 104.862 47.8221C104.463 47.7054 103.998 47.6471 103.468 47.6471C102.938 47.6471 102.47 47.7054 102.064 47.8221C101.661 47.9387 101.324 48.1094 101.052 48.3339C100.779 48.5556 100.574 48.8312 100.435 49.1608C100.296 49.4874 100.226 49.8608 100.226 50.2807C100.226 50.7066 100.296 51.0828 100.435 51.4095C100.574 51.7361 100.779 52.0117 101.052 52.2363C101.324 52.458 101.661 52.6271 102.064 52.7438C102.47 52.8575 102.938 52.9144 103.468 52.9144C103.998 52.9144 104.463 52.8575 104.862 52.7438C105.265 52.6271 105.601 52.458 105.871 52.2363C106.14 52.0117 106.343 51.7361 106.479 51.4095C106.618 51.0828 106.687 50.7066 106.687 50.2807Z" fill="black"/>
<path d="M111.971 47.7827C111.534 47.7827 111.157 47.8133 110.842 47.8746C110.526 47.9329 110.265 48.0248 110.06 48.1502C109.857 48.2756 109.706 48.436 109.608 48.6314C109.509 48.8268 109.46 49.0602 109.46 49.3314V50.0008H114.561V50.5126H109.46V53.2819H108.917V49.2395C108.917 48.9304 108.97 48.6533 109.078 48.4083C109.188 48.1633 109.361 47.9577 109.599 47.7915C109.837 47.6223 110.141 47.494 110.511 47.4065C110.885 47.316 111.336 47.2708 111.863 47.2708H114.648V47.7827H111.971Z" fill="black"/>
<path d="M118.694 47.7696V53.2819H118.155V47.7696H115.439V47.2708H121.41V47.7696H118.694Z" fill="black"/>
<path d="M127.65 47.2708L129.779 52.8444L131.986 47.2708H132.59L130.187 53.2819H129.379L127.285 47.8527L125.195 53.2819H124.386L121.983 47.2708H122.587L124.795 52.8444L126.92 47.2708H127.65Z" fill="black"/>
<path d="M139.408 53.2819V52.6169C139.199 52.7307 138.962 52.8357 138.695 52.9319C138.432 53.0282 138.152 53.1113 137.857 53.1813C137.564 53.2513 137.263 53.3052 136.953 53.3432C136.643 53.3811 136.339 53.4 136.04 53.4C135.652 53.4 135.303 53.365 134.993 53.295C134.686 53.225 134.425 53.1215 134.211 52.9844C133.997 52.8444 133.832 52.6723 133.716 52.4682C133.6 52.2611 133.542 52.0219 133.542 51.7507C133.542 51.4824 133.609 51.2461 133.742 51.042C133.878 50.8349 134.071 50.6555 134.32 50.5039C134.569 50.3493 134.869 50.2195 135.219 50.1145C135.573 50.0066 135.967 49.9162 136.401 49.8433C136.836 49.7674 137.305 49.7062 137.809 49.6595C138.316 49.6099 138.849 49.5691 139.408 49.537V49.0777C139.408 48.891 139.373 48.7262 139.304 48.5833C139.234 48.4404 139.137 48.3164 139.013 48.2114C138.888 48.1035 138.742 48.0146 138.574 47.9446C138.406 47.8717 138.223 47.8133 138.026 47.7696C137.832 47.7258 137.626 47.6952 137.409 47.6777C137.195 47.6573 136.979 47.6471 136.762 47.6471C136.469 47.6471 136.203 47.6617 135.962 47.6908C135.722 47.72 135.497 47.7608 135.289 47.8133C135.08 47.8629 134.88 47.9212 134.689 47.9883C134.498 48.0554 134.305 48.1269 134.111 48.2027V47.564C134.514 47.456 134.943 47.3627 135.397 47.284C135.855 47.2023 136.34 47.1615 136.853 47.1615C137.287 47.1615 137.693 47.1994 138.07 47.2752C138.446 47.3481 138.774 47.4663 139.052 47.6296C139.33 47.7929 139.548 48.0044 139.708 48.2639C139.867 48.5206 139.947 48.8341 139.947 49.2045V53.2819H139.408ZM139.408 50.0226C138.461 50.0751 137.651 50.1495 136.979 50.2458C136.31 50.342 135.762 50.4601 135.337 50.6001C134.911 50.7401 134.598 50.9034 134.398 51.0901C134.201 51.2768 134.102 51.4882 134.102 51.7245C134.102 51.917 134.15 52.0876 134.246 52.2363C134.344 52.3851 134.485 52.5105 134.667 52.6126C134.85 52.7117 135.071 52.7875 135.332 52.84C135.593 52.8896 135.885 52.9144 136.21 52.9144C136.401 52.9144 136.598 52.9042 136.801 52.8838C137.007 52.8605 137.211 52.8298 137.414 52.7919C137.616 52.7511 137.816 52.7044 138.013 52.6519C138.21 52.5965 138.396 52.5367 138.569 52.4726C138.743 52.4084 138.901 52.3399 139.043 52.2669C139.188 52.194 139.309 52.1197 139.408 52.0438V50.0226Z" fill="black"/>
<path d="M146.408 47.7346C146.324 47.7083 146.207 47.6806 146.056 47.6515C145.909 47.6194 145.717 47.6033 145.483 47.6033C145.158 47.6033 144.853 47.6442 144.566 47.7258C144.282 47.8046 144.017 47.9125 143.771 48.0496C143.528 48.1866 143.302 48.3471 143.093 48.5308C142.884 48.7116 142.696 48.9041 142.528 49.1083V53.2819H141.985V47.2708H142.528V48.4958C142.722 48.2946 142.932 48.1094 143.158 47.9402C143.387 47.771 143.627 47.6267 143.879 47.5071C144.131 47.3846 144.395 47.2898 144.67 47.2227C144.948 47.1527 145.235 47.1177 145.531 47.1177C145.632 47.1177 145.723 47.1206 145.804 47.1265C145.886 47.1294 145.959 47.1352 146.026 47.144C146.096 47.1498 146.161 47.1571 146.222 47.1658C146.282 47.1746 146.345 47.1848 146.408 47.1965V47.7346Z" fill="black"/>
<path d="M153.509 52.9669C153.265 53.0428 153.039 53.1084 152.831 53.1638C152.622 53.2163 152.417 53.2586 152.214 53.2907C152.011 53.3257 151.804 53.3504 151.592 53.365C151.384 53.3825 151.154 53.3913 150.902 53.3913C150.316 53.3913 149.788 53.3198 149.316 53.1769C148.843 53.034 148.441 52.8298 148.108 52.5644C147.777 52.2961 147.522 51.9724 147.343 51.5932C147.163 51.2141 147.073 50.7882 147.073 50.3157C147.073 49.8578 147.159 49.4379 147.33 49.0558C147.504 48.6737 147.746 48.3456 148.055 48.0714C148.365 47.7973 148.736 47.5844 149.168 47.4327C149.599 47.281 150.076 47.2052 150.597 47.2052C151.139 47.2052 151.621 47.2781 152.044 47.424C152.467 47.5698 152.824 47.7783 153.113 48.0496C153.403 48.3208 153.623 48.6504 153.774 49.0383C153.924 49.4233 154 49.8578 154 50.342V50.4776H147.634C147.666 50.8509 147.759 51.1878 147.912 51.4882C148.066 51.7886 148.283 52.0438 148.564 52.2538C148.848 52.4638 149.195 52.6257 149.607 52.7394C150.021 52.8503 150.503 52.9057 151.054 52.9057C151.288 52.9057 151.526 52.8896 151.766 52.8575C152.007 52.8255 152.237 52.7832 152.457 52.7307C152.677 52.6753 152.879 52.614 153.061 52.5469C153.244 52.4769 153.393 52.4055 153.509 52.3326V52.9669ZM153.465 50.0008C153.445 49.6945 153.377 49.4029 153.261 49.1258C153.145 48.8458 152.971 48.5993 152.74 48.3864C152.511 48.1735 152.218 48.0044 151.862 47.8789C151.508 47.7535 151.084 47.6908 150.589 47.6908C150.122 47.6908 149.714 47.7535 149.363 47.8789C149.013 48.0044 148.716 48.1735 148.473 48.3864C148.229 48.5964 148.038 48.8414 147.899 49.1214C147.76 49.3985 147.672 49.6916 147.634 50.0008H153.465Z" fill="black"/>
</svg>
