<svg width="178" height="68" viewBox="0 0 178 68" fill="none" xmlns="http://www.w3.org/2000/svg">
<path fill-rule="evenodd" clip-rule="evenodd" d="M14.7333 35.3821L29.4667 43.4905L14.7333 51.5989L0 43.4905L14.7333 35.3821Z" fill="#AAAAAA"/>
<path fill-rule="evenodd" clip-rule="evenodd" d="M44.2001 51.5989L58.9335 59.7073L44.2001 67.8157L29.4668 59.7073L44.2001 51.5989Z" fill="#999999"/>
<path fill-rule="evenodd" clip-rule="evenodd" d="M0 8.10867L14.7333 0V51.5992L0 43.4908V8.10867Z" fill="#FAFAFA"/>
<path fill-rule="evenodd" clip-rule="evenodd" d="M58.9331 24.3255L44.1998 16.2168V67.816L58.9331 59.7076V24.3255Z" fill="white"/>
<path fill-rule="evenodd" clip-rule="evenodd" d="M14.7333 0L29.4667 8.1084L14.7333 16.2168L0 8.1084L14.7333 0Z" fill="#CCCCCC"/>
<path fill-rule="evenodd" clip-rule="evenodd" d="M44.2001 16.2168L58.9335 24.3252L44.2001 32.4336L29.4668 24.3252L44.2001 16.2168Z" fill="#DDDDDD"/>
<path d="M86.1745 28.29C86.0571 28.4954 85.9299 28.647 85.793 28.7448C85.6658 28.8329 85.5044 28.8769 85.3088 28.8769C85.1034 28.8769 84.8784 28.8035 84.6339 28.6568C84.3991 28.5003 84.1155 28.3291 83.7829 28.1433C83.4503 27.9574 83.0591 27.7911 82.6091 27.6444C82.169 27.4879 81.6456 27.4097 81.0392 27.4097C80.4914 27.4097 80.0121 27.4781 79.6013 27.6151C79.1905 27.7422 78.8433 27.9232 78.5596 28.158C78.2857 28.3927 78.0803 28.6764 77.9434 29.0089C77.8064 29.3317 77.738 29.6888 77.738 30.08C77.738 30.5789 77.8749 30.9946 78.1488 31.3271C78.4324 31.6597 78.8041 31.9434 79.2639 32.1781C79.7236 32.4129 80.2469 32.6232 80.8338 32.809C81.4207 32.9949 82.0222 33.1954 82.6385 33.4106C83.2547 33.616 83.8563 33.8605 84.4431 34.1442C85.03 34.4181 85.5533 34.7702 86.0131 35.2006C86.4728 35.6212 86.8396 36.1396 87.1135 36.7559C87.3971 37.3721 87.539 38.1204 87.539 39.0007C87.539 39.9593 87.3727 40.8592 87.0401 41.7004C86.7173 42.5318 86.238 43.2605 85.6023 43.8866C84.9762 44.5028 84.2084 44.9919 83.2987 45.3538C82.389 45.7059 81.3473 45.882 80.1735 45.882C79.4986 45.882 78.8335 45.8135 78.1781 45.6766C77.5228 45.5494 76.8919 45.3636 76.2854 45.119C75.6887 44.8745 75.1263 44.581 74.5981 44.2387C74.0699 43.8963 73.6004 43.5149 73.1896 43.0943L74.3487 41.2015C74.4465 41.0646 74.5736 40.9521 74.7302 40.8641C74.8867 40.7663 75.0529 40.7174 75.229 40.7174C75.4735 40.7174 75.7376 40.8201 76.0213 41.0255C76.305 41.2211 76.6424 41.4412 77.0337 41.6857C77.4249 41.9303 77.8798 42.1552 78.3982 42.3606C78.9264 42.5563 79.5573 42.6541 80.2909 42.6541C81.4158 42.6541 82.2863 42.39 82.9026 41.8618C83.5188 41.3238 83.8269 40.556 83.8269 39.5583C83.8269 39.0007 83.6851 38.5459 83.4014 38.1937C83.1275 37.8416 82.7607 37.5482 82.301 37.3134C81.8413 37.0689 81.318 36.8635 80.7311 36.6972C80.1442 36.5309 79.5475 36.3499 78.9411 36.1543C78.3346 35.9587 77.738 35.7239 77.1511 35.45C76.5642 35.1762 76.0409 34.8191 75.5811 34.379C75.1214 33.9388 74.7497 33.391 74.4661 32.7357C74.1922 32.0705 74.0552 31.2538 74.0552 30.2854C74.0552 29.5127 74.2068 28.7595 74.5101 28.0259C74.8231 27.2923 75.273 26.6418 75.8599 26.0745C76.4468 25.5072 77.1706 25.0523 78.0314 24.71C78.8922 24.3676 79.8801 24.1965 80.9952 24.1965C82.2472 24.1965 83.4014 24.3921 84.4578 24.7833C85.5142 25.1746 86.4141 25.7224 87.1575 26.4266L86.1745 28.29ZM103.339 30.5935L95.1373 49.7848C95.0298 50.0391 94.8879 50.2298 94.7119 50.357C94.5456 50.4939 94.2864 50.5624 93.9342 50.5624H91.2345L94.0516 44.5175L87.9626 30.5935H91.1465C91.4302 30.5935 91.6503 30.662 91.8068 30.7989C91.973 30.9359 92.0953 31.0924 92.1736 31.2685L95.3721 39.0741C95.4797 39.3382 95.5677 39.6023 95.6362 39.8664C95.7145 40.1305 95.7878 40.3995 95.8563 40.6733C95.9443 40.3995 96.0324 40.1305 96.1204 39.8664C96.2084 39.5925 96.3062 39.3235 96.4138 39.0594L99.4363 31.2685C99.5146 31.0728 99.6417 30.9114 99.8178 30.7843C100.004 30.6571 100.209 30.5935 100.434 30.5935H103.339ZM108.528 32.4422C108.832 32.139 109.15 31.8602 109.482 31.6059C109.825 31.3418 110.182 31.1217 110.553 30.9457C110.935 30.7598 111.341 30.618 111.771 30.5202C112.201 30.4126 112.671 30.3588 113.18 30.3588C114.001 30.3588 114.73 30.5006 115.366 30.7843C116.002 31.0582 116.53 31.4494 116.95 31.9581C117.381 32.4569 117.703 33.0585 117.919 33.7627C118.144 34.4572 118.256 35.2251 118.256 36.0663V45.6472H114.632V36.0663C114.632 35.1468 114.422 34.4377 114.001 33.9388C113.581 33.4302 112.94 33.1758 112.079 33.1758C111.453 33.1758 110.866 33.3177 110.318 33.6013C109.771 33.885 109.252 34.2714 108.763 34.7604V45.6472H105.139V30.5935H107.355C107.824 30.5935 108.132 30.8136 108.279 31.2538L108.528 32.4422ZM126.52 45.882C125.209 45.882 124.202 45.5152 123.498 44.7816C122.803 44.0382 122.456 43.016 122.456 41.7151V33.3079H120.915C120.72 33.3079 120.553 33.2443 120.416 33.1172C120.279 32.99 120.211 32.7993 120.211 32.5449V31.1071L122.632 30.7109L123.395 26.6027C123.444 26.4071 123.537 26.2555 123.674 26.1479C123.811 26.0403 123.987 25.9865 124.202 25.9865H126.08V30.7256H130.1V33.3079H126.08V41.4656C126.08 41.9352 126.192 42.302 126.417 42.5661C126.652 42.8302 126.97 42.9622 127.371 42.9622C127.596 42.9622 127.782 42.9378 127.929 42.8888C128.085 42.8302 128.217 42.7715 128.325 42.7128C128.442 42.6541 128.545 42.6003 128.633 42.5514C128.721 42.4927 128.809 42.4633 128.897 42.4633C129.005 42.4633 129.093 42.4927 129.161 42.5514C129.23 42.6003 129.303 42.6785 129.381 42.7861L130.467 44.5468C129.939 44.987 129.332 45.3195 128.648 45.5445C127.963 45.7695 127.254 45.882 126.52 45.882ZM142.004 36.3891C142.004 35.9195 141.936 35.4794 141.799 35.0686C141.671 34.648 141.476 34.2812 141.212 33.9681C140.948 33.6551 140.61 33.4106 140.199 33.2345C139.798 33.0487 139.329 32.9558 138.791 32.9558C137.744 32.9558 136.918 33.2541 136.311 33.8508C135.715 34.4474 135.333 35.2935 135.167 36.3891H142.004ZM135.093 38.5752C135.152 39.348 135.289 40.018 135.504 40.5853C135.719 41.1429 136.003 41.6075 136.355 41.9792C136.707 42.3411 137.123 42.615 137.602 42.8008C138.091 42.9769 138.629 43.0649 139.216 43.0649C139.803 43.0649 140.307 42.9964 140.728 42.8595C141.158 42.7226 141.53 42.5709 141.843 42.4047C142.165 42.2384 142.444 42.0868 142.679 41.9498C142.923 41.8129 143.158 41.7444 143.383 41.7444C143.686 41.7444 143.911 41.8569 144.058 42.0819L145.1 43.4024C144.699 43.8719 144.249 44.268 143.75 44.5908C143.251 44.9038 142.728 45.1581 142.18 45.3538C141.642 45.5396 141.089 45.6717 140.522 45.7499C139.965 45.8282 139.422 45.8673 138.894 45.8673C137.847 45.8673 136.874 45.6961 135.974 45.3538C135.074 45.0016 134.291 44.4881 133.626 43.8132C132.961 43.1285 132.438 42.2873 132.056 41.2896C131.675 40.2821 131.484 39.1181 131.484 37.7976C131.484 36.7705 131.65 35.8071 131.983 34.9072C132.315 33.9975 132.79 33.2101 133.406 32.5449C134.032 31.87 134.79 31.3369 135.68 30.9457C136.58 30.5544 137.593 30.3588 138.717 30.3588C139.666 30.3588 140.542 30.5104 141.344 30.8136C142.146 31.1168 142.835 31.5619 143.413 32.1488C143.99 32.7259 144.44 33.4399 144.762 34.2909C145.095 35.1321 145.261 36.0956 145.261 37.1814C145.261 37.7291 145.203 38.1008 145.085 38.2964C144.968 38.4823 144.743 38.5752 144.41 38.5752H135.093ZM158.765 33.7774C158.657 33.9143 158.55 34.0219 158.442 34.1002C158.344 34.1784 158.198 34.2176 158.002 34.2176C157.816 34.2176 157.635 34.1638 157.459 34.0562C157.283 33.9388 157.073 33.8116 156.828 33.6747C156.584 33.528 156.29 33.4008 155.948 33.2932C155.615 33.1758 155.2 33.1172 154.701 33.1172C154.065 33.1172 153.507 33.2345 153.028 33.4693C152.549 33.6943 152.148 34.0219 151.825 34.4523C151.512 34.8827 151.277 35.406 151.121 36.0223C150.964 36.6287 150.886 37.3183 150.886 38.091C150.886 38.8931 150.969 39.6072 151.135 40.2332C151.311 40.8592 151.561 41.3874 151.884 41.8178C152.206 42.2384 152.598 42.5612 153.057 42.7861C153.517 43.0013 154.036 43.1089 154.613 43.1089C155.19 43.1089 155.654 43.0405 156.007 42.9035C156.368 42.7568 156.672 42.6003 156.916 42.434C157.161 42.2579 157.371 42.1014 157.547 41.9645C157.733 41.8178 157.938 41.7444 158.163 41.7444C158.457 41.7444 158.677 41.8569 158.824 42.0819L159.865 43.4024C159.464 43.8719 159.029 44.268 158.56 44.5908C158.09 44.9038 157.601 45.1581 157.092 45.3538C156.593 45.5396 156.075 45.6717 155.537 45.7499C155.009 45.8282 154.481 45.8673 153.952 45.8673C153.023 45.8673 152.148 45.6961 151.326 45.3538C150.504 45.0016 149.786 44.493 149.169 43.8279C148.553 43.1627 148.064 42.3509 147.702 41.3923C147.35 40.4239 147.174 39.3235 147.174 38.091C147.174 36.9857 147.33 35.9636 147.643 35.0245C147.966 34.0757 148.436 33.259 149.052 32.5743C149.668 31.8798 150.431 31.3369 151.341 30.9457C152.25 30.5544 153.297 30.3588 154.481 30.3588C155.606 30.3588 156.589 30.5397 157.43 30.9017C158.281 31.2636 159.044 31.782 159.719 32.4569L158.765 33.7774ZM165.761 32.2075C166.348 31.6597 166.994 31.2147 167.698 30.8723C168.402 30.53 169.229 30.3588 170.178 30.3588C170.999 30.3588 171.728 30.5006 172.364 30.7843C173 31.0582 173.528 31.4494 173.948 31.9581C174.379 32.4569 174.702 33.0585 174.917 33.7627C175.142 34.4572 175.254 35.2251 175.254 36.0663V45.6472H171.63V36.0663C171.63 35.1468 171.42 34.4377 170.999 33.9388C170.579 33.4302 169.938 33.1758 169.077 33.1758C168.451 33.1758 167.864 33.3177 167.317 33.6013C166.769 33.885 166.25 34.2714 165.761 34.7604V45.6472H162.137V23.8443H165.761V32.2075Z" fill="white"/>
<path d="M111.05 54.1091C110.921 54.0462 110.772 53.9801 110.603 53.9107C110.435 53.8379 110.241 53.7734 110.023 53.7172C109.808 53.661 109.565 53.6147 109.294 53.5784C109.023 53.5387 108.722 53.5188 108.391 53.5188C107.991 53.5188 107.634 53.542 107.32 53.5883C107.009 53.6346 106.744 53.7073 106.526 53.8065C106.311 53.9024 106.146 54.0247 106.03 54.1735C105.918 54.3223 105.862 54.4992 105.862 54.7042C105.862 54.8762 105.914 55.0266 106.02 55.1556C106.129 55.2845 106.275 55.3986 106.457 55.4978C106.642 55.597 106.857 55.6879 107.102 55.7706C107.35 55.85 107.611 55.926 107.885 55.9987C108.163 56.0682 108.447 56.1393 108.738 56.212C109.033 56.2848 109.317 56.3641 109.591 56.4501C109.869 56.5328 110.13 56.627 110.375 56.7328C110.623 56.8353 110.838 56.956 111.02 57.0949C111.205 57.2337 111.35 57.3925 111.456 57.571C111.565 57.7496 111.62 57.9562 111.62 58.191C111.62 58.4456 111.572 58.6688 111.476 58.8606C111.38 59.049 111.25 59.2127 111.084 59.3516C110.922 59.4871 110.73 59.6012 110.509 59.6938C110.291 59.7831 110.056 59.8542 109.805 59.9071C109.557 59.96 109.299 59.9963 109.031 60.0162C108.766 60.0393 108.505 60.0509 108.247 60.0509C107.655 60.0509 107.118 60.0079 106.635 59.922C106.156 59.836 105.698 59.7186 105.261 59.5698V58.811C105.711 59.0788 106.186 59.2623 106.685 59.3615C107.188 59.4607 107.715 59.5103 108.267 59.5103C108.657 59.5103 109.018 59.4871 109.348 59.4409C109.679 59.3946 109.965 59.3218 110.206 59.2226C110.448 59.1201 110.635 58.9879 110.767 58.8258C110.902 58.6638 110.97 58.4654 110.97 58.2307C110.97 58.0422 110.916 57.8769 110.807 57.7347C110.701 57.5925 110.555 57.4685 110.37 57.3627C110.188 57.2536 109.973 57.1577 109.725 57.075C109.481 56.9924 109.221 56.9163 108.947 56.8469C108.672 56.7741 108.388 56.7047 108.093 56.6386C107.803 56.5691 107.52 56.4947 107.245 56.4154C106.971 56.336 106.71 56.2467 106.462 56.1475C106.217 56.0483 106.002 55.9326 105.817 55.8004C105.635 55.6648 105.49 55.5094 105.38 55.3341C105.275 55.1589 105.222 54.9555 105.222 54.7241C105.222 54.4959 105.265 54.2942 105.351 54.119C105.437 53.9404 105.554 53.7867 105.703 53.6577C105.855 53.5288 106.032 53.4213 106.234 53.3353C106.435 53.2461 106.65 53.1766 106.878 53.127C107.11 53.0741 107.35 53.0361 107.598 53.0129C107.846 52.9898 108.09 52.9782 108.332 52.9782C108.596 52.9782 108.846 52.9898 109.08 53.0129C109.319 53.0361 109.547 53.0675 109.765 53.1072C109.986 53.1436 110.201 53.1865 110.41 53.2361C110.621 53.2857 110.835 53.3386 111.05 53.3949V54.1091ZM121.803 56.5146C121.803 57.1263 121.692 57.6553 121.47 58.1017C121.249 58.5448 120.945 58.9118 120.558 59.2028C120.171 59.4904 119.715 59.7037 119.189 59.8426C118.663 59.9815 118.096 60.0509 117.488 60.0509C116.876 60.0509 116.306 59.9815 115.777 59.8426C115.248 59.7037 114.788 59.4904 114.398 59.2028C114.008 58.9118 113.702 58.5448 113.48 58.1017C113.259 57.6553 113.148 57.1263 113.148 56.5146C113.148 56.1079 113.199 55.7392 113.302 55.4085C113.404 55.0746 113.548 54.777 113.733 54.5158C113.918 54.2512 114.141 54.0231 114.403 53.8313C114.667 53.6395 114.96 53.4808 115.281 53.3552C115.605 53.2262 115.952 53.132 116.322 53.0725C116.692 53.0096 117.081 52.9782 117.488 52.9782C118.096 52.9782 118.663 53.0477 119.189 53.1865C119.715 53.3254 120.171 53.5403 120.558 53.8313C120.945 54.119 121.249 54.486 121.47 54.9324C121.692 55.3755 121.803 55.9029 121.803 56.5146ZM121.163 56.5146C121.163 56.0318 121.084 55.6053 120.925 55.2349C120.769 54.8646 120.538 54.5538 120.23 54.3025C119.923 54.0479 119.539 53.8561 119.08 53.7272C118.623 53.5949 118.093 53.5288 117.488 53.5288C116.883 53.5288 116.349 53.5949 115.886 53.7272C115.426 53.8594 115.041 54.0529 114.73 54.3075C114.419 54.5588 114.184 54.8712 114.026 55.2449C113.867 55.6152 113.788 56.0384 113.788 56.5146C113.788 56.9973 113.867 57.4239 114.026 57.7942C114.184 58.1645 114.419 58.477 114.73 58.7316C115.041 58.9829 115.426 59.1747 115.886 59.3069C116.349 59.4359 116.883 59.5004 117.488 59.5004C118.093 59.5004 118.623 59.4359 119.08 59.3069C119.539 59.1747 119.923 58.9829 120.23 58.7316C120.538 58.477 120.769 58.1645 120.925 57.7942C121.084 57.4239 121.163 56.9973 121.163 56.5146ZM127.194 53.6825C126.695 53.6825 126.265 53.7172 125.905 53.7867C125.544 53.8528 125.247 53.957 125.012 54.0991C124.781 54.2413 124.609 54.4232 124.496 54.6447C124.384 54.8663 124.328 55.1308 124.328 55.4383V56.1971H130.15V56.7774H124.328V59.917H123.708V55.3341C123.708 54.9836 123.769 54.6695 123.891 54.3918C124.017 54.114 124.215 53.8809 124.486 53.6924C124.757 53.5007 125.105 53.3552 125.528 53.256C125.954 53.1535 126.469 53.1022 127.07 53.1022H130.25V53.6825H127.194ZM134.867 53.6676V59.917H134.252V53.6676H131.153V53.1022H137.967V53.6676H134.867ZM145.09 53.1022L147.52 59.421L150.04 53.1022H150.729L147.987 59.917H147.064L144.673 53.7619L142.288 59.917H141.365L138.622 53.1022H139.312L141.831 59.421L144.257 53.1022H145.09ZM158.512 59.917V59.1631C158.273 59.2921 158.002 59.4111 157.698 59.5202C157.397 59.6293 157.078 59.7236 156.741 59.8029C156.407 59.8823 156.063 59.9434 155.709 59.9864C155.355 60.0294 155.008 60.0509 154.668 60.0509C154.225 60.0509 153.826 60.0112 153.472 59.9319C153.122 59.8525 152.824 59.7351 152.58 59.5797C152.335 59.421 152.146 59.2259 152.014 58.9945C151.882 58.7597 151.816 58.4886 151.816 58.1811C151.816 57.8769 151.892 57.609 152.044 57.3776C152.199 57.1428 152.419 56.9395 152.704 56.7675C152.988 56.5923 153.33 56.4451 153.73 56.3261C154.134 56.2038 154.583 56.1013 155.079 56.0186C155.575 55.9326 156.111 55.8632 156.686 55.8103C157.265 55.7541 157.873 55.7078 158.512 55.6714V55.1506C158.512 54.939 158.472 54.7522 158.393 54.5902C158.313 54.4281 158.202 54.2876 158.06 54.1686C157.918 54.0462 157.751 53.9454 157.559 53.866C157.367 53.7834 157.159 53.7172 156.934 53.6676C156.713 53.618 156.478 53.5833 156.23 53.5635C155.985 53.5403 155.739 53.5288 155.491 53.5288C155.157 53.5288 154.853 53.5453 154.578 53.5784C154.304 53.6114 154.048 53.6577 153.81 53.7172C153.572 53.7734 153.343 53.8396 153.125 53.9156C152.907 53.9917 152.687 54.0727 152.466 54.1587V53.4345C152.925 53.3122 153.415 53.2064 153.934 53.1171C154.456 53.0245 155.01 52.9782 155.595 52.9782C156.091 52.9782 156.554 53.0212 156.984 53.1072C157.414 53.1898 157.787 53.3238 158.105 53.5089C158.422 53.6941 158.672 53.9338 158.854 54.2281C159.036 54.5191 159.127 54.8745 159.127 55.2945V59.917H158.512ZM158.512 56.2219C157.43 56.2815 156.506 56.3658 155.739 56.4749C154.975 56.584 154.35 56.7179 153.864 56.8766C153.378 57.0353 153.021 57.2205 152.793 57.4321C152.568 57.6437 152.456 57.8835 152.456 58.1513C152.456 58.3695 152.51 58.563 152.619 58.7316C152.732 58.9002 152.892 59.0424 153.1 59.1581C153.309 59.2706 153.562 59.3565 153.859 59.4161C154.157 59.4723 154.491 59.5004 154.861 59.5004C155.079 59.5004 155.304 59.4888 155.536 59.4657C155.77 59.4392 156.004 59.4045 156.235 59.3615C156.466 59.3152 156.695 59.2623 156.919 59.2028C157.144 59.14 157.356 59.0722 157.554 58.9994C157.753 58.9267 157.933 58.849 158.095 58.7663C158.26 58.6837 158.399 58.5993 158.512 58.5134V56.2219ZM166.502 53.628C166.406 53.5982 166.272 53.5668 166.1 53.5337C165.932 53.4974 165.714 53.4792 165.446 53.4792C165.075 53.4792 164.727 53.5255 164.399 53.618C164.075 53.7073 163.773 53.8297 163.492 53.9851C163.214 54.1405 162.956 54.3223 162.718 54.5306C162.48 54.7357 162.265 54.9539 162.073 55.1853V59.917H161.453V53.1022H162.073V54.491C162.295 54.2628 162.534 54.0529 162.792 53.8611C163.053 53.6693 163.328 53.5056 163.616 53.3701C163.903 53.2312 164.204 53.1237 164.518 53.0477C164.836 52.9683 165.163 52.9286 165.5 52.9286C165.616 52.9286 165.72 52.9319 165.813 52.9385C165.905 52.9419 165.99 52.9485 166.066 52.9584C166.145 52.965 166.219 52.9733 166.289 52.9832C166.358 52.9931 166.429 53.0047 166.502 53.0179V53.628ZM174.607 59.5599C174.329 59.6459 174.071 59.7203 173.833 59.7831C173.595 59.8426 173.36 59.8905 173.129 59.9269C172.897 59.9666 172.661 59.9947 172.419 60.0112C172.181 60.0311 171.919 60.041 171.631 60.041C170.963 60.041 170.36 59.96 169.821 59.798C169.282 59.6359 168.822 59.4045 168.442 59.1036C168.065 58.7994 167.774 58.4324 167.569 58.0025C167.364 57.5727 167.261 57.0899 167.261 56.5542C167.261 56.0351 167.359 55.559 167.554 55.1258C167.752 54.6927 168.028 54.3207 168.382 54.0099C168.736 53.6991 169.159 53.4577 169.652 53.2857C170.145 53.1138 170.689 53.0278 171.284 53.0278C171.902 53.0278 172.453 53.1105 172.935 53.2758C173.418 53.4411 173.825 53.6776 174.155 53.9851C174.486 54.2926 174.737 54.6662 174.909 55.106C175.081 55.5424 175.167 56.0351 175.167 56.584V56.7378H167.901C167.937 57.161 168.043 57.5429 168.219 57.8835C168.394 58.224 168.642 58.5134 168.963 58.7514C169.287 58.9895 169.683 59.173 170.153 59.302C170.626 59.4276 171.176 59.4904 171.804 59.4904C172.072 59.4904 172.343 59.4723 172.618 59.4359C172.892 59.3995 173.155 59.3516 173.406 59.2921C173.658 59.2292 173.888 59.1598 174.096 59.0837C174.304 59.0044 174.475 58.9234 174.607 58.8407V59.5599ZM174.557 56.1971C174.534 55.85 174.456 55.5193 174.324 55.2052C174.192 54.8878 173.993 54.6083 173.729 54.367C173.468 54.1256 173.134 53.9338 172.727 53.7916C172.324 53.6495 171.839 53.5784 171.274 53.5784C170.741 53.5784 170.275 53.6495 169.875 53.7916C169.475 53.9338 169.136 54.1256 168.858 54.367C168.581 54.605 168.362 54.8828 168.204 55.2002C168.045 55.5143 167.944 55.8466 167.901 56.1971H174.557Z" fill="white"/>
</svg>
