<svg width="21" height="21" viewBox="0 0 21 21" fill="none" xmlns="http://www.w3.org/2000/svg"><path d="M10.357 8.75061L5.79906 13.3324C5.43845 13.6948 5.24474 14.1818 5.25396 14.7031C5.26318 15.2244 5.47422 15.7185 5.84358 16.0895L5.86167 16.108C6.6296 16.8793 7.85464 16.9043 8.59957 16.1663L8.7162 16.062L17.6503 7.08297C18.2892 6.44092 18.6322 5.57842 18.6159 4.65487C18.5996 3.73132 18.2259 2.85611 17.5569 2.18389C16.1912 0.81158 14.0077 0.772748 12.6893 2.09778L3.01986 11.8168C1.21596 13.6298 1.26887 16.6325 3.13772 18.5108C4.07221 19.4499 5.2865 19.9325 6.4926 19.9538C7.6987 19.9752 8.8967 19.5349 9.79834 18.6284L19.4676 8.90915" stroke="#009CA6" stroke-width="1.5" stroke-linecap="round"/></svg>
