<svg width="283" height="215" viewBox="0 0 283 215" fill="none" xmlns="http://www.w3.org/2000/svg">
<ellipse cx="146.728" cy="205.947" rx="136.167" ry="9.05263" fill="#DDDDDD"/>
<path d="M5 41.4912C5 21.3377 21.3377 5 41.4912 5H241.404C261.557 5 277.895 21.3377 277.895 41.4912V201.361L222.892 183.76C216.305 181.652 209.431 180.579 202.515 180.579H41.4912C21.3377 180.579 5 164.241 5 144.088V41.4912Z" stroke="url(#paint0_linear)" stroke-width="10"/>
<path d="M77.7002 41.0559H65.2401V75.4385H55.232V41.0559H43V33.1929H77.7002V41.0559Z" fill="url(#paint1_linear)"/>
<path d="M116.649 75.4385H106.698V57.7975H91.9567V75.4385H81.9486V33.1929H91.9567V49.9635H106.698V33.1929H116.649V75.4385Z" fill="url(#paint2_linear)"/>
<path d="M147.101 67.5464H133.386L130.991 75.4385H120.299L135.524 33.1929H144.934L160.274 75.4385H149.524L147.101 67.5464ZM135.781 59.6834H144.706L140.229 45.0309L135.781 59.6834Z" fill="url(#paint3_linear)"/>
<path d="M197.996 75.4385H188.045L173.333 49.151V75.4385H163.325V33.1929H173.333L188.017 59.4803V33.1929H197.996V75.4385Z" fill="url(#paint4_linear)"/>
<path d="M218.44 59.7124L214.334 64.2968V75.4385H204.326V33.1929H214.334V51.8204L217.813 46.4527L226.766 33.1929H239.14L225.112 51.8784L239.14 75.4385H227.279L218.44 59.7124Z" fill="url(#paint5_linear)"/>
<path d="M71.1902 120.639L82.8851 92.9126H99.424L78.9577 133.845V156.789H63.4226V133.845L43 92.9126H59.4515L71.1902 120.639Z" fill="url(#paint6_linear)"/>
<path d="M156.546 126.167C156.546 132.397 155.397 137.91 153.099 142.707C150.8 147.503 147.528 151.203 143.28 153.806C139.062 156.38 134.247 157.667 128.836 157.667C123.425 157.667 118.625 156.424 114.435 153.938C110.246 151.422 106.973 147.84 104.617 143.189C102.29 138.539 101.068 133.201 100.951 127.176V123.579C100.951 117.32 102.086 111.807 104.355 107.039C106.653 102.243 109.926 98.5427 114.174 95.9397C118.45 93.3367 123.308 92.0352 128.749 92.0352C134.131 92.0352 138.931 93.322 143.149 95.8958C147.368 98.4696 150.64 102.14 152.968 106.908C155.324 111.646 156.517 117.086 156.546 123.228V126.167ZM140.967 123.491C140.967 117.144 139.905 112.333 137.782 109.057C135.687 105.752 132.676 104.1 128.749 104.1C121.068 104.1 117.01 109.891 116.574 121.473L116.53 126.167C116.53 132.426 117.563 137.237 119.628 140.601C121.694 143.964 124.763 145.646 128.836 145.646C132.705 145.646 135.687 143.993 137.782 140.689C139.876 137.384 140.938 132.631 140.967 126.43V123.491Z" fill="url(#paint7_linear)"/>
<path d="M214.279 92.9126V134.722C214.279 139.46 213.276 143.569 211.268 147.05C209.261 150.501 206.381 153.133 202.628 154.947C198.875 156.76 194.438 157.667 189.318 157.667C181.58 157.667 175.485 155.649 171.034 151.612C166.583 147.576 164.314 142.049 164.226 135.029V92.9126H179.631V135.336C179.805 142.326 183.034 145.821 189.318 145.821C192.489 145.821 194.889 144.944 196.519 143.189C198.148 141.434 198.962 138.583 198.962 134.634V92.9126H214.279Z" fill="url(#paint8_linear)"/>
<path d="M237.8 136.565H225.887L224.01 92.9126H239.677L237.8 136.565ZM223.574 150.165C223.574 148 224.345 146.231 225.887 144.856C227.458 143.452 229.407 142.75 231.734 142.75C234.062 142.75 235.996 143.452 237.538 144.856C239.109 146.231 239.895 148 239.895 150.165C239.895 152.329 239.109 154.113 237.538 155.517C235.996 156.892 234.062 157.579 231.734 157.579C229.407 157.579 227.458 156.892 225.887 155.517C224.345 154.113 223.574 152.329 223.574 150.165Z" fill="url(#paint9_linear)"/>
<defs>
<linearGradient id="paint0_linear" x1="0" y1="208.211" x2="282.895" y2="208.211" gradientUnits="userSpaceOnUse">
<stop stop-color="#7EDDD3"/>
<stop offset="0.499276" stop-color="#2AD2C9"/>
<stop offset="1" stop-color="#009CA6"/>
</linearGradient>
<linearGradient id="paint1_linear" x1="239.14" y1="33.1929" x2="43" y2="33.1929" gradientUnits="userSpaceOnUse">
<stop stop-color="#C63527"/>
<stop offset="0.499276" stop-color="#FF5E00"/>
<stop offset="1" stop-color="#FF8200"/>
</linearGradient>
<linearGradient id="paint2_linear" x1="239.14" y1="33.1929" x2="43" y2="33.1929" gradientUnits="userSpaceOnUse">
<stop stop-color="#C63527"/>
<stop offset="0.499276" stop-color="#FF5E00"/>
<stop offset="1" stop-color="#FF8200"/>
</linearGradient>
<linearGradient id="paint3_linear" x1="239.14" y1="33.1929" x2="43" y2="33.1929" gradientUnits="userSpaceOnUse">
<stop stop-color="#C63527"/>
<stop offset="0.499276" stop-color="#FF5E00"/>
<stop offset="1" stop-color="#FF8200"/>
</linearGradient>
<linearGradient id="paint4_linear" x1="239.14" y1="33.1929" x2="43" y2="33.1929" gradientUnits="userSpaceOnUse">
<stop stop-color="#C63527"/>
<stop offset="0.499276" stop-color="#FF5E00"/>
<stop offset="1" stop-color="#FF8200"/>
</linearGradient>
<linearGradient id="paint5_linear" x1="239.14" y1="33.1929" x2="43" y2="33.1929" gradientUnits="userSpaceOnUse">
<stop stop-color="#C63527"/>
<stop offset="0.499276" stop-color="#FF5E00"/>
<stop offset="1" stop-color="#FF8200"/>
</linearGradient>
<linearGradient id="paint6_linear" x1="239.895" y1="92.0352" x2="43" y2="92.0352" gradientUnits="userSpaceOnUse">
<stop stop-color="#3E4BA3"/>
<stop offset="0.495501" stop-color="#6941C6"/>
<stop offset="1" stop-color="#7F4AAE"/>
</linearGradient>
<linearGradient id="paint7_linear" x1="239.895" y1="92.0352" x2="43" y2="92.0352" gradientUnits="userSpaceOnUse">
<stop stop-color="#3E4BA3"/>
<stop offset="0.495501" stop-color="#6941C6"/>
<stop offset="1" stop-color="#7F4AAE"/>
</linearGradient>
<linearGradient id="paint8_linear" x1="239.895" y1="92.0352" x2="43" y2="92.0352" gradientUnits="userSpaceOnUse">
<stop stop-color="#3E4BA3"/>
<stop offset="0.495501" stop-color="#6941C6"/>
<stop offset="1" stop-color="#7F4AAE"/>
</linearGradient>
<linearGradient id="paint9_linear" x1="239.895" y1="92.0352" x2="43" y2="92.0352" gradientUnits="userSpaceOnUse">
<stop stop-color="#3E4BA3"/>
<stop offset="0.495501" stop-color="#6941C6"/>
<stop offset="1" stop-color="#7F4AAE"/>
</linearGradient>
</defs>
</svg>
