<svg width="906" height="906" fill="none" xmlns="http://www.w3.org/2000/svg"><path d="M453 487.769c19.202 0 34.769-15.567 34.769-34.769 0-19.203-15.567-34.77-34.769-34.77-19.203 0-34.77 15.567-34.77 34.77 0 19.202 15.567 34.769 34.77 34.769z" stroke="#CCC" stroke-miterlimit="10"/><path d="M452.999 522.538c38.405 0 69.539-31.133 69.539-69.538s-31.134-69.539-69.539-69.539-69.538 31.134-69.538 69.539 31.133 69.538 69.538 69.538z" stroke="#CCC" stroke-miterlimit="10"/><path d="M452.999 557.308c57.608 0 104.308-46.7 104.308-104.308 0-57.607-46.7-104.308-104.308-104.308-57.607 0-104.308 46.701-104.308 104.308 0 57.608 46.701 104.308 104.308 104.308z" fill="url(#paint0_linear)"/><path d="M453 592.077c76.81 0 139.077-62.267 139.077-139.077S529.81 313.923 453 313.923 313.923 376.19 313.923 453 376.19 592.077 453 592.077z" stroke="#CCC" stroke-miterlimit="10"/><path d="M452.999 626.846c96.013 0 173.847-77.833 173.847-173.846s-77.834-173.846-173.847-173.846c-96.012 0-173.846 77.833-173.846 173.846s77.834 173.846 173.846 173.846z" stroke="#CCC" stroke-miterlimit="10"/><path d="M453.001 661.616c115.215 0 208.616-93.401 208.616-208.616 0-115.215-93.401-208.615-208.616-208.615-115.215 0-208.615 93.4-208.615 208.615s93.4 208.616 208.615 208.616z" stroke="#CCC" stroke-miterlimit="10"/><path d="M452.999 696.384c134.417 0 243.384-108.967 243.384-243.384 0-134.418-108.967-243.385-243.384-243.385-134.418 0-243.385 108.967-243.385 243.385 0 134.417 108.967 243.384 243.385 243.384z" stroke="#CCC" stroke-miterlimit="10"/><path d="M453.001 731.154c153.62 0 278.153-124.534 278.153-278.154S606.621 174.846 453.001 174.846C299.38 174.846 174.847 299.38 174.847 453S299.38 731.154 453.001 731.154z" stroke="#CCC" stroke-miterlimit="10"/><path d="M453 765.923c172.823 0 312.923-140.1 312.923-312.923 0-172.822-140.1-312.923-312.923-312.923-172.822 0-312.923 140.101-312.923 312.923 0 172.823 140.101 312.923 312.923 312.923z" stroke="#CCC" stroke-miterlimit="10"/><path d="M453 800.692c192.026 0 347.693-155.667 347.693-347.692S645.026 105.308 453 105.308c-192.025 0-347.692 155.667-347.692 347.692S260.975 800.692 453 800.692z" stroke="#CCC" stroke-miterlimit="10"/><path d="M453.001 835.462c211.227 0 382.461-171.234 382.461-382.462 0-211.228-171.234-382.461-382.461-382.461C241.773 70.539 70.539 241.772 70.539 453s171.234 382.462 382.462 382.462z" stroke="#CCC" stroke-miterlimit="10"/><path d="M453 870.231c230.431 0 417.231-186.801 417.231-417.231S683.431 35.769 453 35.769C222.57 35.769 35.77 222.57 35.77 453S222.57 870.231 453 870.231z" stroke="#CCC" stroke-miterlimit="10"/><path d="M453 905c249.633 0 452-202.367 452-452S702.633 1 453 1 1 203.367 1 453s202.367 452 452 452z" stroke="#CCC" stroke-miterlimit="10"/><circle cx="121" cy="144" r="25" fill="url(#paint1_linear)"/><defs><linearGradient id="paint0_linear" x1="348.691" y1="557.308" x2="557.307" y2="557.308" gradientUnits="userSpaceOnUse"><stop stop-color="#7EDDD3"/><stop offset=".499" stop-color="#2AD2C9"/><stop offset="1" stop-color="#009CA6"/></linearGradient><linearGradient id="paint1_linear" x1="146" y1="119" x2="96" y2="119" gradientUnits="userSpaceOnUse"><stop stop-color="#C63527"/><stop offset=".499" stop-color="#FF5E00"/><stop offset="1" stop-color="#FF8200"/></linearGradient></defs></svg>