<svg width="24" height="16" viewBox="0 0 24 16" fill="none" xmlns="http://www.w3.org/2000/svg">
<path d="M18.7313 10.1818C17.694 10.1818 16.6799 9.88324 15.8174 9.32385C14.9549 8.76445 14.2827 7.96936 13.8857 7.03912C13.4888 6.10888 13.3849 5.08526 13.5873 4.09772C13.7897 3.11018 14.2892 2.20307 15.0227 1.4911C15.7562 0.779119 16.6907 0.294256 17.7081 0.0978227C18.7255 -0.0986112 19.78 0.00220581 20.7383 0.387525C21.6967 0.772843 22.5158 1.42536 23.0921 2.26255C23.6684 3.09975 23.976 4.08402 23.976 5.09091L24 5.81818C24 7.15528 23.7287 8.47928 23.2015 9.7146C22.6744 10.9499 21.9017 12.0723 20.9277 13.0178C19.9537 13.9633 18.7973 14.7133 17.5247 15.225C16.252 15.7366 14.888 16 13.5105 16V13.0909C14.4949 13.0935 15.47 12.9066 16.3795 12.5411C17.289 12.1756 18.1148 11.6387 18.8092 10.9615C19.0791 10.7 19.3281 10.4189 19.5539 10.1207C19.2818 10.1622 19.0068 10.1832 18.7313 10.1833V10.1818ZM5.24476 10.1818C4.20744 10.1818 3.19342 9.88324 2.33093 9.32385C1.46843 8.76445 0.796199 7.96936 0.399236 7.03912C0.00227251 6.10888 -0.101591 5.08526 0.100779 4.09772C0.303149 3.11018 0.802663 2.20307 1.53616 1.4911C2.26965 0.779119 3.20417 0.294256 4.22156 0.0978227C5.23894 -0.0986112 6.29348 0.00220581 7.25184 0.387525C8.21019 0.772843 9.02931 1.42536 9.60561 2.26255C10.1819 3.09975 10.4895 4.08402 10.4895 5.09091L10.5135 5.81818C10.5135 8.51857 9.40835 11.1084 7.44118 13.0178C5.47402 14.9273 2.80597 16 0.0239784 16V13.0909C1.00834 13.0935 1.98346 12.9066 2.89296 12.5411C3.80245 12.1756 4.62828 11.6387 5.32268 10.9615C5.59257 10.7 5.84154 10.4189 6.06743 10.1207C5.79529 10.1622 5.52024 10.1832 5.24476 10.1833V10.1818Z" fill="url(#paint0_linear)"/>
<defs>
<linearGradient id="paint0_linear" x1="0" y1="16" x2="24" y2="16" gradientUnits="userSpaceOnUse">
<stop stop-color="#7EDDD3"/>
<stop offset="0.499276" stop-color="#2AD2C9"/>
<stop offset="1" stop-color="#009CA6"/>
</linearGradient>
</defs>
</svg>
