<svg width="283" height="215" fill="none" xmlns="http://www.w3.org/2000/svg"><ellipse cx="146.728" cy="205.947" rx="136.167" ry="9.053" fill="#DDD"/><path d="M5 41.491C5 21.338 21.338 5 41.491 5h199.913c20.153 0 36.491 16.338 36.491 36.491v159.87l-55.003-17.601a66.854 66.854 0 00-20.377-3.181H41.491C21.338 180.579 5 164.241 5 144.088V41.491z" stroke="url(#paint0_linear)" stroke-width="10"/><path d="M77.7 41.056H65.24v34.383H55.232V41.056H43v-7.863h34.7v7.863z" fill="url(#paint1_linear)"/><path d="M116.649 75.439h-9.951V57.798H91.957v17.64H81.949V33.194h10.008v16.77h14.741v-16.77h9.951V75.44z" fill="url(#paint2_linear)"/><path d="M147.101 67.546h-13.715l-2.395 7.892h-10.692l15.225-42.245h9.41l15.34 42.246h-10.75l-2.423-7.893zm-11.32-7.863h8.925l-4.477-14.652-4.448 14.652z" fill="url(#paint3_linear)"/><path d="M197.996 75.439h-9.951L173.333 49.15v26.288h-10.008V33.193h10.008l14.684 26.287V33.193h9.979v42.246z" fill="url(#paint4_linear)"/><path d="M218.44 59.712l-4.106 4.585v11.142h-10.008V33.193h10.008V51.82l3.479-5.367 8.953-13.26h12.374l-14.028 18.685 14.028 23.56h-11.861l-8.839-15.726z" fill="url(#paint5_linear)"/><path d="M71.19 120.639l11.695-27.726h16.539l-20.466 40.932v22.944H63.423v-22.944L43 92.913h16.452l11.738 27.726z" fill="url(#paint6_linear)"/><path d="M156.546 126.167c0 6.23-1.149 11.743-3.447 16.54-2.299 4.796-5.571 8.496-9.819 11.099-4.218 2.574-9.033 3.861-14.444 3.861-5.411 0-10.211-1.243-14.401-3.729-4.189-2.516-7.462-6.098-9.818-10.749-2.327-4.65-3.549-9.988-3.666-16.013v-3.597c0-6.259 1.135-11.772 3.404-16.54 2.298-4.796 5.571-8.496 9.819-11.1 4.276-2.602 9.134-3.904 14.575-3.904 5.382 0 10.182 1.287 14.4 3.86 4.219 2.575 7.491 6.245 9.819 11.013 2.356 4.738 3.549 10.178 3.578 16.32v2.939zm-15.579-2.676c0-6.347-1.062-11.158-3.185-14.434-2.095-3.305-5.106-4.957-9.033-4.957-7.681 0-11.739 5.791-12.175 17.373l-.044 4.694c0 6.259 1.033 11.07 3.098 14.434 2.066 3.363 5.135 5.045 9.208 5.045 3.869 0 6.851-1.653 8.946-4.957 2.094-3.305 3.156-8.058 3.185-14.259v-2.939z" fill="url(#paint7_linear)"/><path d="M214.279 92.913v41.809c0 4.738-1.003 8.847-3.011 12.328-2.007 3.451-4.887 6.083-8.64 7.897-3.753 1.813-8.19 2.72-13.31 2.72-7.738 0-13.833-2.018-18.284-6.055-4.451-4.036-6.72-9.563-6.808-16.583V92.913h15.405v42.423c.174 6.99 3.403 10.485 9.687 10.485 3.171 0 5.571-.877 7.201-2.632 1.629-1.755 2.443-4.606 2.443-8.555V92.913h15.317z" fill="url(#paint8_linear)"/><path d="M237.8 136.565h-11.913l-1.877-43.652h15.667l-1.877 43.652zm-14.226 13.6c0-2.165.771-3.934 2.313-5.309 1.571-1.404 3.52-2.106 5.847-2.106 2.328 0 4.262.702 5.804 2.106 1.571 1.375 2.357 3.144 2.357 5.309 0 2.164-.786 3.948-2.357 5.352-1.542 1.375-3.476 2.062-5.804 2.062-2.327 0-4.276-.687-5.847-2.062-1.542-1.404-2.313-3.188-2.313-5.352z" fill="url(#paint9_linear)"/><defs><linearGradient id="paint0_linear" x1="0" y1="208.211" x2="282.895" y2="208.211" gradientUnits="userSpaceOnUse"><stop stop-color="#7EDDD3"/><stop offset=".499" stop-color="#2AD2C9"/><stop offset="1" stop-color="#009CA6"/></linearGradient><linearGradient id="paint1_linear" x1="239.14" y1="33.193" x2="43" y2="33.193" gradientUnits="userSpaceOnUse"><stop stop-color="#C63527"/><stop offset=".499" stop-color="#FF5E00"/><stop offset="1" stop-color="#FF8200"/></linearGradient><linearGradient id="paint2_linear" x1="239.14" y1="33.193" x2="43" y2="33.193" gradientUnits="userSpaceOnUse"><stop stop-color="#C63527"/><stop offset=".499" stop-color="#FF5E00"/><stop offset="1" stop-color="#FF8200"/></linearGradient><linearGradient id="paint3_linear" x1="239.14" y1="33.193" x2="43" y2="33.193" gradientUnits="userSpaceOnUse"><stop stop-color="#C63527"/><stop offset=".499" stop-color="#FF5E00"/><stop offset="1" stop-color="#FF8200"/></linearGradient><linearGradient id="paint4_linear" x1="239.14" y1="33.193" x2="43" y2="33.193" gradientUnits="userSpaceOnUse"><stop stop-color="#C63527"/><stop offset=".499" stop-color="#FF5E00"/><stop offset="1" stop-color="#FF8200"/></linearGradient><linearGradient id="paint5_linear" x1="239.14" y1="33.193" x2="43" y2="33.193" gradientUnits="userSpaceOnUse"><stop stop-color="#C63527"/><stop offset=".499" stop-color="#FF5E00"/><stop offset="1" stop-color="#FF8200"/></linearGradient><linearGradient id="paint6_linear" x1="239.895" y1="92.035" x2="43" y2="92.035" gradientUnits="userSpaceOnUse"><stop stop-color="#3E4BA3"/><stop offset=".496" stop-color="#6941C6"/><stop offset="1" stop-color="#7F4AAE"/></linearGradient><linearGradient id="paint7_linear" x1="239.895" y1="92.035" x2="43" y2="92.035" gradientUnits="userSpaceOnUse"><stop stop-color="#3E4BA3"/><stop offset=".496" stop-color="#6941C6"/><stop offset="1" stop-color="#7F4AAE"/></linearGradient><linearGradient id="paint8_linear" x1="239.895" y1="92.035" x2="43" y2="92.035" gradientUnits="userSpaceOnUse"><stop stop-color="#3E4BA3"/><stop offset=".496" stop-color="#6941C6"/><stop offset="1" stop-color="#7F4AAE"/></linearGradient><linearGradient id="paint9_linear" x1="239.895" y1="92.035" x2="43" y2="92.035" gradientUnits="userSpaceOnUse"><stop stop-color="#3E4BA3"/><stop offset=".496" stop-color="#6941C6"/><stop offset="1" stop-color="#7F4AAE"/></linearGradient></defs></svg>