<svg width="462" height="462" viewBox="0 0 462 462" fill="none" xmlns="http://www.w3.org/2000/svg">
<path d="M231 248.692C240.771 248.692 248.692 240.771 248.692 231C248.692 221.229 240.771 213.308 231 213.308C221.229 213.308 213.308 221.229 213.308 231C213.308 240.771 221.229 248.692 231 248.692Z" stroke="#DDDDDD" stroke-miterlimit="10"/>
<path d="M231 266.385C250.542 266.385 266.384 250.542 266.384 231C266.384 211.458 250.542 195.615 231 195.615C211.457 195.615 195.615 211.458 195.615 231C195.615 250.542 211.457 266.385 231 266.385Z" stroke="#DDDDDD" stroke-miterlimit="10"/>
<path d="M231 284.077C260.313 284.077 284.077 260.314 284.077 231C284.077 201.686 260.313 177.923 231 177.923C201.686 177.923 177.923 201.686 177.923 231C177.923 260.314 201.686 284.077 231 284.077Z" stroke="#DDDDDD" stroke-miterlimit="10"/>
<path d="M231 301.769C270.084 301.769 301.769 270.085 301.769 231C301.769 191.915 270.084 160.231 231 160.231C191.915 160.231 160.23 191.915 160.23 231C160.23 270.085 191.915 301.769 231 301.769Z" stroke="#DDDDDD" stroke-miterlimit="10"/>
<path d="M231 319.462C279.856 319.462 319.461 279.856 319.461 231C319.461 182.144 279.856 142.538 231 142.538C182.144 142.538 142.538 182.144 142.538 231C142.538 279.856 182.144 319.462 231 319.462Z" stroke="#DDDDDD" stroke-miterlimit="10"/>
<g filter="url(#filter0_d)">
<path d="M231.001 337.154C289.628 337.154 337.154 289.627 337.154 231C337.154 172.373 289.628 124.846 231.001 124.846C172.373 124.846 124.847 172.373 124.847 231C124.847 289.627 172.373 337.154 231.001 337.154Z" fill="url(#paint0_linear)"/>
</g>
<path d="M230.999 354.846C299.398 354.846 354.846 299.398 354.846 231C354.846 162.602 299.398 107.154 230.999 107.154C162.601 107.154 107.153 162.602 107.153 231C107.153 299.398 162.601 354.846 230.999 354.846Z" stroke="#DDDDDD" stroke-miterlimit="10"/>
<path d="M231 372.539C309.17 372.539 372.539 309.17 372.539 231C372.539 152.83 309.17 89.4615 231 89.4615C152.831 89.4615 89.4619 152.83 89.4619 231C89.4619 309.17 152.831 372.539 231 372.539Z" stroke="#DDDDDD" stroke-miterlimit="10"/>
<path d="M231 390.231C318.941 390.231 390.231 318.941 390.231 231C390.231 143.059 318.941 71.7693 231 71.7693C143.06 71.7693 71.7695 143.059 71.7695 231C71.7695 318.941 143.06 390.231 231 390.231Z" stroke="#DDDDDD" stroke-miterlimit="10"/>
<path d="M231 407.923C328.712 407.923 407.923 328.712 407.923 231C407.923 133.288 328.712 54.077 231 54.077C133.288 54.077 54.0771 133.288 54.0771 231C54.0771 328.712 133.288 407.923 231 407.923Z" stroke="#DDDDDD" stroke-miterlimit="10"/>
<path d="M231 425.615C338.483 425.615 425.616 338.483 425.616 231C425.616 123.517 338.483 36.3846 231 36.3846C123.517 36.3846 36.3848 123.517 36.3848 231C36.3848 338.483 123.517 425.615 231 425.615Z" stroke="#DDDDDD" stroke-miterlimit="10"/>
<path d="M231 443.308C348.254 443.308 443.308 348.254 443.308 231C443.308 113.746 348.254 18.6923 231 18.6923C113.746 18.6923 18.6924 113.746 18.6924 231C18.6924 348.254 113.746 443.308 231 443.308Z" stroke="#DDDDDD" stroke-miterlimit="10"/>
<path d="M231 461C358.025 461 461 358.025 461 231C461 103.975 358.025 1 231 1C103.975 1 1 103.975 1 231C1 358.025 103.975 461 231 461Z" stroke="#DDDDDD" stroke-miterlimit="10"/>
<path d="M182.369 188.518C182.369 187.949 182.83 187.487 183.4 187.487H270.402C270.972 187.487 271.433 187.949 271.433 188.518V192.612C271.433 193.182 270.972 193.644 270.402 193.644H183.4C182.83 193.644 182.369 193.182 182.369 192.612V188.518Z" stroke="white" stroke-width="2.03125"/>
<path d="M190.557 202.848C190.557 202.278 191.019 201.816 191.589 201.816H216.154C216.723 201.816 217.185 202.278 217.185 202.848V206.942C217.185 207.512 216.723 207.974 216.154 207.974H191.589C191.019 207.974 190.557 207.512 190.557 206.942V202.848Z" stroke="white" stroke-width="2.03125"/>
<path d="M190.557 213.083C190.557 212.514 191.019 212.052 191.589 212.052H198.753C199.323 212.052 199.785 212.514 199.785 213.083V217.178C199.785 217.747 199.323 218.209 198.753 218.209H191.589C191.019 218.209 190.557 217.747 190.557 217.178V213.083Z" stroke="white" stroke-width="2.03125"/>
<path d="M185.439 193.628H268.363V247.884C268.363 248.454 267.901 248.916 267.331 248.916H186.471C185.901 248.916 185.439 248.454 185.439 247.884V193.628Z" stroke="white" stroke-width="2.03125"/>
<path d="M247.876 248.9H253.01V269.387H247.876V248.9Z" stroke="white" stroke-width="2.03125"/>
<path d="M200.793 248.9H205.927V269.387H200.793V248.9Z" stroke="white" stroke-width="2.03125"/>
<path d="M219.217 183.4C219.217 182.831 219.679 182.369 220.248 182.369H233.554C234.124 182.369 234.586 182.831 234.586 183.4V187.503H219.217V183.4Z" stroke="white" stroke-width="2.03125"/>
<circle cx="214.107" cy="239.696" r="17.4083" fill="#FF5E00" stroke="white" stroke-width="2.03125"/>
<path d="M213.595 227.413V241.743L221.784 248.396" stroke="white" stroke-width="2.03125" stroke-linecap="round"/>
<line x1="232.523" y1="201.832" x2="257.104" y2="201.832" stroke="white" stroke-width="2.03125" stroke-linecap="round"/>
<line x1="232.523" y1="206.95" x2="251.986" y2="206.95" stroke="white" stroke-width="2.03125" stroke-linecap="round"/>
<line x1="232.523" y1="212.068" x2="255.057" y2="212.068" stroke="white" stroke-width="2.03125" stroke-linecap="round"/>
<line x1="232.523" y1="225.374" x2="242.774" y2="225.374" stroke="white" stroke-width="2.03125" stroke-linecap="round"/>
<line x1="232.523" y1="220.256" x2="259.151" y2="220.256" stroke="white" stroke-width="2.03125" stroke-linecap="round"/>
<line x1="192.604" y1="269.387" x2="260.175" y2="269.387" stroke="white" stroke-width="2.03125" stroke-linecap="round"/>
<defs>
<filter id="filter0_d" x="109.847" y="111.846" width="242.308" height="242.308" filterUnits="userSpaceOnUse" color-interpolation-filters="sRGB">
<feFlood flood-opacity="0" result="BackgroundImageFix"/>
<feColorMatrix in="SourceAlpha" type="matrix" values="0 0 0 0 0 0 0 0 0 0 0 0 0 0 0 0 0 0 127 0"/>
<feOffset dy="2"/>
<feGaussianBlur stdDeviation="7.5"/>
<feColorMatrix type="matrix" values="0 0 0 0 0.580664 0 0 0 0 0.188545 0 0 0 0 0.150685 0 0 0 0.25 0"/>
<feBlend mode="normal" in2="BackgroundImageFix" result="effect1_dropShadow"/>
<feBlend mode="normal" in="SourceGraphic" in2="effect1_dropShadow" result="shape"/>
</filter>
<linearGradient id="paint0_linear" x1="337.154" y1="124.846" x2="124.847" y2="124.846" gradientUnits="userSpaceOnUse">
<stop stop-color="#C63527"/>
<stop offset="0.499276" stop-color="#FF5E00"/>
<stop offset="1" stop-color="#FF8200"/>
</linearGradient>
</defs>
</svg>
