<svg width="462" height="462" viewBox="0 0 462 462" fill="none" xmlns="http://www.w3.org/2000/svg">
<path d="M231 248.692C240.771 248.692 248.692 240.771 248.692 231C248.692 221.229 240.771 213.308 231 213.308C221.229 213.308 213.308 221.229 213.308 231C213.308 240.771 221.229 248.692 231 248.692Z" stroke="#DDDDDD" stroke-miterlimit="10"/>
<path d="M231 266.385C250.542 266.385 266.384 250.542 266.384 231C266.384 211.458 250.542 195.615 231 195.615C211.457 195.615 195.615 211.458 195.615 231C195.615 250.542 211.457 266.385 231 266.385Z" stroke="#DDDDDD" stroke-miterlimit="10"/>
<path d="M231 284.077C260.313 284.077 284.077 260.314 284.077 231C284.077 201.686 260.313 177.923 231 177.923C201.686 177.923 177.923 201.686 177.923 231C177.923 260.314 201.686 284.077 231 284.077Z" stroke="#DDDDDD" stroke-miterlimit="10"/>
<path d="M231 301.769C270.084 301.769 301.769 270.085 301.769 231C301.769 191.915 270.084 160.231 231 160.231C191.915 160.231 160.23 191.915 160.23 231C160.23 270.085 191.915 301.769 231 301.769Z" stroke="#DDDDDD" stroke-miterlimit="10"/>
<path d="M231 319.462C279.856 319.462 319.461 279.856 319.461 231C319.461 182.144 279.856 142.538 231 142.538C182.144 142.538 142.538 182.144 142.538 231C142.538 279.856 182.144 319.462 231 319.462Z" stroke="#DDDDDD" stroke-miterlimit="10"/>
<g filter="url(#filter0_d)">
<path d="M231.001 337.154C289.628 337.154 337.154 289.627 337.154 231C337.154 172.373 289.628 124.846 231.001 124.846C172.373 124.846 124.847 172.373 124.847 231C124.847 289.627 172.373 337.154 231.001 337.154Z" fill="url(#paint0_linear)"/>
</g>
<path d="M230.999 354.846C299.398 354.846 354.846 299.398 354.846 231C354.846 162.602 299.398 107.154 230.999 107.154C162.601 107.154 107.153 162.602 107.153 231C107.153 299.398 162.601 354.846 230.999 354.846Z" stroke="#DDDDDD" stroke-miterlimit="10"/>
<path d="M231 372.538C309.17 372.538 372.539 309.17 372.539 231C372.539 152.83 309.17 89.4615 231 89.4615C152.831 89.4615 89.4619 152.83 89.4619 231C89.4619 309.17 152.831 372.538 231 372.538Z" stroke="#DDDDDD" stroke-miterlimit="10"/>
<path d="M231 390.231C318.941 390.231 390.231 318.941 390.231 231C390.231 143.059 318.941 71.7693 231 71.7693C143.06 71.7693 71.7695 143.059 71.7695 231C71.7695 318.941 143.06 390.231 231 390.231Z" stroke="#DDDDDD" stroke-miterlimit="10"/>
<path d="M231 407.923C328.712 407.923 407.923 328.712 407.923 231C407.923 133.288 328.712 54.077 231 54.077C133.288 54.077 54.0771 133.288 54.0771 231C54.0771 328.712 133.288 407.923 231 407.923Z" stroke="#DDDDDD" stroke-miterlimit="10"/>
<path d="M231 425.615C338.483 425.615 425.616 338.483 425.616 231C425.616 123.517 338.483 36.3847 231 36.3847C123.517 36.3847 36.3848 123.517 36.3848 231C36.3848 338.483 123.517 425.615 231 425.615Z" stroke="#DDDDDD" stroke-miterlimit="10"/>
<path d="M231 443.308C348.254 443.308 443.308 348.254 443.308 231C443.308 113.746 348.254 18.6922 231 18.6922C113.746 18.6922 18.6924 113.746 18.6924 231C18.6924 348.254 113.746 443.308 231 443.308Z" stroke="#DDDDDD" stroke-miterlimit="10"/>
<path d="M231 461C358.025 461 461 358.025 461 231C461 103.975 358.025 1 231 1C103.975 1 1 103.975 1 231C1 358.025 103.975 461 231 461Z" stroke="#DDDDDD" stroke-miterlimit="10"/>
<rect x="190.277" y="189.222" width="79.1653" height="79.1653" rx="5.27768" stroke="white" stroke-width="2.03125" stroke-linecap="round"/>
<rect x="196.61" y="196.611" width="65.4433" height="65.4433" rx="5.27768" stroke="white" stroke-width="2.03125" stroke-linecap="round"/>
<line x1="189.262" y1="201.848" x2="182.849" y2="201.848" stroke="white" stroke-width="2.03125" stroke-linecap="round"/>
<line x1="189.262" y1="209.237" x2="182.849" y2="209.237" stroke="white" stroke-width="2.03125" stroke-linecap="round"/>
<line x1="189.262" y1="216.626" x2="182.849" y2="216.626" stroke="white" stroke-width="2.03125" stroke-linecap="round"/>
<line x1="189.262" y1="224.015" x2="182.849" y2="224.015" stroke="white" stroke-width="2.03125" stroke-linecap="round"/>
<line x1="189.262" y1="231.403" x2="182.849" y2="231.403" stroke="white" stroke-width="2.03125" stroke-linecap="round"/>
<line x1="189.262" y1="238.792" x2="182.849" y2="238.792" stroke="white" stroke-width="2.03125" stroke-linecap="round"/>
<line x1="189.262" y1="246.181" x2="182.849" y2="246.181" stroke="white" stroke-width="2.03125" stroke-linecap="round"/>
<line x1="189.262" y1="253.57" x2="182.849" y2="253.57" stroke="white" stroke-width="2.03125" stroke-linecap="round"/>
<line x1="275.816" y1="201.848" x2="269.403" y2="201.848" stroke="white" stroke-width="2.03125" stroke-linecap="round"/>
<line x1="275.816" y1="209.237" x2="269.403" y2="209.237" stroke="white" stroke-width="2.03125" stroke-linecap="round"/>
<line x1="275.816" y1="216.626" x2="269.403" y2="216.626" stroke="white" stroke-width="2.03125" stroke-linecap="round"/>
<line x1="275.816" y1="224.015" x2="269.403" y2="224.015" stroke="white" stroke-width="2.03125" stroke-linecap="round"/>
<line x1="275.816" y1="231.403" x2="269.403" y2="231.403" stroke="white" stroke-width="2.03125" stroke-linecap="round"/>
<line x1="275.816" y1="238.792" x2="269.403" y2="238.792" stroke="white" stroke-width="2.03125" stroke-linecap="round"/>
<line x1="275.816" y1="246.181" x2="269.403" y2="246.181" stroke="white" stroke-width="2.03125" stroke-linecap="round"/>
<line x1="275.816" y1="253.57" x2="269.403" y2="253.57" stroke="white" stroke-width="2.03125" stroke-linecap="round"/>
<line x1="257.872" y1="274.76" x2="257.872" y2="268.347" stroke="white" stroke-width="2.03125" stroke-linecap="round"/>
<line x1="250.483" y1="274.76" x2="250.483" y2="268.347" stroke="white" stroke-width="2.03125" stroke-linecap="round"/>
<line x1="243.094" y1="274.76" x2="243.094" y2="268.347" stroke="white" stroke-width="2.03125" stroke-linecap="round"/>
<line x1="235.705" y1="274.76" x2="235.705" y2="268.347" stroke="white" stroke-width="2.03125" stroke-linecap="round"/>
<line x1="228.316" y1="274.76" x2="228.316" y2="268.347" stroke="white" stroke-width="2.03125" stroke-linecap="round"/>
<line x1="220.928" y1="274.76" x2="220.928" y2="268.347" stroke="white" stroke-width="2.03125" stroke-linecap="round"/>
<line x1="213.539" y1="274.76" x2="213.539" y2="268.347" stroke="white" stroke-width="2.03125" stroke-linecap="round"/>
<line x1="206.15" y1="274.76" x2="206.15" y2="268.347" stroke="white" stroke-width="2.03125" stroke-linecap="round"/>
<line x1="257.872" y1="189.262" x2="257.872" y2="182.849" stroke="white" stroke-width="2.03125" stroke-linecap="round"/>
<line x1="250.483" y1="189.262" x2="250.483" y2="182.849" stroke="white" stroke-width="2.03125" stroke-linecap="round"/>
<line x1="243.094" y1="189.262" x2="243.094" y2="182.849" stroke="white" stroke-width="2.03125" stroke-linecap="round"/>
<line x1="235.705" y1="189.262" x2="235.705" y2="182.849" stroke="white" stroke-width="2.03125" stroke-linecap="round"/>
<line x1="228.316" y1="189.262" x2="228.316" y2="182.849" stroke="white" stroke-width="2.03125" stroke-linecap="round"/>
<line x1="220.928" y1="189.262" x2="220.928" y2="182.849" stroke="white" stroke-width="2.03125" stroke-linecap="round"/>
<line x1="213.539" y1="189.262" x2="213.539" y2="182.849" stroke="white" stroke-width="2.03125" stroke-linecap="round"/>
<line x1="206.15" y1="189.262" x2="206.15" y2="182.849" stroke="white" stroke-width="2.03125" stroke-linecap="round"/>
<path d="M197.666 216.666L231.443 216.666" stroke="white" stroke-width="2.03125" stroke-linecap="round"/>
<path d="M196.61 226.166L225.11 226.166" stroke="white" stroke-width="2.03125" stroke-linecap="round"/>
<path d="M196.61 234.61L239.887 234.61" stroke="white" stroke-width="2.03125" stroke-linecap="round"/>
<circle cx="243.054" cy="234.61" r="3.16661" stroke="white" stroke-width="2.03125" stroke-linecap="round"/>
<circle cx="228.276" cy="226.166" r="3.16661" stroke="white" stroke-width="2.03125" stroke-linecap="round"/>
<path d="M196.61 251.498L225.11 251.498" stroke="white" stroke-width="2.03125" stroke-linecap="round"/>
<circle cx="228.276" cy="251.498" r="3.16661" stroke="white" stroke-width="2.03125" stroke-linecap="round"/>
<circle cx="234.61" cy="216.666" r="3.16661" stroke="white" stroke-width="2.03125" stroke-linecap="round"/>
<path d="M197.666 243.054L231.443 243.054" stroke="white" stroke-width="2.03125" stroke-linecap="round"/>
<circle cx="234.61" cy="243.054" r="3.16661" stroke="white" stroke-width="2.03125" stroke-linecap="round"/>
<path d="M196.61 207.166L226.165 207.166" stroke="white" stroke-width="2.03125" stroke-linecap="round"/>
<circle cx="229.86" cy="207.166" r="3.16661" stroke="white" stroke-width="2.03125" stroke-linecap="round"/>
<defs>
<filter id="filter0_d" x="109.847" y="111.846" width="242.308" height="242.308" filterUnits="userSpaceOnUse" color-interpolation-filters="sRGB">
<feFlood flood-opacity="0" result="BackgroundImageFix"/>
<feColorMatrix in="SourceAlpha" type="matrix" values="0 0 0 0 0 0 0 0 0 0 0 0 0 0 0 0 0 0 127 0"/>
<feOffset dy="2"/>
<feGaussianBlur stdDeviation="7.5"/>
<feColorMatrix type="matrix" values="0 0 0 0 0.580664 0 0 0 0 0.188545 0 0 0 0 0.150685 0 0 0 0.25 0"/>
<feBlend mode="normal" in2="BackgroundImageFix" result="effect1_dropShadow"/>
<feBlend mode="normal" in="SourceGraphic" in2="effect1_dropShadow" result="shape"/>
</filter>
<linearGradient id="paint0_linear" x1="124.847" y1="337.154" x2="337.154" y2="337.154" gradientUnits="userSpaceOnUse">
<stop stop-color="#7EDDD3"/>
<stop offset="0.499276" stop-color="#2AD2C9"/>
<stop offset="1" stop-color="#009CA6"/>
</linearGradient>
</defs>
</svg>
