<svg width="312" height="75" viewBox="0 0 312 75" fill="none" xmlns="http://www.w3.org/2000/svg">
<path d="M102.051 21.8673C102.555 18.3887 103.528 15.3449 104.971 12.7359C106.413 10.0935 108.209 7.90258 110.356 6.16326C112.537 4.3905 115.02 3.06929 117.805 2.19963C120.624 1.29652 123.644 0.844971 126.865 0.844971C130.22 0.844971 133.24 1.32997 135.924 2.29997C138.642 3.23653 140.958 4.55774 142.87 6.26361C144.783 7.93603 146.242 9.90949 147.249 12.184C148.289 14.4585 148.809 16.9169 148.809 19.5593C148.809 21.8673 148.541 23.9076 148.004 25.6804C147.501 27.4197 146.763 28.9416 145.789 30.2461C144.816 31.5506 143.608 32.6544 142.166 33.5575C140.723 34.4606 139.095 35.2132 137.283 35.8153C141.646 37.1867 144.9 39.2772 147.048 42.0869C149.195 44.8965 150.269 48.4253 150.269 52.6733C150.269 56.2857 149.598 59.48 148.256 62.2562C146.914 65.0325 145.102 67.3738 142.82 69.2804C140.538 71.1535 137.887 72.5751 134.868 73.5451C131.881 74.5151 128.71 75.0001 125.355 75.0001C121.697 75.0001 118.51 74.582 115.792 73.7458C113.074 72.9096 110.708 71.672 108.695 70.033C106.682 68.394 104.971 66.3871 103.561 64.0123C102.152 61.6375 100.944 58.8947 99.9375 55.784L105.424 53.5262C106.866 52.9241 108.209 52.7736 109.45 53.0747C110.725 53.3422 111.648 54.0112 112.218 55.0816C112.822 56.2523 113.477 57.4062 114.181 58.5435C114.919 59.6807 115.792 60.7009 116.799 61.604C117.805 62.4737 118.98 63.1928 120.322 63.7614C121.697 64.2966 123.325 64.5642 125.204 64.5642C127.318 64.5642 129.163 64.2297 130.74 63.5607C132.317 62.8583 133.626 61.9552 134.666 60.8514C135.74 59.7476 136.528 58.5267 137.032 57.1888C137.569 55.8174 137.837 54.446 137.837 53.0747C137.837 51.3353 137.653 49.7633 137.283 48.3584C136.914 46.9202 136.143 45.6993 134.968 44.6958C133.794 43.6924 132.099 42.9063 129.885 42.3377C127.704 41.7691 124.768 41.4848 121.077 41.4848V32.6544C124.13 32.621 126.664 32.3366 128.677 31.8015C130.69 31.2663 132.284 30.5304 133.458 29.5939C134.666 28.6239 135.505 27.4699 135.975 26.132C136.445 24.794 136.679 23.3223 136.679 21.7168C136.679 18.305 135.723 15.7128 133.811 13.94C131.898 12.1673 129.348 11.2809 126.16 11.2809C124.684 11.2809 123.325 11.4983 122.083 11.9331C120.842 12.3345 119.718 12.9198 118.711 13.6892C117.738 14.425 116.916 15.2947 116.245 16.2981C115.574 17.3016 115.07 18.4054 114.735 19.6095C114.165 21.1482 113.41 22.1683 112.47 22.6701C111.564 23.1718 110.272 23.2888 108.595 23.0213L102.051 21.8673Z" fill="#2AD2C9"/>
<path d="M225.529 37.9224C225.529 43.2407 224.64 48.1242 222.861 52.5728C221.083 57.0214 218.583 60.8513 215.362 64.0623C212.141 67.2734 208.265 69.7653 203.735 71.538C199.206 73.3108 194.172 74.1972 188.636 74.1972H160.903V1.64758H188.636C194.172 1.64758 199.206 2.55069 203.735 4.35691C208.265 6.12967 212.141 8.62158 215.362 11.8326C218.583 15.0102 221.083 18.8233 222.861 23.272C224.64 27.7206 225.529 32.6041 225.529 37.9224ZM211.637 37.9224C211.637 33.942 211.101 30.3798 210.027 27.2356C208.987 24.058 207.46 21.3822 205.447 19.208C203.467 17.0004 201.051 15.3113 198.199 14.1406C195.38 12.9699 192.193 12.3845 188.636 12.3845H174.493V63.4603H188.636C192.193 63.4603 195.38 62.8749 198.199 61.7042C201.051 60.5335 203.467 58.8611 205.447 56.6869C207.46 54.4794 208.987 51.8035 210.027 48.6593C211.101 45.4817 211.637 41.9028 211.637 37.9224Z" fill="#333333"/>
<path d="M75.2836 46.8029L66.4252 22.6699C65.989 21.5996 65.5361 20.3285 65.0663 18.8568C64.5965 17.3851 64.1268 15.7963 63.657 14.0904C63.2208 15.7963 62.7678 17.4018 62.2981 18.907C61.8283 20.3787 61.3753 21.6665 60.9391 22.7703L52.1311 46.8029H75.2836ZM99.191 74.1972H88.7221C87.5477 74.1972 86.5914 73.9129 85.8532 73.3443C85.115 72.7422 84.5613 72.0063 84.1922 71.1367L78.7565 56.3357H48.6079L43.1721 71.1367C42.9037 71.906 42.3836 72.6084 41.6118 73.2439C40.8401 73.8794 39.8838 74.1972 38.7429 74.1972H28.1733L56.8119 1.64758H70.6028L99.191 74.1972Z" fill="#333333"/>
<path d="M12.1158 61.9945L2.90986 65.6909C2.60943 65.8192 2.24892 65.9433 1.82832 66.0631C2.03433 66.1144 2.23175 66.1701 2.42059 66.23C2.60085 66.2899 2.76823 66.354 2.92274 66.4225L12.1158 70.1189V61.9945ZM18.7338 57.9771V58.9911C18.7338 59.1109 18.7038 59.2093 18.6437 59.2863C18.575 59.3633 18.4892 59.4232 18.3862 59.466L13.0944 61.5966V70.5168L18.3862 72.6474C18.4806 72.6816 18.5622 72.7415 18.6308 72.8271C18.6995 72.9126 18.7338 73.0153 18.7338 73.1351V74.1362L0.515019 66.7048L0.515019 65.4085L18.7338 57.9771Z" fill="#333333"/>
<path d="M8.67808 47.1303C7.93988 47.618 7.42057 48.1614 7.12014 48.7603C6.81972 49.3507 6.6695 50.0267 6.6695 50.7882C6.6695 51.5412 6.80684 52.2001 7.08152 52.7648C7.3562 53.3295 7.74675 53.8044 8.25319 54.1895C8.75104 54.566 9.3519 54.8526 10.0558 55.0494C10.751 55.2376 11.5193 55.3318 12.3605 55.3318C14.266 55.3318 15.6695 54.9852 16.5708 54.2921C17.4635 53.5905 17.9098 52.5808 17.9098 51.2631C17.9098 50.4246 17.6909 49.6588 17.2532 48.9657C16.8154 48.2726 16.2017 47.6608 15.412 47.1303H8.67808ZM0 45.911H18.7338V46.5784C18.7338 46.8009 18.6223 46.9292 18.3991 46.9634L16.3776 47.0918C17.1502 47.6565 17.7639 48.3154 18.2188 49.0684C18.6738 49.8213 18.9012 50.6684 18.9012 51.6097C18.9012 53.1841 18.3562 54.4077 17.266 55.2804C16.1759 56.1532 14.5407 56.5896 12.3605 56.5896C11.4249 56.5896 10.5536 56.4698 9.74675 56.2302C8.9313 55.9821 8.22744 55.6227 7.63516 55.1521C7.03431 54.6815 6.56221 54.1039 6.21886 53.4194C5.87551 52.7263 5.70384 51.9305 5.70384 51.0321C5.70384 50.1679 5.86264 49.4192 6.18023 48.786C6.49783 48.1528 6.96993 47.6009 7.59654 47.1303H0L0 45.911Z" fill="#333333"/>
<path d="M5.92272 31.4517L18.7338 36.8424V37.9205L5.92272 43.3111V42.3485C5.92272 42.2287 5.95706 42.1303 6.02573 42.0533C6.08581 41.9763 6.15448 41.925 6.23174 41.8993L16.339 37.6766C16.7167 37.5483 17.0901 37.4456 17.4592 37.3686C17.0901 37.2916 16.7167 37.1846 16.339 37.0477L6.23174 32.8122C6.13732 32.7694 6.06436 32.7138 6.01285 32.6454C5.95277 32.5683 5.92272 32.4785 5.92272 32.3758V31.4517Z" fill="#333333"/>
<path d="M5.92272 27.4613H18.7338V28.6806H5.92272V27.4613ZM1.50643 26.9351C1.66094 26.9351 1.80686 26.9693 1.9442 27.0377C2.07295 27.0976 2.18883 27.1789 2.29184 27.2816C2.39484 27.3843 2.47639 27.5041 2.53647 27.641C2.59656 27.7779 2.6266 27.9233 2.6266 28.0774C2.6266 28.2314 2.59656 28.3768 2.53647 28.5137C2.47639 28.6506 2.39484 28.7704 2.29184 28.8731C2.18883 28.9758 2.07295 29.0571 1.9442 29.117C1.80686 29.1769 1.66094 29.2068 1.50643 29.2068C1.35193 29.2068 1.206 29.1769 1.06866 29.117C0.922743 29.0571 0.79828 28.9758 0.695276 28.8731C0.592272 28.7704 0.510727 28.6506 0.450642 28.5137C0.390556 28.3768 0.360514 28.2314 0.360514 28.0774C0.360514 27.9233 0.390556 27.7779 0.450642 27.641C0.510727 27.5041 0.592272 27.3843 0.695276 27.2816C0.79828 27.1789 0.922743 27.0976 1.06866 27.0377C1.206 26.9693 1.35193 26.9351 1.50643 26.9351Z" fill="#333333"/>
<path d="M7.50641 16.0856C7.62658 16.154 7.68667 16.2524 7.68667 16.3808C7.68667 16.4749 7.63517 16.5947 7.53216 16.7402C7.42057 16.8856 7.3004 17.0824 7.17165 17.3306C7.03431 17.5702 6.91414 17.8696 6.81113 18.229C6.69955 18.5884 6.64375 19.0248 6.64375 19.5382C6.64375 20.0002 6.71242 20.4238 6.84976 20.8088C6.97852 21.1853 7.15448 21.5105 7.37766 21.7843C7.60083 22.0495 7.86263 22.2549 8.16306 22.4003C8.4549 22.5458 8.76392 22.6185 9.0901 22.6185C9.49353 22.6185 9.82829 22.5159 10.0944 22.3105C10.3605 22.1051 10.5879 21.8399 10.7768 21.5147C10.9656 21.181 11.1287 20.8003 11.2661 20.3724C11.4034 19.9446 11.5407 19.5125 11.6781 19.0761C11.8154 18.6312 11.9699 18.1948 12.1416 17.767C12.3047 17.3391 12.5107 16.9626 12.7596 16.6375C13.0085 16.3038 13.3133 16.0342 13.6738 15.8289C14.0343 15.6235 14.472 15.5209 14.9871 15.5209C15.545 15.5209 16.0643 15.6193 16.545 15.8161C17.0257 16.0129 17.442 16.3038 17.7939 16.6888C18.1459 17.0653 18.4248 17.5317 18.6308 18.0878C18.8368 18.644 18.9398 19.2815 18.9398 20.0002C18.9398 20.8987 18.7982 21.673 18.515 22.3233C18.2231 22.9736 17.8454 23.5555 17.3819 24.0689L16.9441 23.7865C16.8755 23.7437 16.824 23.6967 16.7896 23.6453C16.7553 23.5854 16.7381 23.5084 16.7381 23.4143C16.7381 23.3031 16.8068 23.1704 16.9441 23.0164C17.0815 22.8538 17.2317 22.6399 17.3948 22.3747C17.5493 22.1094 17.6952 21.7843 17.8326 21.3992C17.9699 21.0056 18.0386 20.5222 18.0386 19.9489C18.0386 19.4098 17.9656 18.9349 17.8197 18.5242C17.6652 18.1135 17.4592 17.7712 17.2017 17.4974C16.9441 17.2236 16.6437 17.0183 16.3004 16.8814C15.9484 16.7359 15.5793 16.6632 15.1931 16.6632C14.7639 16.6632 14.4077 16.7658 14.1244 16.9712C13.8412 17.1766 13.6008 17.4461 13.4034 17.7798C13.206 18.1135 13.0386 18.4943 12.9012 18.9221C12.7639 19.3414 12.6266 19.7735 12.4892 20.2184C12.3519 20.6634 12.2017 21.0997 12.0386 21.5276C11.8755 21.9468 11.6695 22.3233 11.4206 22.657C11.1716 22.9907 10.8712 23.2603 10.5193 23.4656C10.1588 23.671 9.71241 23.7737 9.18022 23.7737C8.72529 23.7737 8.28752 23.6753 7.86692 23.4785C7.44632 23.2817 7.07723 23.0036 6.75963 22.6442C6.44204 22.2763 6.18882 21.8313 5.99998 21.3094C5.81114 20.7874 5.71672 20.2013 5.71672 19.551C5.71672 18.7724 5.8283 18.0835 6.05148 17.4846C6.27465 16.8771 6.618 16.3252 7.08152 15.8289L7.50641 16.0856Z" fill="#333333"/>
<path d="M11.0343 3.24291C10.3476 3.24291 9.73387 3.34131 9.1931 3.53811C8.64375 3.72636 8.18023 3.99589 7.80255 4.34671C7.42487 4.69753 7.13731 5.1168 6.93989 5.60452C6.73388 6.08369 6.63088 6.6142 6.63088 7.19604C6.63088 7.8549 6.73388 8.4453 6.93989 8.96725C7.1459 9.4892 7.44203 9.94271 7.8283 10.3278C8.21456 10.7042 8.67808 11.008 9.21885 11.239C9.75962 11.4701 10.3648 11.6241 11.0343 11.7011V3.24291ZM11.8197 11.7653H12.0643C13.0257 11.7653 13.8712 11.654 14.6008 11.4316C15.3304 11.2091 15.9441 10.8925 16.442 10.4818C16.9313 10.0711 17.3004 9.57478 17.5493 8.99293C17.7982 8.41108 17.9227 7.76078 17.9227 7.04203C17.9227 6.40029 17.854 5.84411 17.7167 5.3735C17.5708 4.90289 17.412 4.50928 17.2403 4.1927C17.06 3.86755 16.9012 3.61085 16.7639 3.4226C16.618 3.23435 16.545 3.09745 16.545 3.01188C16.545 2.90065 16.5879 2.81509 16.6738 2.75519L17.0858 2.42148C17.3433 2.62684 17.5836 2.90065 17.8068 3.24291C18.03 3.57662 18.2231 3.95311 18.3862 4.37238C18.5407 4.7831 18.6652 5.22803 18.7596 5.7072C18.854 6.17781 18.9012 6.65271 18.9012 7.13187C18.9012 8.00465 18.751 8.8004 18.4506 9.51916C18.1416 10.2379 17.6952 10.854 17.1115 11.3674C16.5278 11.8808 15.8154 12.2787 14.9742 12.561C14.1244 12.8348 13.1545 12.9717 12.0643 12.9717C11.1459 12.9717 10.3004 12.8434 9.52786 12.5867C8.74675 12.3214 8.07722 11.9449 7.51929 11.4572C6.95276 10.9609 6.51071 10.3577 6.19311 9.64751C5.87551 8.92876 5.71672 8.11588 5.71672 7.20889C5.71672 6.49013 5.84118 5.82272 6.09011 5.20664C6.33903 4.59057 6.70384 4.05579 7.18452 3.60229C7.65662 3.14879 8.24031 2.79369 8.93559 2.53699C9.63087 2.27174 10.4291 2.13911 11.3304 2.13911C11.5193 2.13911 11.648 2.16479 11.7167 2.21613C11.7854 2.26746 11.8197 2.35303 11.8197 2.47282V11.7653Z" fill="#333333"/>
<path d="M248.558 7.96986C248.558 9.18178 248.376 10.2718 248.013 11.2398C247.65 12.2079 247.138 13.0319 246.479 13.7117C245.819 14.3916 245.026 14.9125 244.099 15.2746C243.18 15.6367 242.164 15.8178 241.052 15.8178H235.303V0.133016H241.052C242.164 0.133016 243.18 0.314065 244.099 0.676163C245.026 1.03826 245.819 1.55924 246.479 2.2391C247.138 2.91896 247.65 3.74292 248.013 4.71097C248.376 5.67903 248.558 6.76533 248.558 7.96986ZM247.379 7.96986C247.379 6.87618 247.227 5.90073 246.923 5.04351C246.619 4.1863 246.189 3.4621 245.633 2.87092C245.077 2.27974 244.41 1.82897 243.632 1.5186C242.854 1.20823 241.994 1.05304 241.052 1.05304H236.449V14.8978H241.052C241.994 14.8978 242.854 14.7426 243.632 14.4322C244.41 14.1218 245.077 13.6711 245.633 13.0799C246.189 12.4887 246.619 11.7645 246.923 10.9073C247.227 10.0501 247.379 9.07094 247.379 7.96986Z" fill="#333333"/>
<path d="M259.287 9.18917C259.287 8.59799 259.202 8.06962 259.032 7.60407C258.869 7.13112 258.635 6.73208 258.331 6.40693C258.027 6.08178 257.664 5.83422 257.241 5.66425C256.826 5.4869 256.367 5.39822 255.863 5.39822C255.292 5.39822 254.78 5.4869 254.328 5.66425C253.876 5.84161 253.483 6.09656 253.149 6.4291C252.823 6.76164 252.56 7.16068 252.36 7.62624C252.16 8.09179 252.026 8.61277 251.96 9.18917H259.287ZM251.904 9.86534V10.0759C251.904 10.9036 252 11.6315 252.193 12.2596C252.386 12.8878 252.66 13.4161 253.016 13.8447C253.372 14.2659 253.802 14.5837 254.306 14.798C254.81 15.0123 255.373 15.1195 255.996 15.1195C256.552 15.1195 257.034 15.0603 257.442 14.9421C257.849 14.8165 258.19 14.6798 258.465 14.532C258.746 14.3768 258.969 14.2401 259.132 14.1218C259.295 13.9962 259.413 13.9334 259.488 13.9334C259.584 13.9334 259.658 13.9704 259.71 14.0442L259.999 14.399C259.821 14.6207 259.584 14.8276 259.287 15.0197C258.998 15.2118 258.672 15.3781 258.309 15.5185C257.953 15.6515 257.568 15.7587 257.152 15.84C256.745 15.9212 256.333 15.9619 255.918 15.9619C255.162 15.9619 254.473 15.8326 253.85 15.5739C253.227 15.3079 252.693 14.9236 252.249 14.4211C251.804 13.9186 251.459 13.3053 251.215 12.5811C250.977 11.8495 250.859 11.0144 250.859 10.0759C250.859 9.28524 250.97 8.55735 251.192 7.89227C251.422 7.2198 251.748 6.6434 252.171 6.16306C252.601 5.67534 253.123 5.29477 253.739 5.02135C254.361 4.74792 255.066 4.61121 255.851 4.61121C256.474 4.61121 257.052 4.71837 257.586 4.93267C258.12 5.14697 258.583 5.46104 258.976 5.87486C259.369 6.2813 259.677 6.7838 259.899 7.38238C260.129 7.98095 260.244 8.66819 260.244 9.44412C260.244 9.6067 260.222 9.71754 260.177 9.77666C260.133 9.83578 260.058 9.86534 259.955 9.86534H251.904Z" fill="#333333"/>
<path d="M269.206 6.15198C269.147 6.25544 269.061 6.30716 268.95 6.30716C268.869 6.30716 268.765 6.26283 268.639 6.17415C268.513 6.07808 268.342 5.97463 268.127 5.86378C267.92 5.74554 267.66 5.64209 267.349 5.55341C267.038 5.45734 266.66 5.40931 266.215 5.40931C265.814 5.40931 265.447 5.46843 265.114 5.58666C264.788 5.69751 264.506 5.849 264.269 6.04113C264.039 6.23327 263.861 6.45865 263.735 6.7173C263.609 6.96855 263.546 7.23458 263.546 7.51539C263.546 7.86271 263.635 8.15091 263.813 8.37999C263.991 8.60908 264.221 8.8049 264.502 8.96748C264.791 9.13005 265.121 9.27046 265.492 9.3887C265.863 9.50693 266.237 9.62517 266.615 9.74341C267.001 9.86164 267.379 9.99466 267.749 10.1425C268.12 10.2829 268.446 10.4602 268.728 10.6745C269.017 10.8888 269.25 11.1512 269.428 11.4615C269.606 11.7719 269.695 12.1488 269.695 12.5922C269.695 13.0725 269.61 13.5196 269.439 13.9334C269.269 14.3472 269.017 14.7056 268.683 15.0086C268.357 15.3116 267.953 15.5518 267.471 15.7291C266.989 15.9065 266.437 15.9951 265.814 15.9951C265.036 15.9951 264.365 15.8732 263.802 15.6294C263.238 15.3781 262.734 15.053 262.289 14.6539L262.534 14.277C262.571 14.2179 262.612 14.1736 262.656 14.144C262.708 14.1145 262.775 14.0997 262.857 14.0997C262.953 14.0997 263.068 14.1588 263.201 14.277C263.342 14.3953 263.527 14.5246 263.757 14.665C263.987 14.798 264.269 14.9236 264.602 15.0419C264.943 15.1601 265.362 15.2192 265.859 15.2192C266.326 15.2192 266.737 15.1564 267.093 15.0308C267.449 14.8978 267.746 14.7204 267.983 14.4987C268.22 14.277 268.398 14.0184 268.516 13.7228C268.643 13.4198 268.706 13.1021 268.706 12.7695C268.706 12.4 268.617 12.0934 268.439 11.8495C268.261 11.6056 268.027 11.3987 267.738 11.2287C267.449 11.0588 267.119 10.9147 266.748 10.7964C266.385 10.6782 266.011 10.56 265.625 10.4417C265.24 10.3235 264.862 10.1942 264.491 10.0538C264.128 9.91337 263.802 9.73602 263.513 9.52171C263.224 9.30741 262.99 9.04877 262.812 8.74579C262.634 8.43542 262.545 8.05115 262.545 7.59298C262.545 7.20133 262.63 6.82445 262.801 6.46235C262.971 6.10025 263.212 5.78249 263.524 5.50907C263.843 5.23565 264.228 5.01765 264.68 4.85508C265.132 4.6925 265.64 4.61121 266.204 4.61121C266.878 4.61121 267.475 4.70728 267.994 4.89941C268.52 5.09155 268.998 5.38714 269.428 5.78619L269.206 6.15198Z" fill="#333333"/>
<path d="M273.75 4.78857V15.8178H272.693V4.78857H273.75ZM274.205 0.986533C274.205 1.11955 274.176 1.24518 274.117 1.36341C274.065 1.47426 273.994 1.57402 273.905 1.6627C273.816 1.75137 273.712 1.82158 273.594 1.87331C273.475 1.92503 273.349 1.9509 273.216 1.9509C273.082 1.9509 272.956 1.92503 272.838 1.87331C272.719 1.82158 272.615 1.75137 272.526 1.6627C272.437 1.57402 272.367 1.47426 272.315 1.36341C272.263 1.24518 272.237 1.11955 272.237 0.986533C272.237 0.853518 272.263 0.727892 272.315 0.609655C272.367 0.484029 272.437 0.376878 272.526 0.288201C272.615 0.199523 272.719 0.12932 272.838 0.077592C272.956 0.0258639 273.082 0 273.216 0C273.349 0 273.475 0.0258639 273.594 0.077592C273.712 0.12932 273.816 0.199523 273.905 0.288201C273.994 0.376878 274.065 0.484029 274.117 0.609655C274.176 0.727892 274.205 0.853518 274.205 0.986533Z" fill="#333333"/>
<path d="M281.137 10.9405C281.611 10.9405 282.034 10.874 282.404 10.741C282.775 10.6006 283.086 10.4085 283.338 10.1646C283.59 9.92076 283.783 9.62886 283.916 9.28893C284.05 8.94901 284.117 8.57213 284.117 8.1583C284.117 7.74447 284.046 7.3676 283.905 7.02767C283.772 6.68035 283.575 6.38476 283.316 6.1409C283.064 5.89703 282.753 5.70859 282.382 5.57558C282.019 5.44256 281.604 5.37605 281.137 5.37605C280.67 5.37605 280.251 5.44256 279.88 5.57558C279.517 5.70859 279.205 5.89703 278.946 6.1409C278.694 6.38476 278.501 6.68035 278.368 7.02767C278.234 7.3676 278.168 7.74447 278.168 8.1583C278.168 8.57213 278.234 8.94901 278.368 9.28893C278.501 9.62886 278.694 9.92076 278.946 10.1646C279.205 10.4085 279.517 10.6006 279.88 10.741C280.251 10.874 280.67 10.9405 281.137 10.9405ZM285.273 16.5605C285.273 16.2131 285.18 15.936 284.995 15.7291C284.817 15.5148 284.576 15.3485 284.272 15.2303C283.968 15.1121 283.616 15.0308 283.216 14.9864C282.823 14.9347 282.408 14.8978 281.971 14.8756C281.541 14.8534 281.107 14.8313 280.67 14.8091C280.232 14.7869 279.821 14.7426 279.435 14.6761C279.154 14.7869 278.894 14.9162 278.657 15.064C278.42 15.2044 278.216 15.367 278.045 15.5518C277.875 15.7365 277.741 15.936 277.645 16.1503C277.549 16.372 277.5 16.6085 277.5 16.8598C277.5 17.1849 277.582 17.4842 277.745 17.7576C277.916 18.0384 278.16 18.2786 278.479 18.4781C278.805 18.685 279.202 18.8476 279.669 18.9658C280.136 19.0841 280.673 19.1432 281.281 19.1432C281.844 19.1432 282.367 19.0804 282.849 18.9548C283.338 18.8291 283.761 18.6518 284.117 18.4227C284.48 18.1936 284.762 17.9202 284.962 17.6024C285.169 17.2847 285.273 16.9373 285.273 16.5605ZM286.43 5.27629V5.64209C286.43 5.80466 286.326 5.90442 286.118 5.94137L284.428 6.0633C284.636 6.34411 284.795 6.65818 284.906 7.0055C285.017 7.35282 285.073 7.72969 285.073 8.13613C285.073 8.66819 284.977 9.15222 284.784 9.58822C284.598 10.0168 284.332 10.3863 283.983 10.6967C283.642 10.9997 283.227 11.2361 282.738 11.4061C282.256 11.5761 281.722 11.661 281.137 11.661C280.506 11.661 279.932 11.565 279.413 11.3728C279.102 11.5502 278.853 11.7608 278.668 12.0047C278.49 12.2411 278.401 12.4776 278.401 12.7141C278.401 13.0319 278.512 13.2757 278.735 13.4457C278.964 13.6156 279.261 13.7413 279.624 13.8226C279.995 13.8965 280.414 13.9445 280.881 13.9667C281.355 13.9888 281.837 14.0147 282.326 14.0442C282.816 14.0664 283.294 14.1108 283.761 14.1773C284.235 14.2438 284.654 14.362 285.017 14.532C285.388 14.6945 285.685 14.9273 285.907 15.2303C286.137 15.5259 286.252 15.9212 286.252 16.4164C286.252 16.8745 286.137 17.3142 285.907 17.7354C285.677 18.1567 285.344 18.5298 284.906 18.855C284.476 19.1801 283.954 19.4388 283.338 19.6309C282.723 19.8304 282.034 19.9302 281.27 19.9302C280.492 19.9302 279.81 19.8489 279.224 19.6863C278.638 19.5311 278.145 19.3168 277.745 19.0434C277.352 18.7774 277.056 18.467 276.855 18.1123C276.655 17.7576 276.555 17.3807 276.555 16.9817C276.555 16.3979 276.748 15.8991 277.133 15.4853C277.519 15.064 278.045 14.7352 278.712 14.4987C278.342 14.3731 278.042 14.192 277.812 13.9556C277.589 13.7117 277.478 13.3829 277.478 12.969C277.478 12.8139 277.508 12.6513 277.567 12.4813C277.626 12.3113 277.715 12.1451 277.834 11.9825C277.953 11.8125 278.097 11.6537 278.268 11.5059C278.438 11.3581 278.631 11.2251 278.846 11.1068C278.32 10.8038 277.908 10.4011 277.612 9.89859C277.322 9.39609 277.178 8.8086 277.178 8.13613C277.178 7.60407 277.271 7.12373 277.456 6.69513C277.649 6.25913 277.919 5.88595 278.268 5.57558C278.616 5.26521 279.031 5.02504 279.513 4.85508C280.002 4.68511 280.543 4.60013 281.137 4.60013C281.626 4.60013 282.074 4.65925 282.482 4.77748C282.897 4.89572 283.268 5.06199 283.594 5.27629H286.43Z" fill="#333333"/>
<path d="M289.893 6.7173C290.405 6.08178 290.994 5.57188 291.661 5.18762C292.336 4.80335 293.085 4.61121 293.907 4.61121C294.515 4.61121 295.049 4.70728 295.509 4.89941C295.976 5.09155 296.361 5.36866 296.665 5.73076C296.969 6.09286 297.199 6.52886 297.355 7.03875C297.51 7.54865 297.588 8.12505 297.588 8.76796V15.8178H296.521V8.76796C296.521 7.73339 296.283 6.92421 295.809 6.34042C295.334 5.74924 294.612 5.45365 293.641 5.45365C292.921 5.45365 292.247 5.63839 291.617 6.00788C290.994 6.36998 290.438 6.87618 289.949 7.52648V15.8178H288.881V4.78857H289.471C289.656 4.78857 289.763 4.88094 289.793 5.06568L289.893 6.7173Z" fill="#333333"/>
<path d="M248.558 37.1401C248.558 38.352 248.376 39.442 248.013 40.4101C247.65 41.3781 247.138 42.2021 246.479 42.8819C245.819 43.5618 245.026 44.0828 244.099 44.4449C243.18 44.807 242.164 44.988 241.052 44.988H235.303V29.3032H241.052C242.164 29.3032 243.18 29.4843 244.099 29.8464C245.026 30.2085 245.819 30.7295 246.479 31.4093C247.138 32.0892 247.65 32.9131 248.013 33.8812C248.376 34.8493 248.558 35.9356 248.558 37.1401ZM247.379 37.1401C247.379 36.0464 247.227 35.071 246.923 34.2137C246.619 33.3565 246.189 32.6323 245.633 32.0412C245.077 31.45 244.41 30.9992 243.632 30.6888C242.854 30.3785 241.994 30.2233 241.052 30.2233H236.449V44.068H241.052C241.994 44.068 242.854 43.9128 243.632 43.6024C244.41 43.2921 245.077 42.8413 245.633 42.2501C246.189 41.6589 246.619 40.9347 246.923 40.0775C247.227 39.2203 247.379 38.2412 247.379 37.1401Z" fill="#333333"/>
<path d="M259.287 38.3594C259.287 37.7682 259.202 37.2399 259.032 36.7743C258.869 36.3014 258.635 35.9023 258.331 35.5772C258.027 35.252 257.664 35.0045 257.241 34.8345C256.826 34.6571 256.367 34.5685 255.863 34.5685C255.292 34.5685 254.78 34.6571 254.328 34.8345C253.876 35.0118 253.483 35.2668 253.149 35.5993C252.823 35.9319 252.56 36.3309 252.36 36.7965C252.16 37.262 252.026 37.783 251.96 38.3594H259.287ZM251.904 39.0356V39.2462C251.904 40.0738 252 40.8017 252.193 41.4299C252.386 42.058 252.66 42.5864 253.016 43.015C253.372 43.4362 253.802 43.7539 254.306 43.9682C254.81 44.1825 255.373 44.2897 255.996 44.2897C256.552 44.2897 257.034 44.2306 257.442 44.1123C257.849 43.9867 258.19 43.85 258.465 43.7022C258.746 43.547 258.969 43.4103 259.132 43.2921C259.295 43.1664 259.413 43.1036 259.488 43.1036C259.584 43.1036 259.658 43.1406 259.71 43.2145L259.999 43.5692C259.821 43.7909 259.584 43.9978 259.287 44.1899C258.998 44.3821 258.672 44.5483 258.309 44.6887C257.953 44.8218 257.568 44.9289 257.152 45.0102C256.745 45.0915 256.333 45.1321 255.918 45.1321C255.162 45.1321 254.473 45.0028 253.85 44.7442C253.227 44.4781 252.693 44.0939 252.249 43.5914C251.804 43.0889 251.459 42.4755 251.215 41.7513C250.977 41.0197 250.859 40.1847 250.859 39.2462C250.859 38.4555 250.97 37.7276 251.192 37.0625C251.422 36.39 251.748 35.8136 252.171 35.3333C252.601 34.8456 253.123 34.465 253.739 34.1916C254.361 33.9182 255.066 33.7814 255.851 33.7814C256.474 33.7814 257.052 33.8886 257.586 34.1029C258.12 34.3172 258.583 34.6313 258.976 35.0451C259.369 35.4515 259.677 35.954 259.899 36.5526C260.129 37.1512 260.244 37.8384 260.244 38.6144C260.244 38.7769 260.222 38.8878 260.177 38.9469C260.133 39.006 260.058 39.0356 259.955 39.0356H251.904Z" fill="#333333"/>
<path d="M271.813 33.9588L267.142 44.988H266.208L261.538 33.9588H262.372C262.476 33.9588 262.561 33.9884 262.628 34.0475C262.694 34.0992 262.739 34.1583 262.761 34.2248L266.42 42.9263C266.531 43.2514 266.62 43.5729 266.686 43.8906C266.753 43.5729 266.846 43.2514 266.964 42.9263L270.634 34.2248C270.671 34.1435 270.719 34.0807 270.778 34.0364C270.845 33.9847 270.923 33.9588 271.012 33.9588H271.813Z" fill="#333333"/>
<path d="M281.592 38.3594C281.592 37.7682 281.507 37.2399 281.336 36.7743C281.173 36.3014 280.94 35.9023 280.636 35.5772C280.332 35.252 279.969 35.0045 279.546 34.8345C279.131 34.6571 278.671 34.5685 278.167 34.5685C277.596 34.5685 277.085 34.6571 276.633 34.8345C276.18 35.0118 275.788 35.2668 275.454 35.5993C275.128 35.9319 274.865 36.3309 274.664 36.7965C274.464 37.262 274.331 37.783 274.264 38.3594H281.592ZM274.209 39.0356V39.2462C274.209 40.0738 274.305 40.8017 274.498 41.4299C274.69 42.058 274.965 42.5864 275.321 43.015C275.676 43.4362 276.106 43.7539 276.61 43.9682C277.115 44.1825 277.678 44.2897 278.301 44.2897C278.857 44.2897 279.338 44.2306 279.746 44.1123C280.154 43.9867 280.495 43.85 280.769 43.7022C281.051 43.547 281.273 43.4103 281.436 43.2921C281.6 43.1664 281.718 43.1036 281.792 43.1036C281.889 43.1036 281.963 43.1406 282.015 43.2145L282.304 43.5692C282.126 43.7909 281.889 43.9978 281.592 44.1899C281.303 44.3821 280.977 44.5483 280.614 44.6887C280.258 44.8218 279.872 44.9289 279.457 45.0102C279.049 45.0915 278.638 45.1321 278.223 45.1321C277.467 45.1321 276.777 45.0028 276.155 44.7442C275.532 44.4781 274.998 44.0939 274.553 43.5914C274.109 43.0889 273.764 42.4755 273.519 41.7513C273.282 41.0197 273.163 40.1847 273.163 39.2462C273.163 38.4555 273.275 37.7276 273.497 37.0625C273.727 36.39 274.053 35.8136 274.475 35.3333C274.905 34.8456 275.428 34.465 276.043 34.1916C276.666 33.9182 277.37 33.7814 278.156 33.7814C278.779 33.7814 279.357 33.8886 279.891 34.1029C280.425 34.3172 280.888 34.6313 281.281 35.0451C281.674 35.4515 281.981 35.954 282.204 36.5526C282.433 37.1512 282.548 37.8384 282.548 38.6144C282.548 38.7769 282.526 38.8878 282.482 38.9469C282.437 39.006 282.363 39.0356 282.259 39.0356H274.209Z" fill="#333333"/>
<path d="M286.596 28.8599V44.988H285.528V28.8599H286.596Z" fill="#333333"/>
<path d="M294.718 33.7814C295.511 33.7814 296.219 33.9182 296.841 34.1916C297.472 34.4576 298.002 34.8382 298.432 35.3333C298.862 35.8284 299.188 36.427 299.41 37.129C299.64 37.8236 299.755 38.6033 299.755 39.4679C299.755 40.3325 299.64 41.1121 299.41 41.8067C299.188 42.5014 298.862 43.0962 298.432 43.5914C298.002 44.0865 297.472 44.467 296.841 44.7331C296.219 44.9991 295.511 45.1321 294.718 45.1321C293.924 45.1321 293.213 44.9991 292.583 44.7331C291.96 44.467 291.43 44.0865 290.992 43.5914C290.562 43.0962 290.233 42.5014 290.003 41.8067C289.78 41.1121 289.669 40.3325 289.669 39.4679C289.669 38.6033 289.78 37.8236 290.003 37.129C290.233 36.427 290.562 35.8284 290.992 35.3333C291.43 34.8382 291.96 34.4576 292.583 34.1916C293.213 33.9182 293.924 33.7814 294.718 33.7814ZM294.718 44.3008C295.377 44.3008 295.952 44.1899 296.441 43.9682C296.938 43.7392 297.349 43.414 297.675 42.9928C298.009 42.5716 298.257 42.0654 298.42 41.4742C298.584 40.8756 298.665 40.2068 298.665 39.4679C298.665 38.7363 298.584 38.0712 298.42 37.4726C298.257 36.8741 298.009 36.3642 297.675 35.943C297.349 35.5143 296.938 35.1855 296.441 34.9564C295.952 34.7273 295.377 34.6128 294.718 34.6128C294.058 34.6128 293.48 34.7273 292.983 34.9564C292.494 35.1855 292.082 35.5143 291.749 35.943C291.422 36.3642 291.174 36.8741 291.004 37.4726C290.84 38.0712 290.759 38.7363 290.759 39.4679C290.759 40.2068 290.84 40.8756 291.004 41.4742C291.174 42.0654 291.422 42.5716 291.749 42.9928C292.082 43.414 292.494 43.7392 292.983 43.9682C293.48 44.1899 294.058 44.3008 294.718 44.3008Z" fill="#333333"/>
<path d="M303.805 42.5827C304.02 42.9004 304.242 43.1701 304.472 43.3918C304.709 43.6061 304.958 43.7835 305.217 43.9239C305.477 44.0569 305.751 44.153 306.04 44.2121C306.337 44.2712 306.648 44.3008 306.974 44.3008C307.626 44.3008 308.197 44.1825 308.687 43.9461C309.176 43.7096 309.584 43.3771 309.91 42.9485C310.243 42.5125 310.492 41.9952 310.655 41.3966C310.825 40.7906 310.911 40.1256 310.911 39.4014C310.911 37.7608 310.607 36.5563 309.999 35.7878C309.391 35.0118 308.52 34.6239 307.386 34.6239C306.652 34.6239 305.988 34.8123 305.395 35.1892C304.802 35.5661 304.272 36.0907 303.805 36.7632V42.5827ZM303.761 35.943C304.25 35.2779 304.821 34.7495 305.473 34.3578C306.133 33.9662 306.87 33.7704 307.686 33.7704C309.042 33.7704 310.099 34.2396 310.855 35.1781C311.618 36.1166 312 37.5244 312 39.4014C312 40.2068 311.893 40.9606 311.678 41.6626C311.47 42.3573 311.159 42.9632 310.744 43.4805C310.336 43.9904 309.832 44.3931 309.231 44.6887C308.638 44.9843 307.953 45.1321 307.174 45.1321C306.426 45.1321 305.777 44.9954 305.228 44.722C304.68 44.4486 304.205 44.0458 303.805 43.5138V48.8898H302.737V33.9588H303.327C303.512 33.9588 303.62 34.0512 303.649 34.2359L303.761 35.943Z" fill="#333333"/>
<path d="M248.558 66.3101C248.558 67.5221 248.376 68.6121 248.013 69.5801C247.65 70.5482 247.138 71.3721 246.479 72.052C245.819 72.7318 245.026 73.2528 244.099 73.6149C243.18 73.977 242.164 74.1581 241.052 74.1581H235.303V58.4733H241.052C242.164 58.4733 243.18 58.6543 244.099 59.0164C245.026 59.3785 245.819 59.8995 246.479 60.5794C247.138 61.2592 247.65 62.0832 248.013 63.0513C248.376 64.0193 248.558 65.1056 248.558 66.3101ZM247.379 66.3101C247.379 65.2165 247.227 64.241 246.923 63.3838C246.619 62.5266 246.189 61.8024 245.633 61.2112C245.077 60.62 244.41 60.1692 243.632 59.8589C242.854 59.5485 241.994 59.3933 241.052 59.3933H236.449V73.238H241.052C241.994 73.238 242.854 73.0829 243.632 72.7725C244.41 72.4621 245.077 72.0113 245.633 71.4202C246.189 70.829 246.619 70.1048 246.923 69.2476C247.227 68.3904 247.379 67.4112 247.379 66.3101Z" fill="#333333"/>
<path d="M259.287 67.5295C259.287 66.9383 259.202 66.4099 259.032 65.9443C258.869 65.4714 258.635 65.0724 258.331 64.7472C258.027 64.4221 257.664 64.1745 257.241 64.0045C256.826 63.8272 256.367 63.7385 255.863 63.7385C255.292 63.7385 254.78 63.8272 254.328 64.0045C253.876 64.1819 253.483 64.4368 253.149 64.7694C252.823 65.1019 252.56 65.501 252.36 65.9665C252.16 66.4321 252.026 66.953 251.96 67.5295H259.287ZM251.904 68.2056V68.4162C251.904 69.2439 252 69.9718 252.193 70.5999C252.386 71.228 252.66 71.7564 253.016 72.185C253.372 72.6062 253.802 72.924 254.306 73.1383C254.81 73.3526 255.373 73.4597 255.996 73.4597C256.552 73.4597 257.034 73.4006 257.442 73.2824C257.849 73.1568 258.19 73.02 258.465 72.8723C258.746 72.7171 258.969 72.5804 259.132 72.4621C259.295 72.3365 259.413 72.2737 259.488 72.2737C259.584 72.2737 259.658 72.3106 259.71 72.3845L259.999 72.7392C259.821 72.9609 259.584 73.1678 259.287 73.36C258.998 73.5521 258.672 73.7184 258.309 73.8588C257.953 73.9918 257.568 74.099 257.152 74.1802C256.745 74.2615 256.333 74.3022 255.918 74.3022C255.162 74.3022 254.473 74.1728 253.85 73.9142C253.227 73.6482 252.693 73.2639 252.249 72.7614C251.804 72.2589 251.459 71.6456 251.215 70.9214C250.977 70.1898 250.859 69.3547 250.859 68.4162C250.859 67.6255 250.97 66.8976 251.192 66.2325C251.422 65.5601 251.748 64.9837 252.171 64.5033C252.601 64.0156 253.123 63.635 253.739 63.3616C254.361 63.0882 255.066 62.9515 255.851 62.9515C256.474 62.9515 257.052 63.0586 257.586 63.2729C258.12 63.4872 258.583 63.8013 258.976 64.2151C259.369 64.6216 259.677 65.1241 259.899 65.7227C260.129 66.3212 260.244 67.0085 260.244 67.7844C260.244 67.947 260.222 68.0578 260.177 68.1169C260.133 68.1761 260.058 68.2056 259.955 68.2056H251.904Z" fill="#333333"/>
<path d="M264.291 58.0299V74.1581H263.224V58.0299H264.291Z" fill="#333333"/>
<path d="M269.21 63.1288V74.1581H268.154V63.1288H269.21ZM269.666 59.3268C269.666 59.4598 269.637 59.5855 269.577 59.7037C269.526 59.8145 269.455 59.9143 269.366 60.003C269.277 60.0917 269.173 60.1619 269.055 60.2136C268.936 60.2653 268.81 60.2912 268.677 60.2912C268.543 60.2912 268.417 60.2653 268.299 60.2136C268.18 60.1619 268.076 60.0917 267.987 60.003C267.898 59.9143 267.828 59.8145 267.776 59.7037C267.724 59.5855 267.698 59.4598 267.698 59.3268C267.698 59.1938 267.724 59.0682 267.776 58.9499C267.828 58.8243 267.898 58.7172 267.987 58.6285C268.076 58.5398 268.18 58.4696 268.299 58.4179C268.417 58.3661 268.543 58.3403 268.677 58.3403C268.81 58.3403 268.936 58.3661 269.055 58.4179C269.173 58.4696 269.277 58.5398 269.366 58.6285C269.455 58.7172 269.526 58.8243 269.577 58.9499C269.637 59.0682 269.666 59.1938 269.666 59.3268Z" fill="#333333"/>
<path d="M281.868 63.1288L277.198 74.1581H276.264L271.594 63.1288H272.428C272.531 63.1288 272.617 63.1584 272.683 63.2175C272.75 63.2693 272.794 63.3284 272.817 63.3949L276.475 72.0963C276.586 72.4215 276.675 72.7429 276.742 73.0607C276.809 72.7429 276.901 72.4215 277.02 72.0963L280.689 63.3949C280.727 63.3136 280.775 63.2508 280.834 63.2064C280.901 63.1547 280.979 63.1288 281.068 63.1288H281.868Z" fill="#333333"/>
<path d="M291.648 67.5295C291.648 66.9383 291.562 66.4099 291.392 65.9443C291.229 65.4714 290.995 65.0724 290.691 64.7472C290.387 64.4221 290.024 64.1745 289.602 64.0045C289.186 63.8272 288.727 63.7385 288.223 63.7385C287.652 63.7385 287.14 63.8272 286.688 64.0045C286.236 64.1819 285.843 64.4368 285.51 64.7694C285.183 65.1019 284.92 65.501 284.72 65.9665C284.52 66.4321 284.386 66.953 284.32 67.5295H291.648ZM284.264 68.2056V68.4162C284.264 69.2439 284.361 69.9718 284.553 70.5999C284.746 71.228 285.02 71.7564 285.376 72.185C285.732 72.6062 286.162 72.924 286.666 73.1383C287.17 73.3526 287.733 73.4597 288.356 73.4597C288.912 73.4597 289.394 73.4006 289.802 73.2824C290.209 73.1568 290.55 73.02 290.825 72.8723C291.106 72.7171 291.329 72.5804 291.492 72.4621C291.655 72.3365 291.774 72.2737 291.848 72.2737C291.944 72.2737 292.018 72.3106 292.07 72.3845L292.359 72.7392C292.181 72.9609 291.944 73.1678 291.648 73.36C291.359 73.5521 291.032 73.7184 290.669 73.8588C290.313 73.9918 289.928 74.099 289.513 74.1802C289.105 74.2615 288.694 74.3022 288.278 74.3022C287.522 74.3022 286.833 74.1728 286.21 73.9142C285.587 73.6482 285.054 73.2639 284.609 72.7614C284.164 72.2589 283.819 71.6456 283.575 70.9214C283.337 70.1898 283.219 69.3547 283.219 68.4162C283.219 67.6255 283.33 66.8976 283.552 66.2325C283.782 65.5601 284.108 64.9837 284.531 64.5033C284.961 64.0156 285.484 63.635 286.099 63.3616C286.722 63.0882 287.426 62.9515 288.212 62.9515C288.834 62.9515 289.413 63.0586 289.946 63.2729C290.48 63.4872 290.943 63.8013 291.336 64.2151C291.729 64.6216 292.037 65.1241 292.259 65.7227C292.489 66.3212 292.604 67.0085 292.604 67.7844C292.604 67.947 292.582 68.0578 292.537 68.1169C292.493 68.1761 292.419 68.2056 292.315 68.2056H284.264Z" fill="#333333"/>
<path d="M296.495 65.7892C296.666 65.3384 296.859 64.9393 297.074 64.592C297.296 64.2373 297.548 63.938 297.83 63.6942C298.119 63.4503 298.438 63.2656 298.786 63.1399C299.142 63.0069 299.535 62.9404 299.965 62.9404C300.195 62.9404 300.421 62.9626 300.643 63.0069C300.866 63.0439 301.062 63.1141 301.233 63.2175L301.144 63.9491C301.106 64.0673 301.036 64.1265 300.932 64.1265C300.843 64.1265 300.706 64.1006 300.521 64.0489C300.343 63.9971 300.106 63.9713 299.809 63.9713C299.379 63.9713 298.997 64.0378 298.664 64.1708C298.338 64.2964 298.041 64.4886 297.774 64.7472C297.515 65.0058 297.285 65.3273 297.085 65.7116C296.892 66.0884 296.714 66.5244 296.551 67.0196V74.1581H295.484V63.1288H296.051C296.177 63.1288 296.266 63.1547 296.318 63.2064C296.369 63.2582 296.403 63.3468 296.418 63.4725L296.495 65.7892Z" fill="#333333"/>
</svg>
